<svg width="80" height="81" viewBox="0 0 80 81" fill="none" xmlns="http://www.w3.org/2000/svg">
<g clip-path="url(#clip0_1164_1084)">
<rect y="0.894531" width="80" height="80" rx="8" fill="white"/>
<path d="M65.7812 16.5195H64.375V19.332H60.625V16.5195H53.125V19.332H49.375V16.5195H41.875V19.332H38.125V16.5195H30.625V19.332H26.875V16.5195H19.375V19.332H15.625V16.5195H14.2188C13.9109 16.5194 13.6061 16.58 13.3217 16.6978C13.0373 16.8155 12.7789 16.9881 12.5613 17.2058C12.3436 17.4234 12.171 17.6819 12.0532 17.9663C11.9355 18.2507 11.8749 18.5555 11.875 18.8633V22.1445H68.125V18.8633C68.1251 18.5555 68.0645 18.2507 67.9468 17.9663C67.829 17.6819 67.6564 17.4234 67.4387 17.2058C67.2211 16.9881 66.9627 16.8155 66.6783 16.6978C66.3939 16.58 66.0891 16.5194 65.7812 16.5195Z" fill="#4A8ADE"/>
<path d="M58.75 49.332C58.75 45.6236 57.6503 41.9985 55.5901 38.9151C53.5298 35.8317 50.6014 33.4284 47.1753 32.0093C43.7492 30.5902 39.9792 30.2188 36.3421 30.9423C32.7049 31.6658 29.364 33.4516 26.7418 36.0738C24.1195 38.696 22.3338 42.037 21.6103 45.6741C20.8868 49.3112 21.2581 53.0812 22.6773 56.5074C24.0964 59.9335 26.4996 62.8618 29.5831 64.9221C32.6665 66.9824 36.2916 68.082 40 68.082C42.4623 68.0821 44.9005 67.5972 47.1754 66.655C49.4503 65.7127 51.5173 64.3316 53.2585 62.5905C54.9996 60.8494 56.3807 58.7824 57.3229 56.5075C58.2652 54.2326 58.7501 51.7944 58.75 49.332ZM29.725 52.8207L32.377 50.1688L35.691 53.484L47.6231 41.5508L50.275 44.2027L35.691 58.7867L29.725 52.8207Z" fill="#4A8ADE"/>
<path d="M65.7812 15.582H65.3125V13.707C65.3125 13.4584 65.2137 13.2199 65.0379 13.0441C64.8621 12.8683 64.6236 12.7695 64.375 12.7695H60.625C60.3764 12.7695 60.1379 12.8683 59.9621 13.0441C59.7863 13.2199 59.6875 13.4584 59.6875 13.707V15.582H54.0625V13.707C54.0625 13.4584 53.9637 13.2199 53.7879 13.0441C53.6121 12.8683 53.3736 12.7695 53.125 12.7695H49.375C49.1264 12.7695 48.8879 12.8683 48.7121 13.0441C48.5363 13.2199 48.4375 13.4584 48.4375 13.707V15.582H42.8125V13.707C42.8125 13.4584 42.7137 13.2199 42.5379 13.0441C42.3621 12.8683 42.1236 12.7695 41.875 12.7695H38.125C37.8764 12.7695 37.6379 12.8683 37.4621 13.0441C37.2863 13.2199 37.1875 13.4584 37.1875 13.707V15.582H31.5625V13.707C31.5625 13.4584 31.4637 13.2199 31.2879 13.0441C31.1121 12.8683 30.8736 12.7695 30.625 12.7695H26.875C26.6264 12.7695 26.3879 12.8683 26.2121 13.0441C26.0363 13.2199 25.9375 13.4584 25.9375 13.707V15.582H20.3125V13.707C20.3125 13.4584 20.2137 13.2199 20.0379 13.0441C19.8621 12.8683 19.6236 12.7695 19.375 12.7695H15.625C15.3764 12.7695 15.1379 12.8683 14.9621 13.0441C14.7863 13.2199 14.6875 13.4584 14.6875 13.707V15.582H14.2188C13.3488 15.583 12.5148 15.929 11.8996 16.5441C11.2845 17.1593 10.9385 17.9933 10.9375 18.8633V60.1133C10.9385 60.9832 11.2845 61.8173 11.8996 62.4324C12.5148 63.0476 13.3488 63.3936 14.2188 63.3945H26.2363C29.9104 66.9998 34.8525 69.0195 40 69.0195C45.1475 69.0195 50.0896 66.9998 53.7637 63.3945H65.7812C66.6512 63.3936 67.4852 63.0476 68.1004 62.4324C68.7155 61.8173 69.0615 60.9832 69.0625 60.1133V18.8633C69.0615 17.9933 68.7155 17.1593 68.1004 16.5441C67.4852 15.929 66.6512 15.583 65.7812 15.582ZM61.5625 14.6445H63.4375V18.3945H61.5625V14.6445ZM50.3125 14.6445H52.1875V18.3945H50.3125V14.6445ZM39.0625 14.6445H40.9375V18.3945H39.0625V14.6445ZM27.8125 14.6445H29.6875V18.3945H27.8125V14.6445ZM16.5625 14.6445H18.4375V18.3945H16.5625V14.6445ZM40 67.1445C30.1785 67.1445 22.1875 59.1535 22.1875 49.332C22.1875 39.5105 30.1785 31.5195 40 31.5195C49.8215 31.5195 57.8125 39.5105 57.8125 49.332C57.8125 59.1535 49.8215 67.1445 40 67.1445ZM67.1875 60.1133C67.1872 60.4861 67.0389 60.8437 66.7753 61.1073C66.5116 61.371 66.1541 61.5192 65.7812 61.5195H55.4512C58.1985 58.0517 59.6916 53.7563 59.6875 49.332C59.6875 38.4758 50.8563 29.6445 40 29.6445C29.1437 29.6445 20.3125 38.4758 20.3125 49.332C20.3084 53.7563 21.8015 58.0517 24.5488 61.5195H14.2188C13.8459 61.5192 13.4884 61.371 13.2247 61.1073C12.9611 60.8437 12.8128 60.4861 12.8125 60.1133V23.082H67.1875V60.1133ZM67.1875 21.207H12.8125V18.8633C12.8128 18.4904 12.9611 18.1329 13.2247 17.8693C13.4884 17.6056 13.8459 17.4573 14.2188 17.457H14.6875V19.332C14.6875 19.5807 14.7863 19.8191 14.9621 19.9949C15.1379 20.1708 15.3764 20.2695 15.625 20.2695H19.375C19.6236 20.2695 19.8621 20.1708 20.0379 19.9949C20.2137 19.8191 20.3125 19.5807 20.3125 19.332V17.457H25.9375V19.332C25.9375 19.5807 26.0363 19.8191 26.2121 19.9949C26.3879 20.1708 26.6264 20.2695 26.875 20.2695H30.625C30.8736 20.2695 31.1121 20.1708 31.2879 19.9949C31.4637 19.8191 31.5625 19.5807 31.5625 19.332V17.457H37.1875V19.332C37.1875 19.5807 37.2863 19.8191 37.4621 19.9949C37.6379 20.1708 37.8764 20.2695 38.125 20.2695H41.875C42.1236 20.2695 42.3621 20.1708 42.5379 19.9949C42.7137 19.8191 42.8125 19.5807 42.8125 19.332V17.457H48.4375V19.332C48.4375 19.5807 48.5363 19.8191 48.7121 19.9949C48.8879 20.1708 49.1264 20.2695 49.375 20.2695H53.125C53.3736 20.2695 53.6121 20.1708 53.7879 19.9949C53.9637 19.8191 54.0625 19.5807 54.0625 19.332V17.457H59.6875V19.332C59.6875 19.5807 59.7863 19.8191 59.9621 19.9949C60.1379 20.1708 60.3764 20.2695 60.625 20.2695H64.375C64.6236 20.2695 64.8621 20.1708 65.0379 19.9949C65.2137 19.8191 65.3125 19.5807 65.3125 19.332V17.457H65.7812C66.1541 17.4573 66.5116 17.6056 66.7753 17.8693C67.0389 18.1329 67.1872 18.4904 67.1875 18.8633V21.207Z" fill="#1857AA"/>
<path d="M40 35.2695C40.2486 35.2695 40.4871 35.1708 40.6629 34.9949C40.8387 34.8191 40.9375 34.5807 40.9375 34.332C40.9375 34.0834 40.8387 33.8449 40.6629 33.6691C40.4871 33.4933 40.2486 33.3945 40 33.3945C31.212 33.3945 24.0625 40.544 24.0625 49.332C24.0625 49.5807 24.1613 49.8191 24.3371 49.9949C24.5129 50.1708 24.7514 50.2695 25 50.2695C25.2486 50.2695 25.4871 50.1708 25.6629 49.9949C25.8387 49.8191 25.9375 49.5807 25.9375 49.332C25.9417 45.6037 27.4247 42.0293 30.061 39.393C32.6973 36.7567 36.2717 35.2737 40 35.2695Z" fill="#1857AA"/>
<path d="M48.2864 40.8878C48.1106 40.712 47.8721 40.6133 47.6235 40.6133C47.3749 40.6133 47.1365 40.712 46.9606 40.8878L35.6911 52.1574L33.0391 49.5057C32.8633 49.3299 32.6249 49.2311 32.3762 49.2311C32.1276 49.2311 31.8892 49.3299 31.7134 49.5057L29.0617 52.1574C28.8859 52.3332 28.7871 52.5716 28.7871 52.8203C28.7871 53.0689 28.8859 53.3073 29.0617 53.4831L35.0279 59.4494C35.2037 59.6252 35.4422 59.7239 35.6908 59.7239C35.9394 59.7239 36.1778 59.6252 36.3536 59.4494L50.9381 44.8653C51.1139 44.6895 51.2126 44.451 51.2126 44.2024C51.2126 43.9538 51.1139 43.7154 50.9381 43.5395L48.2864 40.8878ZM35.6911 57.4607L31.0504 52.8201L32.3763 51.4942L35.028 54.1458C35.2038 54.3216 35.4423 54.4204 35.6909 54.4204C35.9395 54.4204 36.178 54.3216 36.3538 54.1458L47.6233 42.8764L48.9492 44.2021L35.6911 57.4607Z" fill="#1857AA"/>
</g>
<defs>
<clipPath id="clip0_1164_1084">
<rect width="80" height="80" fill="white" transform="translate(0 0.894531)"/>
</clipPath>
</defs>
</svg>
