<svg width="66" height="65" viewBox="0 0 66 65" fill="none" xmlns="http://www.w3.org/2000/svg">
<g clip-path="url(#clip0_1092_5120)">
<rect x="0.5" width="65" height="65" rx="8" fill="white"/>
<path d="M48.7734 27.9595V35.7013L33.1528 43.7638H32.8941L17.2734 35.7013V27.9595L9.77344 31.8304V55.8304H56.2734V31.8304L48.7734 27.9595Z" fill="#4A8ADE"/>
<path d="M21.7969 9.30713L17.2969 13.8071H21.7969V9.30713Z" fill="#4A8ADE"/>
<path d="M56.5941 31.0834L49.5 27.4225V9.25C49.5 9.05109 49.421 8.86032 49.2803 8.71967C49.1397 8.57902 48.9489 8.5 48.75 8.5H21.75C21.551 8.49993 21.3602 8.57883 21.2194 8.71938L16.7194 13.2194C16.5788 13.3602 16.4999 13.551 16.5 13.75V27.4225L9.40594 31.0834C9.28362 31.1466 9.18104 31.2422 9.10944 31.3598C9.03784 31.4773 8.99997 31.6123 9 31.75L9 55.75C9 55.9489 9.07902 56.1397 9.21967 56.2803C9.36032 56.421 9.55109 56.5 9.75 56.5H56.25C56.4489 56.5 56.6397 56.421 56.7803 56.2803C56.921 56.1397 57 55.9489 57 55.75V31.75C57 31.6123 56.9622 31.4773 56.8906 31.3598C56.819 31.2422 56.7164 31.1466 56.5941 31.0834ZM49.5 29.11L54.615 31.75L49.5 34.39V29.11ZM21.0234 11.0378V12.9766H19.0837L21.0234 11.0378ZM18 14.4766H21.7734C21.9724 14.4766 22.1631 14.3975 22.3038 14.2569C22.4444 14.1162 22.5234 13.9255 22.5234 13.7266V10H48V35.1644L33 42.9062L18 35.1644V14.4766ZM16.5 29.11V34.39L11.385 31.75L16.5 29.11ZM10.5 55V32.9809L28.2581 42.1469L12.4828 55H10.5ZM14.8575 55L29.7122 42.8969L32.6559 44.4166C32.7623 44.4714 32.8803 44.5 33 44.5C33.1197 44.5 33.2377 44.4714 33.3441 44.4166L36.2878 42.8969L51.1425 55H14.8575ZM55.5 55H53.5172L37.7419 42.1469L55.5 32.9809V55Z" fill="#1857AA"/>
<path d="M33 31.75C33.8897 31.7522 34.7686 31.5548 35.5718 31.1723C35.7515 31.087 35.8899 30.9337 35.9566 30.7463C36.0233 30.5589 36.0128 30.3527 35.9275 30.173C35.8421 29.9933 35.6889 29.8549 35.5015 29.7882C35.3141 29.7215 35.1078 29.732 34.9282 29.8173C34.3259 30.104 33.667 30.2518 33 30.25C31.8069 30.2487 30.6631 29.7741 29.8195 28.9305C28.9759 28.0869 28.5013 26.9431 28.5 25.75V24.25C28.5 23.0565 28.9741 21.9119 29.818 21.068C30.6619 20.2241 31.8065 19.75 33 19.75C34.1935 19.75 35.3381 20.2241 36.182 21.068C37.0259 21.9119 37.5 23.0565 37.5 24.25V25.75C37.5001 26.0459 37.4712 26.341 37.4138 26.6312C37.4033 26.6839 37.381 26.7335 37.3485 26.7763C37.316 26.8191 37.2743 26.8539 37.2263 26.8782C37.1772 26.9046 37.1227 26.9195 37.067 26.9217C37.0112 26.924 36.9557 26.9135 36.9046 26.8911C36.2879 26.6232 36.0589 26.4346 35.9875 26.3638C35.9803 26.3255 35.9702 26.2879 35.9571 26.2513C35.9854 26.0857 35.9998 25.918 36 25.75V24.25C36 23.4544 35.6839 22.6913 35.1213 22.1287C34.5587 21.5661 33.7956 21.25 33 21.25C32.2044 21.25 31.4413 21.5661 30.8787 22.1287C30.3161 22.6913 30 23.4544 30 24.25V25.75C29.9996 26.3619 30.1865 26.9594 30.5355 27.462C30.8845 27.9646 31.379 28.3484 31.9525 28.5618C32.5261 28.7752 33.1512 28.808 33.7439 28.6558C34.3366 28.5036 34.8685 28.1736 35.2682 27.7102C35.595 27.9302 35.9431 28.1168 36.3071 28.2673C36.5627 28.3784 36.8399 28.4309 37.1184 28.4211C37.3969 28.4113 37.6697 28.3393 37.9168 28.2105C38.1639 28.0817 38.3791 27.8993 38.5467 27.6766C38.7142 27.454 38.8299 27.1967 38.8853 26.9236C38.9617 26.5371 39.0002 26.144 39 25.75V24.25C39 22.6587 38.3679 21.1326 37.2426 20.0074C36.1174 18.8821 34.5913 18.25 33 18.25C31.4087 18.25 29.8826 18.8821 28.7574 20.0074C27.6321 21.1326 27 22.6587 27 24.25V25.75C27.0018 27.3408 27.6345 28.8658 28.7593 29.9907C29.8842 31.1155 31.4092 31.7482 33 31.75ZM33 27.25C32.6023 27.2495 32.2211 27.0913 31.9399 26.8101C31.6587 26.5289 31.5005 26.1477 31.5 25.75V24.25C31.5 23.8522 31.658 23.4706 31.9393 23.1893C32.2206 22.908 32.6022 22.75 33 22.75C33.3978 22.75 33.7794 22.908 34.0607 23.1893C34.342 23.4706 34.5 23.8522 34.5 24.25V25.75C34.4995 26.1477 34.3413 26.5289 34.0601 26.8101C33.7789 27.0913 33.3977 27.2495 33 27.25Z" fill="#1857AA"/>
</g>
<defs>
<clipPath id="clip0_1092_5120">
<rect width="65" height="65" fill="white" transform="translate(0.5)"/>
</clipPath>
</defs>
</svg>
