<svg width="80" height="80" viewBox="0 0 80 80" fill="none" xmlns="http://www.w3.org/2000/svg">
<g clip-path="url(#clip0_2404_5637)">
<rect width="80" height="80" rx="8" fill="white"/>
<path d="M55.9516 62.5H48.5383C48.7758 62.1392 48.8816 61.7075 48.8378 61.2778C48.7941 60.848 48.6034 60.4466 48.2981 60.141L45.2829 56.8668C45.3965 56.8727 45.5102 56.875 45.625 56.875C47.1084 56.875 48.5585 56.4351 49.7918 55.611C51.0252 54.7869 51.9865 53.6156 52.5541 52.2451C53.1218 50.8747 53.2703 49.3667 52.9809 47.9118C52.6916 46.457 51.9772 45.1206 50.9283 44.0717C49.8795 43.0228 48.5431 42.3085 47.0882 42.0191C45.6334 41.7297 44.1254 41.8782 42.7549 42.4459C41.3845 43.0136 40.2131 43.9749 39.389 45.2082C38.5649 46.4416 38.125 47.8916 38.125 49.375C38.1249 50.0065 38.2036 50.6356 38.3594 51.2477L35.3172 51.2547H32.4895L37.1875 36.25H53.9454L60.5958 57.1738C60.687 57.8371 60.635 58.5123 60.4435 59.1539C60.2519 59.7954 59.925 60.3885 59.485 60.8931C59.045 61.3978 58.5019 61.8023 57.8925 62.0795C57.283 62.3567 56.6212 62.5001 55.9516 62.5Z" fill="#3B83E3"/>
<path d="M54.618 25.8004L53.125 32.5H50.3125V23.125H52.2977C52.6335 23.125 52.9654 23.1971 53.2709 23.3366C53.5764 23.476 53.8484 23.6794 54.0684 23.9331C54.2884 24.1868 54.4514 24.4849 54.5462 24.807C54.641 25.1292 54.6655 25.4679 54.618 25.8004Z" fill="#3B83E3"/>
<path d="M50.3124 21.7188V32.5H38.1249L37.1242 28.007L36.632 25.8004C36.5845 25.4679 36.6089 25.1292 36.7038 24.807C36.7986 24.4849 36.9615 24.1868 37.1815 23.9331C37.4016 23.6794 37.6735 23.476 37.9791 23.3366C38.2846 23.1971 38.6165 23.125 38.9523 23.125H44.6874V21.7188C44.6874 21.4109 44.7479 21.1061 44.8657 20.8217C44.9834 20.5373 45.1561 20.2789 45.3737 20.0613C45.5914 19.8436 45.8498 19.671 46.1342 19.5532C46.4186 19.4355 46.7234 19.3749 47.0312 19.375H47.9687C48.2765 19.3749 48.5813 19.4355 48.8657 19.5532C49.1501 19.671 49.4085 19.8436 49.6262 20.0613C49.8438 20.2789 50.0165 20.5373 50.1342 20.8217C50.252 21.1061 50.3125 21.4109 50.3124 21.7188Z" fill="#3B83E3"/>
<path d="M20.3125 48.4375H25V63.4375H20.3125V48.4375Z" fill="#3B83E3"/>
<path d="M30.625 30.625C35.8027 30.625 40 26.4277 40 21.25C40 16.0723 35.8027 11.875 30.625 11.875C25.4473 11.875 21.25 16.0723 21.25 21.25C21.25 26.4277 25.4473 30.625 30.625 30.625Z" fill="#3B83E3"/>
<path d="M59.5305 62.1519C60.2713 61.5421 60.8435 60.7526 61.1924 59.8587C61.5414 58.9649 61.6555 57.9966 61.5238 57.0461C61.5168 56.9932 61.5051 56.941 61.4887 56.8902L55.157 36.966C55.7362 36.7208 56.2165 36.2886 56.5212 35.7384C56.8258 35.1881 56.9373 34.5517 56.8377 33.9307C56.7381 33.3096 56.4332 32.7399 55.9718 32.3126C55.5104 31.8852 54.919 31.6248 54.2922 31.573L55.5332 26.0043C55.5379 25.9809 55.5426 25.9574 55.5461 25.9328C55.6126 25.4674 55.5783 24.9931 55.4455 24.5422C55.3128 24.0912 55.0846 23.674 54.7766 23.3188C54.4686 22.9637 54.0878 22.6788 53.6601 22.4837C53.2324 22.2885 52.7678 22.1875 52.2977 22.1875H51.25V21.7187C51.249 20.8488 50.903 20.0148 50.2879 19.3996C49.6727 18.7845 48.8387 18.4385 47.9688 18.4375H47.0312C46.1613 18.4385 45.3273 18.7845 44.7121 19.3996C44.097 20.0148 43.751 20.8488 43.75 21.7187V22.1875H40.8941C40.9223 21.8781 40.9375 21.5664 40.9375 21.25C40.9396 18.9386 40.1659 16.6934 38.7403 14.874C37.3146 13.0547 35.3196 11.7665 33.0748 11.2158C30.83 10.6651 28.4652 10.8838 26.3595 11.8368C24.2537 12.7898 22.5288 14.4221 21.461 16.472C20.3932 18.522 20.0443 20.871 20.4703 23.1428C20.8963 25.4146 22.0725 27.4777 23.8104 29.0015C25.5483 30.5254 27.7474 31.4219 30.0554 31.5473C32.3633 31.6727 34.6466 31.0199 36.5395 29.6934L36.9578 31.573C36.3399 31.6235 35.756 31.8767 35.2969 32.2933C34.8379 32.71 34.5294 33.2667 34.4195 33.8768C34.3096 34.487 34.4045 35.1163 34.6893 35.667C34.9742 36.2176 35.433 36.6587 35.9945 36.9215L31.8004 50.3172H25.9375V48.4375C25.9375 48.1889 25.8387 47.9504 25.6629 47.7746C25.4871 47.5988 25.2486 47.5 25 47.5H20.3125C20.0639 47.5 19.8254 47.5988 19.6496 47.7746C19.4738 47.9504 19.375 48.1889 19.375 48.4375V63.4375C19.375 63.6861 19.4738 63.9246 19.6496 64.1004C19.8254 64.2762 20.0639 64.375 20.3125 64.375H25C25.2486 64.375 25.4871 64.2762 25.6629 64.1004C25.8387 63.9246 25.9375 63.6861 25.9375 63.4375V61.5672H27.9848C28.2309 61.5674 28.4672 61.6636 28.6434 61.8355L35.1684 68.2644C35.6939 68.7799 36.401 69.0682 37.1371 69.0672H57.8172C58.5628 69.0662 59.2776 68.7696 59.8048 68.2423C60.3321 67.7151 60.6287 67.0003 60.6297 66.2547V64.3797C60.6298 63.9489 60.5306 63.5239 60.34 63.1376C60.1494 62.7512 59.8724 62.414 59.5305 62.1519ZM24.0625 62.5H21.25V49.375H24.0625V62.5ZM51.25 24.0625H52.2977C52.4964 24.0628 52.6929 24.1051 52.8741 24.1867C53.0553 24.2684 53.2172 24.3874 53.3492 24.536C53.4811 24.6847 53.5801 24.8596 53.6396 25.0492C53.6991 25.2389 53.7178 25.4389 53.6945 25.6363L52.3738 31.5625H51.25V24.0625ZM43.75 24.0625V27.8125C43.75 28.0611 43.8488 28.2996 44.0246 28.4754C44.2004 28.6512 44.4389 28.75 44.6875 28.75C44.9361 28.75 45.1746 28.6512 45.3504 28.4754C45.5262 28.2996 45.625 28.0611 45.625 27.8125V21.7187C45.6253 21.3459 45.7736 20.9884 46.0372 20.7247C46.3009 20.4611 46.6584 20.3128 47.0312 20.3125H47.9688C48.3416 20.3128 48.6991 20.4611 48.9628 20.7247C49.2264 20.9884 49.3747 21.3459 49.375 21.7187V31.5625H45.625V30.625C45.625 30.3764 45.5262 30.1379 45.3504 29.9621C45.1746 29.7863 44.9361 29.6875 44.6875 29.6875C44.4389 29.6875 44.2004 29.7863 44.0246 29.9621C43.8488 30.1379 43.75 30.3764 43.75 30.625V31.5625H38.8762L38.1484 28.2941C39.2745 27.0954 40.097 25.6443 40.5473 24.0625H43.75ZM30.625 29.6875C28.8855 29.6864 27.189 29.1473 25.7679 28.1441C24.3468 27.141 23.2707 25.7229 22.6872 24.0842C22.1036 22.4456 22.0411 20.6665 22.5083 18.9909C22.9755 17.3154 23.9494 15.8253 25.2966 14.7249C26.6439 13.6246 28.2984 12.9678 30.0336 12.8447C31.7687 12.7215 33.4994 13.138 34.9885 14.0371C36.4777 14.9361 37.6523 16.2737 38.3514 17.8665C39.0506 19.4593 39.24 21.2293 38.8937 22.934C38.8928 22.9362 38.8924 22.9386 38.8926 22.941C38.5002 24.8446 37.4637 26.5548 35.9579 27.7837C34.452 29.0125 32.5686 29.6848 30.625 29.6875ZM37.1875 33.4375H54.0625C54.3111 33.4375 54.5496 33.5363 54.7254 33.7121C54.9012 33.8879 55 34.1264 55 34.375C55 34.6236 54.9012 34.8621 54.7254 35.0379C54.5496 35.2137 54.3111 35.3125 54.0625 35.3125H37.1875C36.9389 35.3125 36.7004 35.2137 36.5246 35.0379C36.3488 34.8621 36.25 34.6236 36.25 34.375C36.25 34.1264 36.3488 33.8879 36.5246 33.7121C36.7004 33.5363 36.9389 33.4375 37.1875 33.4375ZM58.7547 66.2547C58.7543 66.5032 58.6555 66.7415 58.4797 66.9172C58.304 67.093 58.0657 67.1918 57.8172 67.1922H37.1371C36.8924 67.1925 36.6572 67.097 36.482 66.9262L29.9594 60.5008C29.4341 59.9806 28.724 59.6898 27.9848 59.6922H25.9422V52.1922H35.3184L39.2816 52.1828H39.284C39.4135 52.1829 39.5416 52.2099 39.6601 52.2619C39.7787 52.3139 39.8853 52.3899 39.973 52.4852L47.6078 60.7762C47.6162 60.7857 47.6252 60.7947 47.6348 60.8031C47.7875 60.9563 47.8827 61.1573 47.9045 61.3725C47.9262 61.5877 47.8732 61.8037 47.7543 61.9844H47.7531C47.7187 62.0367 47.6791 62.0854 47.6348 62.1297L46.3094 63.4551C46.1333 63.6307 45.8948 63.7293 45.6461 63.7293C45.3974 63.7293 45.1589 63.6307 44.9828 63.4551L39.0168 57.4891C38.9306 57.3983 38.8271 57.3258 38.7125 57.2757C38.5978 57.2256 38.4743 57.199 38.3491 57.1974C38.224 57.1958 38.0998 57.2192 37.9839 57.2664C37.868 57.3135 37.7627 57.3834 37.6742 57.4719C37.5857 57.5604 37.5159 57.6657 37.4687 57.7816C37.4216 57.8975 37.3981 58.0217 37.3997 58.1468C37.4013 58.2719 37.4279 58.3954 37.478 58.5101C37.5281 58.6248 37.6007 58.7283 37.6914 58.8144L43.6574 64.7805C44.1849 65.3079 44.9002 65.6042 45.6461 65.6042C46.392 65.6042 47.1073 65.3079 47.6348 64.7805L48.9602 63.4551C48.9648 63.4516 48.9684 63.4457 48.973 63.4422H57.8172C58.0658 63.4422 58.3043 63.541 58.4801 63.7168C58.6559 63.8926 58.7547 64.131 58.7547 64.3797V66.2547ZM39.0625 49.375C39.0621 48.0802 39.4448 46.8142 40.1623 45.7363C40.8799 44.6585 41.9003 43.8171 43.095 43.3179C44.2897 42.8187 45.6054 42.6841 46.8765 42.931C48.1476 43.178 49.3172 43.7954 50.2381 44.7056C51.159 45.6158 51.7901 46.7781 52.0519 48.0462C52.3138 49.3142 52.1946 50.6314 51.7094 51.8319C51.2243 53.0324 50.3948 54.0626 49.3255 54.7927C48.2562 55.5229 46.9947 55.9204 45.7 55.9352L41.3535 51.216C41.0898 50.9301 40.7699 50.7018 40.4137 50.5455C40.0576 50.3892 39.6729 50.3083 39.284 50.3078H39.2781L39.1305 50.309C39.0861 49.9996 39.0634 49.6875 39.0625 49.375ZM55.9516 61.5625H49.7816C49.7946 61.1809 49.7298 60.8006 49.5912 60.4449C49.4526 60.0891 49.2431 59.7652 48.9754 59.493L47.2773 57.6484C48.8445 57.3355 50.2905 56.5839 51.4471 55.4812C52.6038 54.3785 53.4235 52.97 53.8108 51.4196C54.1982 49.8692 54.1374 48.2407 53.6353 46.7236C53.1333 45.2064 52.2107 43.8631 50.975 42.8498C49.7392 41.8365 48.2411 41.195 46.655 40.9999C45.0689 40.8048 43.46 41.0642 42.0156 41.7478C40.5711 42.4314 39.3505 43.5112 38.4958 44.8614C37.6411 46.2117 37.1874 47.7769 37.1875 49.375C37.1881 49.6882 37.2057 50.0012 37.2402 50.3125L35.3172 50.3172H33.7656L37.8766 37.1875H40.9375V39.0625C40.9375 39.3111 41.0363 39.5496 41.2121 39.7254C41.3879 39.9012 41.6264 40 41.875 40C42.1236 40 42.3621 39.9012 42.5379 39.7254C42.7137 39.5496 42.8125 39.3111 42.8125 39.0625V37.1875H53.2598L59.677 57.3766C59.7384 57.9023 59.6878 58.435 59.5286 58.9398C59.3694 59.4445 59.1052 59.9099 58.7533 60.3053C58.4015 60.7007 57.9699 61.0171 57.487 61.2338C57.0041 61.4504 56.4808 61.5625 55.9516 61.5625Z" fill="#1855A5"/>
<path d="M43.75 51.25C43.5014 51.25 43.2629 51.3488 43.0871 51.5246C42.9113 51.7004 42.8125 51.9389 42.8125 52.1875C42.8125 52.4361 42.9113 52.6746 43.0871 52.8504C43.2629 53.0262 43.5014 53.125 43.75 53.125H44.6875C44.6875 53.3736 44.7863 53.6121 44.9621 53.7879C45.1379 53.9637 45.3764 54.0625 45.625 54.0625C45.8736 54.0625 46.1121 53.9637 46.2879 53.7879C46.4637 53.6121 46.5625 53.3736 46.5625 53.125H47.5C47.7486 53.125 47.9871 53.0262 48.1629 52.8504C48.3387 52.6746 48.4375 52.4361 48.4375 52.1875V49.375C48.4375 49.1264 48.3387 48.8879 48.1629 48.7121C47.9871 48.5363 47.7486 48.4375 47.5 48.4375H44.6875V47.5H47.5C47.7486 47.5 47.9871 47.4012 48.1629 47.2254C48.3387 47.0496 48.4375 46.8111 48.4375 46.5625C48.4375 46.3139 48.3387 46.0754 48.1629 45.8996C47.9871 45.7238 47.7486 45.625 47.5 45.625H46.5625C46.5625 45.3764 46.4637 45.1379 46.2879 44.9621C46.1121 44.7863 45.8736 44.6875 45.625 44.6875C45.3764 44.6875 45.1379 44.7863 44.9621 44.9621C44.7863 45.1379 44.6875 45.3764 44.6875 45.625H43.75C43.5014 45.625 43.2629 45.7238 43.0871 45.8996C42.9113 46.0754 42.8125 46.3139 42.8125 46.5625V49.375C42.8125 49.6236 42.9113 49.8621 43.0871 50.0379C43.2629 50.2137 43.5014 50.3125 43.75 50.3125H46.5625V51.25H43.75Z" fill="#1855A5"/>
<path d="M34.6496 17.7746L29.568 22.8562L27.3951 21.4075C27.2927 21.3384 27.1776 21.2903 27.0565 21.2658C26.9354 21.2413 26.8107 21.241 26.6895 21.2649C26.5683 21.2888 26.453 21.3364 26.3503 21.405C26.2475 21.4736 26.1594 21.5618 26.0908 21.6646C26.0223 21.7674 25.9748 21.8827 25.9509 22.0039C25.9271 22.1252 25.9275 22.2499 25.952 22.371C25.9766 22.492 26.0248 22.6071 26.0939 22.7094C26.1631 22.8118 26.2518 22.8995 26.3549 22.9675L29.1674 24.8425C29.3478 24.9627 29.5642 25.0167 29.7799 24.9954C29.9956 24.974 30.1972 24.8786 30.3504 24.7253L35.9754 19.1003C36.1513 18.9245 36.25 18.686 36.25 18.4374C36.25 18.1887 36.1513 17.9503 35.9754 17.7744C35.7996 17.5986 35.5612 17.4998 35.3125 17.4998C35.0639 17.4998 34.8254 17.5987 34.6496 17.7746Z" fill="#1855A5"/>
</g>
<defs>
<clipPath id="clip0_2404_5637">
<rect width="80" height="80" fill="white"/>
</clipPath>
</defs>
</svg>
