<svg width="80" height="81" viewBox="0 0 80 81" fill="none" xmlns="http://www.w3.org/2000/svg">
<g clip-path="url(#clip0_1164_1418)">
<rect y="0.916992" width="80" height="80" rx="8" fill="white"/>
<path d="M41.0647 33.1748H37.1937C28.6423 33.1748 21.7097 40.1073 21.7097 48.6588V69.9492H56.5487V48.6588C56.5487 40.1073 49.6166 33.1748 41.0647 33.1748ZM39.1292 67.046L33.3227 46.7233L37.1937 43.82L34.2904 39.949L39.1292 36.0781L43.9679 39.949L41.0647 43.82L44.9357 46.7233L39.1292 67.046Z" fill="#4A8ADE"/>
<path d="M52.9962 33.5259C56.1508 32.7131 58.6226 30.2645 59.4656 27.1179C60.3082 23.9713 59.391 20.6149 57.0652 18.3339C54.7394 16.0535 51.3655 15.2025 48.2359 16.1064C46.3486 12.9225 42.9355 10.9549 39.2341 10.9175C35.5323 10.8802 32.0804 12.7788 30.1293 15.9245C29.5873 15.8172 29.0368 15.7605 28.484 15.7553C23.9368 15.7544 20.0984 19.1363 19.5262 23.6476C18.9544 28.1589 21.8265 32.3913 26.2305 33.5259C18.8325 33.8723 13.0099 39.9656 13 47.3716V65.1105C13 65.6449 13.4333 66.0782 13.9677 66.0782H20.742V69.9492C20.742 70.4837 21.1753 70.917 21.7097 70.917H56.5487C57.0836 70.917 57.5164 70.4837 57.5164 69.9492V66.0782H65.2584C65.7933 66.0782 66.2262 65.6449 66.2262 65.1105V47.3716C66.2167 39.9656 60.3942 33.8723 52.9962 33.5259ZM41.0647 32.2071H37.1937C35.5606 32.2071 33.9365 32.4504 32.3753 32.93C33.2608 32.5047 34.0712 31.9377 34.7743 31.2521C37.7674 32.6323 41.2372 32.5109 44.1258 30.9237C45.2868 32.1815 46.7828 33.0812 48.4381 33.5164C48.173 33.5301 47.9023 33.5533 47.6282 33.5831C45.559 32.6753 43.3244 32.2071 41.0647 32.2071ZM50.7422 17.6908C53.9464 17.6889 56.7542 19.8333 57.5963 22.9246C58.4379 26.0159 57.1039 29.2882 54.3415 30.9104C51.5786 32.5326 48.0714 32.1031 45.7815 29.8623C49.36 27.0026 50.7034 22.1723 49.1157 17.8756C49.6492 17.7518 50.195 17.6899 50.7422 17.6908ZM39.1292 12.8521C42.4454 12.8398 45.4763 14.7243 46.9326 17.7036V17.7093C48.9012 21.6818 47.5597 26.4998 43.821 28.8828C40.698 30.8873 36.6479 30.6912 33.7329 28.3951C30.8178 26.0991 29.679 22.2073 30.8958 18.7016C32.113 15.1963 35.4184 12.8478 39.1292 12.8521ZM21.3908 24.7845C21.395 20.8686 24.5681 17.6951 28.484 17.6908C28.725 17.6908 28.9603 17.714 29.1966 17.7371C27.4406 22.2857 29.009 27.4458 32.9986 30.2484C30.8854 32.0086 27.9429 32.3852 25.4541 31.2138C22.9653 30.0424 21.3809 27.5351 21.3908 24.7845ZM14.9355 64.1427V47.3716C14.9397 40.7816 20.2784 35.4392 26.8679 35.4297H27.4553C23.2398 38.5196 20.7472 43.4321 20.742 48.6588V64.1427H14.9355ZM55.5809 68.9815H22.6775V48.6588C22.6869 40.6456 29.1805 34.1515 37.1937 34.1426H41.0647C49.0784 34.1515 55.572 40.6456 55.5809 48.6588V68.9815ZM64.2907 64.1427H57.5164V48.6588C57.5117 43.4321 55.0191 38.5196 50.8036 35.4297H52.3587C58.9482 35.4392 64.2864 40.7816 64.2907 47.3716V64.1427Z" fill="#1857AA"/>
<path d="M42.4199 43.626L44.7424 40.5295C45.0562 40.1113 44.981 39.5196 44.5728 39.1927L39.734 35.3217C39.3806 35.0386 38.8783 35.0386 38.5243 35.3217L33.6856 39.1927C33.2778 39.5196 33.2027 40.1113 33.5164 40.5295L35.8389 43.626L32.7424 45.9489C32.422 46.1895 32.2831 46.6029 32.3927 46.988L38.1992 67.3108C38.3188 67.7252 38.6982 68.0111 39.1292 68.0111C39.5606 68.0111 39.94 67.7252 40.0596 67.3108L45.8661 46.988C45.9757 46.6029 45.8368 46.1895 45.5164 45.9489L42.4199 43.626ZM39.1292 63.5229L34.436 47.0977L37.7744 44.5937C38.2021 44.2733 38.289 43.6666 37.9682 43.239L35.6272 40.1188L39.1292 37.3162L42.6316 40.1231L40.2907 43.239C39.9698 43.6666 40.0568 44.2733 40.4844 44.5937L43.8228 47.0977L39.1292 63.5229Z" fill="#1857AA"/>
<path d="M53.6456 52.5293H46.8713C46.3369 52.5293 45.9036 52.9626 45.9036 53.497C45.9036 54.0315 46.3369 54.4648 46.8713 54.4648H53.6456C54.1805 54.4648 54.6133 54.0315 54.6133 53.497C54.6133 52.9626 54.1805 52.5293 53.6456 52.5293Z" fill="#1857AA"/>
</g>
<defs>
<clipPath id="clip0_1164_1418">
<rect width="80" height="80" fill="white" transform="translate(0 0.916992)"/>
</clipPath>
</defs>
</svg>
