<svg width="80" height="80" viewBox="0 0 80 80" fill="none" xmlns="http://www.w3.org/2000/svg">
<g clip-path="url(#clip0_2407_2034)">
<rect width="80" height="80" rx="8" fill="white"/>
<path d="M35.2152 59.2188L34.3176 58.7793L33.4375 59.2188H35.2152Z" fill="#3B83E3"/>
<path d="M34.375 14.6875C31.4268 14.6876 28.5786 15.7562 26.3579 17.6955C24.1373 19.6347 22.6948 22.3131 22.2977 25.2344H22.1875V29.6875C22.1875 29.6875 31.8988 27.6062 36.4047 25.2344C37.1371 24.8488 37.7312 24.4563 38.125 24.0625C38.125 24.0625 38.4484 24.5477 39.025 25.2344C40.4102 26.882 43.252 29.6875 46.5625 29.6875V25.2344H46.4523C46.0553 22.313 44.6128 19.6346 42.3922 17.6953C40.1715 15.7561 37.3232 14.6875 34.375 14.6875Z" fill="#3B83E3"/>
<path d="M34.3164 58.7008L34.2578 58.75L34.3176 58.7793L34.375 58.75L34.3164 58.7008Z" fill="#3B83E3"/>
<path d="M37.1875 62.5L36.25 59.6875L36.1762 59.6898L32.5 59.8047L31.5625 62.5L32.4414 62.793L31.5625 67.1875H37.3047L36.3156 62.7906L37.1875 62.5Z" fill="#3B83E3"/>
<path d="M47.5 53.125V67.1875H68.125V53.125H47.5ZM59.6875 59.6875H55.9375V55.9375H59.6875V59.6875Z" fill="#3B83E3"/>
<path d="M63.4375 48.9062C63.4375 48.5333 63.2893 48.1756 63.0256 47.9119C62.7619 47.6482 62.4042 47.5 62.0312 47.5H53.5938C53.2208 47.5 52.8631 47.6482 52.5994 47.9119C52.3357 48.1756 52.1875 48.5333 52.1875 48.9062V50.3125H63.4375V48.9062Z" fill="#3B83E3"/>
<path d="M37.7074 43.5925C37.8112 43.5248 37.9005 43.4372 37.9702 43.3348C38.0399 43.2324 38.0886 43.1171 38.1135 42.9958C38.1384 42.8744 38.139 42.7493 38.1152 42.6277C38.0915 42.5061 38.0439 42.3904 37.9752 42.2873C37.9064 42.1842 37.8179 42.0958 37.7148 42.0271C37.6117 41.9584 37.496 41.9109 37.3744 41.8872C37.2528 41.8635 37.1277 41.8641 37.0063 41.8891C36.885 41.914 36.7698 41.9628 36.6674 42.0325C35.1034 43.0755 33.6465 43.0755 32.0824 42.0325C31.98 41.9628 31.8648 41.914 31.7435 41.8891C31.6221 41.8641 31.497 41.8635 31.3754 41.8872C31.2538 41.9109 31.1381 41.9584 31.035 42.0271C30.9319 42.0958 30.8434 42.1842 30.7746 42.2873C30.7059 42.3904 30.6583 42.5061 30.6346 42.6277C30.6108 42.7493 30.6114 42.8744 30.6363 42.9958C30.6612 43.1171 30.7099 43.2324 30.7796 43.3348C30.8493 43.4372 30.9386 43.5248 31.0424 43.5925C32.1322 44.3191 33.2537 44.6824 34.375 44.6824C35.4962 44.6824 36.6173 44.3192 37.7074 43.5925Z" fill="#1855A5"/>
<path d="M28.75 32.5C28.5014 32.5 28.2629 32.5988 28.0871 32.7746C27.9113 32.9504 27.8125 33.1889 27.8125 33.4375V34.375C27.8125 34.6236 27.9113 34.8621 28.0871 35.0379C28.2629 35.2137 28.5014 35.3125 28.75 35.3125C28.9986 35.3125 29.2371 35.2137 29.4129 35.0379C29.5887 34.8621 29.6875 34.6236 29.6875 34.375V33.4375C29.6875 33.1889 29.5887 32.9504 29.4129 32.7746C29.2371 32.5988 28.9986 32.5 28.75 32.5Z" fill="#1855A5"/>
<path d="M40 35.3125C40.2486 35.3125 40.4871 35.2137 40.6629 35.0379C40.8387 34.8621 40.9375 34.6236 40.9375 34.375V33.4375C40.9375 33.1889 40.8387 32.9504 40.6629 32.7746C40.4871 32.5988 40.2486 32.5 40 32.5C39.7514 32.5 39.5129 32.5988 39.3371 32.7746C39.1613 32.9504 39.0625 33.1889 39.0625 33.4375V34.375C39.0625 34.6236 39.1613 34.8621 39.3371 35.0379C39.5129 35.2137 39.7514 35.3125 40 35.3125Z" fill="#1855A5"/>
<path d="M68.125 52.1875H64.375V48.9062C64.3744 48.2848 64.1273 47.6891 63.6879 47.2497C63.2484 46.8102 62.6527 46.5631 62.0313 46.5625H53.5938C53.1822 46.5631 52.7781 46.672 52.422 46.8783C52.0659 47.0847 51.7704 47.3811 51.5652 47.7379C51.4661 47.8255 51.3867 47.9332 51.3324 48.0538C51.278 48.1744 51.2499 48.3052 51.25 48.4375V52.1875H47.5C47.2514 52.1875 47.0129 52.2863 46.8371 52.4621C46.6613 52.6379 46.5625 52.8764 46.5625 53.125V55.2613L44.459 54.5605C44.3977 54.4446 44.3127 54.3428 44.2096 54.2619C44.1064 54.1809 43.9874 54.1226 43.8602 54.0906L40.9375 53.3594V50.425C42.9317 49.2729 44.5878 47.6165 45.7397 45.6222C46.8916 43.6278 47.4986 41.3656 47.5 39.0625H47.9688C48.8387 39.0615 49.6727 38.7155 50.2879 38.1004C50.903 37.4852 51.249 36.6512 51.25 35.7812V32.9688C51.249 32.0988 50.903 31.2648 50.2879 30.6496C49.6727 30.0345 48.8387 29.6885 47.9688 29.6875H47.5V26.875C47.5 23.394 46.1172 20.0556 43.6558 17.5942C41.1944 15.1328 37.856 13.75 34.375 13.75C30.894 13.75 27.5556 15.1328 25.0942 17.5942C22.6328 20.0556 21.25 23.394 21.25 26.875V29.6875H20.7813C19.9113 29.6885 19.0773 30.0345 18.4621 30.6496C17.847 31.2648 17.501 32.0988 17.5 32.9688V35.7812C17.501 36.6512 17.847 37.4852 18.4621 38.1004C19.0773 38.7155 19.9113 39.0615 20.7813 39.0625H21.25C21.2453 40.7868 21.5827 42.4949 22.2424 44.0881C22.9022 45.6812 23.8713 47.1276 25.0938 48.3438C25.9055 49.1555 26.8195 49.8583 27.8125 50.4344V53.3301L24.7727 54.0906C24.6369 54.1248 24.5106 54.189 24.4029 54.2785C24.2952 54.3679 24.209 54.4803 24.1504 54.6074L17.8047 56.7227C15.8041 57.3876 14.0638 58.666 12.8311 60.3763C11.5983 62.0866 10.9358 64.1418 10.9375 66.25V67.1875C10.9375 67.4361 11.0363 67.6746 11.2121 67.8504C11.3879 68.0262 11.6264 68.125 11.875 68.125H68.125C68.3736 68.125 68.6121 68.0262 68.7879 67.8504C68.9637 67.6746 69.0625 67.4361 69.0625 67.1875V53.125C69.0625 52.8764 68.9637 52.6379 68.7879 52.4621C68.6121 52.2863 68.3736 52.1875 68.125 52.1875ZM47.5 31.5625H47.9688C48.3416 31.5628 48.6991 31.7111 48.9628 31.9747C49.2264 32.2384 49.3747 32.5959 49.375 32.9688V35.7812C49.3747 36.1541 49.2264 36.5116 48.9628 36.7753C48.6991 37.0389 48.3416 37.1872 47.9688 37.1875H47.5V31.5625ZM21.25 37.1875H20.7813C20.4084 37.1872 20.0509 37.0389 19.7872 36.7753C19.5236 36.5116 19.3753 36.1541 19.375 35.7812V32.9688C19.3753 32.5959 19.5236 32.2384 19.7872 31.9747C20.0509 31.7111 20.4084 31.5628 20.7813 31.5625H21.25V37.1875ZM42.2219 55.6141L39.6121 60.3285L35.9688 58.5437L40.1172 55.0879L42.2219 55.6141ZM33.3098 60.3309L34.3211 59.8246L35.5 60.4023L36.0016 61.907L34.375 62.4496L32.7602 61.9105L33.3098 60.3309ZM29.6875 53.623V51.3285C32.7076 52.4762 36.0442 52.4737 39.0625 51.3215V53.5258L34.3164 57.4809L29.6875 53.623ZM23.125 26.875C23.125 23.8913 24.3103 21.0298 26.4201 18.92C28.5298 16.8103 31.3913 15.625 34.375 15.625C37.3587 15.625 40.2202 16.8103 42.33 18.92C44.4397 21.0298 45.625 23.8913 45.625 26.875V28.6633C41.9219 27.9883 38.9371 23.5902 38.9055 23.5422C38.8283 23.427 38.7266 23.3303 38.6077 23.259C38.4887 23.1877 38.3555 23.1435 38.2176 23.1297C38.1868 23.1264 38.1559 23.1248 38.125 23.125C37.8764 23.1254 37.638 23.2239 37.4617 23.3992C35.5141 25.348 27.298 27.5535 23.125 28.518V26.875ZM26.4203 47.0172C25.3724 45.975 24.5416 44.7353 23.9759 43.3699C23.4103 42.0045 23.1211 40.5404 23.125 39.0625V30.441C25.8836 29.8199 34.4816 27.7539 37.9492 25.4008C39.1527 26.9266 42.0332 30.0719 45.625 30.5594V39.0625C45.6249 41.2875 44.965 43.4624 43.7289 45.3124C42.4927 47.1623 40.7357 48.6042 38.6801 49.4556C36.6245 50.3071 34.3626 50.5299 32.1804 50.0958C29.9982 49.6618 27.9937 48.5904 26.4203 47.0172ZM30.7938 66.25H12.8125C12.811 64.5353 13.3498 62.8638 14.3524 61.4728C15.355 60.0819 16.7705 59.0422 18.3977 58.5016L24.7176 56.3945L27.9356 62.0277C28.0548 62.2356 28.249 62.3901 28.4783 62.4596C28.7077 62.5291 28.955 62.5083 29.1695 62.4016L30.9063 61.532L30.6766 62.1918C30.6358 62.3091 30.6188 62.4333 30.6265 62.5572C30.6341 62.6812 30.6663 62.8023 30.7211 62.9138C30.7759 63.0252 30.8523 63.1246 30.9459 63.2062C31.0394 63.2879 31.1482 63.3502 31.266 63.3895L31.3598 63.4211L30.7938 66.25ZM29.1238 60.3273L26.4285 55.6094L28.5156 55.0879L32.6734 58.5531L29.1238 60.3273ZM32.7063 66.25L33.1527 64.0187L34.0785 64.327C34.271 64.391 34.479 64.391 34.6715 64.327L35.6289 64.0082L36.1328 66.25H32.7063ZM46.5625 66.25H38.0547L37.416 63.4117L37.484 63.3895C37.6008 63.3505 37.7088 63.289 37.8018 63.2083C37.8948 63.1276 37.971 63.0294 38.0261 62.9193C38.0812 62.8092 38.114 62.6893 38.1227 62.5665C38.1315 62.4437 38.1159 62.3203 38.077 62.2035L37.8625 61.559L39.5875 62.4039C39.7153 62.4673 39.8561 62.5002 39.9988 62.5C40.1664 62.5001 40.3309 62.4554 40.4753 62.3705C40.6198 62.2856 40.7389 62.1636 40.8203 62.0172L43.9481 56.3664L46.5625 57.2383V66.25ZM53.125 48.9062C53.125 48.7819 53.1744 48.6627 53.2623 48.5748C53.3502 48.4869 53.4694 48.4375 53.5938 48.4375H62.0313C62.1556 48.4375 62.2748 48.4869 62.3627 48.5748C62.4506 48.6627 62.5 48.7819 62.5 48.9062V49.375H53.125V48.9062ZM53.125 51.25H62.5V52.1875H53.125V51.25ZM67.1875 66.25H48.4375V58.75H55V59.6875C55 59.9361 55.0988 60.1746 55.2746 60.3504C55.4504 60.5262 55.6889 60.625 55.9375 60.625H59.6875C59.9361 60.625 60.1746 60.5262 60.3504 60.3504C60.5262 60.1746 60.625 59.9361 60.625 59.6875V58.75H67.1875V66.25ZM56.875 58.75V56.875H58.75V58.75H56.875ZM67.1875 56.875H60.625V55.9375C60.625 55.6889 60.5262 55.4504 60.3504 55.2746C60.1746 55.0988 59.9361 55 59.6875 55H55.9375C55.6889 55 55.4504 55.0988 55.2746 55.2746C55.0988 55.4504 55 55.6889 55 55.9375V56.875H48.4375V54.0625H67.1875V56.875Z" fill="#1855A5"/>
</g>
<defs>
<clipPath id="clip0_2407_2034">
<rect width="80" height="80" fill="white"/>
</clipPath>
</defs>
</svg>
