<svg width="80" height="80" viewBox="0 0 80 80" fill="none" xmlns="http://www.w3.org/2000/svg">
<g clip-path="url(#clip0_2405_6402)">
<rect width="80" height="80" rx="8" fill="white"/>
<path d="M57.1466 47.9537L57.4736 47.8881V13.7631H22.4736V18.9869H45.2236V25.9869H52.2236V48.0981V48.0992L48.8035 49.6184L46.9736 50.4322L47.8486 60.3853L52.2236 64.0767L54.8486 66.2916L61.8486 60.3853L62.7236 50.4322L57.1466 47.9537Z" fill="#3B83E3"/>
<path d="M22.4736 44.3619H32.9736V47.8619H22.4736V44.3619Z" fill="#3B83E3"/>
<path d="M22.4736 26.8881H27.7236V30.3881H22.4736V26.8881Z" fill="#3B83E3"/>
<path d="M63.1055 49.6184L58.375 47.5163V13.75C58.375 13.5179 58.2828 13.2954 58.1187 13.1313C57.9546 12.9672 57.7321 12.875 57.5 12.875H22.5C22.2679 12.875 22.0454 12.9672 21.8813 13.1313C21.7172 13.2954 21.625 13.5179 21.625 13.75V18.0977H17.25C17.0179 18.0977 16.7954 18.1898 16.6313 18.3539C16.4672 18.518 16.375 18.7406 16.375 18.9727V66.2227C16.375 66.4547 16.4672 66.6773 16.6313 66.8414C16.7954 67.0055 17.0179 67.0977 17.25 67.0977H52.25C52.4821 67.0977 52.7046 67.0055 52.8687 66.8414C53.0328 66.6773 53.125 66.4547 53.125 66.2227V65.9459L54.3106 66.9456C54.4684 67.0791 54.6684 67.1523 54.875 67.1523C55.0816 67.1523 55.2816 67.0791 55.4394 66.9456L62.4394 61.0394C62.6158 60.8903 62.7262 60.6777 62.7467 60.4477L63.6217 50.4945C63.6375 50.3129 63.5963 50.1309 63.5038 49.9739C63.4112 49.8168 63.272 49.6926 63.1055 49.6184ZM23.375 14.625H56.625V46.7386L55.2305 46.1184C55.1186 46.0687 54.9975 46.043 54.875 46.043C54.7525 46.043 54.6314 46.0687 54.5195 46.1184L53.125 46.7386V25.9727C53.1251 25.7405 53.033 25.5179 52.8691 25.3536L45.8691 18.3536C45.7048 18.1896 45.4821 18.0976 45.25 18.0977H23.375V14.625ZM50.138 25.0977H46.125V21.0847L50.138 25.0977ZM51.375 65.3477H18.125V19.8477H22.2867C22.4266 19.8841 22.5734 19.8841 22.7133 19.8477H44.375V25.9727C44.375 26.2047 44.4672 26.4273 44.6313 26.5914C44.7954 26.7555 45.0179 26.8477 45.25 26.8477H51.375V47.5163L46.6445 49.6184C46.478 49.6926 46.3388 49.8168 46.2462 49.9739C46.1537 50.1309 46.1125 50.3129 46.1283 50.4945L47.0033 60.4477C47.0238 60.6777 47.1342 60.8903 47.3106 61.0394L51.375 64.4694V65.3477ZM61.035 59.9347L54.875 65.1322L48.715 59.9347L47.9264 50.9637L54.875 47.875L61.8236 50.9637L61.035 59.9347Z" fill="#1855A5"/>
<path d="M52.7352 56.4712C52.5421 56.3452 52.3071 56.3005 52.0813 56.3469C51.8554 56.3932 51.6569 56.5268 51.529 56.7186C51.4012 56.9105 51.3541 57.145 51.3982 57.3714C51.4423 57.5977 51.574 57.7974 51.7645 57.9272L54.3895 59.6772C54.5826 59.806 54.8189 59.8527 55.0465 59.8072C55.274 59.7617 55.4742 59.6277 55.6029 59.4346L59.1029 54.1846C59.2302 53.9915 59.2759 53.7559 59.2299 53.5293C59.184 53.3026 59.0502 53.1034 58.8578 52.9751C58.6654 52.8468 58.43 52.7999 58.2031 52.8446C57.9762 52.8894 57.7763 53.0221 57.6469 53.2138L54.6322 57.7358L52.7352 56.4712Z" fill="#1855A5"/>
<path d="M22.5 48.7227H33C33.2321 48.7227 33.4546 48.6305 33.6187 48.4664C33.7828 48.3023 33.875 48.0797 33.875 47.8477V44.3477C33.875 44.1156 33.7828 43.893 33.6187 43.7289C33.4546 43.5648 33.2321 43.4727 33 43.4727H22.5C22.2679 43.4727 22.0454 43.5648 21.8813 43.7289C21.7172 43.893 21.625 44.1156 21.625 44.3477V47.8477C21.625 48.0797 21.7172 48.3023 21.8813 48.4664C22.0454 48.6305 22.2679 48.7227 22.5 48.7227ZM23.375 45.2227H32.125V46.9727H23.375V45.2227Z" fill="#1855A5"/>
<path d="M47 43.4727H36.5C36.2679 43.4727 36.0454 43.5648 35.8813 43.7289C35.7172 43.893 35.625 44.1156 35.625 44.3477C35.625 44.5797 35.7172 44.8023 35.8813 44.9664C36.0454 45.1305 36.2679 45.2227 36.5 45.2227H47C47.2321 45.2227 47.4546 45.1305 47.6187 44.9664C47.7828 44.8023 47.875 44.5797 47.875 44.3477C47.875 44.1156 47.7828 43.893 47.6187 43.7289C47.4546 43.5648 47.2321 43.4727 47 43.4727Z" fill="#1855A5"/>
<path d="M44.375 46.9727H36.5C36.2679 46.9727 36.0454 47.0648 35.8813 47.2289C35.7172 47.393 35.625 47.6156 35.625 47.8477C35.625 48.0797 35.7172 48.3023 35.8813 48.4664C36.0454 48.6305 36.2679 48.7227 36.5 48.7227H44.375C44.6071 48.7227 44.8296 48.6305 44.9937 48.4664C45.1578 48.3023 45.25 48.0797 45.25 47.8477C45.25 47.6156 45.1578 47.393 44.9937 47.2289C44.8296 47.0648 44.6071 46.9727 44.375 46.9727Z" fill="#1855A5"/>
<path d="M22.5 31.25H27.75C27.9821 31.25 28.2046 31.1578 28.3687 30.9937C28.5328 30.8296 28.625 30.6071 28.625 30.375V26.875C28.625 26.6429 28.5328 26.4204 28.3687 26.2563C28.2046 26.0922 27.9821 26 27.75 26H22.5C22.2679 26 22.0454 26.0922 21.8813 26.2563C21.7172 26.4204 21.625 26.6429 21.625 26.875V30.375C21.625 30.6071 21.7172 30.8296 21.8813 30.9937C22.0454 31.1578 22.2679 31.25 22.5 31.25ZM23.375 27.75H26.875V29.5H23.375V27.75Z" fill="#1855A5"/>
<path d="M31.25 27.75H40.875C41.1071 27.75 41.3296 27.6578 41.4937 27.4937C41.6578 27.3296 41.75 27.1071 41.75 26.875C41.75 26.6429 41.6578 26.4204 41.4937 26.2563C41.3296 26.0922 41.1071 26 40.875 26H31.25C31.0179 26 30.7954 26.0922 30.6313 26.2563C30.4672 26.4204 30.375 26.6429 30.375 26.875C30.375 27.1071 30.4672 27.3296 30.6313 27.4937C30.7954 27.6578 31.0179 27.75 31.25 27.75Z" fill="#1855A5"/>
<path d="M31.25 31.25H47C47.2321 31.25 47.4546 31.1578 47.6187 30.9937C47.7828 30.8296 47.875 30.6071 47.875 30.375C47.875 30.1429 47.7828 29.9204 47.6187 29.7563C47.4546 29.5922 47.2321 29.5 47 29.5H31.25C31.0179 29.5 30.7954 29.5922 30.6313 29.7563C30.4672 29.9204 30.375 30.1429 30.375 30.375C30.375 30.6071 30.4672 30.8296 30.6313 30.9937C30.7954 31.1578 31.0179 31.25 31.25 31.25Z" fill="#1855A5"/>
<path d="M43.5 50.4727H22.5C22.2679 50.4727 22.0454 50.5648 21.8813 50.7289C21.7172 50.893 21.625 51.1156 21.625 51.3477C21.625 51.5797 21.7172 51.8023 21.8813 51.9664C22.0454 52.1305 22.2679 52.2227 22.5 52.2227H43.5C43.7321 52.2227 43.9546 52.1305 44.1187 51.9664C44.2828 51.8023 44.375 51.5797 44.375 51.3477C44.375 51.1156 44.2828 50.893 44.1187 50.7289C43.9546 50.5648 43.7321 50.4727 43.5 50.4727Z" fill="#1855A5"/>
<path d="M43.5 53.9727H22.5C22.2679 53.9727 22.0454 54.0648 21.8813 54.2289C21.7172 54.393 21.625 54.6156 21.625 54.8477C21.625 55.0797 21.7172 55.3023 21.8813 55.4664C22.0454 55.6305 22.2679 55.7227 22.5 55.7227H43.5C43.7321 55.7227 43.9546 55.6305 44.1187 55.4664C44.2828 55.3023 44.375 55.0797 44.375 54.8477C44.375 54.6156 44.2828 54.393 44.1187 54.2289C43.9546 54.0648 43.7321 53.9727 43.5 53.9727Z" fill="#1855A5"/>
<path d="M43.5 57.4727H22.5C22.2679 57.4727 22.0454 57.5648 21.8813 57.7289C21.7172 57.893 21.625 58.1156 21.625 58.3477C21.625 58.5797 21.7172 58.8023 21.8813 58.9664C22.0454 59.1305 22.2679 59.2227 22.5 59.2227H43.5C43.7321 59.2227 43.9546 59.1305 44.1187 58.9664C44.2828 58.8023 44.375 58.5797 44.375 58.3477C44.375 58.1156 44.2828 57.893 44.1187 57.7289C43.9546 57.5648 43.7321 57.4727 43.5 57.4727Z" fill="#1855A5"/>
<path d="M22.5 41.7227H39.125C39.3571 41.7227 39.5796 41.6305 39.7437 41.4664C39.9078 41.3023 40 41.0797 40 40.8477C40 40.6156 39.9078 40.393 39.7437 40.2289C39.5796 40.0648 39.3571 39.9727 39.125 39.9727H22.5C22.2679 39.9727 22.0454 40.0648 21.8813 40.2289C21.7172 40.393 21.625 40.6156 21.625 40.8477C21.625 41.0797 21.7172 41.3023 21.8813 41.4664C22.0454 41.6305 22.2679 41.7227 22.5 41.7227Z" fill="#1855A5"/>
<path d="M22.5 38.25H47C47.2321 38.25 47.4546 38.1578 47.6187 37.9937C47.7828 37.8296 47.875 37.6071 47.875 37.375C47.875 37.1429 47.7828 36.9204 47.6187 36.7563C47.4546 36.5922 47.2321 36.5 47 36.5H22.5C22.2679 36.5 22.0454 36.5922 21.8813 36.7563C21.7172 36.9204 21.625 37.1429 21.625 37.375C21.625 37.6071 21.7172 37.8296 21.8813 37.9937C22.0454 38.1578 22.2679 38.25 22.5 38.25Z" fill="#1855A5"/>
<path d="M22.5 34.75H47C47.2321 34.75 47.4546 34.6578 47.6187 34.4937C47.7828 34.3296 47.875 34.1071 47.875 33.875C47.875 33.6429 47.7828 33.4204 47.6187 33.2563C47.4546 33.0922 47.2321 33 47 33H22.5C22.2679 33 22.0454 33.0922 21.8813 33.2563C21.7172 33.4204 21.625 33.6429 21.625 33.875C21.625 34.1071 21.7172 34.3296 21.8813 34.4937C22.0454 34.6578 22.2679 34.75 22.5 34.75Z" fill="#1855A5"/>
</g>
<defs>
<clipPath id="clip0_2405_6402">
<rect width="80" height="80" fill="white"/>
</clipPath>
</defs>
</svg>
