<svg width="80" height="81" viewBox="0 0 80 81" fill="none" xmlns="http://www.w3.org/2000/svg">
<g clip-path="url(#clip0_1164_1228)">
<rect y="0.894531" width="80" height="80" rx="8" fill="white"/>
<path d="M10 34.987L20 44.987L30 34.987L10 14.8945V34.987Z" fill="#4A8ADE"/>
<path d="M50 34.9867L60 44.9867L70 34.9867L70.0462 14.9404L50 34.9867Z" fill="#4A8ADE"/>
<path d="M70.7076 34.2797C70.5198 34.0924 70.2653 33.9872 70.0001 33.9872C69.7348 33.9872 69.4804 34.0924 69.2926 34.2797L60.0001 43.5735L51.4138 34.9872L64.7538 21.6485C64.8467 21.5556 64.9204 21.4453 64.9707 21.3239C65.021 21.2025 65.0469 21.0724 65.0469 20.941C65.0469 20.8096 65.021 20.6795 64.9707 20.5581C64.9204 20.4367 64.8467 20.3264 64.7538 20.2335C64.6609 20.1406 64.5506 20.0669 64.4292 20.0166C64.3078 19.9663 64.1777 19.9404 64.0463 19.9404C63.9149 19.9404 63.7848 19.9663 63.6634 20.0166C63.542 20.0669 63.4317 20.1406 63.3388 20.2335L50.0001 33.5735L49.9926 33.566C49.805 33.3786 49.5508 33.2733 49.2857 33.2733C49.0206 33.2733 48.7663 33.3786 48.5788 33.566L45.0076 37.1372C44.9146 37.23 44.8408 37.3401 44.7904 37.4614C44.74 37.5827 44.7141 37.7128 44.7141 37.8441C44.7141 37.9754 44.74 38.1055 44.7904 38.2268C44.8408 38.3481 44.9146 38.4583 45.0076 38.551L45.7288 39.2735L43.1576 41.8447H41.7601C41.2451 41.8447 40.6826 42.0885 40.1263 42.3922C39.5629 42.0331 38.9082 41.8431 38.2401 41.8447H36.8426L34.2713 39.2735L34.9926 38.551C35.0856 38.4583 35.1594 38.3481 35.2097 38.2268C35.2601 38.1055 35.286 37.9754 35.286 37.8441C35.286 37.7128 35.2601 37.5827 35.2097 37.4614C35.1594 37.3401 35.0856 37.23 34.9926 37.1372L31.4213 33.566C31.2338 33.3786 30.9795 33.2733 30.7144 33.2733C30.4493 33.2733 30.1951 33.3786 30.0076 33.566L30.0001 33.5735L16.6613 20.2335C16.4737 20.0458 16.2192 19.9404 15.9538 19.9404C15.6885 19.9404 15.434 20.0458 15.2463 20.2335C15.0587 20.4211 14.9533 20.6756 14.9533 20.941C14.9533 21.0724 14.9791 21.2025 15.0294 21.3239C15.0797 21.4453 15.1534 21.5556 15.2463 21.6485L28.5863 34.9872L20.0001 43.5735L10.7076 34.2797C10.5199 34.0921 10.2654 33.9867 10.0001 33.9867C9.7347 33.9867 9.48021 34.0921 9.29257 34.2797C9.10493 34.4674 8.99951 34.7219 8.99951 34.9872C8.99951 35.2526 9.10493 35.5071 9.29257 35.6947L18.5863 44.9872L18.5788 44.9947C18.4858 45.0875 18.412 45.1976 18.3617 45.3189C18.3113 45.4402 18.2854 45.5703 18.2854 45.7016C18.2854 45.8329 18.3113 45.963 18.3617 46.0843C18.412 46.2056 18.4858 46.3158 18.5788 46.4085L22.1501 49.9797C22.2427 50.0728 22.3529 50.1467 22.4742 50.1971C22.5955 50.2475 22.7256 50.2735 22.8569 50.2735C22.9883 50.2735 23.1184 50.2475 23.2397 50.1971C23.361 50.1467 23.4711 50.0728 23.5638 49.9797L24.2863 49.2585L26.8576 51.8297V53.2272C26.8561 53.8029 26.9965 54.37 27.2663 54.8785L27.1501 54.9947C26.7364 55.4068 26.4513 55.93 26.3294 56.501C26.2075 57.0719 26.2541 57.666 26.4634 58.211C26.6726 58.7561 27.0357 59.2286 27.5084 59.5712C27.9812 59.9138 28.5432 60.1117 29.1263 60.141C29.1644 60.8879 29.4781 61.5941 30.0069 62.1229C30.5358 62.6517 31.2419 62.9655 31.9888 63.0035C32.025 63.7483 32.3371 64.4531 32.8644 64.9804C33.3918 65.5077 34.0965 65.8198 34.8413 65.856C34.871 66.4394 35.0693 67.0018 35.4121 67.4748C35.755 67.9478 36.2277 68.3112 36.773 68.5209C37.3183 68.7306 37.9127 68.7777 38.4841 68.6563C39.0556 68.535 39.5796 68.2504 39.9926 67.8372L40.0001 67.8297L40.0076 67.8372C40.4206 68.2504 40.9446 68.535 41.516 68.6563C42.0875 68.7777 42.6819 68.7306 43.2271 68.5209C43.7724 68.3112 44.2451 67.9478 44.588 67.4748C44.9309 67.0018 45.1292 66.4394 45.1588 65.856C45.9037 65.8198 46.6084 65.5077 47.1357 64.9804C47.663 64.4531 47.9751 63.7483 48.0113 63.0035C48.7582 62.9655 49.4644 62.6517 49.9932 62.1229C50.522 61.5941 50.8358 60.8879 50.8738 60.141C51.4569 60.1117 52.019 59.9138 52.4917 59.5712C52.9644 59.2286 53.3275 58.7561 53.5368 58.211C53.7461 57.666 53.7926 57.0719 53.6707 56.501C53.5488 55.93 53.2637 55.4068 52.8501 54.9947L52.7338 54.8785C53.0037 54.37 53.144 53.8029 53.1426 53.2272V51.8297L55.7138 49.2585L56.4363 49.9797C56.529 50.0728 56.6391 50.1467 56.7605 50.1971C56.8818 50.2475 57.0118 50.2735 57.1432 50.2735C57.2746 50.2735 57.4046 50.2475 57.5259 50.1971C57.6472 50.1467 57.7574 50.0728 57.8501 49.9797L61.4213 46.4085C61.5143 46.3158 61.5881 46.2056 61.6385 46.0843C61.6888 45.963 61.7148 45.8329 61.7148 45.7016C61.7148 45.5703 61.6888 45.4402 61.6385 45.3189C61.5881 45.1976 61.5143 45.0875 61.4213 44.9947L61.4138 44.9872L70.7076 35.6947C70.8949 35.5069 71.0001 35.2525 71.0001 34.9872C71.0001 34.722 70.8949 34.4675 70.7076 34.2797ZM22.8576 47.8585L20.7001 45.7022L30.7076 35.6947L30.7138 35.6872L32.8713 37.8447L22.8576 47.8585ZM29.2863 58.151C29.0844 58.1512 28.8869 58.0914 28.7189 57.9794C28.5509 57.8673 28.4199 57.7078 28.3425 57.5213C28.2652 57.3347 28.2449 57.1294 28.2843 56.9313C28.3237 56.7332 28.421 56.5513 28.5638 56.4085L32.1363 52.8372C32.3276 52.6459 32.587 52.5385 32.8576 52.5385C33.1281 52.5385 33.3875 52.6459 33.5788 52.8372C33.7701 53.0285 33.8776 53.288 33.8776 53.5585C33.8776 53.829 33.7701 54.0884 33.5788 54.2797L30.0076 57.8522C29.9131 57.9472 29.8007 58.0225 29.6769 58.0738C29.5531 58.1251 29.4203 58.1513 29.2863 58.151ZM32.1426 61.0072C31.9408 61.0072 31.7436 60.9474 31.5759 60.8353C31.4081 60.7233 31.2774 60.564 31.2002 60.3776C31.123 60.1912 31.1028 59.9861 31.1422 59.7882C31.1815 59.5904 31.2787 59.4086 31.4213 59.266L34.9926 55.6947C35.0869 55.5983 35.1995 55.5215 35.3237 55.4689C35.4479 55.4162 35.5813 55.3887 35.7162 55.3879C35.8511 55.3871 35.9849 55.4131 36.1097 55.4644C36.2345 55.5156 36.3479 55.5911 36.4433 55.6865C36.5388 55.7818 36.6143 55.8952 36.6657 56.0199C36.7171 56.1447 36.7432 56.2784 36.7425 56.4133C36.7419 56.5482 36.7145 56.6817 36.6619 56.8059C36.6094 56.9302 36.5327 57.0428 36.4363 57.1372L32.8638 60.7085C32.7693 60.8035 32.6569 60.8788 32.5331 60.9301C32.4093 60.9814 32.2766 61.0076 32.1426 61.0072ZM35.0001 63.8647C34.7983 63.8647 34.6011 63.8049 34.4334 63.6928C34.2656 63.5808 34.1349 63.4215 34.0577 63.2351C33.9805 63.0487 33.9603 62.8436 33.9997 62.6457C34.039 62.4479 34.1362 62.2661 34.2788 62.1235L37.8501 58.551C38.0422 58.363 38.3007 58.2584 38.5695 58.26C38.8383 58.2615 39.0957 58.369 39.2856 58.5592C39.4756 58.7493 39.5829 59.0067 39.5842 59.2755C39.5855 59.5443 39.4807 59.8028 39.2926 59.9947L35.7213 63.566C35.6268 63.661 35.5144 63.7363 35.3906 63.7876C35.2668 63.8389 35.1341 63.8651 35.0001 63.8647ZM38.5788 66.4235C38.4844 66.5198 38.3718 66.5965 38.2475 66.6491C38.1233 66.7016 37.9898 66.729 37.8549 66.7297C37.72 66.7303 37.5863 66.7042 37.4615 66.6529C37.3368 66.6015 37.2234 66.5259 37.1281 66.4305C37.0327 66.335 36.9572 66.2216 36.906 66.0968C36.8547 65.972 36.8287 65.8383 36.8295 65.7034C36.8303 65.5685 36.8578 65.4351 36.9104 65.3108C36.9631 65.1866 37.0399 65.0741 37.1363 64.9797L40.7076 61.4085C40.8997 61.2205 41.1582 61.1159 41.427 61.1175C41.6958 61.119 41.9532 61.2265 42.1431 61.4167C42.3331 61.6068 42.4404 61.8642 42.4417 62.133C42.443 62.4018 42.3382 62.6603 42.1501 62.8522L38.5788 66.4235ZM42.8638 66.4235C42.7691 66.5182 42.6567 66.5933 42.5329 66.6446C42.4092 66.6959 42.2765 66.7222 42.1426 66.7222C42.0086 66.7222 41.876 66.6959 41.7522 66.6446C41.6285 66.5933 41.516 66.5182 41.4213 66.4235L41.4138 66.416L42.8576 64.9735L42.8638 64.9797C42.9589 65.0744 43.0344 65.1869 43.0858 65.3107C43.1373 65.4346 43.1638 65.5675 43.1638 65.7016C43.1638 65.8358 43.1373 65.9686 43.0858 66.0925C43.0344 66.2164 42.9589 66.3288 42.8638 66.4235ZM51.4363 57.8522C51.2446 58.0432 50.985 58.1504 50.7144 58.1504C50.4439 58.1504 50.1843 58.0432 49.9926 57.8522L44.2788 52.1372C44.2464 52.1013 44.2094 52.0698 44.1688 52.0435C43.9699 51.8948 43.7228 51.8255 43.4755 51.8492C43.2283 51.8729 42.9988 51.9878 42.8318 52.1716C42.6647 52.3553 42.5721 52.5947 42.572 52.8431C42.5719 53.0914 42.6644 53.3309 42.8313 53.5147C42.8414 53.5275 42.8523 53.5396 42.8638 53.551L48.5788 59.266C48.6735 59.3607 48.7487 59.4731 48.7999 59.5969C48.8512 59.7207 48.8776 59.8533 48.8776 59.9872C48.8776 60.1212 48.8512 60.2538 48.7999 60.3776C48.7487 60.5013 48.6735 60.6138 48.5788 60.7085C48.4841 60.8032 48.3717 60.8783 48.2479 60.9296C48.1242 60.9809 47.9915 61.0072 47.8576 61.0072C47.7236 61.0072 47.591 60.9809 47.4672 60.9296C47.3435 60.8783 47.231 60.8032 47.1363 60.7085L41.4213 54.9947C41.4053 54.9778 41.3881 54.962 41.3701 54.9472C41.1788 54.7834 40.9327 54.6978 40.681 54.7075C40.4293 54.7172 40.1906 54.8216 40.0125 54.9997C39.8344 55.1778 39.7301 55.4165 39.7204 55.6682C39.7106 55.9199 39.7962 56.1659 39.9601 56.3572C39.9748 56.3753 39.9907 56.3924 40.0076 56.4085L45.7213 62.1235C45.9126 62.3148 46.0201 62.5742 46.0201 62.8447C46.0201 63.1153 45.9126 63.3747 45.7213 63.566C45.53 63.7573 45.2706 63.8647 45.0001 63.8647C44.7295 63.8647 44.4701 63.7573 44.2788 63.566L44.1513 63.4397C44.3668 62.9909 44.468 62.4958 44.446 61.9985C44.4241 61.5011 44.2796 61.0169 44.0254 60.5888C43.7712 60.1607 43.4152 59.802 42.9891 59.5447C42.5629 59.2873 42.0798 59.1392 41.5826 59.1135C41.5457 58.3677 41.2328 57.6622 40.7046 57.1343C40.1765 56.6064 39.4709 56.2938 38.7251 56.2572C38.6895 55.5116 38.377 54.806 37.8488 54.2784C37.3205 53.7509 36.6145 53.4394 35.8688 53.4047C35.8402 52.8212 35.6427 52.2585 35.3003 51.7852C34.9579 51.3118 34.4854 50.948 33.9401 50.7382C33.3949 50.5283 32.8004 50.4814 32.229 50.603C31.6576 50.7247 31.1338 51.0097 30.7213 51.4235L28.8601 53.2847C28.8588 53.2647 28.8576 53.246 28.8576 53.2272V51.416C28.8572 51.1506 28.7516 50.8961 28.5638 50.7085L25.7001 47.8447L32.8576 40.6872L35.7213 43.551C35.909 43.7387 36.1634 43.8444 36.4288 43.8447H38.2401C38.4404 43.8443 38.6389 43.8835 38.824 43.9601C39.0092 44.0367 39.1773 44.1491 39.3188 44.291L51.4363 56.4085C51.6273 56.6002 51.7345 56.8598 51.7345 57.1304C51.7345 57.4009 51.6273 57.6605 51.4363 57.8522ZM51.4363 50.7085C51.2486 50.8961 51.1429 51.1506 51.1426 51.416V53.2272C51.1426 53.246 51.1413 53.2647 51.1401 53.2847L41.7138 43.8585C41.7388 43.8522 41.7588 43.8472 41.7763 43.8447H43.5713C43.8366 43.8448 44.0911 43.7396 44.2788 43.5522L47.1426 40.6872L54.3001 47.8447L51.4363 50.7085ZM57.1426 47.8585L47.1288 37.8447L49.2863 35.6872L49.2926 35.6947L59.3001 45.7022L57.1426 47.8585Z" fill="#1857AA"/>
</g>
<defs>
<clipPath id="clip0_1164_1228">
<rect width="80" height="80" fill="white" transform="translate(0 0.894531)"/>
</clipPath>
</defs>
</svg>
