<svg width="18" height="18" viewBox="0 0 18 18" fill="none" xmlns="http://www.w3.org/2000/svg">
<path d="M17 16.8945L12.3806 12.2752M12.3806 12.2752C13.6309 11.0249 14.3333 9.32926 14.3333 7.56116C14.3333 5.79306 13.6309 4.09738 12.3806 2.84714C11.1304 1.59691 9.43473 0.894531 7.66663 0.894531C5.89853 0.894531 4.20285 1.59691 2.95261 2.84714C1.70237 4.09738 1 5.79306 1 7.56116C1 9.32926 1.70237 11.0249 2.95261 12.2752C4.20285 13.5254 5.89853 14.2278 7.66663 14.2278C9.43473 14.2278 11.1304 13.5254 12.3806 12.2752ZM7.66707 4.89505V10.2282M10.3336 7.5616H5.00052" stroke="currentColor" stroke-width="1.5" stroke-linecap="round" stroke-linejoin="round"/>
</svg>
