<svg width="80" height="80" viewBox="0 0 80 80" fill="none" xmlns="http://www.w3.org/2000/svg">
<g clip-path="url(#clip0_2407_5041)">
<rect width="80" height="80" rx="8" fill="white"/>
<path d="M24.8629 30.5219C32.6032 29.5691 44.6594 23.1391 44.6594 23.1391L45.5969 28.7641C45.5967 29.0104 45.645 29.2543 45.7392 29.4819C45.8333 29.7095 45.9714 29.9163 46.1456 30.0904C46.3197 30.2646 46.5265 30.4027 46.7541 30.4968C46.9817 30.591 47.2256 30.6393 47.4719 30.6391H48.4094V25.0141C48.4094 21.5331 47.0266 18.1947 44.5652 15.7333C42.1038 13.2719 38.7654 11.8891 35.2844 11.8891C31.8035 11.8891 28.4651 13.2719 26.0036 15.7333C23.5422 18.1947 22.1594 21.5331 22.1594 25.0141V30.6391H23.0969C23.6874 30.6359 24.2772 30.5968 24.8629 30.5219Z" fill="#3B83E3"/>
<path d="M35.2844 42.8125C36.279 42.8125 37.2328 42.4174 37.9361 41.7141C38.6393 41.0109 39.0344 40.0571 39.0344 39.0625H31.5344C31.5344 40.0571 31.9295 41.0109 32.6328 41.7141C33.336 42.4174 34.2899 42.8125 35.2844 42.8125Z" fill="#3B83E3"/>
<path d="M51.0543 53.0348L45.5899 51.4281C45.5887 51.3813 45.5864 51.3344 45.584 51.2875H45.1106L43.5286 50.8223C43.2241 50.7329 42.9411 50.5826 42.6965 50.3805C42.659 50.6887 42.611 50.991 42.5489 51.2875C41.8434 54.7141 39.5184 57.2102 35.2844 57.2102C31.0504 57.2102 28.7243 54.7152 28.02 51.2875C27.9579 50.991 27.9098 50.6887 27.8723 50.3793C27.6277 50.5823 27.3442 50.733 27.0391 50.8223L25.4571 51.2875H24.9848C24.9825 51.3344 24.9801 51.3813 24.979 51.4281L19.5133 53.0348C17.571 53.6065 15.866 54.7916 14.6531 56.4128C13.4402 58.034 12.7847 60.0042 12.7844 62.0289V68.1391H45.5969V64.3891H52.1594V68.1391H57.7844V62.0289C57.7842 60.0041 57.1285 58.0337 55.9153 56.4125C54.7022 54.7912 52.9969 53.6063 51.0543 53.0348Z" fill="#3B83E3"/>
<path d="M27.8723 50.3781V50.3793L27.8735 50.3781H27.8723Z" fill="#3B83E3"/>
<path d="M42.6941 50.3781C42.6953 50.3793 42.6964 50.3793 42.6964 50.3805V50.3781H42.6941Z" fill="#3B83E3"/>
<path d="M60.5967 11.9287L54.0342 14.8454L54.7633 23.1397L60.5967 27.7881L66.4299 23.1397L67.1592 14.8454L60.5967 11.9287Z" fill="#3B83E3"/>
<path d="M30.625 32.5C30.625 32.2514 30.5262 32.0129 30.3504 31.8371C30.1746 31.6613 29.9361 31.5625 29.6875 31.5625C29.4389 31.5625 29.2004 31.6613 29.0246 31.8371C28.8488 32.0129 28.75 32.2514 28.75 32.5V33.4375C28.75 33.6861 28.8488 33.9246 29.0246 34.1004C29.2004 34.2762 29.4389 34.375 29.6875 34.375C29.9361 34.375 30.1746 34.2762 30.3504 34.1004C30.5262 33.9246 30.625 33.6861 30.625 33.4375V32.5Z" fill="#1855A5"/>
<path d="M40.9375 31.5625C40.6889 31.5625 40.4504 31.6613 40.2746 31.8371C40.0988 32.0129 40 32.2514 40 32.5V33.4375C40 33.6861 40.0988 33.9246 40.2746 34.1004C40.4504 34.2762 40.6889 34.375 40.9375 34.375C41.1861 34.375 41.4246 34.2762 41.6004 34.1004C41.7762 33.9246 41.875 33.6861 41.875 33.4375V32.5C41.875 32.2514 41.7762 32.0129 41.6004 31.8371C41.4246 31.6613 41.1861 31.5625 40.9375 31.5625Z" fill="#1855A5"/>
<path d="M39.0626 30.625C39.1634 30.6249 39.2635 30.6086 39.3592 30.5767L42.1717 29.6392C42.4076 29.5606 42.6026 29.3915 42.7138 29.1691C42.825 28.9466 42.8433 28.6892 42.7646 28.4533C42.686 28.2174 42.5169 28.0224 42.2945 27.9112C42.0721 27.8 41.8146 27.7817 41.5787 27.8603L38.7662 28.7978C38.5548 28.868 38.3753 29.0112 38.2599 29.2018C38.1445 29.3923 38.1007 29.6177 38.1364 29.8376C38.172 30.0575 38.2848 30.2575 38.4545 30.4018C38.6243 30.546 38.8398 30.6252 39.0626 30.625Z" fill="#1855A5"/>
<path d="M40 39.0625C40 38.8139 39.9012 38.5754 39.7254 38.3996C39.5496 38.2238 39.3111 38.125 39.0625 38.125H31.5625C31.3139 38.125 31.0754 38.2238 30.8996 38.3996C30.7238 38.5754 30.625 38.8139 30.625 39.0625C30.625 40.3057 31.1189 41.498 31.9979 42.3771C32.877 43.2561 34.0693 43.75 35.3125 43.75C36.5557 43.75 37.748 43.2561 38.6271 42.3771C39.5061 41.498 40 40.3057 40 39.0625ZM32.6607 40H37.9643C37.7705 40.5485 37.4115 41.0234 36.9365 41.3593C36.4616 41.6952 35.8942 41.8755 35.3125 41.8755C34.7308 41.8755 34.1634 41.6952 33.6885 41.3593C33.2135 41.0234 32.8545 40.5485 32.6607 40Z" fill="#1855A5"/>
<path d="M56.6945 55.8367C55.3639 54.0492 53.4865 52.7446 51.3473 52.1207L43.8215 49.9082C43.5309 49.8213 43.2759 49.6433 43.0942 49.4004C42.9126 49.1575 42.8138 48.8627 42.8125 48.5594V47.0148C44.4177 45.8968 45.7528 44.4341 46.7201 42.7339C47.6874 41.0336 48.2626 39.1386 48.4035 37.1875H48.9063C49.7762 37.1865 50.6102 36.8405 51.2254 36.2254C51.8405 35.6102 52.1865 34.7762 52.1875 33.9062V32.9688C52.1864 32.1801 51.9017 31.4181 51.3853 30.8219C50.869 30.2258 50.1554 29.8352 49.375 29.7215V25C49.375 21.2704 47.8934 17.6935 45.2562 15.0563C42.619 12.4191 39.0421 10.9375 35.3125 10.9375C31.5829 10.9375 28.006 12.4191 25.3688 15.0563C22.7316 17.6935 21.25 21.2704 21.25 25V29.7215C20.4696 29.8352 19.756 30.2258 19.2397 30.8219C18.7233 31.4181 18.4386 32.1801 18.4375 32.9688V33.9062C18.4385 34.7762 18.7845 35.6102 19.3996 36.2254C20.0148 36.8405 20.8488 37.1865 21.7188 37.1875H22.2215C22.3624 39.1386 22.9376 41.0336 23.9049 42.7339C24.8722 44.4341 26.2073 45.8968 27.8125 47.0148V48.5594C27.8112 48.8627 27.7124 49.1575 27.5308 49.4004C27.3491 49.6433 27.0941 49.8213 26.8035 49.9082L19.2777 52.1207C17.1409 52.7494 15.265 54.053 13.9307 55.8365C12.5963 57.6199 11.8751 59.7874 11.875 62.0148V68.125C11.875 68.3736 11.9738 68.6121 12.1496 68.7879C12.3254 68.9637 12.5639 69.0625 12.8125 69.0625H57.8125C58.0611 69.0625 58.2996 68.9637 58.4754 68.7879C58.6512 68.6121 58.75 68.3736 58.75 68.125V62.0148C58.7552 59.7867 58.0336 57.6176 56.6945 55.8367ZM48.4375 31.5625H48.9063C49.2791 31.5628 49.6366 31.7111 49.9003 31.9747C50.1639 32.2384 50.3122 32.5959 50.3125 32.9688V33.9062C50.3122 34.2791 50.1639 34.6366 49.9003 34.9003C49.6366 35.1639 49.2791 35.3122 48.9063 35.3125H48.4375V31.5625ZM22.1875 35.3125H21.7188C21.3459 35.3122 20.9884 35.1639 20.7247 34.9003C20.4611 34.6366 20.3128 34.2791 20.3125 33.9062V32.9688C20.3128 32.5959 20.4611 32.2384 20.7247 31.9747C20.9884 31.7111 21.3459 31.5628 21.7188 31.5625H22.1875V35.3125ZM23.125 25C23.125 21.7677 24.409 18.6677 26.6946 16.3821C28.9802 14.0965 32.0802 12.8125 35.3125 12.8125C38.5448 12.8125 41.6448 14.0965 43.9304 16.3821C46.216 18.6677 47.5 21.7677 47.5 25V29.6875C47.2515 29.6872 47.0132 29.5883 46.8375 29.4125C46.6617 29.2368 46.5628 28.9985 46.5625 28.75C46.5623 28.6982 46.558 28.6465 46.5496 28.5953L45.6121 22.9703C45.5878 22.8236 45.5288 22.6847 45.4401 22.5653C45.3515 22.4459 45.2356 22.3493 45.1022 22.2835C44.9687 22.2178 44.8215 22.1848 44.6728 22.1872C44.5241 22.1897 44.3781 22.2275 44.2469 22.2977C44.1074 22.3715 30.3039 29.6875 23.125 29.6875V25ZM24.0625 36.25V31.5297C27.243 31.3129 31.6152 30.0414 37.082 27.7387C40.0152 26.5035 42.5688 25.2566 43.9738 24.5465L44.6887 28.8355C44.7068 29.4021 44.8953 29.9501 45.2296 30.4079C45.5639 30.8657 46.0284 31.2121 46.5625 31.402V36.25C46.5625 39.2337 45.3772 42.0952 43.2675 44.205C41.1577 46.3147 38.2962 47.5 35.3125 47.5C32.3288 47.5 29.4673 46.3147 27.3575 44.205C25.2478 42.0952 24.0625 39.2337 24.0625 36.25ZM41.732 50.6898C40.9563 55.5215 37.4031 56.2586 35.3125 56.2586C33.2219 56.2586 29.6688 55.5215 28.893 50.6898C29.4035 50.0972 29.6853 49.3416 29.6875 48.5594V48.107C31.4452 48.9419 33.3666 49.375 35.3125 49.375C37.2584 49.375 39.1798 48.9419 40.9375 48.107V48.5594C40.9397 49.3416 41.2215 50.0972 41.732 50.6898ZM27.1926 51.748C28.1301 55.7723 31.0902 58.1336 35.3125 58.1336C39.5348 58.1336 42.4949 55.7723 43.4336 51.748L44.677 52.1137C44.459 56.4824 40.3422 59.9781 35.3125 59.9781C30.2828 59.9781 26.166 56.4824 25.948 52.1137L27.1926 51.748ZM51.25 67.1875H46.5625V65.3125H51.25V67.1875ZM56.875 67.1875H53.125V64.375C53.125 64.1264 53.0262 63.8879 52.8504 63.7121C52.6746 63.5363 52.4361 63.4375 52.1875 63.4375H45.625C45.3764 63.4375 45.1379 63.5363 44.9621 63.7121C44.7863 63.8879 44.6875 64.1264 44.6875 64.375V67.1875H13.75V62.0148C13.7573 60.1943 14.3501 58.4244 15.4407 56.9666C16.5313 55.5089 18.0618 54.4405 19.8063 53.9195L24.1082 52.6551C24.6203 57.8031 29.4496 61.8531 35.3125 61.8531C41.1754 61.8531 46.0047 57.8031 46.5168 52.6551L50.8188 53.9195C52.5632 54.4405 54.0937 55.5089 55.1843 56.9666C56.2749 58.4244 56.8677 60.1943 56.875 62.0148V67.1875Z" fill="#1855A5"/>
<path d="M67.5684 13.9738L61.0059 11.057C60.886 11.0037 60.7562 10.9762 60.625 10.9762C60.4938 10.9762 60.3641 11.0037 60.2442 11.057L53.6817 13.9738C53.5033 14.0533 53.3541 14.1864 53.2549 14.3547C53.1558 14.5229 53.1116 14.7179 53.1285 14.9125L53.8575 23.207C53.8686 23.3337 53.9054 23.4568 53.9657 23.5688C54.0259 23.6809 54.1083 23.7794 54.2078 23.8586L60.0403 28.5063C60.2063 28.639 60.4125 28.7114 60.625 28.7114C60.8376 28.7114 61.0438 28.639 61.2098 28.5063L67.0422 23.8586C67.1418 23.7794 67.2242 23.6809 67.2844 23.5688C67.3446 23.4568 67.3815 23.3337 67.3926 23.207L68.1215 14.9125C68.1385 14.7179 68.0943 14.5229 67.9951 14.3547C67.896 14.1864 67.7468 14.0533 67.5684 13.9738ZM65.5598 22.6422L60.625 26.575L55.6903 22.6422L55.0551 15.4152L60.625 12.9402L66.195 15.4152L65.5598 22.6422Z" fill="#1855A5"/>
<path d="M59.1694 19.8256C58.9472 19.7167 58.6911 19.7 58.4567 19.7791C58.2223 19.8582 58.0287 20.0268 57.9181 20.248C57.8074 20.4693 57.7887 20.7253 57.866 20.9603C57.9433 21.1953 58.1104 21.3902 58.3308 21.5025L60.2058 22.44C60.417 22.5457 60.6604 22.5677 60.8871 22.5017C61.1139 22.4356 61.3074 22.2864 61.429 22.0839L64.2415 17.3964C64.3048 17.2908 64.3467 17.1738 64.3649 17.0521C64.383 16.9303 64.3769 16.8061 64.3471 16.6867C64.3172 16.5673 64.2641 16.4549 64.1908 16.3559C64.1175 16.257 64.0255 16.1735 63.9199 16.1102C63.8143 16.0468 63.6973 16.0049 63.5755 15.9868C63.4538 15.9687 63.3296 15.9747 63.2102 16.0046C63.0907 16.0344 62.9783 16.0875 62.8794 16.1608C62.7805 16.2341 62.697 16.3262 62.6336 16.4317L60.2679 20.3747L59.1694 19.8256Z" fill="#1855A5"/>
</g>
<defs>
<clipPath id="clip0_2407_5041">
<rect width="80" height="80" fill="white"/>
</clipPath>
</defs>
</svg>
