<svg width="65" height="66" viewBox="0 0 65 66" fill="none" xmlns="http://www.w3.org/2000/svg">
<g clip-path="url(#clip0_1311_4567)">
<rect y="0.5" width="65" height="65" rx="8" fill="white"/>
<path d="M56.4375 25.9688V26.75L48.625 31.4375V21.2812L56.4375 25.9688Z" fill="#3B83E3"/>
<path d="M17.375 21.2812V31.4375L9.5625 26.75V25.9688L17.375 21.2812Z" fill="#3B83E3"/>
<path d="M27.5312 13.4688H38.4688V16.5938H27.5312V13.4688Z" fill="#3B83E3"/>
<path d="M27.5312 13.4688H38.4688V16.5938H27.5312V13.4688Z" fill="#3B83E3"/>
<path d="M56.8398 25.2988L49.4062 20.8389V10.3438C49.4062 10.1365 49.3239 9.93784 49.1774 9.79132C49.0309 9.64481 48.8322 9.5625 48.625 9.5625H17.375C17.1678 9.5625 16.9691 9.64481 16.8226 9.79132C16.6761 9.93784 16.5938 10.1365 16.5938 10.3438V20.8389L9.16016 25.2988C9.04454 25.3683 8.94888 25.4665 8.88248 25.5839C8.81608 25.7013 8.78121 25.8339 8.78125 25.9688V55.6562C8.78125 55.8635 8.86356 56.0622 9.01007 56.2087C9.15659 56.3552 9.3553 56.4375 9.5625 56.4375H56.4375C56.6447 56.4375 56.8434 56.3552 56.9899 56.2087C57.1364 56.0622 57.2188 55.8635 57.2188 55.6562V25.9688C57.2188 25.8339 57.1839 25.7013 57.1175 25.5839C57.0511 25.4665 56.9555 25.3683 56.8398 25.2988ZM49.4062 22.6611L55.5703 26.3594L49.4062 30.0576V22.6611ZM18.1562 11.125H47.8438V30.9951L33 39.9014L18.1562 30.9951V11.125ZM16.5938 22.6611V30.0576L10.4297 26.3594L16.5938 22.6611ZM12.2695 54.875H10.3438V28.1299L24.4551 36.5967L12.2695 54.875ZM14.1475 54.875L25.7959 37.4014L32.5977 41.4824C32.7192 41.5553 32.8583 41.5938 33 41.5938C33.1417 41.5938 33.2808 41.5553 33.4023 41.4824L40.2031 37.4014L51.7617 54.875H14.1475ZM55.6562 54.875H53.6348L41.5449 36.5967L55.6562 28.1299V54.875Z" fill="#1855A5"/>
<path d="M27.5312 25.9688H32.2188C32.426 25.9688 32.6247 25.8864 32.7712 25.7399C32.9177 25.5934 33 25.3947 33 25.1875C33 24.9803 32.9177 24.7816 32.7712 24.6351C32.6247 24.4886 32.426 24.4062 32.2188 24.4062H27.5312C27.324 24.4062 27.1253 24.4886 26.9788 24.6351C26.8323 24.7816 26.75 24.9803 26.75 25.1875C26.75 25.3947 26.8323 25.5934 26.9788 25.7399C27.1253 25.8864 27.324 25.9688 27.5312 25.9688Z" fill="#1855A5"/>
<path d="M34.5625 24.4062C34.3553 24.4062 34.1566 24.4886 34.0101 24.6351C33.8636 24.7816 33.7812 24.9803 33.7812 25.1875C33.7812 25.3947 33.8636 25.5934 34.0101 25.7399C34.1566 25.8864 34.3553 25.9688 34.5625 25.9688H35.3438C35.551 25.9688 35.7497 25.8864 35.8962 25.7399C36.0427 25.5934 36.125 25.3947 36.125 25.1875C36.125 24.9803 36.0427 24.7816 35.8962 24.6351C35.7497 24.4886 35.551 24.4062 35.3438 24.4062H34.5625Z" fill="#1855A5"/>
<path d="M27.5312 22.8438H38.4688C38.676 22.8438 38.8747 22.7614 39.0212 22.6149C39.1677 22.4684 39.25 22.2697 39.25 22.0625C39.25 21.8553 39.1677 21.6566 39.0212 21.5101C38.8747 21.3636 38.676 21.2812 38.4688 21.2812H27.5312C27.324 21.2812 27.1253 21.3636 26.9788 21.5101C26.8323 21.6566 26.75 21.8553 26.75 22.0625C26.75 22.2697 26.8323 22.4684 26.9788 22.6149C27.1253 22.7614 27.324 22.8438 27.5312 22.8438Z" fill="#1855A5"/>
<path d="M27.5312 32.2188H32.2188C32.426 32.2188 32.6247 32.1364 32.7712 31.9899C32.9177 31.8434 33 31.6447 33 31.4375C33 31.2303 32.9177 31.0316 32.7712 30.8851C32.6247 30.7386 32.426 30.6562 32.2188 30.6562H27.5312C27.324 30.6562 27.1253 30.7386 26.9788 30.8851C26.8323 31.0316 26.75 31.2303 26.75 31.4375C26.75 31.6447 26.8323 31.8434 26.9788 31.9899C27.1253 32.1364 27.324 32.2188 27.5312 32.2188Z" fill="#1855A5"/>
<path d="M35.3438 30.6562H34.5625C34.3553 30.6562 34.1566 30.7386 34.0101 30.8851C33.8636 31.0316 33.7812 31.2303 33.7812 31.4375C33.7812 31.6447 33.8636 31.8434 34.0101 31.9899C34.1566 32.1364 34.3553 32.2188 34.5625 32.2188H35.3438C35.551 32.2188 35.7497 32.1364 35.8962 31.9899C36.0427 31.8434 36.125 31.6447 36.125 31.4375C36.125 31.2303 36.0427 31.0316 35.8962 30.8851C35.7497 30.7386 35.551 30.6562 35.3438 30.6562Z" fill="#1855A5"/>
<path d="M27.5312 29.0938H38.4688C38.676 29.0938 38.8747 29.0114 39.0212 28.8649C39.1677 28.7184 39.25 28.5197 39.25 28.3125C39.25 28.1053 39.1677 27.9066 39.0212 27.7601C38.8747 27.6136 38.676 27.5312 38.4688 27.5312H27.5312C27.324 27.5312 27.1253 27.6136 26.9788 27.7601C26.8323 27.9066 26.75 28.1053 26.75 28.3125C26.75 28.5197 26.8323 28.7184 26.9788 28.8649C27.1253 29.0114 27.324 29.0938 27.5312 29.0938Z" fill="#1855A5"/>
<path d="M27.5312 19.7188H38.4688C38.676 19.7188 38.8747 19.6364 39.0212 19.4899C39.1677 19.3434 39.25 19.1447 39.25 18.9375C39.25 18.7303 39.1677 18.5316 39.0212 18.3851C38.8747 18.2386 38.676 18.1562 38.4688 18.1562H27.5312C27.324 18.1562 27.1253 18.2386 26.9788 18.3851C26.8323 18.5316 26.75 18.7303 26.75 18.9375C26.75 19.1447 26.8323 19.3434 26.9788 19.4899C27.1253 19.6364 27.324 19.7188 27.5312 19.7188Z" fill="#1855A5"/>
<path d="M27.5312 17.375H38.4688C38.676 17.375 38.8747 17.2927 39.0212 17.1462C39.1677 16.9997 39.25 16.801 39.25 16.5938V13.4688C39.25 13.2615 39.1677 13.0628 39.0212 12.9163C38.8747 12.7698 38.676 12.6875 38.4688 12.6875H27.5312C27.324 12.6875 27.1253 12.7698 26.9788 12.9163C26.8323 13.0628 26.75 13.2615 26.75 13.4688V16.5938C26.75 16.801 26.8323 16.9997 26.9788 17.1462C27.1253 17.2927 27.324 17.375 27.5312 17.375ZM28.3125 14.25H37.6875V15.8125H28.3125V14.25Z" fill="#1855A5"/>
</g>
<defs>
<clipPath id="clip0_1311_4567">
<rect width="65" height="65" fill="white" transform="translate(0 0.5)"/>
</clipPath>
</defs>
</svg>
