<svg width="65" height="66" viewBox="0 0 65 66" fill="none" xmlns="http://www.w3.org/2000/svg">
<g clip-path="url(#clip0_1311_4759)">
<rect y="0.5" width="65" height="65" rx="8" fill="white"/>
<path d="M16.5938 51.75H22.8438V54.0938H16.5938V51.75Z" fill="#3B83E3"/>
<path d="M43.1562 51.75H49.4062V54.0938H43.1562V51.75Z" fill="#3B83E3"/>
<path d="M16.5938 35.3438H22.8438V37.6875H16.5938V35.3438Z" fill="#3B83E3"/>
<path d="M29.875 51.75H36.125V54.0938H29.875V51.75Z" fill="#3B83E3"/>
<path d="M29.875 35.3438H36.125V37.6875H29.875V35.3438Z" fill="#3B83E3"/>
<path d="M43.1562 35.3438H49.4062V37.6875H43.1562V35.3438Z" fill="#3B83E3"/>
<path d="M33 12.6875C33.8629 12.6875 34.5625 11.9879 34.5625 11.125C34.5625 10.2621 33.8629 9.5625 33 9.5625C32.1371 9.5625 31.4375 10.2621 31.4375 11.125C31.4375 11.9879 32.1371 12.6875 33 12.6875Z" fill="#3B83E3"/>
<path d="M14.25 12.6875C15.1129 12.6875 15.8125 11.9879 15.8125 11.125C15.8125 10.2621 15.1129 9.5625 14.25 9.5625C13.3871 9.5625 12.6875 10.2621 12.6875 11.125C12.6875 11.9879 13.3871 12.6875 14.25 12.6875Z" fill="#3B83E3"/>
<path d="M51.8477 12.6875C52.7106 12.6875 53.4102 11.9879 53.4102 11.125C53.4102 10.2621 52.7106 9.5625 51.8477 9.5625C50.9847 9.5625 50.2852 10.2621 50.2852 11.125C50.2852 11.9879 50.9847 12.6875 51.8477 12.6875Z" fill="#3B83E3"/>
<path d="M54.0938 53.3125H50.1875V51.75C50.1875 51.5428 50.1052 51.3441 49.9587 51.1976C49.8122 51.0511 49.6135 50.9687 49.4062 50.9687H48.625V38.4687H49.4062C49.6135 38.4687 49.8122 38.3864 49.9587 38.2399C50.1052 38.0934 50.1875 37.8947 50.1875 37.6875V36.125H50.9688C51.176 36.125 51.3747 36.0427 51.5212 35.8962C51.6677 35.7497 51.75 35.5509 51.75 35.3437V33C51.7501 32.8477 51.7056 32.6988 51.6222 32.5714C51.5387 32.4441 51.4199 32.3439 51.2803 32.2832L39.4736 27.1504C40.0718 25.739 40.1925 24.1709 39.8174 22.6846L52.1201 18.1074C52.2694 18.0517 52.3981 17.9517 52.4891 17.8208C52.58 17.6899 52.6288 17.5344 52.6289 17.375V13.334C53.1502 13.1497 53.5895 12.787 53.8692 12.3102C54.149 11.8333 54.2511 11.2729 54.1577 10.7279C54.0642 10.183 53.781 9.68869 53.3583 9.33233C52.9356 8.97597 52.4005 8.78052 51.8477 8.78052C51.2948 8.78052 50.7597 8.97597 50.337 9.33233C49.9143 9.68869 49.6312 10.183 49.5377 10.7279C49.4442 11.2729 49.5463 11.8333 49.8261 12.3102C50.1058 12.787 50.5451 13.1497 51.0664 13.334V16.832L39.2666 21.2226C38.738 20.1847 37.9602 19.294 37.0029 18.6303C36.0456 17.9667 34.9387 17.5508 33.7812 17.4199V13.334C34.3025 13.1497 34.7418 12.787 35.0216 12.3102C35.3013 11.8333 35.4035 11.2729 35.31 10.7279C35.2165 10.183 34.9334 9.68869 34.5107 9.33233C34.088 8.97597 33.5529 8.78052 33 8.78052C32.4471 8.78052 31.912 8.97597 31.4893 9.33233C31.0666 9.68869 30.7835 10.183 30.69 10.7279C30.5965 11.2729 30.6987 11.8333 30.9784 12.3102C31.2582 12.787 31.6975 13.1497 32.2188 13.334V17.4199C31.0614 17.5507 29.9546 17.9666 28.9974 18.6302C28.0403 19.2939 27.2627 20.1846 26.7344 21.2226L15.0312 16.834V13.334C15.5525 13.1497 15.9918 12.787 16.2716 12.3102C16.5513 11.8333 16.6535 11.2729 16.56 10.7279C16.4665 10.183 16.1834 9.68869 15.7607 9.33233C15.338 8.97597 14.8029 8.78052 14.25 8.78052C13.6971 8.78052 13.162 8.97597 12.7393 9.33233C12.3166 9.68869 12.0335 10.183 11.94 10.7279C11.8465 11.2729 11.9487 11.8333 12.2284 12.3102C12.5082 12.787 12.9475 13.1497 13.4688 13.334V17.375C13.4688 17.534 13.5174 17.6892 13.6079 17.8199C13.6985 17.9506 13.8267 18.0505 13.9756 18.1064L26.1826 22.6846C25.8075 24.1709 25.9282 25.739 26.5264 27.1504L14.7197 32.2832C14.5801 32.3439 14.4613 32.4441 14.3778 32.5714C14.2944 32.6988 14.2499 32.8477 14.25 33V35.3437C14.25 35.5509 14.3323 35.7497 14.4788 35.8962C14.6253 36.0427 14.824 36.125 15.0312 36.125H15.8125V37.6875C15.8125 37.8947 15.8948 38.0934 16.0413 38.2399C16.1878 38.3864 16.3865 38.4687 16.5938 38.4687H17.375V50.9687H16.5938C16.3865 50.9687 16.1878 51.0511 16.0413 51.1976C15.8948 51.3441 15.8125 51.5428 15.8125 51.75V53.3125H11.9062C11.699 53.3125 11.5003 53.3948 11.3538 53.5413C11.2073 53.6878 11.125 53.8865 11.125 54.0937V56.4375C11.125 56.6447 11.2073 56.8434 11.3538 56.9899C11.5003 57.1364 11.699 57.2187 11.9062 57.2187H54.0938C54.301 57.2187 54.4997 57.1364 54.6462 56.9899C54.7927 56.8434 54.875 56.6447 54.875 56.4375V54.0937C54.875 53.8865 54.7927 53.6878 54.6462 53.5413C54.4997 53.3948 54.301 53.3125 54.0938 53.3125ZM51.8477 10.3437C52.0022 10.3437 52.1532 10.3896 52.2817 10.4754C52.4102 10.5613 52.5103 10.6833 52.5694 10.826C52.6286 10.9688 52.644 11.1259 52.6139 11.2774C52.5838 11.429 52.5093 11.5682 52.4001 11.6774C52.2908 11.7867 52.1516 11.8611 52.0001 11.8912C51.8485 11.9214 51.6914 11.9059 51.5487 11.8468C51.4059 11.7876 51.2839 11.6875 51.1981 11.559C51.1122 11.4306 51.0664 11.2795 51.0664 11.125C51.0667 10.9179 51.1491 10.7193 51.2955 10.5729C51.442 10.4264 51.6405 10.344 51.8477 10.3437ZM14.25 11.9062C14.0955 11.9062 13.9444 11.8604 13.816 11.7746C13.6875 11.6887 13.5874 11.5667 13.5282 11.424C13.4691 11.2812 13.4536 11.1241 13.4838 10.9726C13.5139 10.821 13.5883 10.6818 13.6976 10.5726C13.8068 10.4633 13.946 10.3889 14.0976 10.3588C14.2491 10.3286 14.4062 10.3441 14.549 10.4032C14.6917 10.4623 14.8137 10.5625 14.8996 10.691C14.9854 10.8194 15.0312 10.9705 15.0312 11.125C15.031 11.3321 14.9486 11.5307 14.8021 11.6771C14.6557 11.8236 14.4571 11.906 14.25 11.9062ZM48.625 36.9062H43.9375V36.125H48.625V36.9062ZM36.125 50.9687H35.3438V38.4687H36.125C36.3322 38.4687 36.5309 38.3864 36.6774 38.2399C36.8239 38.0934 36.9062 37.8947 36.9062 37.6875V36.125H42.375V37.6875C42.375 37.8947 42.4573 38.0934 42.6038 38.2399C42.7503 38.3864 42.949 38.4687 43.1562 38.4687H43.9375V50.9687H43.1562C42.949 50.9687 42.7503 51.0511 42.6038 51.1976C42.4573 51.3441 42.375 51.5428 42.375 51.75V53.3125H36.9062V51.75C36.9062 51.5428 36.8239 51.3441 36.6774 51.1976C36.5309 51.0511 36.3322 50.9687 36.125 50.9687ZM22.8438 50.9687H22.0625V38.4687H22.8438C23.051 38.4687 23.2497 38.3864 23.3962 38.2399C23.5427 38.0934 23.625 37.8947 23.625 37.6875V36.125H29.0938V37.6875C29.0938 37.8947 29.1761 38.0934 29.3226 38.2399C29.4691 38.3864 29.6678 38.4687 29.875 38.4687H30.6562V50.9687H29.875C29.6678 50.9687 29.4691 51.0511 29.3226 51.1976C29.1761 51.3441 29.0938 51.5428 29.0938 51.75V53.3125H23.625V51.75C23.625 51.5428 23.5427 51.3441 23.3962 51.1976C23.2497 51.0511 23.051 50.9687 22.8438 50.9687ZM17.375 36.9062V36.125H22.0625V36.9062H17.375ZM20.5 38.4687V50.9687H18.9375V38.4687H20.5ZM30.6562 52.5312H35.3438V53.3125H30.6562V52.5312ZM32.2188 50.9687V38.4687H33.7812V50.9687H32.2188ZM30.6562 36.9062V36.125H35.3438V36.9062H30.6562ZM43.9375 52.5312H48.625V53.3125H43.9375V52.5312ZM45.5 50.9687V38.4687H47.0625V50.9687H45.5ZM33 10.3437C33.1545 10.3437 33.3056 10.3896 33.434 10.4754C33.5625 10.5613 33.6626 10.6833 33.7218 10.826C33.7809 10.9688 33.7964 11.1259 33.7662 11.2774C33.7361 11.429 33.6617 11.5682 33.5524 11.6774C33.4432 11.7867 33.304 11.8611 33.1524 11.8912C33.0009 11.9214 32.8438 11.9059 32.701 11.8468C32.5583 11.7876 32.4363 11.6875 32.3504 11.559C32.2646 11.4306 32.2188 11.2795 32.2188 11.125C32.219 10.9179 32.3014 10.7193 32.4479 10.5729C32.5943 10.4264 32.7929 10.344 33 10.3437ZM33 18.9375C34.0816 18.9375 35.1389 19.2582 36.0383 19.8591C36.9376 20.4601 37.6385 21.3142 38.0525 22.3134C38.4664 23.3127 38.5747 24.4123 38.3637 25.4731C38.1527 26.534 37.6318 27.5084 36.867 28.2732C36.1022 29.0381 35.1277 29.5589 34.0669 29.7699C33.0061 29.9809 31.9065 29.8726 30.9072 29.4587C29.9079 29.0448 29.0538 28.3438 28.4529 27.4445C27.852 26.5452 27.5312 25.4879 27.5312 24.4062C27.5329 22.9563 28.1095 21.5663 29.1348 20.541C30.16 19.5158 31.5501 18.9391 33 18.9375ZM15.8125 34.5625V33.5127L27.3008 28.5166C27.951 29.4205 28.807 30.1568 29.7979 30.6647C30.7889 31.1726 31.8865 31.4375 33 31.4375C34.1135 31.4375 35.2111 31.1726 36.2021 30.6647C37.193 30.1568 38.049 29.4205 38.6992 28.5166L50.1875 33.5127V34.5625H15.8125ZM17.375 52.5312H22.0625V53.3125H17.375V52.5312ZM53.3125 55.6562H12.6875V54.875H53.3125V55.6562Z" fill="#1855A5"/>
<path d="M31.4375 25.9688C31.2303 25.9688 31.0316 26.0511 30.8851 26.1976C30.7386 26.3441 30.6562 26.5428 30.6562 26.75C30.6562 26.9572 30.7386 27.1559 30.8851 27.3024C31.0316 27.4489 31.2303 27.5312 31.4375 27.5312H32.2188C32.2188 27.7385 32.3011 27.9372 32.4476 28.0837C32.5941 28.2302 32.7928 28.3125 33 28.3125C33.2072 28.3125 33.4059 28.2302 33.5524 28.0837C33.6989 27.9372 33.7812 27.7385 33.7812 27.5312H34.5625C34.7697 27.5312 34.9684 27.4489 35.1149 27.3024C35.2614 27.1559 35.3438 26.9572 35.3438 26.75V24.4062C35.3438 24.199 35.2614 24.0003 35.1149 23.8538C34.9684 23.7073 34.7697 23.625 34.5625 23.625H32.2188V22.8438H34.5625C34.7697 22.8438 34.9684 22.7614 35.1149 22.6149C35.2614 22.4684 35.3438 22.2697 35.3438 22.0625C35.3438 21.8553 35.2614 21.6566 35.1149 21.5101C34.9684 21.3636 34.7697 21.2812 34.5625 21.2812H33.7812C33.7812 21.074 33.6989 20.8753 33.5524 20.7288C33.4059 20.5823 33.2072 20.5 33 20.5C32.7928 20.5 32.5941 20.5823 32.4476 20.7288C32.3011 20.8753 32.2188 21.074 32.2188 21.2812H31.4375C31.2303 21.2812 31.0316 21.3636 30.8851 21.5101C30.7386 21.6566 30.6562 21.8553 30.6562 22.0625V24.4062C30.6562 24.6135 30.7386 24.8122 30.8851 24.9587C31.0316 25.1052 31.2303 25.1875 31.4375 25.1875H33.7812V25.9688H31.4375Z" fill="#1855A5"/>
</g>
<defs>
<clipPath id="clip0_1311_4759">
<rect width="65" height="65" fill="white" transform="translate(0 0.5)"/>
</clipPath>
</defs>
</svg>
