<svg width="80" height="80" viewBox="0 0 80 80" fill="none" xmlns="http://www.w3.org/2000/svg">
<g clip-path="url(#clip0_2404_5462)">
<rect width="80" height="80" rx="8" fill="white"/>
<path d="M64.9219 14.625H15.0781C14.7806 14.6249 14.4859 14.6835 14.211 14.7973C13.9361 14.9111 13.6863 15.078 13.4759 15.2884C13.2655 15.4988 13.0986 15.7486 12.9848 16.0235C12.871 16.2984 12.8124 16.5931 12.8125 16.8906V20.0625H67.1875V16.8906C67.1876 16.5931 67.129 16.2984 67.0152 16.0235C66.9014 15.7486 66.7345 15.4988 66.5241 15.2884C66.3137 15.078 66.0639 14.9111 65.789 14.7973C65.5141 14.6835 65.2194 14.6249 64.9219 14.625Z" fill="#3B83E3"/>
<path d="M20.0625 46.3438H26.4062V60.8438H20.0625V46.3438Z" fill="#3B83E3"/>
<path d="M29.125 36.375C30.126 36.375 30.9375 35.5635 30.9375 34.5625C30.9375 33.5615 30.126 32.75 29.125 32.75C28.124 32.75 27.3125 33.5615 27.3125 34.5625C27.3125 35.5635 28.124 36.375 29.125 36.375Z" fill="#3B83E3"/>
<path d="M40 29.125C41.001 29.125 41.8125 28.3135 41.8125 27.3125C41.8125 26.3115 41.001 25.5 40 25.5C38.999 25.5 38.1875 26.3115 38.1875 27.3125C38.1875 28.3135 38.999 29.125 40 29.125Z" fill="#3B83E3"/>
<path d="M18.25 41.8125C19.251 41.8125 20.0625 41.001 20.0625 40C20.0625 38.999 19.251 38.1875 18.25 38.1875C17.249 38.1875 16.4375 38.999 16.4375 40C16.4375 41.001 17.249 41.8125 18.25 41.8125Z" fill="#3B83E3"/>
<path d="M61.75 30.9375C62.751 30.9375 63.5625 30.126 63.5625 29.125C63.5625 28.124 62.751 27.3125 61.75 27.3125C60.749 27.3125 59.9375 28.124 59.9375 29.125C59.9375 30.126 60.749 30.9375 61.75 30.9375Z" fill="#3B83E3"/>
<path d="M50.875 36.375C51.876 36.375 52.6875 35.5635 52.6875 34.5625C52.6875 33.5615 51.876 32.75 50.875 32.75C49.874 32.75 49.0625 33.5615 49.0625 34.5625C49.0625 35.5635 49.874 36.375 50.875 36.375Z" fill="#3B83E3"/>
<path d="M64.9219 13.7188H15.0781C14.2372 13.7197 13.4309 14.0542 12.8363 14.6488C12.2417 15.2434 11.9072 16.0497 11.9062 16.8906V61.2969C11.9072 62.1378 12.2417 62.9441 12.8363 63.5387C13.4309 64.1333 14.2372 64.4678 15.0781 64.4688H35.1799L36.2368 65.5098C36.7441 66.0078 37.4268 66.2865 38.1377 66.2858H58.1295C58.6922 66.285 59.2408 66.1098 59.6999 65.7844C60.159 65.459 60.5059 64.9994 60.6931 64.4688H64.9219C65.7628 64.4678 66.5691 64.1333 67.1637 63.5387C67.7583 62.9441 68.0928 62.1378 68.0938 61.2969V16.8906C68.0928 16.0497 67.7583 15.2434 67.1637 14.6488C66.5691 14.0542 65.7628 13.7197 64.9219 13.7188ZM59.0358 63.567C59.0355 63.8073 58.9399 64.0376 58.77 64.2075C58.6001 64.3774 58.3698 64.473 58.1295 64.4733H38.1377C37.9015 64.4734 37.6746 64.3811 37.5055 64.2161L36.1949 62.9247L36.1881 62.9179L31.2003 58.0049C30.6929 57.5023 30.0069 57.2212 29.2927 57.2233H27.317V49.9733H36.3807L40.2118 49.9642H40.2141C40.3393 49.9643 40.4631 49.9904 40.5777 50.0407C40.6924 50.091 40.7953 50.1645 40.8802 50.2565L48.2605 58.27C48.2695 58.2802 48.2775 58.2881 48.2865 58.2972C48.4341 58.4452 48.5262 58.6396 48.5472 58.8476C48.5683 59.0556 48.517 59.2645 48.4021 59.4391C48.3681 59.4894 48.3294 59.5365 48.2865 59.5795L47.0053 60.8607C46.8351 61.0305 46.6045 61.1258 46.3641 61.1258C46.1238 61.1258 45.8932 61.0305 45.723 60.8607L39.9558 55.0936C39.8725 55.0059 39.7725 54.9358 39.6616 54.8873C39.5508 54.8389 39.4314 54.8132 39.3104 54.8116C39.1895 54.8101 39.0694 54.8328 38.9574 54.8783C38.8453 54.9239 38.7435 54.9914 38.658 55.077C38.5725 55.1625 38.5049 55.2643 38.4593 55.3764C38.4138 55.4884 38.3911 55.6084 38.3926 55.7294C38.3942 55.8503 38.4199 55.9698 38.4684 56.0806C38.5168 56.1915 38.5869 56.2915 38.6746 56.3748L44.4418 62.142C44.9516 62.6518 45.6431 62.9382 46.3641 62.9382C47.0852 62.9382 47.7767 62.6518 48.2865 62.142L49.5677 60.8607C49.5716 60.8563 49.5758 60.8521 49.5802 60.8483H58.1295C58.3699 60.8483 58.6004 60.9438 58.7703 61.1137C58.9403 61.2837 59.0358 61.5142 59.0358 61.7545V63.567ZM66.2812 61.2969C66.281 61.6573 66.1376 62.0029 65.8828 62.2578C65.6279 62.5126 65.2823 62.656 64.9219 62.6562H60.8483V61.7545C60.8475 61.0337 60.5609 60.3426 60.0512 59.8329C59.5414 59.3232 58.8504 59.0365 58.1295 59.0358H50.3618C50.3747 58.6662 50.3123 58.2978 50.1783 57.9531C50.0443 57.6084 49.8416 57.2946 49.5825 57.0307L42.2146 49.0296C41.96 48.7515 41.6499 48.5297 41.3044 48.3785C40.9589 48.2273 40.5856 48.15 40.2084 48.1517L36.3795 48.1608H27.3125V46.3438C27.3125 46.1034 27.217 45.8729 27.0471 45.7029C26.8771 45.533 26.6466 45.4375 26.4062 45.4375H20.0625C19.8221 45.4375 19.5916 45.533 19.4217 45.7029C19.2517 45.8729 19.1562 46.1034 19.1562 46.3438V60.8438C19.1562 61.0841 19.2517 61.3146 19.4217 61.4846C19.5916 61.6545 19.8221 61.75 20.0625 61.75H26.4062C26.6466 61.75 26.8771 61.6545 27.0471 61.4846C27.217 61.3146 27.3125 61.0841 27.3125 60.8438V59.0358H29.2927C29.5302 59.0362 29.7582 59.1292 29.9282 59.2952L33.3402 62.6562H15.0781C14.7177 62.656 14.3721 62.5126 14.1172 62.2578C13.8624 62.0029 13.719 61.6573 13.7188 61.2969V20.9688H66.2812V61.2969ZM25.5 47.25V59.9375H20.9688V47.25H25.5ZM66.2812 19.1562H13.7188V16.8906C13.719 16.5302 13.8624 16.1846 14.1172 15.9297C14.3721 15.6749 14.7177 15.5315 15.0781 15.5312H64.9219C65.2823 15.5315 65.6279 15.6749 65.8828 15.9297C66.1376 16.1846 66.281 16.5302 66.2812 16.8906V19.1562Z" fill="#1855A5"/>
<path d="M16.4375 18.25H17.3438C17.5841 18.25 17.8146 18.1545 17.9846 17.9846C18.1545 17.8146 18.25 17.5841 18.25 17.3438C18.25 17.1034 18.1545 16.8729 17.9846 16.7029C17.8146 16.533 17.5841 16.4375 17.3438 16.4375H16.4375C16.1971 16.4375 15.9666 16.533 15.7967 16.7029C15.6267 16.8729 15.5312 17.1034 15.5312 17.3438C15.5312 17.5841 15.6267 17.8146 15.7967 17.9846C15.9666 18.1545 16.1971 18.25 16.4375 18.25Z" fill="#1855A5"/>
<path d="M20.0625 18.25H20.9688C21.2091 18.25 21.4396 18.1545 21.6096 17.9846C21.7795 17.8146 21.875 17.5841 21.875 17.3438C21.875 17.1034 21.7795 16.8729 21.6096 16.7029C21.4396 16.533 21.2091 16.4375 20.9688 16.4375H20.0625C19.8221 16.4375 19.5916 16.533 19.4217 16.7029C19.2517 16.8729 19.1562 17.1034 19.1562 17.3438C19.1562 17.5841 19.2517 17.8146 19.4217 17.9846C19.5916 18.1545 19.8221 18.25 20.0625 18.25Z" fill="#1855A5"/>
<path d="M23.6875 18.25H24.5938C24.8341 18.25 25.0646 18.1545 25.2346 17.9846C25.4045 17.8146 25.5 17.5841 25.5 17.3438C25.5 17.1034 25.4045 16.8729 25.2346 16.7029C25.0646 16.533 24.8341 16.4375 24.5938 16.4375H23.6875C23.4471 16.4375 23.2166 16.533 23.0467 16.7029C22.8767 16.8729 22.7812 17.1034 22.7812 17.3438C22.7812 17.5841 22.8767 17.8146 23.0467 17.9846C23.2166 18.1545 23.4471 18.25 23.6875 18.25Z" fill="#1855A5"/>
<path d="M61.7499 26.4063C61.1136 26.4071 60.4976 26.6309 60.009 27.0387C59.5205 27.4465 59.1902 28.0126 59.0756 28.6386L53.1527 33.0808C52.915 32.7146 52.5925 32.4111 52.2126 32.1961C51.8326 31.981 51.4064 31.8607 50.9701 31.8454C50.5338 31.8301 50.1002 31.9203 49.7062 32.1082C49.3121 32.2961 48.9692 32.5763 48.7064 32.9249L42.6883 26.9067C42.5915 26.2672 42.2698 25.6831 41.781 25.2594C41.2922 24.8357 40.6683 24.6001 40.0215 24.5951C39.3746 24.59 38.7472 24.8157 38.2518 25.2317C37.7564 25.6477 37.4256 26.2267 37.3188 26.8647L30.8349 32.4508C30.4149 32.1092 29.9023 31.901 29.3631 31.8528C28.8238 31.8047 28.2825 31.9188 27.8086 32.1806C27.3347 32.4424 26.9498 32.8399 26.7035 33.3221C26.4572 33.8042 26.3606 34.349 26.4262 34.8864L20.5788 38.5987C20.2516 38.0554 19.7446 37.6436 19.1457 37.4347C18.5469 37.2258 17.8938 37.2329 17.2996 37.4548C16.7055 37.6767 16.2076 38.0995 15.8923 38.6498C15.577 39.2001 15.4641 39.8434 15.5732 40.4682C15.6823 41.093 16.0064 41.66 16.4895 42.071C16.9726 42.482 17.5842 42.7111 18.2184 42.7186C18.8526 42.7261 19.4695 42.5115 19.9622 42.1121C20.4549 41.7126 20.7923 41.1535 20.9161 40.5314L27.2384 36.5174C27.6556 36.9201 28.1907 37.1789 28.7655 37.2557C29.3403 37.3326 29.9246 37.2237 30.433 36.9448C30.9414 36.6659 31.3473 36.2316 31.5914 35.7056C31.8354 35.1795 31.9047 34.5892 31.7893 34.0209L37.7715 28.8666C38.0166 29.2189 38.3417 29.508 38.7202 29.7103C39.0987 29.9125 39.5197 30.0222 39.9488 30.0303C40.3779 30.0384 40.8027 29.9447 41.1886 29.7569C41.5744 29.569 41.9102 29.2924 42.1685 28.9497L48.1866 34.9678C48.2829 35.6041 48.6018 36.1855 49.0865 36.6087C49.5712 37.0319 50.1904 37.2695 50.8338 37.2792C51.4772 37.2888 52.1032 37.07 52.6004 36.6615C53.0976 36.2531 53.4338 35.6815 53.5493 35.0485L59.4722 30.6063C59.729 31.0012 60.0841 31.3226 60.5025 31.539C60.921 31.7553 61.3885 31.8592 61.8592 31.8405C62.3299 31.8217 62.7876 31.681 63.1875 31.432C63.5875 31.183 63.9158 30.8344 64.1404 30.4203C64.3649 30.0062 64.478 29.5408 64.4686 29.0698C64.4591 28.5988 64.3274 28.1384 64.0864 27.7336C63.8453 27.3289 63.5033 26.9937 63.0937 26.761C62.6841 26.5283 62.221 26.4061 61.7499 26.4063ZM18.2499 40.9063C18.0707 40.9063 17.8955 40.8531 17.7465 40.7535C17.5974 40.6539 17.4813 40.5124 17.4127 40.3468C17.3441 40.1812 17.3261 39.999 17.3611 39.8232C17.3961 39.6474 17.4824 39.4859 17.6091 39.3592C17.7359 39.2325 17.8973 39.1461 18.0731 39.1112C18.2489 39.0762 18.4312 39.0942 18.5967 39.1627C18.7623 39.2313 18.9039 39.3475 19.0035 39.4965C19.103 39.6456 19.1562 39.8208 19.1562 40C19.1559 40.2403 19.0604 40.4706 18.8905 40.6405C18.7206 40.8104 18.4902 40.906 18.2499 40.9063ZM29.1249 35.4688C28.9457 35.4688 28.7705 35.4156 28.6215 35.316C28.4724 35.2164 28.3563 35.0749 28.2877 34.9093C28.2191 34.7437 28.2011 34.5615 28.2361 34.3857C28.2711 34.2099 28.3574 34.0484 28.4841 33.9217C28.6109 33.795 28.7723 33.7086 28.9481 33.6737C29.1239 33.6387 29.3062 33.6567 29.4717 33.7252C29.6373 33.7938 29.7789 33.91 29.8785 34.059C29.978 34.2081 30.0312 34.3833 30.0312 34.5625C30.0309 34.8028 29.9354 35.0331 29.7655 35.203C29.5956 35.3729 29.3652 35.4685 29.1249 35.4688ZM39.9999 28.2188C39.8207 28.2188 39.6455 28.1656 39.4965 28.066C39.3474 27.9665 39.2313 27.8249 39.1627 27.6593C39.0941 27.4937 39.0761 27.3115 39.1111 27.1357C39.1461 26.9599 39.2324 26.7984 39.3591 26.6717C39.4859 26.545 39.6473 26.4586 39.8231 26.4237C39.9989 26.3887 40.1812 26.4067 40.3467 26.4752C40.5123 26.5438 40.6539 26.66 40.7535 26.809C40.853 26.9581 40.9062 27.1333 40.9062 27.3125C40.9059 27.5528 40.8104 27.7831 40.6405 27.953C40.4706 28.1229 40.2402 28.2185 39.9999 28.2188ZM50.8749 35.4688C50.6957 35.4688 50.5205 35.4156 50.3715 35.316C50.2224 35.2164 50.1063 35.0749 50.0377 34.9093C49.9691 34.7437 49.9511 34.5615 49.9861 34.3857C50.0211 34.2099 50.1074 34.0484 50.2341 33.9217C50.3609 33.795 50.5223 33.7086 50.6981 33.6737C50.8739 33.6387 51.0562 33.6567 51.2217 33.7252C51.3873 33.7938 51.5289 33.91 51.6285 34.059C51.728 34.2081 51.7812 34.3833 51.7812 34.5625C51.7809 34.8028 51.6854 35.0331 51.5155 35.203C51.3456 35.3729 51.1152 35.4685 50.8749 35.4688ZM61.7499 30.0313C61.5707 30.0313 61.3955 29.9781 61.2465 29.8785C61.0974 29.779 60.9813 29.6374 60.9127 29.4718C60.8441 29.3062 60.8261 29.124 60.8611 28.9482C60.8961 28.7724 60.9824 28.6109 61.1091 28.4842C61.2359 28.3575 61.3973 28.2711 61.5731 28.2362C61.7489 28.2012 61.9312 28.2192 62.0967 28.2877C62.2623 28.3563 62.4039 28.4725 62.5035 28.6215C62.603 28.7706 62.6562 28.9458 62.6562 29.125C62.6559 29.3653 62.5604 29.5956 62.3905 29.7655C62.2206 29.9354 61.9902 30.031 61.7499 30.0313Z" fill="#1855A5"/>
</g>
<defs>
<clipPath id="clip0_2404_5462">
<rect width="80" height="80" fill="white"/>
</clipPath>
</defs>
</svg>
