<svg width="80" height="80" viewBox="0 0 80 80" fill="none" xmlns="http://www.w3.org/2000/svg">
<g clip-path="url(#clip0_776_1888)">
<rect width="80" height="80" rx="8" fill="white"/>
<path d="M52.5806 10.9677H55.4839V31.2903H52.5806V10.9677Z" fill="#4A8ADE"/>
<path d="M52.5806 65.1613L49.3556 61.2903L46.1294 65.1613L42.9044 61.2903L39.6782 65.1613L36.4532 61.2903L33.2282 65.1613L30.002 61.2903L26.7758 65.1613L23.5496 61.2903L20.3234 65.1613L17.0972 61.2903L13.871 65.1613V10.9677H10.9677V69.0323H55.4839V36.129H52.5806V65.1613Z" fill="#4A8ADE"/>
<path d="M26.9355 18.7097H39.5161C39.8339 18.7098 40.1485 18.6473 40.4421 18.5257C40.7357 18.4042 41.0024 18.226 41.2271 18.0013C41.4518 17.7766 41.63 17.5099 41.7515 17.2163C41.8731 16.9227 41.9356 16.6081 41.9355 16.2903V10.9677H24.5161V16.2903C24.516 16.6081 24.5785 16.9227 24.7001 17.2163C24.8216 17.5099 24.9999 17.7766 25.2245 18.0013C25.4492 18.226 25.716 18.4042 26.0095 18.5257C26.3031 18.6473 26.6177 18.7098 26.9355 18.7097Z" fill="#4A8ADE"/>
<path d="M66.129 33.2258H69.0323V48.7097H66.129V33.2258Z" fill="#4A8ADE"/>
<path d="M40 37.0968H26.4516C26.195 37.0968 25.9488 37.1987 25.7673 37.3802C25.5858 37.5617 25.4839 37.8079 25.4839 38.0645C25.4839 38.3212 25.5858 38.5673 25.7673 38.7488C25.9488 38.9303 26.195 39.0323 26.4516 39.0323H40C40.2567 39.0323 40.5028 38.9303 40.6843 38.7488C40.8658 38.5673 40.9677 38.3212 40.9677 38.0645C40.9677 37.8079 40.8658 37.5617 40.6843 37.3802C40.5028 37.1987 40.2567 37.0968 40 37.0968Z" fill="#1857AA"/>
<path d="M35.1613 41.9355H20.6452C20.3885 41.9355 20.1423 42.0374 19.9609 42.2189C19.7794 42.4004 19.6774 42.6466 19.6774 42.9032C19.6774 43.1599 19.7794 43.406 19.9609 43.5875C20.1423 43.769 20.3885 43.871 20.6452 43.871H35.1613C35.4179 43.871 35.6641 43.769 35.8456 43.5875C36.0271 43.406 36.129 43.1599 36.129 42.9032C36.129 42.6466 36.0271 42.4004 35.8456 42.2189C35.6641 42.0374 35.4179 41.9355 35.1613 41.9355Z" fill="#1857AA"/>
<path d="M39.0323 40.9677C38.7756 40.9677 38.5294 41.0697 38.348 41.2512C38.1665 41.4327 38.0645 41.6788 38.0645 41.9355V55.4839C38.0645 55.7405 38.1665 55.9867 38.348 56.1682C38.5294 56.3497 38.7756 56.4516 39.0323 56.4516C39.2889 56.4516 39.5351 56.3497 39.7166 56.1682C39.898 55.9867 40 55.7405 40 55.4839V41.9355C40 41.6788 39.898 41.4327 39.7166 41.2512C39.5351 41.0697 39.2889 40.9677 39.0323 40.9677Z" fill="#1857AA"/>
<path d="M45.8065 41.9355H42.9032C42.6466 41.9355 42.4004 42.0374 42.2189 42.2189C42.0374 42.4004 41.9355 42.6466 41.9355 42.9032C41.9355 43.1599 42.0374 43.406 42.2189 43.5875C42.4004 43.769 42.6466 43.871 42.9032 43.871H45.8065C46.0631 43.871 46.3093 43.769 46.4908 43.5875C46.6722 43.406 46.7742 43.1599 46.7742 42.9032C46.7742 42.6466 46.6722 42.4004 46.4908 42.2189C46.3093 42.0374 46.0631 41.9355 45.8065 41.9355Z" fill="#1857AA"/>
<path d="M35.1613 45.8065H20.6452C20.3885 45.8065 20.1423 45.9084 19.9609 46.0899C19.7794 46.2714 19.6774 46.5175 19.6774 46.7742C19.6774 47.0309 19.7794 47.277 19.9609 47.4585C20.1423 47.64 20.3885 47.7419 20.6452 47.7419H35.1613C35.4179 47.7419 35.6641 47.64 35.8456 47.4585C36.0271 47.277 36.129 47.0309 36.129 46.7742C36.129 46.5175 36.0271 46.2714 35.8456 46.0899C35.6641 45.9084 35.4179 45.8065 35.1613 45.8065Z" fill="#1857AA"/>
<path d="M45.8065 45.8065H42.9032C42.6466 45.8065 42.4004 45.9084 42.2189 46.0899C42.0374 46.2714 41.9355 46.5175 41.9355 46.7742C41.9355 47.0309 42.0374 47.277 42.2189 47.4585C42.4004 47.64 42.6466 47.7419 42.9032 47.7419H45.8065C46.0631 47.7419 46.3093 47.64 46.4908 47.4585C46.6722 47.277 46.7742 47.0309 46.7742 46.7742C46.7742 46.5175 46.6722 46.2714 46.4908 46.0899C46.3093 45.9084 46.0631 45.8065 45.8065 45.8065Z" fill="#1857AA"/>
<path d="M35.1613 49.6774H20.6452C20.3885 49.6774 20.1423 49.7794 19.9609 49.9609C19.7794 50.1424 19.6774 50.3885 19.6774 50.6452C19.6774 50.9018 19.7794 51.148 19.9609 51.3295C20.1423 51.511 20.3885 51.6129 20.6452 51.6129H35.1613C35.4179 51.6129 35.6641 51.511 35.8456 51.3295C36.0271 51.148 36.129 50.9018 36.129 50.6452C36.129 50.3885 36.0271 50.1424 35.8456 49.9609C35.6641 49.7794 35.4179 49.6774 35.1613 49.6774Z" fill="#1857AA"/>
<path d="M45.8065 49.6774H42.9032C42.6466 49.6774 42.4004 49.7794 42.2189 49.9609C42.0374 50.1424 41.9355 50.3885 41.9355 50.6452C41.9355 50.9018 42.0374 51.148 42.2189 51.3295C42.4004 51.511 42.6466 51.6129 42.9032 51.6129H45.8065C46.0631 51.6129 46.3093 51.511 46.4908 51.3295C46.6722 51.148 46.7742 50.9018 46.7742 50.6452C46.7742 50.3885 46.6722 50.1424 46.4908 49.9609C46.3093 49.7794 46.0631 49.6774 45.8065 49.6774Z" fill="#1857AA"/>
<path d="M35.1613 53.5484H20.6452C20.3885 53.5484 20.1423 53.6504 19.9609 53.8318C19.7794 54.0133 19.6774 54.2595 19.6774 54.5161C19.6774 54.7728 19.7794 55.019 19.9609 55.2004C20.1423 55.3819 20.3885 55.4839 20.6452 55.4839H35.1613C35.4179 55.4839 35.6641 55.3819 35.8456 55.2004C36.0271 55.019 36.129 54.7728 36.129 54.5161C36.129 54.2595 36.0271 54.0133 35.8456 53.8318C35.6641 53.6504 35.4179 53.5484 35.1613 53.5484Z" fill="#1857AA"/>
<path d="M45.8065 53.5484H42.9032C42.6466 53.5484 42.4004 53.6504 42.2189 53.8318C42.0374 54.0133 41.9355 54.2595 41.9355 54.5161C41.9355 54.7728 42.0374 55.019 42.2189 55.2004C42.4004 55.3819 42.6466 55.4839 42.9032 55.4839H45.8065C46.0631 55.4839 46.3093 55.3819 46.4908 55.2004C46.6722 55.019 46.7742 54.7728 46.7742 54.5161C46.7742 54.2595 46.6722 54.0133 46.4908 53.8318C46.3093 53.6504 46.0631 53.5484 45.8065 53.5484Z" fill="#1857AA"/>
<path d="M69.0323 32.2581H66.129C65.8724 32.2581 65.6262 32.36 65.4447 32.5415C65.2632 32.723 65.1613 32.9691 65.1613 33.2258H63.6262L61.0073 30.6056C60.8256 30.4243 60.5793 30.3225 60.3226 30.3226H56.4516V10.9677C56.4516 10.7111 56.3497 10.4649 56.1682 10.2834C55.9867 10.102 55.7405 10 55.4839 10H10.9677C10.7111 10 10.4649 10.102 10.2834 10.2834C10.102 10.4649 10 10.7111 10 10.9677V69.0323C10 69.2889 10.102 69.5351 10.2834 69.7166C10.4649 69.898 10.7111 70 10.9677 70H55.4839C55.7405 70 55.9867 69.898 56.1682 69.7166C56.3497 69.5351 56.4516 69.2889 56.4516 69.0323V51.6129H60.3226C60.5793 51.613 60.8256 51.5112 61.0073 51.3298L63.6262 48.7097H65.1613C65.1613 48.9663 65.2632 49.2125 65.4447 49.394C65.6262 49.5755 65.8724 49.6774 66.129 49.6774H69.0323C69.2889 49.6774 69.5351 49.5755 69.7166 49.394C69.898 49.2125 70 48.9663 70 48.7097V33.2258C70 32.9691 69.898 32.723 69.7166 32.5415C69.5351 32.36 69.2889 32.2581 69.0323 32.2581ZM53.5484 11.9355H54.5161V30.3226H53.5484V11.9355ZM25.4839 11.9355H40.9677V16.2903C40.9674 16.6752 40.8144 17.0443 40.5422 17.3164C40.2701 17.5886 39.901 17.7416 39.5161 17.7419H26.9355C26.5506 17.7416 26.1816 17.5886 25.9094 17.3164C25.6372 17.0443 25.4842 16.6752 25.4839 16.2903V11.9355ZM14.8387 11.9355H23.5484V16.2903C23.5494 17.1883 23.9066 18.0493 24.5415 18.6843C25.1765 19.3193 26.0375 19.6764 26.9355 19.6774H39.5161C40.4141 19.6764 41.2751 19.3193 41.9101 18.6843C42.5451 18.0493 42.9022 17.1883 42.9032 16.2903V11.9355H51.6129V30.3226H51.129C50.2307 30.3226 49.3692 30.6794 48.734 31.3146C48.0988 31.9498 47.7419 32.8114 47.7419 33.7097C47.7419 34.608 48.0988 35.4695 48.734 36.1047C49.3692 36.7399 50.2307 37.0968 51.129 37.0968H51.6129V62.4879L50.0996 60.671C50.0088 60.5618 49.8951 60.474 49.7665 60.4137C49.6379 60.3534 49.4976 60.3221 49.3556 60.3221C49.2136 60.3221 49.0734 60.3534 48.9448 60.4137C48.8162 60.474 48.7025 60.5618 48.6117 60.671L46.1294 63.6492L43.6484 60.671C43.5114 60.5068 43.3239 60.3925 43.1152 60.3459C42.9065 60.2993 42.6882 60.323 42.4944 60.4133C42.3651 60.473 42.251 60.5611 42.1605 60.671L39.6782 63.6492L37.1972 60.671C37.1063 60.5619 36.9925 60.4742 36.864 60.414C36.7354 60.3538 36.5952 60.3226 36.4532 60.3226C36.3113 60.3226 36.171 60.3538 36.0425 60.414C35.9139 60.4742 35.8002 60.5619 35.7093 60.671L33.2282 63.6492L30.746 60.671C30.6551 60.5619 30.5413 60.4742 30.4128 60.414C30.2842 60.3538 30.144 60.3226 30.002 60.3226C29.8601 60.3226 29.7198 60.3538 29.5913 60.414C29.4627 60.4742 29.349 60.5619 29.2581 60.671L26.7758 63.6492L24.2935 60.671C24.2027 60.5619 24.0889 60.4742 23.9603 60.414C23.8318 60.3538 23.6916 60.3226 23.5496 60.3226C23.4076 60.3226 23.2674 60.3538 23.1388 60.414C23.0103 60.4742 22.8965 60.5619 22.8056 60.671L20.3234 63.6492L17.8411 60.671C17.7502 60.5619 17.6365 60.4742 17.5079 60.414C17.3794 60.3538 17.2391 60.3226 17.0972 60.3226C16.9552 60.3226 16.815 60.3538 16.6864 60.414C16.5579 60.4742 16.4441 60.5619 16.3532 60.671L14.8387 62.4891V11.9355ZM54.5161 68.0645H11.9355V11.9355H12.9032V65.1613C12.9031 65.3603 12.9644 65.5545 13.0786 65.7174C13.1929 65.8803 13.3546 66.004 13.5417 66.0717C13.7288 66.1394 13.9322 66.1478 14.1243 66.0957C14.3163 66.0436 14.4877 65.9336 14.6149 65.7806L17.0972 62.8024L19.5794 65.7806C19.6703 65.8897 19.7841 65.9774 19.9126 66.0376C20.0412 66.0979 20.1814 66.1291 20.3234 66.1291C20.4653 66.1291 20.6056 66.0979 20.7341 66.0376C20.8627 65.9774 20.9764 65.8897 21.0673 65.7806L23.5496 62.8024L26.0319 65.7806C26.1227 65.8897 26.2365 65.9774 26.3651 66.0376C26.4936 66.0979 26.6338 66.1291 26.7758 66.1291C26.9178 66.1291 27.058 66.0979 27.1866 66.0376C27.3151 65.9774 27.4289 65.8897 27.5198 65.7806L30.002 62.8024L32.4843 65.7806C32.5752 65.8897 32.6889 65.9774 32.8175 66.0376C32.946 66.0979 33.0863 66.1291 33.2282 66.1291C33.3702 66.1291 33.5104 66.0979 33.639 66.0376C33.7675 65.9774 33.8813 65.8897 33.9722 65.7806L36.4532 62.8024L38.9343 65.7806C39.0251 65.8898 39.1388 65.9776 39.2674 66.0379C39.396 66.0982 39.5362 66.1295 39.6782 66.1295C39.8202 66.1295 39.9605 66.0982 40.0891 66.0379C40.2176 65.9776 40.3314 65.8898 40.4222 65.7806L42.9044 62.8024L45.3855 65.7806C45.5225 65.9448 45.71 66.0591 45.9187 66.1057C46.1274 66.1523 46.3457 66.1286 46.5395 66.0383C46.6687 65.9786 46.7829 65.8905 46.8734 65.7806L49.3556 62.8024L51.8367 65.7806C51.964 65.9336 52.1353 66.0436 52.3273 66.0957C52.5194 66.1478 52.7228 66.1394 52.9099 66.0717C53.097 66.004 53.2587 65.8803 53.373 65.7174C53.4872 65.5545 53.5485 65.3603 53.5484 65.1613V37.0968H54.5161V68.0645ZM65.1613 46.7742H63.2258C62.9691 46.7741 62.7228 46.8759 62.5411 47.0573L59.9222 49.6774H56.4516V37.0968H56.8218L57.821 39.0952C58.1004 39.6592 58.5323 40.1336 59.0677 40.4646C59.6031 40.7956 60.2206 40.9699 60.85 40.9677H62.2581C62.5147 40.9677 62.7609 40.8658 62.9424 40.6843C63.1238 40.5028 63.2258 40.2567 63.2258 40C63.2258 39.7433 63.1238 39.4972 62.9424 39.3157C62.7609 39.1342 62.5147 39.0323 62.2581 39.0323H60.85C60.5803 39.0332 60.3158 38.9586 60.0863 38.8168C59.8569 38.6751 59.6718 38.4719 59.552 38.2302L58.2855 35.696C58.2049 35.5353 58.0812 35.4002 57.9283 35.3058C57.7753 35.2113 57.5991 35.1613 57.4194 35.1613H51.129C50.744 35.1613 50.3748 35.0084 50.1026 34.7361C49.8304 34.4639 49.6774 34.0947 49.6774 33.7097C49.6774 33.3247 49.8304 32.9555 50.1026 32.6832C50.3748 32.411 50.744 32.2581 51.129 32.2581H59.9222L62.5411 34.8782C62.7228 35.0596 62.9691 35.1614 63.2258 35.1613H65.1613V46.7742ZM68.0645 47.7419H67.0968V34.1935H68.0645V47.7419Z" fill="#1857AA"/>
<path d="M37.0968 30.3226C37.0958 31.0923 36.7896 31.8301 36.2453 32.3744C35.7011 32.9186 34.9632 33.2248 34.1936 33.2258C34.1936 33.4825 34.0916 33.7286 33.9101 33.9101C33.7286 34.0916 33.4825 34.1936 33.2258 34.1936C32.9691 34.1936 32.723 34.0916 32.5415 33.9101C32.36 33.7286 32.2581 33.4825 32.2581 33.2258H30.3226C30.0659 33.2258 29.8198 33.1239 29.6383 32.9424C29.4568 32.7609 29.3548 32.5147 29.3548 32.2581C29.3548 32.0014 29.4568 31.7553 29.6383 31.5738C29.8198 31.3923 30.0659 31.2903 30.3226 31.2903H34.1936C34.4501 31.29 34.6961 31.1879 34.8775 31.0065C35.0589 30.8251 35.1609 30.5791 35.1613 30.3226C35.1613 29.8157 34.6423 29.3549 34.0726 29.3549H32.2581C31.4881 29.3549 30.7496 29.049 30.2052 28.5045C29.6607 27.9601 29.3548 27.2216 29.3548 26.4516C29.3548 25.6816 29.6607 24.9432 30.2052 24.3987C30.7496 23.8543 31.4881 23.5484 32.2581 23.5484C32.2581 23.2917 32.36 23.0456 32.5415 22.8641C32.723 22.6826 32.9691 22.5807 33.2258 22.5807C33.4825 22.5807 33.7286 22.6826 33.9101 22.8641C34.0916 23.0456 34.1936 23.2917 34.1936 23.5484H36.129C36.3857 23.5484 36.6318 23.6504 36.8133 23.8318C36.9948 24.0133 37.0968 24.2595 37.0968 24.5161C37.0968 24.7728 36.9948 25.019 36.8133 25.2004C36.6318 25.3819 36.3857 25.4839 36.129 25.4839H32.2581C32.0014 25.4839 31.7553 25.5858 31.5738 25.7673C31.3923 25.9488 31.2903 26.195 31.2903 26.4516C31.2903 26.7083 31.3923 26.9544 31.5738 27.1359C31.7553 27.3174 32.0014 27.4194 32.2581 27.4194H34.0726C35.7117 27.4194 37.0968 28.7488 37.0968 30.3226Z" fill="#1857AA"/>
</g>
<defs>
<clipPath id="clip0_776_1888">
<rect width="80" height="80" fill="white"/>
</clipPath>
</defs>
</svg>
