<svg width="81" height="80" viewBox="0 0 81 80" fill="none" xmlns="http://www.w3.org/2000/svg">
<g clip-path="url(#clip0_1164_1496)">
<rect x="0.5" width="80" height="80" rx="8" fill="white"/>
<path d="M47.0625 51.249L42.3832 49.8721H42.191L42.3644 49.9236C42.3714 50.0525 42.375 50.1814 42.375 50.3127H43.3125L42.375 69.0627H38.5652L36.7101 59.6725L37.6277 58.9846L37.0921 57.2701L36.6902 55.9846L33.9375 54.1354L31.0652 55.9846L30.6761 57.2314L30.1277 58.9846L31.0453 59.6725L29.1902 69.0627H25.5L24.5625 50.3127H25.5C25.5 50.1814 25.5035 50.0525 25.5105 49.9236L25.6851 49.8721H25.3722L18.1078 52.0096C16.165 52.581 14.4594 53.7661 13.2463 55.3876C12.0331 57.0091 11.3776 58.9798 11.3777 61.0049V69.1072L47.0625 69.0627V51.249Z" fill="#4A8ADE"/>
<path d="M38.9414 56.3516C38.7585 56.4711 38.571 56.5848 38.3777 56.6902L38.5652 56.8027L38.9414 56.3516Z" fill="#4A8ADE"/>
<path d="M29.4961 56.6896C29.3015 56.583 29.1129 56.4693 28.9301 56.3486L29.3086 56.8021L29.4961 56.6896Z" fill="#4A8ADE"/>
<path d="M33.8777 53.9898L33.9351 54.025L33.9949 53.9887L33.9375 53.9453L33.8777 53.9898Z" fill="#4A8ADE"/>
<path d="M21.75 29.732H22.0488C22.2688 29.732 22.4865 29.6878 22.6891 29.6021C22.8917 29.5163 23.075 29.3907 23.2281 29.2328C23.3812 29.0749 23.501 28.8878 23.5805 28.6827C23.66 28.4775 23.6974 28.2585 23.6906 28.0387L23.625 25.8648L44.25 22.1148L44.1586 28.0633C44.1553 28.2812 44.1954 28.4975 44.2764 28.6998C44.3575 28.9021 44.478 29.0862 44.6309 29.2415C44.7838 29.3967 44.966 29.5201 45.167 29.6043C45.3679 29.6885 45.5837 29.7319 45.8016 29.732H46.125V30.625H47.0625V24.0625C47.0625 20.5815 45.6797 17.2431 43.2183 14.7817C40.7569 12.3203 37.4185 10.9375 33.9375 10.9375C30.4565 10.9375 27.1181 12.3203 24.6567 14.7817C22.1953 17.2431 20.8125 20.5815 20.8125 24.0625V30.625H21.75V29.732Z" fill="#4A8ADE"/>
<path d="M41.7516 44.1145C44.3602 42.3062 46.125 39.5535 46.125 36.1773V33.4375L40.5 39.9988C40.5 39.5065 40.4031 39.019 40.2147 38.5642C40.0264 38.1093 39.7502 37.696 39.4021 37.3479C39.054 36.9998 38.6407 36.7236 38.1858 36.5353C37.731 36.3469 37.2435 36.25 36.7512 36.25H31.125C30.1306 36.25 29.177 36.6449 28.4738 37.3479C27.7705 38.0509 27.3753 39.0045 27.375 39.9988L21.75 33.4375V36.1773C21.75 39.2828 23.243 41.8609 25.5141 43.6633C25.7109 43.8203 25.9148 43.9703 26.1234 44.1145C26.5229 44.4102 26.9409 44.6799 27.375 44.9219C29.2699 45.9801 31.5211 46.5625 33.9375 46.5625H33.9387C36.3539 46.5625 38.6051 45.9801 40.5 44.9219C40.9341 44.6799 41.3521 44.4102 41.7516 44.1145Z" fill="#4A8ADE"/>
<path d="M58.3125 54.0625C59.348 54.0625 60.1875 53.223 60.1875 52.1875C60.1875 51.152 59.348 50.3125 58.3125 50.3125C57.277 50.3125 56.4375 51.152 56.4375 52.1875C56.4375 53.223 57.277 54.0625 58.3125 54.0625Z" fill="#4A8ADE"/>
<path d="M56.3777 62.5H55.5L54.5625 65.3125H56.3777H62.0625L61.125 62.5H56.3777Z" fill="#4A8ADE"/>
<path d="M54.5625 59.6875L55.4672 56.9746L55.5 56.875H55.4191H49.875L50.8125 59.6875H54.5625Z" fill="#4A8ADE"/>
<path d="M61.125 56.875L62.0625 59.6875H65.8125L66.75 56.875H61.125Z" fill="#4A8ADE"/>
<path d="M36.75 40C36.75 39.7514 36.6512 39.5129 36.4754 39.3371C36.2996 39.1613 36.0611 39.0625 35.8125 39.0625H32.0625C31.8139 39.0625 31.5754 39.1613 31.3996 39.3371C31.2238 39.5129 31.125 39.7514 31.125 40C31.125 40.2486 31.2238 40.4871 31.3996 40.6629C31.5754 40.8387 31.8139 40.9375 32.0625 40.9375H35.8125C36.0611 40.9375 36.2996 40.8387 36.4754 40.6629C36.6512 40.4871 36.75 40.2486 36.75 40Z" fill="#1857AA"/>
<path d="M28.3125 30.625C28.0639 30.625 27.8254 30.7238 27.6496 30.8996C27.4738 31.0754 27.375 31.3139 27.375 31.5625V32.5C27.375 32.7486 27.4738 32.9871 27.6496 33.1629C27.8254 33.3387 28.0639 33.4375 28.3125 33.4375C28.5611 33.4375 28.7996 33.3387 28.9754 33.1629C29.1512 32.9871 29.25 32.7486 29.25 32.5V31.5625C29.25 31.3139 29.1512 31.0754 28.9754 30.8996C28.7996 30.7238 28.5611 30.625 28.3125 30.625Z" fill="#1857AA"/>
<path d="M39.5625 30.625C39.3139 30.625 39.0754 30.7238 38.8996 30.8996C38.7238 31.0754 38.625 31.3139 38.625 31.5625V32.5C38.625 32.7486 38.7238 32.9871 38.8996 33.1629C39.0754 33.3387 39.3139 33.4375 39.5625 33.4375C39.8111 33.4375 40.0496 33.3387 40.2254 33.1629C40.4012 32.9871 40.5 32.7486 40.5 32.5V31.5625C40.5 31.3139 40.4012 31.0754 40.2254 30.8996C40.0496 30.7238 39.8111 30.625 39.5625 30.625Z" fill="#1857AA"/>
<path d="M29.8911 30.577C30.127 30.6557 30.3845 30.6374 30.6069 30.5261C30.8293 30.4149 30.9984 30.2199 31.077 29.9841C31.1557 29.7482 31.1374 29.4907 31.0262 29.2683C30.9149 29.0459 30.7199 28.8767 30.4841 28.7981L27.6716 27.8606C27.4357 27.782 27.1782 27.8003 26.9558 27.9115C26.7334 28.0227 26.5642 28.2177 26.4856 28.4536C26.407 28.6895 26.4253 28.947 26.5365 29.1694C26.6477 29.3918 26.8427 29.5609 27.0786 29.6395L29.8911 30.577Z" fill="#1857AA"/>
<path d="M37.6874 30.6253C37.7883 30.6252 37.8884 30.6089 37.984 30.577L40.7965 29.6395C41.0324 29.5609 41.2274 29.3918 41.3386 29.1694C41.4498 28.947 41.4681 28.6895 41.3895 28.4536C41.3109 28.2177 41.1418 28.0227 40.9194 27.9115C40.6969 27.8003 40.4395 27.782 40.2036 27.8606L37.3911 28.7981C37.1797 28.8683 37.0002 29.0116 36.8848 29.2021C36.7694 29.3926 36.7256 29.618 36.7612 29.8379C36.7969 30.0578 36.9097 30.2578 37.0794 30.4021C37.2491 30.5464 37.4647 30.6255 37.6874 30.6253Z" fill="#1857AA"/>
<path d="M69.5625 45.625H47.0625C46.8139 45.625 46.5754 45.7238 46.3996 45.8996C46.2238 46.0754 46.125 46.3139 46.125 46.5625V50.0523L43.0336 49.143L42.218 47.9172C42.1472 47.8112 42.0555 47.7207 41.9485 47.6514C41.8414 47.5821 41.7214 47.5353 41.5957 47.5141C41.5435 47.5051 41.4905 47.5008 41.4375 47.5012V45.1398C42.9119 44.1122 44.1598 42.7931 45.1041 41.264C46.0485 39.735 46.6691 38.0285 46.9277 36.25H47.5312C48.4012 36.249 49.2352 35.903 49.8504 35.2879C50.4655 34.6727 50.8115 33.8387 50.8125 32.9688V32.0312C50.8114 31.2426 50.5267 30.4806 50.0103 29.8844C49.494 29.2883 48.7804 28.8977 48 28.784V24.0625C48 20.3329 46.5184 16.756 43.8812 14.1188C41.244 11.4816 37.6671 10 33.9375 10C30.2079 10 26.631 11.4816 23.9938 14.1188C21.3566 16.756 19.875 20.3329 19.875 24.0625V28.784C19.0946 28.8977 18.381 29.2883 17.8647 29.8844C17.3483 30.4806 17.0636 31.2426 17.0625 32.0312V32.9688C17.0635 33.8387 17.4095 34.6727 18.0246 35.2879C18.6398 35.903 19.4738 36.249 20.3438 36.25H20.9473C21.2059 38.0285 21.8265 39.735 22.7709 41.264C23.7152 42.7931 24.9631 44.1122 26.4375 45.1398V47.5012C26.3845 47.5008 26.3315 47.5051 26.2793 47.5141C26.1536 47.5353 26.0335 47.5821 25.9265 47.6514C25.8195 47.7207 25.7278 47.8112 25.657 47.9172L24.8414 49.143L17.9027 51.1844C15.7659 51.8126 13.8899 53.1159 12.5554 54.8992C11.221 56.6826 10.4999 58.85 10.5 61.0773L10.5 69.0625C10.5 69.3111 10.5988 69.5496 10.7746 69.7254C10.9504 69.9012 11.1889 70 11.4375 70H69.5625C69.8111 70 70.0496 69.9012 70.2254 69.7254C70.4012 69.5496 70.5 69.3111 70.5 69.0625V46.5625C70.5 46.3139 70.4012 46.0754 70.2254 45.8996C70.0496 45.7238 69.8111 45.625 69.5625 45.625ZM47.0625 30.625H47.5312C47.9041 30.6253 48.2616 30.7736 48.5253 31.0372C48.7889 31.3009 48.9372 31.6584 48.9375 32.0312V32.9688C48.9372 33.3416 48.7889 33.6991 48.5253 33.9628C48.2616 34.2264 47.9041 34.3747 47.5312 34.375H47.0625V30.625ZM20.8125 34.375H20.3438C19.9709 34.3747 19.6134 34.2264 19.3497 33.9628C19.0861 33.6991 18.9378 33.3416 18.9375 32.9688V32.0312C18.9378 31.6584 19.0861 31.3009 19.3497 31.0372C19.6134 30.7736 19.9709 30.6253 20.3438 30.625H20.8125V34.375ZM12.375 68.125V61.0773C12.3823 59.2567 12.9752 57.4868 14.066 56.0292C15.1569 54.5716 16.6878 53.5036 18.4324 52.9832L23.6461 51.448C23.6569 51.4949 23.6706 51.5411 23.6871 51.5863L24.5145 68.125H12.375ZM42.1441 51.1879L38.4188 55.6586L35.6156 53.9758L41.2066 49.7816L42.1441 51.1879ZM39.702 48.5664L33.9375 52.8906L28.173 48.5664C28.2653 48.26 28.3123 47.9418 28.3125 47.6219V46.232C30.0702 47.0669 31.9916 47.5 33.9375 47.5C35.8834 47.5 37.8048 47.0669 39.5625 46.232V47.6219C39.5627 47.9418 39.6097 48.26 39.702 48.5664ZM35.9297 56.3512L36.6328 59.3066L33.9375 61.3281L31.2422 59.3066L31.9453 56.3512L33.9375 55.1559L35.9297 56.3512ZM21.75 28.75V24.0625C21.75 20.8302 23.034 17.7302 25.3196 15.4446C27.6052 13.159 30.7052 11.875 33.9375 11.875C37.1698 11.875 40.2698 13.159 42.5554 15.4446C44.841 17.7302 46.125 20.8302 46.125 24.0625V28.75C45.8765 28.7497 45.6382 28.6508 45.4625 28.475C45.2867 28.2993 45.1878 28.061 45.1875 27.8125V22.1875C45.1875 22.0502 45.1573 21.9146 45.0991 21.7902C45.0409 21.6659 44.9561 21.5558 44.8507 21.4679C44.7453 21.3799 44.6218 21.3161 44.4891 21.2811C44.3563 21.2461 44.2175 21.2407 44.0824 21.2652L23.4574 25.0152C23.2414 25.0545 23.046 25.1683 22.9053 25.3368C22.7646 25.5054 22.6875 25.7179 22.6875 25.9375V27.8125C22.6872 28.061 22.5883 28.2993 22.4125 28.475C22.2368 28.6508 21.9985 28.7497 21.75 28.75ZM22.6875 30.4633C23.2354 30.269 23.7098 29.9099 24.0455 29.4353C24.3812 28.9607 24.5618 28.3938 24.5625 27.8125V26.7203L43.3125 23.3113V27.8125C43.3132 28.3938 43.4938 28.9607 43.8295 29.4353C44.1652 29.9099 44.6396 30.269 45.1875 30.4633V33.0906L40.9852 37.9926C40.6048 37.1912 40.005 36.514 39.2554 36.0396C38.5058 35.5653 37.6371 35.3131 36.75 35.3125H31.125C30.2379 35.3131 29.3692 35.5653 28.6196 36.0396C27.87 36.514 27.2702 37.1912 26.8898 37.9926L22.6875 33.0906V30.4633ZM22.8246 36.1328L26.6637 40.6105C26.7884 40.7558 26.9546 40.8594 27.14 40.9074C27.3254 40.9554 27.521 40.9455 27.7005 40.879C27.8801 40.8125 28.035 40.6927 28.1444 40.5355C28.2538 40.3784 28.3125 40.1915 28.3125 40C28.3135 39.2544 28.6101 38.5396 29.1374 38.0124C29.6646 37.4851 30.3794 37.1885 31.125 37.1875H36.75C37.4956 37.1885 38.2104 37.4851 38.7376 38.0124C39.2649 38.5396 39.5615 39.2544 39.5625 40C39.5625 40.1915 39.6212 40.3784 39.7306 40.5355C39.84 40.6927 39.9949 40.8125 40.1745 40.879C40.354 40.9455 40.5496 40.9554 40.735 40.9074C40.9204 40.8594 41.0866 40.7558 41.2113 40.6105L45.0504 36.1328C44.6315 38.779 43.2821 41.1888 41.2449 42.9288C39.2078 44.6688 36.6166 45.6248 33.9375 45.6248C31.2584 45.6248 28.6672 44.6688 26.6301 42.9288C24.5929 41.1888 23.2435 38.779 22.8246 36.1328ZM26.6684 49.7816L32.2594 53.9758L29.4562 55.6586L25.7309 51.1879L26.6684 49.7816ZM28.4977 68.125H26.3918L25.6887 54.066L28.5293 57.475C28.6174 57.5806 28.7276 57.6655 28.8521 57.7239C28.9767 57.7822 29.1125 57.8124 29.25 57.8125C29.4066 57.8123 29.5606 57.7723 29.6977 57.6965L29.2758 59.4707C29.2333 59.6483 29.2437 59.8345 29.3058 60.0063C29.3678 60.1781 29.4788 60.328 29.625 60.4375L30.123 60.8113L28.4977 68.125ZM30.4184 68.125L31.7695 62.0465L33.375 63.25C33.5373 63.3717 33.7347 63.4375 33.9375 63.4375C34.1403 63.4375 34.3377 63.3717 34.5 63.25L36.1055 62.0465L37.4566 68.125H30.4184ZM41.4387 68.0734C41.4375 68.091 41.4387 68.1074 41.4387 68.125H39.3773L37.752 60.8113L38.25 60.4375C38.3962 60.328 38.5072 60.1781 38.5692 60.0063C38.6313 59.8345 38.6417 59.6483 38.5992 59.4707L38.1773 57.6965C38.3144 57.7723 38.4684 57.8123 38.625 57.8125C38.7625 57.8124 38.8983 57.7822 39.0229 57.7239C39.1474 57.6655 39.2576 57.5806 39.3457 57.475L42.2191 54.0262L41.4387 68.0734ZM46.125 68.125H43.3137L44.2406 51.4516L46.125 52.007V68.125ZM68.625 68.125H48V47.5H68.625V68.125Z" fill="#1857AA"/>
<path d="M66.7499 55.9374H66.4476L65.3226 53.1249H66.7499C66.9986 53.1249 67.237 53.0261 67.4129 52.8503C67.5887 52.6745 67.6874 52.436 67.6874 52.1874C67.6874 51.9387 67.5887 51.7003 67.4129 51.5245C67.237 51.3487 66.9986 51.2499 66.7499 51.2499H60.9632C60.7695 50.7016 60.4106 50.2269 59.9359 49.8911C59.4611 49.5553 58.8939 49.375 58.3124 49.375C57.731 49.375 57.1638 49.5553 56.689 49.8911C56.2143 50.2269 55.8554 50.7016 55.6617 51.2499H49.8749C49.6263 51.2499 49.3878 51.3487 49.212 51.5245C49.0362 51.7003 48.9374 51.9387 48.9374 52.1874C48.9374 52.436 49.0362 52.6745 49.212 52.8503C49.3878 53.0261 49.6263 53.1249 49.8749 53.1249H51.3023L50.1773 55.9374H49.8749C49.7264 55.9374 49.58 55.9727 49.4477 56.0404C49.3155 56.108 49.2012 56.2062 49.1144 56.3267C49.0275 56.4472 48.9705 56.5866 48.9481 56.7335C48.9257 56.8804 48.9385 57.0304 48.9855 57.1714L49.923 59.9839C49.9852 60.1705 50.1046 60.3329 50.2642 60.448C50.4239 60.563 50.6157 60.6249 50.8124 60.6249H54.4453C54.6361 60.6248 54.8223 60.5665 54.9791 60.4579C55.1359 60.3492 55.2559 60.1953 55.323 60.0167L56.3777 57.2042C56.4311 57.0623 56.4493 56.9097 56.4308 56.7592C56.4122 56.6088 56.3574 56.4651 56.2711 56.3406C56.1848 56.216 56.0695 56.1142 55.9352 56.044C55.8009 55.9737 55.6515 55.9372 55.4999 55.9374H55.1976L54.0726 53.1249H55.6617C55.802 53.5198 56.0286 53.8785 56.3249 54.1749C56.6213 54.4713 56.98 54.6978 57.3749 54.8382V61.5624H55.6171C55.4263 61.5625 55.2401 61.6207 55.0833 61.7294C54.9265 61.8381 54.8065 61.992 54.7394 62.1706L53.6847 64.9831C53.6313 65.1249 53.613 65.2776 53.6316 65.428C53.6502 65.5785 53.705 65.7221 53.7913 65.8467C53.8776 65.9713 53.9929 66.0731 54.1272 66.1433C54.2615 66.2135 54.4109 66.2501 54.5624 66.2499H62.0624C62.211 66.2499 62.3574 66.2146 62.4897 66.1469C62.6219 66.0792 62.7362 65.9811 62.823 65.8606C62.9099 65.7401 62.9669 65.6006 62.9893 65.4538C63.0117 65.3069 62.9989 65.1568 62.9519 65.0159L62.0144 62.2034C61.9522 62.0167 61.8328 61.8544 61.6731 61.7393C61.5135 61.6243 61.3217 61.5624 61.1249 61.5624H59.2499V54.8382C59.6449 54.6978 60.0036 54.4713 60.2999 54.1749C60.5963 53.8785 60.8229 53.5198 60.9632 53.1249H62.5523L61.4273 55.9374H61.1249C60.9764 55.9374 60.83 55.9727 60.6977 56.0404C60.5655 56.108 60.4512 56.2062 60.3644 56.3267C60.2775 56.4472 60.2205 56.5866 60.1981 56.7335C60.1757 56.8804 60.1885 57.0304 60.2355 57.1714L61.173 59.9839C61.2352 60.1705 61.3546 60.3329 61.5142 60.448C61.6739 60.563 61.8657 60.6249 62.0624 60.6249H65.6953C65.8861 60.6248 66.0723 60.5665 66.2291 60.4579C66.3859 60.3492 66.5059 60.1953 66.573 60.0167L67.6277 57.2042C67.6811 57.0623 67.6993 56.9097 67.6808 56.7592C67.6622 56.6088 67.6074 56.4651 67.5211 56.3406C67.4348 56.216 67.3195 56.1142 67.1852 56.044C67.0509 55.9737 66.9015 55.9372 66.7499 55.9374ZM52.6874 54.7116L53.1773 55.9374H52.1976L52.6874 54.7116ZM54.1476 57.8124L53.796 58.7499H51.4886L51.1757 57.8124H54.1476ZM60.4488 63.4374L60.7617 64.3749H55.9148L56.2664 63.4374H60.4488ZM58.3124 53.1249C58.127 53.1249 57.9458 53.0699 57.7916 52.9669C57.6374 52.8639 57.5173 52.7175 57.4463 52.5462C57.3754 52.3748 57.3568 52.1863 57.393 52.0045C57.4291 51.8226 57.5184 51.6556 57.6495 51.5245C57.7806 51.3934 57.9477 51.3041 58.1295 51.2679C58.3114 51.2317 58.4999 51.2503 58.6712 51.3213C58.8425 51.3922 58.9889 51.5124 59.092 51.6665C59.195 51.8207 59.2499 52.002 59.2499 52.1874C59.2496 52.4359 59.1507 52.6742 58.975 52.8499C58.7992 53.0257 58.561 53.1245 58.3124 53.1249ZM63.9374 54.7116L64.4273 55.9374H63.4476L63.9374 54.7116ZM65.046 58.7499H62.7386L62.4257 57.8124H65.3976L65.046 58.7499Z" fill="#1857AA"/>
</g>
<defs>
<clipPath id="clip0_1164_1496">
<rect x="0.5" width="80" height="80" fill="white"/>
</clipPath>
</defs>
</svg>
