<svg width="80" height="80" viewBox="0 0 80 80" fill="none" xmlns="http://www.w3.org/2000/svg">
<g clip-path="url(#clip0_2404_5533)">
<rect width="80" height="80" rx="8" fill="white"/>
<g clip-path="url(#clip1_2404_5533)">
<path d="M43.5 30.375V34.75H47.875V33.875L44.375 30.375H43.5Z" fill="#3B83E3"/>
<path d="M35.625 33H40V35.625H35.625V33Z" fill="#3B83E3"/>
<path d="M61.875 40.875H58.375C57.2147 40.875 56.1019 41.3359 55.2814 42.1564C54.4609 42.9769 54 44.0897 54 45.25V46.125H66.25V45.25C66.25 44.0897 65.7891 42.9769 64.9686 42.1564C64.1481 41.3359 63.0353 40.875 61.875 40.875Z" fill="#3B83E3"/>
<path d="M21.625 40.875H18.125C16.9647 40.875 15.8519 41.3359 15.0314 42.1564C14.2109 42.9769 13.75 44.0897 13.75 45.25V46.125H26V45.25C26 44.0897 25.5391 42.9769 24.7186 42.1564C23.8981 41.3359 22.7853 40.875 21.625 40.875Z" fill="#3B83E3"/>
<path d="M46.125 25.125C46.125 23.9647 45.6641 22.8519 44.8436 22.0314C44.0231 21.2109 42.9103 20.75 41.75 20.75H38.25C37.0897 20.75 35.9769 21.2109 35.1564 22.0314C34.3359 22.8519 33.875 23.9647 33.875 25.125V26H46.125V25.125Z" fill="#3B83E3"/>
<path d="M41.75 61H38.25C37.0897 61 35.9769 61.4609 35.1564 62.2814C34.3359 63.1019 33.875 64.2147 33.875 65.375V66.25H46.125V65.375C46.125 64.2147 45.6641 63.1019 44.8436 62.2814C44.0231 61.4609 42.9103 61 41.75 61Z" fill="#3B83E3"/>
<path d="M44.375 37.375H35.625C35.3929 37.375 35.1704 37.4672 35.0063 37.6313C34.8422 37.7954 34.75 38.0179 34.75 38.25C34.75 38.4821 34.8422 38.7046 35.0063 38.8687C35.1704 39.0328 35.3929 39.125 35.625 39.125H44.375C44.6071 39.125 44.8296 39.0328 44.9937 38.8687C45.1578 38.7046 45.25 38.4821 45.25 38.25C45.25 38.0179 45.1578 37.7954 44.9937 37.6313C44.8296 37.4672 44.6071 37.375 44.375 37.375Z" fill="#1855A5"/>
<path d="M44.375 40H35.625C35.3929 40 35.1704 40.0922 35.0063 40.2563C34.8422 40.4204 34.75 40.6429 34.75 40.875C34.75 41.1071 34.8422 41.3296 35.0063 41.4937C35.1704 41.6578 35.3929 41.75 35.625 41.75H44.375C44.6071 41.75 44.8296 41.6578 44.9937 41.4937C45.1578 41.3296 45.25 41.1071 45.25 40.875C45.25 40.6429 45.1578 40.4204 44.9937 40.2563C44.8296 40.0922 44.6071 40 44.375 40Z" fill="#1855A5"/>
<path d="M44.375 42.625H35.625C35.3929 42.625 35.1704 42.7172 35.0063 42.8813C34.8422 43.0454 34.75 43.2679 34.75 43.5C34.75 43.7321 34.8422 43.9546 35.0063 44.1187C35.1704 44.2828 35.3929 44.375 35.625 44.375H44.375C44.6071 44.375 44.8296 44.2828 44.9937 44.1187C45.1578 43.9546 45.25 43.7321 45.25 43.5C45.25 43.2679 45.1578 43.0454 44.9937 42.8813C44.8296 42.7172 44.6071 42.625 44.375 42.625Z" fill="#1855A5"/>
<path d="M41.75 45.25H35.625C35.3929 45.25 35.1704 45.3422 35.0063 45.5063C34.8422 45.6704 34.75 45.8929 34.75 46.125C34.75 46.3571 34.8422 46.5796 35.0063 46.7437C35.1704 46.9078 35.3929 47 35.625 47H41.75C41.9821 47 42.2046 46.9078 42.3687 46.7437C42.5328 46.5796 42.625 46.3571 42.625 46.125C42.625 45.8929 42.5328 45.6704 42.3687 45.5063C42.2046 45.3422 41.9821 45.25 41.75 45.25Z" fill="#1855A5"/>
<path d="M35.625 36.5H40C40.2321 36.5 40.4546 36.4078 40.6187 36.2437C40.7828 36.0796 40.875 35.8571 40.875 35.625V33C40.875 32.7679 40.7828 32.5454 40.6187 32.3813C40.4546 32.2172 40.2321 32.125 40 32.125H35.625C35.3929 32.125 35.1704 32.2172 35.0063 32.3813C34.8422 32.5454 34.75 32.7679 34.75 33V35.625C34.75 35.8571 34.8422 36.0796 35.0063 36.2437C35.1704 36.4078 35.3929 36.5 35.625 36.5ZM36.5 33.875H39.125V34.75H36.5V33.875Z" fill="#1855A5"/>
<path d="M63.4314 40.2352C63.9434 39.6436 64.2874 38.9255 64.4275 38.1558C64.5676 37.3861 64.4987 36.5929 64.228 35.8588C63.9572 35.1248 63.4946 34.4768 62.8882 33.9824C62.2818 33.488 61.554 33.1653 60.7804 33.0479C60.0069 32.9305 59.2161 33.0227 58.4903 33.315C57.7646 33.6072 57.1305 34.0887 56.6541 34.7094C56.1778 35.33 55.8766 36.0671 55.7821 36.8437C55.6875 37.6204 55.8029 38.4082 56.1164 39.125H48.75V33.875C48.7501 33.6429 48.658 33.4202 48.4941 33.2559L44.9941 29.7559C44.8298 29.592 44.6071 29.4999 44.375 29.5H40.875V26.875H46.125C46.3571 26.875 46.5796 26.7828 46.7437 26.6187C46.9078 26.4546 47 26.2321 47 26V25.125C46.9987 24.0047 46.6396 22.9141 45.9753 22.0121C45.3109 21.1101 44.3759 20.4437 43.3064 20.1102C43.8556 19.4763 44.2111 18.6979 44.3305 17.8678C44.4498 17.0376 44.3281 16.1906 43.9796 15.4277C43.6312 14.6648 43.0709 14.0181 42.3653 13.5647C41.6597 13.1112 40.8387 12.8701 40 12.8701C39.1613 12.8701 38.3403 13.1112 37.6347 13.5647C36.9291 14.0181 36.3688 14.6648 36.0204 15.4277C35.6719 16.1906 35.5502 17.0376 35.6695 17.8678C35.7889 18.6979 36.1444 19.4763 36.6936 20.1102C35.6241 20.4437 34.6891 21.1101 34.0247 22.0121C33.3604 22.9141 33.0013 24.0047 33 25.125V26C33 26.2321 33.0922 26.4546 33.2563 26.6187C33.4204 26.7828 33.6429 26.875 33.875 26.875H39.125V29.5H32.125C31.8929 29.5 31.6704 29.5922 31.5063 29.7563C31.3422 29.9204 31.25 30.1429 31.25 30.375V39.125H23.8836C24.1974 38.408 24.3131 37.62 24.2187 36.843C24.1243 36.0661 23.8231 35.3287 23.3467 34.7078C22.8703 34.0868 22.2361 33.605 21.5101 33.3127C20.7841 33.0203 19.993 32.928 19.2192 33.0454C18.4454 33.1628 17.7173 33.4857 17.1107 33.9803C16.5042 34.4749 16.0414 35.1232 15.7707 35.8575C15.5 36.5919 15.4312 37.3854 15.5715 38.1554C15.7119 38.9253 16.0562 39.6436 16.5686 40.2352C15.4991 40.5687 14.5641 41.2351 13.8997 42.1371C13.2354 43.0391 12.8763 44.1297 12.875 45.25V46.125C12.875 46.3571 12.9672 46.5796 13.1313 46.7437C13.2954 46.9078 13.5179 47 13.75 47H26C26.2321 47 26.4546 46.9078 26.6187 46.7437C26.7828 46.5796 26.875 46.3571 26.875 46.125V45.25C26.8745 44.3832 26.6594 43.5301 26.2488 42.7666C25.8383 42.0032 25.2452 41.3534 24.5223 40.875H31.25V49.625C31.25 49.8571 31.3422 50.0796 31.5063 50.2437C31.6704 50.4078 31.8929 50.5 32.125 50.5H39.125V53.2136C38.3767 53.3657 37.6813 53.7112 37.1081 54.2157C36.5349 54.7202 36.1039 55.3661 35.8579 56.089C35.612 56.8119 35.5597 57.5866 35.7063 58.336C35.8529 59.0854 36.1933 59.7833 36.6936 60.3602C35.6241 60.6937 34.6891 61.3601 34.0247 62.2621C33.3604 63.1641 33.0013 64.2547 33 65.375V66.25C33 66.4821 33.0922 66.7046 33.2563 66.8687C33.4204 67.0328 33.6429 67.125 33.875 67.125H46.125C46.3571 67.125 46.5796 67.0328 46.7437 66.8687C46.9078 66.7046 47 66.4821 47 66.25V65.375C46.9987 64.2547 46.6396 63.1641 45.9753 62.2621C45.3109 61.3601 44.3759 60.6937 43.3064 60.3602C43.8067 59.7833 44.1471 59.0854 44.2937 58.336C44.4403 57.5866 44.388 56.8119 44.1421 56.089C43.8961 55.3661 43.4651 54.7202 42.8919 54.2157C42.3187 53.7112 41.6233 53.3657 40.875 53.2136V50.5H47.875C48.1071 50.5 48.3296 50.4078 48.4937 50.2437C48.6578 50.0796 48.75 49.8571 48.75 49.625V40.875H55.4777C54.7548 41.3534 54.1617 42.0032 53.7512 42.7666C53.3406 43.5301 53.1255 44.3832 53.125 45.25V46.125C53.125 46.3571 53.2172 46.5796 53.3813 46.7437C53.5454 46.9078 53.7679 47 54 47H66.25C66.4821 47 66.7046 46.9078 66.8687 46.7437C67.0328 46.5796 67.125 46.3571 67.125 46.125V45.25C67.1237 44.1297 66.7646 43.0391 66.1003 42.1371C65.4359 41.2351 64.5009 40.5687 63.4314 40.2352ZM19.875 34.75C20.3942 34.75 20.9017 34.904 21.3334 35.1924C21.7651 35.4808 22.1015 35.8908 22.3002 36.3705C22.4989 36.8501 22.5508 37.3779 22.4496 37.8871C22.3483 38.3963 22.0983 38.864 21.7312 39.2312C21.364 39.5983 20.8963 39.8483 20.3871 39.9496C19.8779 40.0509 19.3501 39.9989 18.8705 39.8002C18.3908 39.6015 17.9808 39.2651 17.6924 38.8334C17.404 38.4017 17.25 37.8942 17.25 37.375C17.2509 36.6791 17.5278 36.012 18.0199 35.5199C18.5119 35.0278 19.1791 34.7509 19.875 34.75ZM25.125 45.25H14.625C14.6262 44.3221 14.9954 43.4326 15.6515 42.7765C16.3076 42.1204 17.1971 41.7512 18.125 41.75H21.625C22.5529 41.7512 23.4424 42.1204 24.0985 42.7765C24.7546 43.4326 25.1238 44.3221 25.125 45.25ZM44.375 31.612L46.638 33.875H44.375V31.612ZM40 14.625C40.5192 14.625 41.0267 14.779 41.4584 15.0674C41.8901 15.3558 42.2265 15.7658 42.4252 16.2455C42.6239 16.7251 42.6758 17.2529 42.5746 17.7621C42.4733 18.2713 42.2233 18.739 41.8562 19.1062C41.489 19.4733 41.0213 19.7233 40.5121 19.8246C40.0029 19.9259 39.4751 19.8739 38.9955 19.6752C38.5158 19.4765 38.1058 19.1401 37.8174 18.7084C37.529 18.2767 37.375 17.7692 37.375 17.25C37.3759 16.5541 37.6528 15.887 38.1449 15.3949C38.6369 14.9028 39.3041 14.6259 40 14.625ZM34.75 25.125C34.7512 24.1971 35.1204 23.3076 35.7765 22.6515C36.4326 21.9954 37.3221 21.6262 38.25 21.625H41.75C42.6779 21.6262 43.5674 21.9954 44.2235 22.6515C44.8796 23.3076 45.2488 24.1971 45.25 25.125H34.75ZM45.25 65.375H34.75C34.7512 64.4471 35.1204 63.5576 35.7765 62.9015C36.4326 62.2454 37.3221 61.8762 38.25 61.875H41.75C42.6779 61.8762 43.5674 62.2454 44.2235 62.9015C44.8796 63.5576 45.2488 64.4471 45.25 65.375ZM42.625 57.5C42.625 58.0192 42.471 58.5267 42.1826 58.9584C41.8942 59.3901 41.4842 59.7265 41.0045 59.9252C40.5249 60.1239 39.9971 60.1759 39.4879 60.0746C38.9787 59.9733 38.511 59.7233 38.1438 59.3562C37.7767 58.989 37.5267 58.5213 37.4254 58.0121C37.3242 57.5029 37.3761 56.9751 37.5748 56.4955C37.7735 56.0158 38.1099 55.6058 38.5416 55.3174C38.9733 55.029 39.4808 54.875 40 54.875C40.6959 54.8759 41.3631 55.1528 41.8551 55.6449C42.3472 56.137 42.6241 56.8041 42.625 57.5ZM47 48.75H33V31.25H42.625V34.75C42.625 34.9821 42.7172 35.2046 42.8813 35.3687C43.0454 35.5328 43.2679 35.625 43.5 35.625H47V48.75ZM60.125 34.75C60.6442 34.75 61.1517 34.904 61.5834 35.1924C62.0151 35.4808 62.3515 35.8908 62.5502 36.3705C62.7489 36.8501 62.8008 37.3779 62.6996 37.8871C62.5983 38.3963 62.3483 38.864 61.9812 39.2312C61.614 39.5983 61.1463 39.8483 60.6371 39.9496C60.1279 40.0509 59.6001 39.9989 59.1205 39.8002C58.6408 39.6015 58.2308 39.2651 57.9424 38.8334C57.654 38.4017 57.5 37.8942 57.5 37.375C57.5009 36.6791 57.7778 36.012 58.2699 35.5199C58.7619 35.0278 59.4291 34.7509 60.125 34.75ZM54.875 45.25C54.8762 44.3221 55.2454 43.4326 55.9015 42.7765C56.5576 42.1204 57.4471 41.7512 58.375 41.75H61.875C62.8029 41.7512 63.6924 42.1204 64.3485 42.7765C65.0046 43.4326 65.3738 44.3221 65.375 45.25H54.875Z" fill="#1855A5"/>
</g>
</g>
<defs>
<clipPath id="clip0_2404_5533">
<rect width="80" height="80" fill="white"/>
</clipPath>
<clipPath id="clip1_2404_5533">
<rect width="56" height="56" fill="white" transform="translate(12 12)"/>
</clipPath>
</defs>
</svg>
