<svg width="80" height="80" viewBox="0 0 80 80" fill="none" xmlns="http://www.w3.org/2000/svg">
<g clip-path="url(#clip0_2404_1393)">
<rect width="80" height="80" rx="8" fill="white"/>
<path d="M52.1875 14.6875H55.9375V18.4375H52.1875V14.6875Z" fill="#3B83E3"/>
<path d="M44.6875 14.6875H48.4375V18.4375H44.6875V14.6875Z" fill="#3B83E3"/>
<path d="M27.8125 11.875L20.3125 19.375H27.8125V11.875Z" fill="#3B83E3"/>
<path d="M24.0625 38.125H55.9375V58.75H24.0625V38.125Z" fill="#3B83E3"/>
<path d="M59.6875 10.9375H27.8125C27.5638 10.9374 27.3252 11.036 27.1492 11.2117L19.6492 18.7117C19.4735 18.8877 19.3749 19.1263 19.375 19.375V68.125C19.375 68.3736 19.4738 68.6121 19.6496 68.7879C19.8254 68.9637 20.0639 69.0625 20.3125 69.0625H59.6875C59.9361 69.0625 60.1746 68.9637 60.3504 68.7879C60.5262 68.6121 60.625 68.3736 60.625 68.125V11.875C60.625 11.6264 60.5262 11.3879 60.3504 11.2121C60.1746 11.0363 59.9361 10.9375 59.6875 10.9375ZM26.875 14.1379V18.4375H22.5754L26.875 14.1379ZM58.75 67.1875H21.25V20.3125H27.8125C28.0611 20.3125 28.2996 20.2137 28.4754 20.0379C28.6512 19.8621 28.75 19.6236 28.75 19.375V12.8125H58.75V67.1875Z" fill="#1855A5"/>
<path d="M29.2188 27.8125H28.75V25H31.5625C31.8111 25 32.0496 24.9012 32.2254 24.7254C32.4012 24.5496 32.5 24.3111 32.5 24.0625C32.5 23.8139 32.4012 23.5754 32.2254 23.3996C32.0496 23.2238 31.8111 23.125 31.5625 23.125H28.75V22.1875C28.75 21.9389 28.6512 21.7004 28.4754 21.5246C28.2996 21.3488 28.0611 21.25 27.8125 21.25C27.5639 21.25 27.3254 21.3488 27.1496 21.5246C26.9738 21.7004 26.875 21.9389 26.875 22.1875V23.125H26.4062C25.536 23.125 24.7014 23.4707 24.0861 24.0861C23.4707 24.7014 23.125 25.536 23.125 26.4062C23.125 27.2765 23.4707 28.1111 24.0861 28.7264C24.7014 29.3418 25.536 29.6875 26.4062 29.6875H26.875V32.5H24.0625C23.8139 32.5 23.5754 32.5988 23.3996 32.7746C23.2238 32.9504 23.125 33.1889 23.125 33.4375C23.125 33.6861 23.2238 33.9246 23.3996 34.1004C23.5754 34.2762 23.8139 34.375 24.0625 34.375H26.875V35.3125C26.875 35.5611 26.9738 35.7996 27.1496 35.9754C27.3254 36.1512 27.5639 36.25 27.8125 36.25C28.0611 36.25 28.2996 36.1512 28.4754 35.9754C28.6512 35.7996 28.75 35.5611 28.75 35.3125V34.375H29.2188C30.089 34.375 30.9236 34.0293 31.5389 33.4139C32.1543 32.7986 32.5 31.964 32.5 31.0938C32.5 30.2235 32.1543 29.3889 31.5389 28.7736C30.9236 28.1582 30.089 27.8125 29.2188 27.8125ZM26.875 27.8125H26.4062C26.0333 27.8125 25.6756 27.6643 25.4119 27.4006C25.1482 27.1369 25 26.7792 25 26.4062C25 26.0333 25.1482 25.6756 25.4119 25.4119C25.6756 25.1482 26.0333 25 26.4062 25H26.875V27.8125ZM29.2188 32.5H28.75V29.6875H29.2188C29.5917 29.6875 29.9494 29.8357 30.2131 30.0994C30.4768 30.3631 30.625 30.7208 30.625 31.0938C30.625 31.4667 30.4768 31.8244 30.2131 32.0881C29.9494 32.3518 29.5917 32.5 29.2188 32.5Z" fill="#1855A5"/>
<path d="M36.25 26.875H55.9375C56.1861 26.875 56.4246 26.7762 56.6004 26.6004C56.7762 26.4246 56.875 26.1861 56.875 25.9375C56.875 25.6889 56.7762 25.4504 56.6004 25.2746C56.4246 25.0988 56.1861 25 55.9375 25H36.25C36.0014 25 35.7629 25.0988 35.5871 25.2746C35.4113 25.4504 35.3125 25.6889 35.3125 25.9375C35.3125 26.1861 35.4113 26.4246 35.5871 26.6004C35.7629 26.7762 36.0014 26.875 36.25 26.875Z" fill="#1855A5"/>
<path d="M36.25 29.6875H55.9375C56.1861 29.6875 56.4246 29.5887 56.6004 29.4129C56.7762 29.2371 56.875 28.9986 56.875 28.75C56.875 28.5014 56.7762 28.2629 56.6004 28.0871C56.4246 27.9113 56.1861 27.8125 55.9375 27.8125H36.25C36.0014 27.8125 35.7629 27.9113 35.5871 28.0871C35.4113 28.2629 35.3125 28.5014 35.3125 28.75C35.3125 28.9986 35.4113 29.2371 35.5871 29.4129C35.7629 29.5887 36.0014 29.6875 36.25 29.6875Z" fill="#1855A5"/>
<path d="M36.25 32.5H55.9375C56.1861 32.5 56.4246 32.4012 56.6004 32.2254C56.7762 32.0496 56.875 31.8111 56.875 31.5625C56.875 31.3139 56.7762 31.0754 56.6004 30.8996C56.4246 30.7238 56.1861 30.625 55.9375 30.625H36.25C36.0014 30.625 35.7629 30.7238 35.5871 30.8996C35.4113 31.0754 35.3125 31.3139 35.3125 31.5625C35.3125 31.8111 35.4113 32.0496 35.5871 32.2254C35.7629 32.4012 36.0014 32.5 36.25 32.5Z" fill="#1855A5"/>
<path d="M52.1875 19.375H55.9375C56.1861 19.375 56.4246 19.2762 56.6004 19.1004C56.7762 18.9246 56.875 18.6861 56.875 18.4375V14.6875C56.875 14.4389 56.7762 14.2004 56.6004 14.0246C56.4246 13.8488 56.1861 13.75 55.9375 13.75H52.1875C51.9389 13.75 51.7004 13.8488 51.5246 14.0246C51.3488 14.2004 51.25 14.4389 51.25 14.6875V18.4375C51.25 18.6861 51.3488 18.9246 51.5246 19.1004C51.7004 19.2762 51.9389 19.375 52.1875 19.375ZM53.125 15.625H55V17.5H53.125V15.625Z" fill="#1855A5"/>
<path d="M44.6875 19.375H48.4375C48.6861 19.375 48.9246 19.2762 49.1004 19.1004C49.2762 18.9246 49.375 18.6861 49.375 18.4375V14.6875C49.375 14.4389 49.2762 14.2004 49.1004 14.0246C48.9246 13.8488 48.6861 13.75 48.4375 13.75H44.6875C44.4389 13.75 44.2004 13.8488 44.0246 14.0246C43.8488 14.2004 43.75 14.4389 43.75 14.6875V18.4375C43.75 18.6861 43.8488 18.9246 44.0246 19.1004C44.2004 19.2762 44.4389 19.375 44.6875 19.375ZM45.625 15.625H47.5V17.5H45.625V15.625Z" fill="#1855A5"/>
<path d="M55.9375 37.1875H24.0625C23.8139 37.1875 23.5754 37.2863 23.3996 37.4621C23.2238 37.6379 23.125 37.8764 23.125 38.125V58.75C23.125 58.9986 23.2238 59.2371 23.3996 59.4129C23.5754 59.5887 23.8139 59.6875 24.0625 59.6875H55.9375C56.1861 59.6875 56.4246 59.5887 56.6004 59.4129C56.7762 59.2371 56.875 58.9986 56.875 58.75V38.125C56.875 37.8764 56.7762 37.6379 56.6004 37.4621C56.4246 37.2863 56.1861 37.1875 55.9375 37.1875ZM55 41.875H52.1875V39.0625H55V41.875ZM37.1875 43.75V57.8125H31.5625V43.75H37.1875ZM31.5625 41.875V39.0625H37.1875V41.875H31.5625ZM39.0625 43.75H50.3125V57.8125H39.0625V43.75ZM39.0625 41.875V39.0625H50.3125V41.875H39.0625ZM29.6875 39.0625V41.875H25V39.0625H29.6875ZM25 43.75H29.6875V57.8125H25V43.75ZM52.1875 57.8125V43.75H55V57.8125H52.1875Z" fill="#1855A5"/>
<path d="M55.1337 61.5632C53.2283 60.3813 50.8044 61.0652 49.1715 62.0994C48.963 62.2315 48.7548 62.3715 48.5536 62.5069C47.6664 63.1035 46.8277 63.667 46.0395 63.5442C45.5824 63.4732 45.1185 63.1569 44.627 62.8221C44.0794 62.4488 43.4587 62.0252 42.6995 61.8416C40.9384 61.4142 38.9964 62.5786 38.5439 64.3333C38.5132 64.4525 38.5062 64.5766 38.5233 64.6985C38.5405 64.8204 38.5815 64.9377 38.6441 65.0438C38.7066 65.1498 38.7894 65.2425 38.8878 65.3166C38.9861 65.3906 39.0981 65.4446 39.2173 65.4754C39.3365 65.5061 39.4606 65.5131 39.5825 65.496C39.7044 65.4788 39.8217 65.4378 39.9278 65.3752C40.0339 65.3127 40.1266 65.2299 40.2006 65.1315C40.2747 65.0332 40.3286 64.9212 40.3594 64.802C40.5586 64.0286 41.4817 63.476 42.2578 63.664C42.6853 63.7677 43.1159 64.0611 43.5717 64.3717C44.1835 64.7886 44.8769 65.2611 45.752 65.3972C47.2667 65.6329 48.5059 64.7986 49.6005 64.0629C49.7997 63.9287 49.9883 63.802 50.1753 63.6837C51.3281 62.9536 52.976 62.4315 54.1458 63.1563C54.2504 63.2212 54.3669 63.2649 54.4884 63.2848C54.6099 63.3047 54.7341 63.3005 54.854 63.2724C54.9739 63.2443 55.0871 63.1928 55.1871 63.121C55.2871 63.0491 55.372 62.9583 55.4369 62.8536C55.5018 62.749 55.5454 62.6326 55.5653 62.5111C55.5852 62.3896 55.581 62.2653 55.5529 62.1454C55.5248 62.0255 55.4733 61.9124 55.4015 61.8124C55.3297 61.7124 55.2388 61.6275 55.1342 61.5626L55.1337 61.5632Z" fill="#1855A5"/>
</g>
<defs>
<clipPath id="clip0_2404_1393">
<rect width="80" height="80" fill="white"/>
</clipPath>
</defs>
</svg>
