<svg width="80" height="81" viewBox="0 0 80 81" fill="none" xmlns="http://www.w3.org/2000/svg">
<g clip-path="url(#clip0_1164_1049)">
<rect y="0.894531" width="80" height="80" rx="8" fill="white"/>
<g clip-path="url(#clip1_1164_1049)">
<path d="M56.6089 11.8984C49.6651 11.8984 44.0283 17.5352 44.0283 24.4791C44.0283 31.4224 49.6651 37.0597 56.6089 37.0597C63.5523 37.0597 69.1896 31.4224 69.1896 24.4791C69.1896 17.5352 63.5523 11.8984 56.6089 11.8984Z" fill="#4A8ADE"/>
<path d="M18.7097 66.0558V40.8945H10.9678V68.959H18.7097V66.0558Z" fill="#4A8ADE"/>
<path d="M56.4519 19.6889C57.7461 19.6889 58.9194 20.4388 58.9194 21.2738C58.9194 21.8059 59.3551 22.2415 59.8871 22.2415C60.4197 22.2415 60.8549 21.8059 60.8549 21.2738C60.8549 19.6044 59.3792 18.2009 57.4196 17.8503V16.7011C57.4196 16.1691 56.9839 15.7334 56.4519 15.7334C55.9198 15.7334 55.4841 16.1691 55.4841 16.7011V17.8626C53.7178 18.1164 52.3753 19.5803 52.2662 21.3584C52.2662 23.6086 54.3472 24.5399 56.0285 25.2776C57.6856 26.0156 58.702 26.5359 58.702 27.5155C58.702 28.4227 57.6738 29.1849 56.4519 29.1849C55.1576 29.1849 53.9843 28.435 53.9843 27.6005C53.9843 27.068 53.5486 26.6328 53.0166 26.6328C52.484 26.6328 52.0488 27.068 52.0488 27.6005C52.0488 29.2695 53.5245 30.6729 55.4841 31.0235V32.1727C55.4841 32.7052 55.9198 33.1404 56.4519 33.1404C56.9839 33.1404 57.4196 32.7052 57.4196 32.1727V31.0117C59.1859 30.7575 60.5284 29.2941 60.6375 27.5155C60.6375 25.2053 58.5206 24.2616 56.8148 23.5117C55.1817 22.7859 54.2017 22.2779 54.2017 21.3584C54.2017 20.4634 55.2299 19.6889 56.4519 19.6889Z" fill="#1857AA"/>
<path d="M56.4517 10.8945C48.964 10.8945 42.9033 16.9552 42.9033 24.4429C42.9033 31.9306 48.964 37.9913 56.4517 37.9913C63.9394 37.9913 70.0001 31.9306 70.0001 24.4429C69.9878 16.967 63.9276 10.9068 56.4517 10.8945ZM56.4517 36.0558C50.0404 36.0558 44.8388 30.8542 44.8388 24.4429C44.8388 18.0316 50.0404 12.83 56.4517 12.83C62.863 12.83 68.0646 18.0316 68.0646 24.4429C68.0523 30.8542 62.863 36.0435 56.4517 36.0558Z" fill="#1857AA"/>
<path d="M49.5437 18.6361C49.7979 18.6361 50.0521 18.5274 50.2336 18.346C50.536 18.0313 50.8743 17.7411 51.2254 17.4746C51.6488 17.1481 51.7457 16.5433 51.4187 16.1199C51.0921 15.6965 50.4873 15.5996 50.0639 15.9266C49.6405 16.2532 49.2294 16.6038 48.8542 16.9908C48.4795 17.3782 48.4913 17.9831 48.8665 18.3578C49.048 18.5393 49.2899 18.6361 49.5437 18.6361Z" fill="#1857AA"/>
<path d="M52.968 32.4269C48.5649 30.5037 46.5449 25.3744 48.4681 20.9713C48.6013 20.6689 48.7464 20.3783 48.9156 20.0882C49.2062 19.6407 49.0729 19.0359 48.6131 18.7575C48.1534 18.4792 47.5608 18.6002 47.2825 19.06C47.2707 19.0841 47.2584 19.1082 47.2461 19.1327C44.307 24.2134 46.0487 30.7333 51.1294 33.6729C51.48 33.8785 51.8311 34.0599 52.2058 34.2173C52.7019 34.4106 53.2704 34.1686 53.4641 33.6729C53.6456 33.1891 53.4277 32.6447 52.968 32.4269Z" fill="#1857AA"/>
<path d="M53.9717 39.9263H40V33.1521C40 30.5272 37.6047 25.4102 33.2258 25.4102H32.258C31.1934 25.4102 30.3226 26.281 30.3226 27.3456V36.1399C30.3226 39.2973 27.7581 41.8617 24.6007 41.8617H19.6774V40.894C19.6774 40.3619 19.2417 39.9263 18.7097 39.9263H10.9677C10.4357 39.9263 10 40.3619 10 40.894V68.9585C10 69.4906 10.4357 69.9262 10.9677 69.9262H18.7097C19.2417 69.9262 19.6774 69.4906 19.6774 68.9585V67.023H22.1936C24.8185 69.5151 28.3143 70.9063 31.9315 70.894H51.129C53.5483 70.894 55.6048 69.0917 55.9195 66.6965L58.7622 45.4062C59.1128 42.7567 57.2501 40.3256 54.6007 39.9745C54.3951 39.9386 54.1773 39.9263 53.9717 39.9263ZM17.7419 67.9907H11.9355V41.8617H17.7419V67.9907ZM54.0081 66.4423C53.8026 67.8821 52.5806 68.9585 51.129 68.9585H31.9315C28.6772 68.9708 25.5566 67.676 23.27 65.3658C23.0886 65.1844 22.8467 65.0875 22.5806 65.0875H19.6774V43.7972H24.6007C28.8346 43.7972 32.258 40.3738 32.258 36.1399V27.3456H33.2258C36.5524 27.3456 38.0645 31.7973 38.0645 33.1521V40.894C38.0645 41.4261 38.5002 41.8617 39.0322 41.8617H53.9717C55.5807 41.8617 56.8749 43.156 56.8749 44.765C56.8749 44.8982 56.8627 45.0192 56.8508 45.152L56.512 47.6805C56.4879 47.6805 56.4757 47.6682 56.4516 47.6682H48.7096C48.1776 47.6682 47.7419 48.1039 47.7419 48.6359C47.7419 49.168 48.1776 49.6037 48.7096 49.6037H56.246L55.4715 55.4101H47.7419C47.2098 55.4101 46.7741 55.8458 46.7741 56.3779C46.7741 56.9099 47.2098 57.3456 47.7419 57.3456H55.2178L54.5643 62.1966C54.5402 62.1966 54.5284 62.1843 54.5161 62.1843H46.7741C46.2421 62.1843 45.8064 62.62 45.8064 63.152C45.8064 63.6841 46.2421 64.1198 46.7741 64.1198H54.3105L54.0081 66.4423Z" fill="#1857AA"/>
</g>
</g>
<defs>
<clipPath id="clip0_1164_1049">
<rect width="80" height="80" fill="white" transform="translate(0 0.894531)"/>
</clipPath>
<clipPath id="clip1_1164_1049">
<rect width="60" height="60" fill="white" transform="translate(10 10.8945)"/>
</clipPath>
</defs>
</svg>
