<svg width="80" height="81" viewBox="0 0 80 81" fill="none" xmlns="http://www.w3.org/2000/svg">
<g clip-path="url(#clip0_1164_1011)">
<rect y="0.894531" width="80" height="80" rx="8" fill="white"/>
<path d="M67.6562 16.9258V50.1133L47.0431 50.4544C47.266 49.7476 47.378 49.0106 47.375 48.2695C47.3752 47.9614 47.3568 47.6535 47.3197 47.3477H64.8906V19.6914H15.1094V47.3477H32.6803C32.6432 47.6535 32.6248 47.9614 32.625 48.2695C32.621 49.0957 32.7614 49.9162 33.0398 50.6941L12.3438 51.0352V17.8477L67.6562 16.9258Z" fill="#4A8ADE"/>
<path d="M47.3751 48.2693C47.3781 49.0104 47.2661 49.7474 47.0432 50.4542C46.6194 51.8238 45.8052 53.04 44.7005 53.9538C43.5958 54.8675 42.2485 55.4392 40.8238 55.5987C39.399 55.7582 37.9587 55.4986 36.6792 54.8517C35.3998 54.2049 34.3369 53.1988 33.6207 51.9568C33.3809 51.5587 33.1861 51.1351 33.0399 50.6939C32.7614 49.916 32.621 49.0955 32.6251 48.2693C32.6249 47.9612 32.6433 47.6534 32.6804 47.3475C32.9004 45.5611 33.7661 43.9169 35.1143 42.7246C36.4625 41.5322 38.2002 40.874 40.0001 40.874C41.7999 40.874 43.5376 41.5322 44.8859 42.7246C46.2341 43.9169 47.0997 45.5611 47.3198 47.3475C47.3568 47.6534 47.3753 47.9612 47.3751 48.2693Z" fill="#4A8ADE"/>
<path d="M67.6562 16.0039H12.3438C12.0993 16.0039 11.8648 16.101 11.6919 16.2739C11.519 16.4468 11.4219 16.6813 11.4219 16.9258V50.1133C11.4219 50.3578 11.519 50.5923 11.6919 50.7651C11.8648 50.938 12.0993 51.0352 12.3438 51.0352H32.1963C32.3169 51.3738 32.4601 51.704 32.625 52.0234V64.8633C32.625 65.0396 32.6756 65.2122 32.7707 65.3607C32.8659 65.5091 33.0016 65.6272 33.1618 65.7008C33.322 65.7745 33.5 65.8006 33.6746 65.7762C33.8492 65.7518 34.0132 65.6778 34.147 65.563L40 60.5461L45.853 65.563C45.9868 65.6778 46.1508 65.7518 46.3254 65.7762C46.5 65.8006 46.678 65.7745 46.8382 65.7008C46.9984 65.6272 47.1341 65.5091 47.2293 65.3607C47.3244 65.2122 47.375 65.0396 47.375 64.8633V52.0234C47.5399 51.704 47.6831 51.3738 47.8037 51.0352H67.6562C67.9007 51.0352 68.1352 50.938 68.3081 50.7651C68.481 50.5923 68.5781 50.3578 68.5781 50.1133V16.9258C68.5781 16.6813 68.481 16.4468 68.3081 16.2739C68.1352 16.101 67.9007 16.0039 67.6562 16.0039ZM45.5792 51.4961C45.0141 52.4753 44.2012 53.2886 43.2221 53.854C42.2431 54.4194 41.1324 54.717 40.0018 54.717C38.8713 54.717 37.7606 54.4194 36.7815 53.854C35.8025 53.2886 34.9896 52.4753 34.4245 51.4961V51.4906V51.486C33.8506 50.5112 33.5476 49.4007 33.5469 48.2695C33.5469 46.5581 34.2268 44.9167 35.437 43.7065C36.6471 42.4963 38.2885 41.8164 40 41.8164C41.7115 41.8164 43.3529 42.4963 44.563 43.7065C45.7732 44.9167 46.4531 46.5581 46.4531 48.2695C46.456 49.4007 46.1565 50.5121 45.5856 51.4887V51.4933L45.5792 51.4961ZM40 39.9727C38.1215 39.9758 36.2995 40.6156 34.8315 41.7876C33.3635 42.9596 32.3361 44.5946 31.917 46.4258H16.0312V20.6133H63.9688V46.4258H48.083C47.6639 44.5946 46.6365 42.9596 45.1685 41.7876C43.7005 40.6156 41.8785 39.9758 40 39.9727ZM45.5312 62.8591L40.6001 58.6323C40.4332 58.4895 40.2207 58.411 40.0009 58.411C39.7812 58.411 39.5687 58.4895 39.4017 58.6323L34.4688 62.8591V54.4461C35.9888 55.8089 37.9585 56.5626 40 56.5626C42.0415 56.5626 44.0112 55.8089 45.5312 54.4461V62.8591ZM66.7344 49.1914H48.236C48.2734 48.8855 48.2937 48.5777 48.2969 48.2695H64.8906C65.1351 48.2695 65.3696 48.1724 65.5425 47.9995C65.7154 47.8266 65.8125 47.5922 65.8125 47.3477V19.6914C65.8125 19.4469 65.7154 19.2124 65.5425 19.0395C65.3696 18.8667 65.1351 18.7695 64.8906 18.7695H15.1094C14.8649 18.7695 14.6304 18.8667 14.4575 19.0395C14.2846 19.2124 14.1875 19.4469 14.1875 19.6914V47.3477C14.1875 47.5922 14.2846 47.8266 14.4575 47.9995C14.6304 48.1724 14.8649 48.2695 15.1094 48.2695H31.7031C31.7063 48.5777 31.7266 48.8855 31.764 49.1914H13.2656V17.8477H66.7344V49.1914Z" fill="#1857AA"/>
<path d="M52.9062 29.832H27.0938C26.8493 29.832 26.6148 29.9292 26.4419 30.102C26.269 30.2749 26.1719 30.5094 26.1719 30.7539C26.1719 30.9984 26.269 31.2329 26.4419 31.4058C26.6148 31.5787 26.8493 31.6758 27.0938 31.6758H52.9062C53.1507 31.6758 53.3852 31.5787 53.5581 31.4058C53.731 31.2329 53.8281 30.9984 53.8281 30.7539C53.8281 30.5094 53.731 30.2749 53.5581 30.102C53.3852 29.9292 53.1507 29.832 52.9062 29.832Z" fill="#1857AA"/>
<path d="M32.625 27.0664H47.375C47.6195 27.0664 47.854 26.9693 48.0269 26.7964C48.1997 26.6235 48.2969 26.389 48.2969 26.1445C48.2969 25.9 48.1997 25.6656 48.0269 25.4927C47.854 25.3198 47.6195 25.2227 47.375 25.2227H32.625C32.3805 25.2227 32.146 25.3198 31.9731 25.4927C31.8003 25.6656 31.7031 25.9 31.7031 26.1445C31.7031 26.389 31.8003 26.6235 31.9731 26.7964C32.146 26.9693 32.3805 27.0664 32.625 27.0664Z" fill="#1857AA"/>
<path d="M44.6094 34.4414H35.3906C35.1461 34.4414 34.9116 34.5385 34.7388 34.7114C34.5659 34.8843 34.4688 35.1188 34.4688 35.3633C34.4688 35.6078 34.5659 35.8423 34.7388 36.0151C34.9116 36.188 35.1461 36.2852 35.3906 36.2852H44.6094C44.8539 36.2852 45.0884 36.188 45.2612 36.0151C45.4341 35.8423 45.5312 35.6078 45.5312 35.3633C45.5312 35.1188 45.4341 34.8843 45.2612 34.7114C45.0884 34.5385 44.8539 34.4414 44.6094 34.4414Z" fill="#1857AA"/>
</g>
<defs>
<clipPath id="clip0_1164_1011">
<rect width="80" height="80" fill="white" transform="translate(0 0.894531)"/>
</clipPath>
</defs>
</svg>
