<svg width="80" height="81" viewBox="0 0 80 81" fill="none" xmlns="http://www.w3.org/2000/svg">
<g clip-path="url(#clip0_1164_282)">
<rect y="0.916992" width="80" height="80" rx="8" fill="white"/>
<g clip-path="url(#clip1_1164_282)">
<path d="M29.3547 66.0781H50.6451V69.9491H29.3547V66.0781Z" fill="#4A8ADE"/>
<path d="M32.2581 62.207H47.7419V66.078H32.2581V62.207Z" fill="#4A8ADE"/>
<path d="M50.645 70.9168H29.3547C28.8203 70.9168 28.387 70.4835 28.387 69.9491V66.0781C28.387 65.5437 28.8203 65.1104 29.3547 65.1104H50.645C51.1795 65.1104 51.6128 65.5437 51.6128 66.0781V69.9491C51.6128 70.4835 51.1795 70.9168 50.645 70.9168ZM30.3224 68.9813H49.6773V67.0458H30.3224V68.9813Z" fill="#1857AA"/>
<path d="M47.7419 67.0457H32.258C31.7236 67.0457 31.2903 66.6124 31.2903 66.078V62.207C31.2903 61.6726 31.7236 61.2393 32.258 61.2393H47.7419C48.2763 61.2393 48.7096 61.6726 48.7096 62.207V66.078C48.7096 66.6124 48.2763 67.0457 47.7419 67.0457ZM33.2258 65.1102H46.7742V63.1747H33.2258V65.1102Z" fill="#1857AA"/>
<path d="M46.7741 63.1751H33.2257C32.7352 63.1751 32.3227 62.8084 32.2646 62.3217C31.235 53.6668 28.4017 47.0244 23.8403 42.5794C23.458 42.2065 23.45 41.5937 23.8228 41.2114C30.1132 34.7585 35.07 22.5984 39.0912 11.5559C39.2297 11.1726 39.5926 10.9175 39.9999 10.917C40.4058 10.917 40.7687 11.1707 40.9086 11.5516C46.6626 27.2571 51.5084 36.6746 56.1609 41.1901C56.3457 41.3687 56.4515 41.614 56.4553 41.871C56.4586 42.1281 56.3599 42.3762 56.1803 42.5605C51.4309 47.4318 48.5915 54.0765 47.7409 62.307C47.6894 62.8018 47.2717 63.1774 46.7741 63.1751ZM34.0791 61.2396H45.9089C46.8677 53.336 49.6329 46.8378 54.1347 41.9003C49.6896 37.1949 45.2663 28.6789 39.9999 14.6764C36.214 24.8377 31.6201 35.5335 25.8561 41.8701C30.2053 46.4555 32.9663 52.9637 34.0791 61.2396Z" fill="#1857AA"/>
<path d="M39.9998 49.6266C37.3272 49.6266 35.1611 47.4601 35.1611 44.7879C35.1611 42.1158 37.3272 39.9492 39.9998 39.9492C42.672 39.9492 44.8386 42.1158 44.8386 44.7879C44.8352 47.4591 42.6706 49.6233 39.9998 49.6266ZM39.9998 41.8847C38.3965 41.8847 37.0966 43.1846 37.0966 44.7879C37.0966 46.3912 38.3965 47.6912 39.9998 47.6912C41.6031 47.6912 42.9031 46.3912 42.9031 44.7879C42.9031 43.1846 41.6031 41.8847 39.9998 41.8847Z" fill="#1857AA"/>
<path d="M40 62.2078C39.4655 62.2078 39.0322 61.7745 39.0322 61.24V56.4013C39.0322 55.8669 39.4655 55.4336 40 55.4336C40.5344 55.4336 40.9677 55.8669 40.9677 56.4013V61.24C40.9677 61.7745 40.5344 62.2078 40 62.2078Z" fill="#1857AA"/>
<path d="M40 53.4979C39.4655 53.4979 39.0322 53.0646 39.0322 52.5301V49.6269C39.0322 49.0925 39.4655 48.6592 40 48.6592C40.5344 48.6592 40.9677 49.0925 40.9677 49.6269V52.5301C40.9677 53.0646 40.5344 53.4979 40 53.4979Z" fill="#1857AA"/>
</g>
</g>
<defs>
<clipPath id="clip0_1164_282">
<rect width="80" height="80" fill="white" transform="translate(0 0.916992)"/>
</clipPath>
<clipPath id="clip1_1164_282">
<rect width="60" height="60" fill="white" transform="translate(10 10.917)"/>
</clipPath>
</defs>
</svg>
