<svg width="80" height="80" viewBox="0 0 80 80" fill="none" xmlns="http://www.w3.org/2000/svg">
<g clip-path="url(#clip0_2404_5603)">
<rect width="80" height="80" rx="8" fill="white"/>
<g clip-path="url(#clip1_2404_5603)">
<path d="M52.25 66.25H27.75L29.5 62.75H50.5L52.25 66.25Z" fill="#3B83E3"/>
<path d="M66.25 53.125H63.45L57.7196 27.75H66.25C66.4821 27.75 66.7046 27.6578 66.8687 27.4937C67.0328 27.3296 67.125 27.1071 67.125 26.875C67.125 26.6429 67.0328 26.4204 66.8687 26.2563C66.7046 26.0922 66.4821 26 66.25 26H55.2373L51.1186 21.8814C50.9546 21.7173 50.732 21.6251 50.5 21.625H40.875V19.875C40.8697 19.8354 40.8618 19.7963 40.8514 19.7578C41.6797 19.55 42.4035 19.0466 42.8865 18.3423C43.3694 17.6381 43.5783 16.7815 43.4736 15.934C43.369 15.0864 42.9581 14.3064 42.3183 13.7407C41.6785 13.1751 40.854 12.8629 40 12.8629C39.146 12.8629 38.3215 13.1751 37.6817 13.7407C37.0419 14.3064 36.631 15.0864 36.5264 15.934C36.4217 16.7815 36.6305 17.6381 37.1135 18.3423C37.5965 19.0466 38.3203 19.55 39.1486 19.7578C39.1382 19.7963 39.1303 19.8354 39.125 19.875V21.625H29.5C29.268 21.6251 29.0454 21.7173 28.8814 21.8814L24.7628 26H13.75C13.5179 26 13.2954 26.0922 13.1313 26.2563C12.9672 26.4204 12.875 26.6429 12.875 26.875C12.875 27.1071 12.9672 27.3296 13.1313 27.4937C13.2954 27.6578 13.5179 27.75 13.75 27.75H22.2804L16.55 53.125H13.75C13.617 53.125 13.4857 53.1553 13.3662 53.2137C13.2467 53.272 13.142 53.3568 13.0602 53.4617C12.9784 53.5666 12.9215 53.6887 12.894 53.8188C12.8664 53.9489 12.8689 54.0836 12.9012 54.2126L13.7762 57.7126C13.8237 57.9019 13.9329 58.0698 14.0867 58.1898C14.2405 58.3098 14.4299 58.375 14.625 58.375H32.125C32.3201 58.375 32.5095 58.3098 32.6633 58.1898C32.8171 58.0698 32.9263 57.9019 32.9737 57.7126L33.8487 54.2126C33.8811 54.0836 33.8836 53.9489 33.856 53.8188C33.8285 53.6887 33.7716 53.5666 33.6898 53.4617C33.608 53.3568 33.5033 53.272 33.3838 53.2137C33.2643 53.1553 33.133 53.125 33 53.125H30.2L24.4696 27.75H25.125C25.357 27.75 25.5796 27.6577 25.7436 27.4936L29.8622 23.375H39.125V61.875H29.5C29.3374 61.8749 29.178 61.9202 29.0397 62.0056C28.9013 62.0911 28.7896 62.2134 28.7169 62.3589L26.9669 65.8589C26.9002 65.9923 26.8687 66.1406 26.8755 66.2896C26.8822 66.4386 26.927 66.5834 27.0054 66.7103C27.0839 66.8371 27.1935 66.9418 27.3238 67.0144C27.4541 67.087 27.6008 67.1251 27.75 67.125H52.25C52.3995 67.1258 52.5468 67.0883 52.6777 67.016C52.8086 66.9438 52.9188 66.8391 52.9978 66.7122C53.0768 66.5852 53.1219 66.4401 53.1288 66.2907C53.1358 66.1413 53.1043 65.9927 53.0375 65.8589L51.2875 62.3589C51.2145 62.2128 51.102 62.09 50.9629 62.0045C50.8237 61.919 50.6633 61.8741 50.5 61.875H40.875V23.375H50.1377L54.2564 27.4936C54.4204 27.6577 54.643 27.75 54.875 27.75H55.5304L49.8 53.125H47C46.867 53.125 46.7357 53.1553 46.6162 53.2137C46.4967 53.272 46.392 53.3568 46.3102 53.4617C46.2284 53.5666 46.1715 53.6887 46.144 53.8188C46.1164 53.9489 46.1189 54.0836 46.1512 54.2126L47.0262 57.7126C47.0736 57.9019 47.1829 58.0698 47.3367 58.1898C47.4905 58.3098 47.6799 58.375 47.875 58.375H65.375C65.5701 58.375 65.7595 58.3098 65.9133 58.1898C66.0671 58.0698 66.1764 57.9019 66.2238 57.7126L67.0988 54.2126C67.1311 54.0836 67.1336 53.9489 67.106 53.8188C67.0785 53.6887 67.0216 53.5666 66.9398 53.4617C66.858 53.3568 66.7533 53.272 66.6338 53.2137C66.5143 53.1553 66.383 53.125 66.25 53.125ZM31.4416 56.625H15.3084L14.8709 54.875H31.8791L31.4416 56.625ZM18.3446 53.125L23.375 30.8475L28.4054 53.125H18.3446ZM49.9592 63.625L50.8342 65.375H29.1658L30.0408 63.625H49.9592ZM38.25 16.375C38.25 16.0289 38.3526 15.6905 38.5449 15.4028C38.7372 15.115 39.0105 14.8907 39.3303 14.7582C39.6501 14.6258 40.0019 14.5911 40.3414 14.6586C40.6809 14.7262 40.9927 14.8928 41.2374 15.1376C41.4822 15.3823 41.6489 15.6941 41.7164 16.0336C41.7839 16.3731 41.7492 16.7249 41.6168 17.0447C41.4843 17.3645 41.26 17.6378 40.9722 17.8301C40.6845 18.0224 40.3461 18.125 40 18.125C39.5359 18.125 39.0908 17.9406 38.7626 17.6124C38.4344 17.2843 38.25 16.8391 38.25 16.375ZM56.625 30.8475L61.6554 53.125H51.5929L56.625 30.8475ZM64.6916 56.625H48.5584L48.1209 54.875H65.1291L64.6916 56.625Z" fill="#1855A5"/>
</g>
</g>
<defs>
<clipPath id="clip0_2404_5603">
<rect width="80" height="80" fill="white"/>
</clipPath>
<clipPath id="clip1_2404_5603">
<rect width="56" height="56" fill="white" transform="translate(12 12)"/>
</clipPath>
</defs>
</svg>
