<svg width="81" height="80" viewBox="0 0 81 80" fill="none" xmlns="http://www.w3.org/2000/svg">
<g clip-path="url(#clip0_1164_39)">
<rect x="0.166748" width="80" height="80" rx="8" fill="white"/>
<path d="M40.1667 28.75C44.8267 28.75 48.6042 24.9724 48.6042 20.3125C48.6042 15.6526 44.8267 11.875 40.1667 11.875C35.5068 11.875 31.7292 15.6526 31.7292 20.3125C31.7292 24.9724 35.5068 28.75 40.1667 28.75Z" fill="#4A8ADE"/>
<path d="M25.1667 38.125H32.6667V68.125H25.1667V38.125Z" fill="#4A8ADE"/>
<path d="M47.6667 49.375H55.1667V68.125H47.6667V49.375Z" fill="#4A8ADE"/>
<path d="M68.2918 47.5001C68.1686 47.5003 68.0467 47.4761 67.9329 47.429C67.8191 47.3818 67.7158 47.3127 67.6288 47.2255L59.7967 39.3934L54.8294 43.5328C54.6497 43.6826 54.4205 43.7597 54.1868 43.7491C53.9531 43.7385 53.7318 43.6409 53.5663 43.4755L43.9168 33.8258L38.9547 38.788C38.8677 38.8751 38.7643 38.9441 38.6506 38.9913C38.5368 39.0384 38.4149 39.0626 38.2918 39.0626C38.1687 39.0626 38.0467 39.0384 37.933 38.9913C37.8193 38.9441 37.7159 38.8751 37.6288 38.788L27.9793 29.1383L23.0172 34.1005C22.9301 34.1876 22.8268 34.2566 22.7131 34.3037C22.5993 34.3508 22.4774 34.3751 22.3543 34.3751C22.3475 34.3751 22.3408 34.3751 22.3339 34.3751C22.2074 34.3723 22.0828 34.344 21.9675 34.2918C21.8522 34.2396 21.7487 34.1646 21.6632 34.0713L11.3507 22.8213C11.1827 22.638 11.0943 22.3954 11.1051 22.147C11.1105 22.024 11.14 21.9032 11.192 21.7916C11.2441 21.68 11.3175 21.5797 11.4083 21.4965C11.4991 21.4133 11.6054 21.3487 11.7211 21.3066C11.8368 21.2645 11.9597 21.2455 12.0827 21.2509C12.3311 21.2617 12.5651 21.3707 12.7332 21.5541L22.384 32.0823L27.3167 27.1497C27.4038 27.0626 27.5071 26.9935 27.6209 26.9464C27.7346 26.8993 27.8565 26.8751 27.9796 26.8751C28.1027 26.8751 28.2247 26.8993 28.3384 26.9464C28.4522 26.9935 28.5555 27.0626 28.6426 27.1497L38.2918 36.7993L43.2538 31.8372C43.3409 31.7501 43.4443 31.681 43.558 31.6339C43.6717 31.5868 43.7937 31.5626 43.9168 31.5626C44.0399 31.5626 44.1618 31.5868 44.2756 31.6339C44.3893 31.681 44.4927 31.7501 44.5797 31.8372L54.2868 41.5443L59.2542 37.4049C59.4339 37.2551 59.6631 37.1779 59.8968 37.1885C60.1305 37.1991 60.3518 37.2967 60.5172 37.4622L68.9547 45.8997C69.0858 46.0308 69.1751 46.1978 69.2113 46.3797C69.2475 46.5615 69.2289 46.75 69.1579 46.9214C69.087 47.0927 68.9668 47.2391 68.8126 47.3421C68.6585 47.4451 68.4772 47.5001 68.2918 47.5001Z" fill="#1857AA"/>
<path d="M68.2917 47.5H62.6667C62.4181 47.5 62.1797 47.4012 62.0038 47.2254C61.828 47.0496 61.7292 46.8111 61.7292 46.5625C61.7292 46.3139 61.828 46.0754 62.0038 45.8996C62.1797 45.7238 62.4181 45.625 62.6667 45.625H67.3542V40.9375C67.3542 40.6889 67.453 40.4504 67.6288 40.2746C67.8047 40.0988 68.0431 40 68.2917 40C68.5404 40 68.7788 40.0988 68.9547 40.2746C69.1305 40.4504 69.2292 40.6889 69.2292 40.9375V46.5625C69.2292 46.8111 69.1305 47.0496 68.9547 47.2254C68.7788 47.4012 68.5404 47.5 68.2917 47.5Z" fill="#1857AA"/>
<path d="M40.1668 29.6875C38.3126 29.6875 36.5 29.1377 34.9583 28.1075C33.4166 27.0774 32.215 25.6132 31.5054 23.9002C30.7958 22.1871 30.6102 20.3021 30.9719 18.4835C31.3336 16.665 32.2265 14.9945 33.5376 13.6834C34.8487 12.3723 36.5192 11.4794 38.3378 11.1176C40.1564 10.7559 42.0414 10.9416 43.7544 11.6511C45.4675 12.3607 46.9316 13.5623 47.9618 15.104C48.9919 16.6457 49.5418 18.4583 49.5418 20.3125C49.5389 22.798 48.5503 25.181 46.7928 26.9385C45.0352 28.6961 42.6523 29.6847 40.1668 29.6875ZM40.1668 12.8125C38.6834 12.8125 37.2333 13.2524 36 14.0765C34.7666 14.9006 33.8053 16.0719 33.2377 17.4424C32.67 18.8128 32.5215 20.3208 32.8109 21.7757C33.1003 23.2305 33.8146 24.5669 34.8635 25.6158C35.9123 26.6647 37.2487 27.379 38.7036 27.6684C40.1584 27.9578 41.6664 27.8093 43.0369 27.2416C44.4073 26.6739 45.5787 25.7127 46.4028 24.4793C47.2269 23.2459 47.6668 21.7959 47.6668 20.3125C47.6645 18.3241 46.8736 16.4177 45.4676 15.0117C44.0616 13.6056 42.1552 12.8147 40.1668 12.8125Z" fill="#1857AA"/>
<path d="M42.0417 24.0625H38.2917C38.0431 24.0625 37.8047 23.9637 37.6288 23.7879C37.453 23.6121 37.3542 23.3736 37.3542 23.125C37.3542 22.8764 37.453 22.6379 37.6288 22.4621C37.8047 22.2863 38.0431 22.1875 38.2917 22.1875H41.1042V21.25H38.2917C38.0431 21.25 37.8047 21.1512 37.6288 20.9754C37.453 20.7996 37.3542 20.5611 37.3542 20.3125V17.5C37.3542 17.2514 37.453 17.0129 37.6288 16.8371C37.8047 16.6613 38.0431 16.5625 38.2917 16.5625H42.0417C42.2904 16.5625 42.5288 16.6613 42.7047 16.8371C42.8805 17.0129 42.9792 17.2514 42.9792 17.5C42.9792 17.7486 42.8805 17.9871 42.7047 18.1629C42.5288 18.3387 42.2904 18.4375 42.0417 18.4375H39.2292V19.375H42.0417C42.2904 19.375 42.5288 19.4738 42.7047 19.6496C42.8805 19.8254 42.9792 20.0639 42.9792 20.3125V23.125C42.9792 23.3736 42.8805 23.6121 42.7047 23.7879C42.5288 23.9637 42.2904 24.0625 42.0417 24.0625Z" fill="#1857AA"/>
<path d="M40.1667 18.4375C39.9181 18.4375 39.6797 18.3387 39.5038 18.1629C39.328 17.9871 39.2292 17.7486 39.2292 17.5V16.5625C39.2292 16.3139 39.328 16.0754 39.5038 15.8996C39.6797 15.7238 39.9181 15.625 40.1667 15.625C40.4154 15.625 40.6538 15.7238 40.8297 15.8996C41.0055 16.0754 41.1042 16.3139 41.1042 16.5625V17.5C41.1042 17.7486 41.0055 17.9871 40.8297 18.1629C40.6538 18.3387 40.4154 18.4375 40.1667 18.4375Z" fill="#1857AA"/>
<path d="M40.1667 25C39.9181 25 39.6797 24.9012 39.5038 24.7254C39.328 24.5496 39.2292 24.3111 39.2292 24.0625V23.125C39.2292 22.8764 39.328 22.6379 39.5038 22.4621C39.6797 22.2863 39.9181 22.1875 40.1667 22.1875C40.4154 22.1875 40.6538 22.2863 40.8297 22.4621C41.0055 22.6379 41.1042 22.8764 41.1042 23.125V24.0625C41.1042 24.3111 41.0055 24.5496 40.8297 24.7254C40.6538 24.9012 40.4154 25 40.1667 25Z" fill="#1857AA"/>
<path d="M43.9167 69.0625H36.4167C36.1681 69.0625 35.9297 68.9637 35.7538 68.7879C35.578 68.6121 35.4792 68.3736 35.4792 68.125V43.75C35.4792 43.5014 35.578 43.2629 35.7538 43.0871C35.9297 42.9113 36.1681 42.8125 36.4167 42.8125H43.9167C44.1654 42.8125 44.4038 42.9113 44.5797 43.0871C44.7555 43.2629 44.8542 43.5014 44.8542 43.75V68.125C44.8542 68.3736 44.7555 68.6121 44.5797 68.7879C44.4038 68.9637 44.1654 69.0625 43.9167 69.0625ZM37.3542 67.1875H42.9792V44.6875H37.3542V67.1875Z" fill="#1857AA"/>
<path d="M32.6667 69.0625H25.1667C24.9181 69.0625 24.6797 68.9637 24.5038 68.7879C24.328 68.6121 24.2292 68.3736 24.2292 68.125V38.125C24.2292 37.8764 24.328 37.6379 24.5038 37.4621C24.6797 37.2863 24.9181 37.1875 25.1667 37.1875H32.6667C32.9154 37.1875 33.1538 37.2863 33.3297 37.4621C33.5055 37.6379 33.6042 37.8764 33.6042 38.125V68.125C33.6042 68.3736 33.5055 68.6121 33.3297 68.7879C33.1538 68.9637 32.9154 69.0625 32.6667 69.0625ZM26.1042 67.1875H31.7292V39.0625H26.1042V67.1875Z" fill="#1857AA"/>
<path d="M21.4167 69.0625H13.9167C13.6681 69.0625 13.4297 68.9637 13.2538 68.7879C13.078 68.6121 12.9792 68.3736 12.9792 68.125V36.25C12.9792 36.0014 13.078 35.7629 13.2538 35.5871C13.4297 35.4113 13.6681 35.3125 13.9167 35.3125H21.4167C21.6654 35.3125 21.9038 35.4113 22.0797 35.5871C22.2555 35.7629 22.3542 36.0014 22.3542 36.25V68.125C22.3542 68.3736 22.2555 68.6121 22.0797 68.7879C21.9038 68.9637 21.6654 69.0625 21.4167 69.0625ZM14.8542 67.1875H20.4792V37.1875H14.8542V67.1875Z" fill="#1857AA"/>
<path d="M66.4167 69.0625H58.9167C58.6681 69.0625 58.4297 68.9637 58.2538 68.7879C58.078 68.6121 57.9792 68.3736 57.9792 68.125V55C57.9792 54.7514 58.078 54.5129 58.2538 54.3371C58.4297 54.1613 58.6681 54.0625 58.9167 54.0625H66.4167C66.6654 54.0625 66.9038 54.1613 67.0797 54.3371C67.2555 54.5129 67.3542 54.7514 67.3542 55V68.125C67.3542 68.3736 67.2555 68.6121 67.0797 68.7879C66.9038 68.9637 66.6654 69.0625 66.4167 69.0625ZM59.8542 67.1875H65.4792V55.9375H59.8542V67.1875Z" fill="#1857AA"/>
<path d="M55.1667 69.0625H47.6667C47.4181 69.0625 47.1797 68.9637 47.0038 68.7879C46.828 68.6121 46.7292 68.3736 46.7292 68.125V49.375C46.7292 49.1264 46.828 48.8879 47.0038 48.7121C47.1797 48.5363 47.4181 48.4375 47.6667 48.4375H55.1667C55.4154 48.4375 55.6538 48.5363 55.8297 48.7121C56.0055 48.8879 56.1042 49.1264 56.1042 49.375V68.125C56.1042 68.3736 56.0055 68.6121 55.8297 68.7879C55.6538 68.9637 55.4154 69.0625 55.1667 69.0625ZM48.6042 67.1875H54.2292V50.3125H48.6042V67.1875Z" fill="#1857AA"/>
</g>
<defs>
<clipPath id="clip0_1164_39">
<rect width="80" height="80" fill="white" transform="translate(0.166748)"/>
</clipPath>
</defs>
</svg>
