<svg width="80" height="80" viewBox="0 0 80 80" fill="none" xmlns="http://www.w3.org/2000/svg">
<g clip-path="url(#clip0_2405_6354)">
<rect width="80" height="80" rx="8" fill="white"/>
<g clip-path="url(#clip1_2405_6354)">
<path d="M11.875 48.4375L24.0625 54.968L36.25 48.4375L24.0625 41.907L11.875 48.4375Z" fill="#3B83E3"/>
<path d="M55.9375 41.907L43.75 48.4375L55.9375 54.968L68.125 48.4375L55.9375 41.907Z" fill="#3B83E3"/>
<path d="M48.2031 31.0246C48.2031 30.4989 48.0484 29.9849 47.7583 29.5465C47.4683 29.108 47.0557 28.7646 46.5719 28.559L42.1434 26.9758V24.3824C41.5537 24.9092 40.7907 25.2004 40 25.2004C39.2093 25.2004 38.4463 24.9092 37.8566 24.3824V26.9758L36.6215 27.4176L33.4281 28.559C32.9443 28.7646 32.5317 29.108 32.2417 29.5465C31.9516 29.9849 31.7969 30.4989 31.7969 31.0246V39.2758L40 43.75L48.2031 39.2758V31.0246Z" fill="#3B83E3"/>
<path d="M36.7855 18.734C37.0644 18.7598 37.3667 18.7727 37.696 18.7727H43.2144V17.3934C43.2144 13.5836 41.5058 11.875 37.696 11.875H33.5581V13.2543C33.5581 16.7348 33.8335 18.4621 36.7855 18.734Z" fill="#3B83E3"/>
<path d="M68.5681 47.6113L56.3806 41.0805C56.2442 41.0078 56.0921 40.9697 55.9376 40.9697C55.7831 40.9697 55.631 41.0078 55.4946 41.0805L51.079 43.4465L47.2247 40.8777L61.0739 33.3227C61.2218 33.2421 61.3452 33.1232 61.4312 32.9784C61.5172 32.8337 61.5626 32.6684 61.5626 32.5C61.5626 32.3316 61.5172 32.1663 61.4312 32.0216C61.3452 31.8768 61.2218 31.7579 61.0739 31.6773L44.5247 22.6504C44.6328 22.2655 44.6876 21.8677 44.6876 21.468V16.8906C44.6876 11.9336 42.0696 10.9375 37.845 10.9375H33.4153C33.1667 10.9375 32.9282 11.0363 32.7524 11.2121C32.5766 11.3879 32.4778 11.6264 32.4778 11.875V13.3633C32.4778 15.4305 32.5423 16.9738 33.372 18.0004C33.8454 18.5875 34.4923 18.9215 35.3126 19.1066V21.468C35.3126 21.8677 35.3674 22.2655 35.4755 22.6504L18.9263 31.6773C18.7784 31.7579 18.655 31.8768 18.569 32.0216C18.483 32.1663 18.4376 32.3316 18.4376 32.5C18.4376 32.6684 18.483 32.8337 18.569 32.9784C18.655 33.1232 18.7784 33.2421 18.9263 33.3227L32.7755 40.8777L28.9212 43.4465L24.5056 41.0805C24.3692 41.0078 24.2171 40.9697 24.0626 40.9697C23.9081 40.9697 23.756 41.0078 23.6196 41.0805L11.4321 47.6113C11.2827 47.6915 11.1578 47.8106 11.0708 47.9561C10.9837 48.1016 10.9377 48.268 10.9377 48.4375C10.9377 48.607 10.9837 48.7734 11.0708 48.9189C11.1578 49.0644 11.2827 49.1835 11.4321 49.2637L23.6196 55.7945C23.7559 55.8676 23.908 55.9058 24.0626 55.9058C24.2172 55.9058 24.3693 55.8676 24.5056 55.7945L36.6931 49.2637C36.8425 49.1835 36.9674 49.0644 37.0544 48.9189C37.1415 48.7734 37.1875 48.607 37.1875 48.4375C37.1875 48.268 37.1415 48.1016 37.0544 47.9561C36.9674 47.8106 36.8425 47.6915 36.6931 47.6113L30.795 44.4508L34.6341 41.8914L39.0626 44.3066V54.4703L27.3696 60.7363C27.2202 60.8165 27.0953 60.9356 27.0083 61.0811C26.9212 61.2266 26.8752 61.393 26.8752 61.5625C26.8752 61.732 26.9212 61.8984 27.0083 62.0439C27.0953 62.1894 27.2202 62.3085 27.3696 62.3887L39.5571 68.9195C39.6934 68.9926 39.8455 69.0308 40.0001 69.0308C40.1547 69.0308 40.3068 68.9926 40.4431 68.9195L52.6306 62.3887C52.78 62.3085 52.9049 62.1894 52.9919 62.0439C53.079 61.8984 53.125 61.732 53.125 61.5625C53.125 61.393 53.079 61.2266 52.9919 61.0811C52.9049 60.9356 52.78 60.8165 52.6306 60.7363L40.9376 54.4703V44.3066L45.3661 41.8914L49.2052 44.4508L43.3071 47.6113C43.1577 47.6915 43.0328 47.8106 42.9458 47.9561C42.8587 48.1016 42.8127 48.268 42.8127 48.4375C42.8127 48.607 42.8587 48.7734 42.9458 48.9189C43.0328 49.0644 43.1577 49.1835 43.3071 49.2637L55.4946 55.7945C55.6309 55.8676 55.783 55.9058 55.9376 55.9058C56.0922 55.9058 56.2443 55.8676 56.3806 55.7945L68.5681 49.2637C68.7175 49.1835 68.8424 49.0644 68.9294 48.9189C69.0165 48.7734 69.0625 48.607 69.0625 48.4375C69.0625 48.268 69.0165 48.1016 68.9294 47.9561C68.8424 47.8106 68.7175 47.6915 68.5681 47.6113ZM34.2649 48.4375L24.0626 53.9043L13.8603 48.4375L24.0626 42.9707L27.1517 44.6266L25.4173 45.782C25.3148 45.8504 25.2268 45.9382 25.1582 46.0406C25.0897 46.1429 25.042 46.2578 25.0178 46.3785C24.9937 46.4993 24.9935 46.6237 25.0174 46.7445C25.0413 46.8654 25.0888 46.9803 25.1571 47.0828C25.2255 47.1853 25.3133 47.2733 25.4157 47.3419C25.518 47.4104 25.6329 47.4581 25.7536 47.4823C25.8744 47.5064 25.9988 47.5066 26.1196 47.4827C26.2405 47.4588 26.3554 47.4113 26.4579 47.343L29.0267 45.6297L34.2649 48.4375ZM43.6376 24.3016L58.6669 32.5L49.3751 37.5684V31.4301C49.3751 29.7039 48.2829 28.3398 46.4524 27.7727L42.8126 26.2504V25.0445C43.1173 24.8319 43.3944 24.5824 43.6376 24.3016ZM40.0177 24.0285H39.9825C38.4157 24.0285 37.1876 22.9035 37.1876 21.468V19.307C37.3997 19.3129 42.8126 19.3164 42.8126 19.3164V21.468C42.8126 22.9035 41.5845 24.0285 40.0177 24.0285ZM34.8298 16.8227C34.4314 16.3281 34.3528 15.1797 34.3528 13.3633V12.8125H37.845C41.7907 12.8125 42.8126 13.6504 42.8126 16.8906V17.4414H37.845C36.0579 17.4414 35.1849 17.2621 34.8298 16.8227ZM30.6251 31.4301V37.5684L21.3333 32.5L36.3626 24.3016C36.6056 24.5814 36.8819 24.8305 37.1853 25.0434L37.1431 26.2211C37.1431 26.2211 33.0415 27.7891 33.031 27.7937C32.3169 28.0963 31.7079 28.6026 31.28 29.2493C30.8521 29.8961 30.6243 30.6546 30.6251 31.4301ZM50.2024 61.5625L40.0001 67.0293L29.7978 61.5625L39.0626 56.5984V57.8125C39.0626 58.0611 39.1614 58.2996 39.3372 58.4754C39.513 58.6512 39.7515 58.75 40.0001 58.75C40.2487 58.75 40.4872 58.6512 40.663 58.4754C40.8388 58.2996 40.9376 58.0611 40.9376 57.8125V56.5984L50.2024 61.5625ZM44.6876 32.0312C44.439 32.0312 44.2005 32.13 44.0247 32.3058C43.8489 32.4817 43.7501 32.7201 43.7501 32.9688V40.6363L40.0001 42.6824L36.2501 40.6363V32.9688C36.2501 32.7201 36.1513 32.4817 35.9755 32.3058C35.7997 32.13 35.5612 32.0312 35.3126 32.0312C35.064 32.0312 34.8255 32.13 34.6497 32.3058C34.4739 32.4817 34.3751 32.7201 34.3751 32.9688V39.6145L32.5001 38.5914V31.4301C32.4997 31.0252 32.6179 30.6291 32.8401 30.2907C33.0623 29.9522 33.3788 29.6863 33.7505 29.5258L38.3935 27.7504C38.5655 27.6847 38.7144 27.5697 38.8216 27.4198C38.9287 27.27 38.9893 27.0919 38.9958 26.9078L39.0345 25.8156C39.347 25.8749 39.6644 25.9043 39.9825 25.9035H40.0177C40.3262 25.904 40.6342 25.8762 40.9376 25.8203V26.875C40.9376 27.0598 40.9922 27.2405 41.0946 27.3944C41.1969 27.5483 41.3425 27.6685 41.513 27.7398C41.513 27.7398 45.8337 29.5445 45.8653 29.5539C46.9341 29.875 47.5001 30.523 47.5001 31.4301V38.5914L45.6251 39.6145V32.9688C45.6251 32.7201 45.5263 32.4817 45.3505 32.3058C45.1747 32.13 44.9362 32.0312 44.6876 32.0312ZM55.9376 53.9043L45.7353 48.4375L50.9735 45.6297L53.5423 47.343C53.6448 47.4113 53.7597 47.4588 53.8806 47.4827C54.0014 47.5066 54.1258 47.5064 54.2466 47.4823C54.3674 47.4581 54.4822 47.4104 54.5845 47.3419C54.6869 47.2733 54.7747 47.1853 54.8431 47.0828C54.9114 46.9803 54.9589 46.8654 54.9828 46.7445C55.0067 46.6237 55.0066 46.4993 54.9824 46.3785C54.9582 46.2578 54.9105 46.1429 54.842 46.0406C54.7734 45.9382 54.6854 45.8504 54.5829 45.782L52.8485 44.6266L55.9376 42.9707L66.1399 48.4375L55.9376 53.9043Z" fill="#1855A5"/>
</g>
</g>
<defs>
<clipPath id="clip0_2405_6354">
<rect width="80" height="80" fill="white"/>
</clipPath>
<clipPath id="clip1_2405_6354">
<rect width="60" height="60" fill="white" transform="translate(10 10)"/>
</clipPath>
</defs>
</svg>
