<svg width="66" height="65" viewBox="0 0 66 65" fill="none" xmlns="http://www.w3.org/2000/svg">
<g clip-path="url(#clip0_1092_5124)">
<rect x="0.5" width="65" height="65" rx="8" fill="white"/>
<g clip-path="url(#clip1_1092_5124)">
<path d="M44.7188 56.7188C46.4445 56.7188 47.8438 55.3195 47.8438 53.5938V11.4063C47.8438 9.68048 46.4445 8.28125 44.7188 8.28125H21.2812C19.5555 8.28125 18.1562 9.68048 18.1562 11.4063V53.5938C18.1562 55.3195 19.5555 56.7188 21.2812 56.7188H44.7188ZM33 54.375C32.1371 54.375 31.4375 53.6754 31.4375 52.8125C31.4375 51.9496 32.1371 51.25 33 51.25C33.8629 51.25 34.5625 51.9496 34.5625 52.8125C34.5625 53.6754 33.8629 54.375 33 54.375ZM21.2812 13.75H44.7188V48.9063H21.2812V13.75Z" fill="#4A8ADE"/>
<path d="M34.5625 52.8125C34.5625 53.6754 33.8629 54.375 33 54.375C32.1371 54.375 31.4375 53.6754 31.4375 52.8125C31.4375 51.9496 32.1371 51.25 33 51.25C33.8629 51.25 34.5625 51.9496 34.5625 52.8125Z" fill="#4A8ADE"/>
<path d="M44.7188 7.5H21.2812C19.1248 7.50267 17.3777 9.2498 17.375 11.4062V53.5938C17.3777 55.7502 19.1248 57.4973 21.2812 57.5H44.7188C46.8752 57.4973 48.6223 55.7502 48.625 53.5938V11.4062C48.6223 9.2498 46.8752 7.50267 44.7188 7.5ZM47.0625 53.5938C47.0625 54.8881 46.0131 55.9375 44.7188 55.9375H21.2812C19.9869 55.9375 18.9375 54.8881 18.9375 53.5938V11.4062C18.9375 10.1119 19.9869 9.0625 21.2812 9.0625H44.7188C46.0131 9.0625 47.0625 10.1119 47.0625 11.4062V53.5938Z" fill="#1857AA"/>
<path d="M44.7188 12.9688H21.2812C20.8498 12.9688 20.5 13.3186 20.5 13.75V48.9062C20.5 49.3377 20.8498 49.6875 21.2812 49.6875H44.7188C45.1502 49.6875 45.5 49.3377 45.5 48.9062V13.75C45.5 13.3186 45.1502 12.9688 44.7188 12.9688ZM43.9375 48.125H22.0625V14.5312H43.9375V48.125Z" fill="#1857AA"/>
<path d="M29.875 12.1875H36.125C36.5564 12.1875 36.9062 11.8377 36.9062 11.4062C36.9062 10.9748 36.5564 10.625 36.125 10.625H29.875C29.4436 10.625 29.0938 10.9748 29.0938 11.4062C29.0938 11.8377 29.4436 12.1875 29.875 12.1875Z" fill="#1857AA"/>
<path d="M33 50.4688C31.7057 50.4688 30.6562 51.5182 30.6562 52.8125C30.6562 54.1068 31.7057 55.1562 33 55.1562C34.2943 55.1562 35.3438 54.1068 35.3438 52.8125C35.3438 51.5182 34.2943 50.4688 33 50.4688ZM33 53.5938C32.5686 53.5938 32.2188 53.2439 32.2188 52.8125C32.2188 52.3811 32.5686 52.0312 33 52.0312C33.4314 52.0312 33.7812 52.3811 33.7812 52.8125C33.7812 53.2439 33.4314 53.5938 33 53.5938Z" fill="#1857AA"/>
<path d="M24.4062 46.5625H25.9688C26.4002 46.5625 26.75 46.2127 26.75 45.7812C26.75 45.3498 26.4002 45 25.9688 45H25.1875V42.6562C25.1875 42.2248 24.8377 41.875 24.4062 41.875C23.9748 41.875 23.625 42.2248 23.625 42.6562V45.7812C23.625 46.2127 23.9748 46.5625 24.4062 46.5625Z" fill="#1857AA"/>
<path d="M28.3125 46.5625H29.875C30.3064 46.5625 30.6562 46.2127 30.6562 45.7812C30.6562 45.3498 30.3064 45 29.875 45H28.3125C27.8811 45 27.5312 45.3498 27.5312 45.7812C27.5312 46.2127 27.8811 46.5625 28.3125 46.5625Z" fill="#1857AA"/>
</g>
</g>
<defs>
<clipPath id="clip0_1092_5124">
<rect width="65" height="65" fill="white" transform="translate(0.5)"/>
</clipPath>
<clipPath id="clip1_1092_5124">
<rect width="50" height="50" fill="white" transform="translate(8 7.5)"/>
</clipPath>
</defs>
</svg>
