<svg width="80" height="80" viewBox="0 0 80 80" fill="none" xmlns="http://www.w3.org/2000/svg">
<g clip-path="url(#clip0_2405_6479)">
<rect width="80" height="80" rx="8" fill="white"/>
<g clip-path="url(#clip1_2405_6479)">
<path d="M17.2236 59.2631H62.7236V62.7631H17.2236V59.2631Z" fill="#3B83E3"/>
<path d="M15.4736 27.7631H64.4736V31.2631H15.4736V27.7631Z" fill="#3B83E3"/>
<path d="M37.3486 34.7631H42.5986V55.7631H37.3486V34.7631Z" fill="#3B83E3"/>
<path d="M20.7236 34.7631H25.9736V55.7631H20.7236V34.7631Z" fill="#3B83E3"/>
<path d="M53.9736 34.7631H59.2236V55.7631H53.9736V34.7631Z" fill="#3B83E3"/>
<path d="M39.9736 24.2631C41.4234 24.2631 42.5986 23.0879 42.5986 21.6381C42.5986 20.1884 41.4234 19.0131 39.9736 19.0131C38.5239 19.0131 37.3486 20.1884 37.3486 21.6381C37.3486 23.0879 38.5239 24.2631 39.9736 24.2631Z" fill="#3B83E3"/>
<path d="M66.25 61.875H63.625V59.25C63.625 59.0179 63.5328 58.7954 63.3687 58.6313C63.2046 58.4672 62.9821 58.375 62.75 58.375H61.875V55.75C61.875 55.5179 61.7828 55.2954 61.6187 55.1313C61.4546 54.9672 61.2321 54.875 61 54.875H60.125V35.625H61C61.2321 35.625 61.4546 35.5328 61.6187 35.3687C61.7828 35.2046 61.875 34.9821 61.875 34.75V32.125H64.5C64.7321 32.125 64.9546 32.0328 65.1187 31.8687C65.2828 31.7046 65.375 31.4821 65.375 31.25V27.75C65.375 27.5179 65.2828 27.2954 65.1187 27.1313C64.9546 26.9672 64.7321 26.875 64.5 26.875H63.625V24.25C63.6252 24.0828 63.5774 23.9191 63.4872 23.7784C63.397 23.6376 63.2683 23.5257 63.1164 23.4559L40.3664 12.9559C40.2517 12.9024 40.1266 12.8747 40 12.8747C39.8734 12.8747 39.7483 12.9024 39.6336 12.9559L16.8836 23.4559C16.7317 23.5257 16.603 23.6376 16.5128 23.7784C16.4226 23.9191 16.3748 24.0828 16.375 24.25V26.875H15.5C15.2679 26.875 15.0454 26.9672 14.8813 27.1313C14.7172 27.2954 14.625 27.5179 14.625 27.75V31.25C14.625 31.4821 14.7172 31.7046 14.8813 31.8687C15.0454 32.0328 15.2679 32.125 15.5 32.125H18.125V34.75C18.125 34.9821 18.2172 35.2046 18.3813 35.3687C18.5454 35.5328 18.7679 35.625 19 35.625H19.875V54.875H19C18.7679 54.875 18.5454 54.9672 18.3813 55.1313C18.2172 55.2954 18.125 55.5179 18.125 55.75V58.375H17.25C17.0179 58.375 16.7954 58.4672 16.6313 58.6313C16.4672 58.7954 16.375 59.0179 16.375 59.25V61.875H13.75C13.5179 61.875 13.2954 61.9672 13.1313 62.1313C12.9672 62.2954 12.875 62.5179 12.875 62.75V66.25C12.875 66.4821 12.9672 66.7046 13.1313 66.8687C13.2954 67.0328 13.5179 67.125 13.75 67.125H66.25C66.4821 67.125 66.7046 67.0328 66.8687 66.8687C67.0328 66.7046 67.125 66.4821 67.125 66.25V62.75C67.125 62.5179 67.0328 62.2954 66.8687 62.1313C66.7046 61.9672 66.4821 61.875 66.25 61.875ZM60.125 33.875H53.125V32.125H60.125V33.875ZM44.375 54.875H43.5V35.625H44.375C44.6071 35.625 44.8296 35.5328 44.9937 35.3687C45.1578 35.2046 45.25 34.9821 45.25 34.75V32.125H51.375V34.75C51.375 34.9821 51.4672 35.2046 51.6313 35.3687C51.7954 35.5328 52.0179 35.625 52.25 35.625H53.125V54.875H52.25C52.0179 54.875 51.7954 54.9672 51.6313 55.1313C51.4672 55.2954 51.375 55.5179 51.375 55.75V58.375H45.25V55.75C45.25 55.5179 45.1578 55.2954 44.9937 55.1313C44.8296 54.9672 44.6071 54.875 44.375 54.875ZM27.75 54.875H26.875V35.625H27.75C27.9821 35.625 28.2046 35.5328 28.3687 35.3687C28.5328 35.2046 28.625 34.9821 28.625 34.75V32.125H34.75V34.75C34.75 34.9821 34.8422 35.2046 35.0063 35.3687C35.1704 35.5328 35.3929 35.625 35.625 35.625H36.5V54.875H35.625C35.3929 54.875 35.1704 54.9672 35.0063 55.1313C34.8422 55.2954 34.75 55.5179 34.75 55.75V58.375H28.625V55.75C28.625 55.5179 28.5328 55.2954 28.3687 55.1313C28.2046 54.9672 27.9821 54.875 27.75 54.875ZM19.875 33.875V32.125H26.875V33.875H19.875ZM25.125 35.625V54.875H21.625V35.625H25.125ZM36.5 56.625H43.5V58.375H36.5V56.625ZM38.25 54.875V35.625H41.75V54.875H38.25ZM36.5 33.875V32.125H43.5V33.875H36.5ZM53.125 56.625H60.125V58.375H53.125V56.625ZM54.875 54.875V35.625H58.375V54.875H54.875ZM18.125 24.81L40 14.7136L61.875 24.81V26.875H18.125V24.81ZM16.375 30.375V28.625H63.625V30.375H16.375ZM19.875 56.625H26.875V58.375H19.875V56.625ZM18.125 60.125H61.875V61.875H18.125V60.125ZM65.375 65.375H14.625V63.625H65.375V65.375Z" fill="#1855A5"/>
<path d="M40 18.125C39.3078 18.125 38.6311 18.3303 38.0555 18.7149C37.4799 19.0994 37.0313 19.6461 36.7664 20.2856C36.5015 20.9251 36.4322 21.6289 36.5673 22.3078C36.7023 22.9867 37.0356 23.6104 37.5251 24.0999C38.0146 24.5894 38.6383 24.9227 39.3172 25.0577C39.9961 25.1928 40.6999 25.1235 41.3394 24.8586C41.9789 24.5937 42.5256 24.1451 42.9101 23.5695C43.2947 22.9939 43.5 22.3172 43.5 21.625C43.499 20.6971 43.1299 19.8074 42.4737 19.1513C41.8176 18.4951 40.9279 18.126 40 18.125ZM40 23.375C39.6539 23.375 39.3155 23.2724 39.0278 23.0801C38.74 22.8878 38.5157 22.6145 38.3832 22.2947C38.2508 21.9749 38.2161 21.6231 38.2836 21.2836C38.3512 20.9441 38.5178 20.6323 38.7626 20.3876C39.0073 20.1428 39.3191 19.9761 39.6586 19.9086C39.9981 19.8411 40.3499 19.8758 40.6697 20.0082C40.9895 20.1407 41.2628 20.365 41.4551 20.6528C41.6474 20.9405 41.75 21.2789 41.75 21.625C41.7495 22.089 41.5649 22.5338 41.2368 22.8618C40.9088 23.1899 40.464 23.3745 40 23.375Z" fill="#1855A5"/>
</g>
</g>
<defs>
<clipPath id="clip0_2405_6479">
<rect width="80" height="80" fill="white"/>
</clipPath>
<clipPath id="clip1_2405_6479">
<rect width="56" height="56" fill="white" transform="translate(12 12)"/>
</clipPath>
</defs>
</svg>
