<svg width="80" height="81" viewBox="0 0 80 81" fill="none" xmlns="http://www.w3.org/2000/svg">
<g clip-path="url(#clip0_1164_1176)">
<rect y="0.894531" width="80" height="80" rx="8" fill="white"/>
<path d="M44.9023 21.8203H72.9709V26.0703H44.9023V21.8203Z" fill="#4A8ADE"/>
<path d="M7.0957 21.8203H35.1643V26.0703H7.0957V21.8203Z" fill="#4A8ADE"/>
<path d="M37.9082 12.2568H42.1582V18.6318H37.9082V12.2568Z" fill="#4A8ADE"/>
<path d="M37.9082 29.2578H42.1582V65.3828H37.9082V29.2578Z" fill="#4A8ADE"/>
<path d="M72.9375 20.707H45.517C44.957 19.7406 44.1539 18.9375 43.1875 18.3775V12.207C43.1875 11.9252 43.0756 11.655 42.8763 11.4557C42.677 11.2565 42.4068 11.1445 42.125 11.1445H37.875C37.5932 11.1445 37.323 11.2565 37.1237 11.4557C36.9244 11.655 36.8125 11.9252 36.8125 12.207V18.3775C35.8461 18.9375 35.043 19.7406 34.483 20.707H7.0625C6.78071 20.707 6.51046 20.819 6.3112 21.0182C6.11194 21.2175 6 21.4877 6 21.7695V26.0195C6 26.3013 6.11194 26.5716 6.3112 26.7708C6.51046 26.9701 6.78071 27.082 7.0625 27.082H20.4048L14.8267 41.957H11.3125C11.0307 41.957 10.7605 42.069 10.5612 42.2682C10.3619 42.4675 10.25 42.7377 10.25 43.0195C10.25 46.1192 11.4814 49.092 13.6732 51.2838C15.865 53.4757 18.8378 54.707 21.9375 54.707C25.0372 54.707 28.01 53.4757 30.2018 51.2838C32.3936 49.092 33.625 46.1192 33.625 43.0195C33.625 42.7377 33.5131 42.4675 33.3138 42.2682C33.1145 42.069 32.8443 41.957 32.5625 41.957H29.0483L23.4702 27.082H34.483C35.043 28.0485 35.8461 28.8515 36.8125 29.4116V64.2695H27.25C27.0526 64.2696 26.8592 64.3245 26.6913 64.4281C26.5233 64.5318 26.3875 64.6801 26.2991 64.8566L24.1741 69.1066C24.093 69.2686 24.0547 69.4487 24.0628 69.6297C24.0709 69.8107 24.1252 69.9867 24.2205 70.1408C24.3158 70.2949 24.449 70.4221 24.6073 70.5103C24.7656 70.5984 24.9438 70.6447 25.125 70.6445H54.875C55.0562 70.6447 55.2344 70.5984 55.3927 70.5103C55.551 70.4221 55.6842 70.2949 55.7795 70.1408C55.8748 69.9867 55.9291 69.8107 55.9372 69.6297C55.9453 69.4487 55.907 69.2686 55.8259 69.1066L53.7009 64.8566C53.6125 64.6801 53.4767 64.5318 53.3087 64.4281C53.1408 64.3245 52.9474 64.2696 52.75 64.2695H43.1875V29.4116C44.1539 28.8515 44.957 28.0485 45.517 27.082H56.5166L50.9384 41.957H47.4242C47.1424 41.957 46.8722 42.069 46.6729 42.2682C46.4737 42.4675 46.3617 42.7377 46.3617 43.0195C46.3617 46.1192 47.5931 49.092 49.7849 51.2838C51.9767 53.4757 54.9495 54.707 58.0492 54.707C61.1489 54.707 64.1217 53.4757 66.3135 51.2838C68.5054 49.092 69.7367 46.1192 69.7367 43.0195C69.7367 42.7377 69.6248 42.4675 69.4255 42.2682C69.2263 42.069 68.956 41.957 68.6742 41.957H65.1613L59.5832 27.082H72.9375C73.2193 27.082 73.4895 26.9701 73.6888 26.7708C73.8881 26.5716 74 26.3013 74 26.0195V21.7695C74 21.4877 73.8881 21.2175 73.6888 21.0182C73.4895 20.819 73.2193 20.707 72.9375 20.707ZM31.4416 44.082C31.1799 46.4196 30.0659 48.5787 28.3126 50.1467C26.5593 51.7147 24.2897 52.5815 21.9375 52.5815C19.5853 52.5815 17.3157 51.7147 15.5624 50.1467C13.8091 48.5787 12.6951 46.4196 12.4334 44.082H31.4416ZM26.7798 41.957H17.0952L21.9375 29.045L26.7798 41.957ZM33.7153 24.957H8.125V22.832H33.7153C33.5949 23.5352 33.5949 24.2538 33.7153 24.957ZM38.9375 13.2695H41.0625V17.5195H38.9375V13.2695ZM52.0939 66.3945L53.1564 68.5195H26.8436L27.9061 66.3945H52.0939ZM38.9375 64.2695V30.2695H41.0625V64.2695H38.9375ZM40 28.1445C39.1594 28.1445 38.3377 27.8953 37.6388 27.4283C36.9399 26.9613 36.3952 26.2975 36.0735 25.5209C35.7518 24.7443 35.6677 23.8898 35.8317 23.0654C35.9956 22.241 36.4004 21.4837 36.9948 20.8893C37.5892 20.295 38.3464 19.8902 39.1709 19.7262C39.9953 19.5622 40.8498 19.6464 41.6264 19.968C42.403 20.2897 43.0667 20.8344 43.5337 21.5334C44.0007 22.2323 44.25 23.054 44.25 23.8945C44.2487 25.0213 43.8006 26.1016 43.0038 26.8983C42.2071 27.6951 41.1268 28.1433 40 28.1445ZM67.5533 44.082C67.2916 46.4196 66.1776 48.5787 64.4243 50.1467C62.671 51.7147 60.4014 52.5815 58.0492 52.5815C55.6971 52.5815 53.4274 51.7147 51.6741 50.1467C49.9208 48.5787 48.8068 46.4196 48.5452 44.082H67.5533ZM62.8916 41.957H53.2082L58.0492 29.045L62.8916 41.957ZM71.875 24.957H46.2847C46.4051 24.2538 46.4051 23.5352 46.2847 22.832H71.875V24.957Z" fill="#1857AA"/>
</g>
<defs>
<clipPath id="clip0_1164_1176">
<rect width="80" height="80" fill="white" transform="translate(0 0.894531)"/>
</clipPath>
</defs>
</svg>
