<svg width="65" height="66" viewBox="0 0 65 66" fill="none" xmlns="http://www.w3.org/2000/svg">
<g clip-path="url(#clip0_1311_4646)">
<rect y="0.5" width="65" height="65" rx="8" fill="white"/>
<path d="M32.96 53.3242V48.6367H12.6475V53.3242C12.6475 54.153 12.9767 54.9479 13.5628 55.5339C14.1488 56.12 14.9437 56.4492 15.7725 56.4492H37.6475L33.1934 54.5127C33.0387 54.1356 32.9594 53.7318 32.96 53.3242Z" fill="#3B83E3"/>
<path d="M50.1875 9.5625H49.4062C49.3154 9.5625 49.2256 9.56641 49.1367 9.57422C48.9279 9.59162 48.7214 9.63057 48.5205 9.69043C48.5059 9.69434 48.4912 9.69824 48.4766 9.70313C47.8403 9.90162 47.2842 10.2982 46.8892 10.8351C46.4943 11.372 46.2813 12.021 46.2812 12.6875V17.375H53.3125V12.6875C53.3125 11.8587 52.9833 11.0638 52.3972 10.4778C51.8112 9.89174 51.0163 9.5625 50.1875 9.5625Z" fill="#3B83E3"/>
<path d="M19.6788 31.0908C21.2499 31.5852 22.9372 31.5706 24.4995 31.0488C26.0619 30.5271 27.4194 29.5251 28.3783 28.1858C29.3372 26.8465 29.8483 25.2385 29.8388 23.5914C29.8292 21.9443 29.2994 20.3423 28.3251 19.0142C27.3508 17.6861 25.9817 16.6999 24.4134 16.1964C22.8451 15.6928 21.1578 15.6977 19.5924 16.2104C18.0271 16.723 16.6637 17.7171 15.6971 19.0508C14.7305 20.3845 14.21 21.9895 14.21 23.6367C14.2046 25.3007 14.7328 26.9225 15.7171 28.2641C16.7014 29.6058 18.0899 30.5965 19.6788 31.0908Z" fill="#3B83E3"/>
<path d="M32.96 16.6055H43.1162V21.293H32.96V16.6055Z" fill="#3B83E3"/>
<path d="M50.1875 8.78125H22.8438C21.8081 8.78228 20.8151 9.19417 20.0828 9.92651C19.3504 10.6588 18.9385 11.6518 18.9375 12.6875V15.6191C17.3261 16.2482 15.9421 17.3489 14.9664 18.7773C13.9907 20.2056 13.4687 21.8952 13.4687 23.625C13.4687 25.3548 13.9907 27.0444 14.9664 28.4727C15.9421 29.9011 17.3261 31.0018 18.9375 31.6309V47.8438H12.6875C12.4803 47.8438 12.2816 47.9261 12.1351 48.0726C11.9886 48.2191 11.9062 48.4178 11.9062 48.625V53.3125C11.9073 54.3482 12.3192 55.3412 13.0515 56.0735C13.7838 56.8058 14.7768 57.2177 15.8125 57.2188H42.375C43.6178 57.2174 44.8093 56.7231 45.6881 55.8444C46.5669 54.9656 47.0612 53.774 47.0625 52.5312V18.1562H53.3125C53.5197 18.1562 53.7184 18.0739 53.8649 17.9274C54.0114 17.7809 54.0938 17.5822 54.0938 17.375V12.6875C54.0927 11.6518 53.6808 10.6588 52.9485 9.92651C52.2162 9.19417 51.2232 8.78228 50.1875 8.78125ZM15.0312 23.625C15.0313 22.2344 15.4436 20.8749 16.2162 19.7186C16.9888 18.5624 18.087 17.6612 19.3718 17.129C20.6566 16.5968 22.0703 16.4576 23.4342 16.7289C24.7982 17.0002 26.051 17.6698 27.0343 18.6532C28.0177 19.6365 28.6873 20.8893 28.9586 22.2533C29.2299 23.6172 29.0907 25.0309 28.5585 26.3157C28.0263 27.6005 27.1251 28.6987 25.9689 29.4713C24.8126 30.2439 23.4531 30.6562 22.0625 30.6562C20.1984 30.6541 18.4112 29.9126 17.093 28.5945C15.7749 27.2763 15.0334 25.4891 15.0312 23.625ZM15.8125 55.6562C15.1912 55.6554 14.5955 55.4082 14.1561 54.9689C13.7168 54.5295 13.4696 53.9338 13.4688 53.3125V49.4062H32.2188V53.3125C32.218 54.1581 32.4929 54.981 33.002 55.6562H15.8125ZM45.5 12.6875V52.5312C45.4989 53.3597 45.1693 54.1539 44.5835 54.7398C43.9977 55.3256 43.2035 55.6552 42.375 55.6562H36.125C35.5037 55.6554 34.908 55.4082 34.4686 54.9689C34.0293 54.5295 33.7821 53.9338 33.7812 53.3125V48.625C33.7812 48.4178 33.6989 48.2191 33.5524 48.0726C33.4059 47.9261 33.2072 47.8438 33 47.8438H20.5V32.0762C21.7397 32.3048 23.0145 32.258 24.2341 31.9389C25.4536 31.6199 26.588 31.0364 27.5569 30.2299C28.5258 29.4234 29.3053 28.4137 29.8403 27.2722C30.3753 26.1308 30.6527 24.8856 30.6527 23.625C30.6527 22.3644 30.3753 21.1192 29.8403 19.9778C29.3053 18.8363 28.5258 17.8266 27.5569 17.0201C26.588 16.2136 25.4536 15.6301 24.2341 15.3111C23.0145 14.992 21.7397 14.9452 20.5 15.1738V12.6875C20.5008 12.0662 20.748 11.4705 21.1874 11.0311C21.6267 10.5918 22.2224 10.3446 22.8438 10.3438H46.2832C45.7742 11.019 45.4992 11.8419 45.5 12.6875ZM52.5312 16.5938H47.0625V12.6875C47.0633 12.0662 47.3105 11.4705 47.7499 11.0311C48.1892 10.5918 48.7849 10.3446 49.4062 10.3438H50.1875C50.8088 10.3446 51.4045 10.5918 51.8439 11.0311C52.2832 11.4705 52.5304 12.0662 52.5312 12.6875V16.5938Z" fill="#1855A5"/>
<path d="M43.1562 23.6198H33C32.7928 23.6198 32.5941 23.7021 32.4476 23.8486C32.3011 23.9951 32.2188 24.1939 32.2188 24.4011C32.2188 24.6083 32.3011 24.807 32.4476 24.9535C32.5941 25.1 32.7928 25.1823 33 25.1823H43.1562C43.3635 25.1823 43.5622 25.1 43.7087 24.9535C43.8552 24.807 43.9375 24.6083 43.9375 24.4011C43.9375 24.1939 43.8552 23.9951 43.7087 23.8486C43.5622 23.7021 43.3635 23.6198 43.1562 23.6198Z" fill="#1855A5"/>
<path d="M43.1562 25.9636H33C32.7928 25.9636 32.5941 26.0459 32.4476 26.1924C32.3011 26.3389 32.2188 26.5376 32.2188 26.7448C32.2188 26.952 32.3011 27.1507 32.4476 27.2972C32.5941 27.4438 32.7928 27.5261 33 27.5261H43.1562C43.3635 27.5261 43.5622 27.4438 43.7087 27.2972C43.8552 27.1507 43.9375 26.952 43.9375 26.7448C43.9375 26.5376 43.8552 26.3389 43.7087 26.1924C43.5622 26.0459 43.3635 25.9636 43.1562 25.9636Z" fill="#1855A5"/>
<path d="M38.4688 29.875C38.676 29.875 38.8747 29.7927 39.0212 29.6462C39.1677 29.4997 39.25 29.301 39.25 29.0938C39.25 28.8865 39.1677 28.6878 39.0212 28.5413C38.8747 28.3948 38.676 28.3125 38.4688 28.3125H33C32.7928 28.3125 32.5941 28.3948 32.4476 28.5413C32.3011 28.6878 32.2188 28.8865 32.2188 29.0938C32.2188 29.301 32.3011 29.4997 32.4476 29.6462C32.5941 29.7927 32.7928 29.875 33 29.875H38.4688Z" fill="#1855A5"/>
<path d="M43.1562 15.8125H33C32.7928 15.8125 32.5941 15.8948 32.4476 16.0413C32.3011 16.1878 32.2188 16.3865 32.2188 16.5938V21.2812C32.2188 21.4885 32.3011 21.6872 32.4476 21.8337C32.5941 21.9802 32.7928 22.0625 33 22.0625H43.1562C43.3635 22.0625 43.5622 21.9802 43.7087 21.8337C43.8552 21.6872 43.9375 21.4885 43.9375 21.2812V16.5938C43.9375 16.3865 43.8552 16.1878 43.7087 16.0413C43.5622 15.8948 43.3635 15.8125 43.1562 15.8125ZM42.375 20.5H33.7812V17.375H42.375V20.5Z" fill="#1855A5"/>
<path d="M24.4062 23.625V25.9688C24.4062 26.176 24.3239 26.3747 24.1774 26.5212C24.0309 26.6677 23.8322 26.75 23.625 26.75H22.8438C22.8438 26.9572 22.7614 27.1559 22.6149 27.3024C22.4684 27.4489 22.2697 27.5312 22.0625 27.5312C21.8553 27.5312 21.6566 27.4489 21.5101 27.3024C21.3636 27.1559 21.2812 26.9572 21.2812 26.75H20.5C20.2928 26.75 20.0941 26.6677 19.9476 26.5212C19.8011 26.3747 19.7188 26.176 19.7188 25.9688C19.7188 25.7615 19.8011 25.5628 19.9476 25.4163C20.0941 25.2698 20.2928 25.1875 20.5 25.1875H22.8438V24.4062H20.5C20.2928 24.4062 20.0941 24.3239 19.9476 24.1774C19.8011 24.0309 19.7188 23.8322 19.7188 23.625V21.2812C19.7188 21.074 19.8011 20.8753 19.9476 20.7288C20.0941 20.5823 20.2928 20.5 20.5 20.5H21.2812C21.2812 20.2928 21.3636 20.0941 21.5101 19.9476C21.6566 19.8011 21.8553 19.7188 22.0625 19.7188C22.2697 19.7188 22.4684 19.8011 22.6149 19.9476C22.7614 20.0941 22.8438 20.2928 22.8438 20.5H23.625C23.8322 20.5 24.0309 20.5823 24.1774 20.7288C24.3239 20.8753 24.4062 21.074 24.4062 21.2812C24.4062 21.4885 24.3239 21.6872 24.1774 21.8337C24.0309 21.9802 23.8322 22.0625 23.625 22.0625H21.2812V22.8438H23.625C23.8322 22.8438 24.0309 22.9261 24.1774 23.0726C24.3239 23.2191 24.4062 23.4178 24.4062 23.625Z" fill="#1855A5"/>
<path d="M23.625 33.7812H22.8438C22.6365 33.7812 22.4378 33.8636 22.2913 34.0101C22.1448 34.1566 22.0625 34.3553 22.0625 34.5625C22.0625 34.7697 22.1448 34.9684 22.2913 35.1149C22.4378 35.2614 22.6365 35.3438 22.8438 35.3438H23.625C23.8322 35.3438 24.0309 35.2614 24.1774 35.1149C24.3239 34.9684 24.4062 34.7697 24.4062 34.5625C24.4062 34.3553 24.3239 34.1566 24.1774 34.0101C24.0309 33.8636 23.8322 33.7812 23.625 33.7812Z" fill="#1855A5"/>
<path d="M43.1562 33.7812H25.9688C25.7615 33.7812 25.5628 33.8636 25.4163 34.0101C25.2698 34.1566 25.1875 34.3553 25.1875 34.5625C25.1875 34.7697 25.2698 34.9684 25.4163 35.1149C25.5628 35.2614 25.7615 35.3438 25.9688 35.3438H43.1562C43.3635 35.3438 43.5622 35.2614 43.7087 35.1149C43.8552 34.9684 43.9375 34.7697 43.9375 34.5625C43.9375 34.3553 43.8552 34.1566 43.7087 34.0101C43.5622 33.8636 43.3635 33.7812 43.1562 33.7812Z" fill="#1855A5"/>
<path d="M23.625 36.125H22.8438C22.6365 36.125 22.4378 36.2073 22.2913 36.3538C22.1448 36.5003 22.0625 36.699 22.0625 36.9062C22.0625 37.1135 22.1448 37.3122 22.2913 37.4587C22.4378 37.6052 22.6365 37.6875 22.8438 37.6875H23.625C23.8322 37.6875 24.0309 37.6052 24.1774 37.4587C24.3239 37.3122 24.4062 37.1135 24.4062 36.9062C24.4062 36.699 24.3239 36.5003 24.1774 36.3538C24.0309 36.2073 23.8322 36.125 23.625 36.125Z" fill="#1855A5"/>
<path d="M43.1562 36.125H25.9688C25.7615 36.125 25.5628 36.2073 25.4163 36.3538C25.2698 36.5003 25.1875 36.699 25.1875 36.9062C25.1875 37.1135 25.2698 37.3122 25.4163 37.4587C25.5628 37.6052 25.7615 37.6875 25.9688 37.6875H43.1562C43.3635 37.6875 43.5622 37.6052 43.7087 37.4587C43.8552 37.3122 43.9375 37.1135 43.9375 36.9062C43.9375 36.699 43.8552 36.5003 43.7087 36.3538C43.5622 36.2073 43.3635 36.125 43.1562 36.125Z" fill="#1855A5"/>
<path d="M23.625 38.4688H22.8438C22.6365 38.4688 22.4378 38.5511 22.2913 38.6976C22.1448 38.8441 22.0625 39.0428 22.0625 39.25C22.0625 39.4572 22.1448 39.6559 22.2913 39.8024C22.4378 39.9489 22.6365 40.0312 22.8438 40.0312H23.625C23.8322 40.0312 24.0309 39.9489 24.1774 39.8024C24.3239 39.6559 24.4062 39.4572 24.4062 39.25C24.4062 39.0428 24.3239 38.8441 24.1774 38.6976C24.0309 38.5511 23.8322 38.4688 23.625 38.4688Z" fill="#1855A5"/>
<path d="M43.1562 38.4688H25.9688C25.7615 38.4688 25.5628 38.5511 25.4163 38.6976C25.2698 38.8441 25.1875 39.0428 25.1875 39.25C25.1875 39.4572 25.2698 39.6559 25.4163 39.8024C25.5628 39.9489 25.7615 40.0312 25.9688 40.0312H43.1562C43.3635 40.0312 43.5622 39.9489 43.7087 39.8024C43.8552 39.6559 43.9375 39.4572 43.9375 39.25C43.9375 39.0428 43.8552 38.8441 43.7087 38.6976C43.5622 38.5511 43.3635 38.4688 43.1562 38.4688Z" fill="#1855A5"/>
<path d="M23.625 40.8125H22.8438C22.6365 40.8125 22.4378 40.8948 22.2913 41.0413C22.1448 41.1878 22.0625 41.3865 22.0625 41.5938C22.0625 41.801 22.1448 41.9997 22.2913 42.1462C22.4378 42.2927 22.6365 42.375 22.8438 42.375H23.625C23.8322 42.375 24.0309 42.2927 24.1774 42.1462C24.3239 41.9997 24.4062 41.801 24.4062 41.5938C24.4062 41.3865 24.3239 41.1878 24.1774 41.0413C24.0309 40.8948 23.8322 40.8125 23.625 40.8125Z" fill="#1855A5"/>
<path d="M43.1562 40.8125H25.9688C25.7615 40.8125 25.5628 40.8948 25.4163 41.0413C25.2698 41.1878 25.1875 41.3865 25.1875 41.5938C25.1875 41.801 25.2698 41.9997 25.4163 42.1462C25.5628 42.2927 25.7615 42.375 25.9688 42.375H43.1562C43.3635 42.375 43.5622 42.2927 43.7087 42.1462C43.8552 41.9997 43.9375 41.801 43.9375 41.5938C43.9375 41.3865 43.8552 41.1878 43.7087 41.0413C43.5622 40.8948 43.3635 40.8125 43.1562 40.8125Z" fill="#1855A5"/>
<path d="M23.625 43.1562H22.8438C22.6365 43.1562 22.4378 43.2386 22.2913 43.3851C22.1448 43.5316 22.0625 43.7303 22.0625 43.9375C22.0625 44.1447 22.1448 44.3434 22.2913 44.4899C22.4378 44.6364 22.6365 44.7188 22.8438 44.7188H23.625C23.8322 44.7188 24.0309 44.6364 24.1774 44.4899C24.3239 44.3434 24.4062 44.1447 24.4062 43.9375C24.4062 43.7303 24.3239 43.5316 24.1774 43.3851C24.0309 43.2386 23.8322 43.1562 23.625 43.1562Z" fill="#1855A5"/>
<path d="M43.1562 43.1562H25.9688C25.7615 43.1562 25.5628 43.2386 25.4163 43.3851C25.2698 43.5316 25.1875 43.7303 25.1875 43.9375C25.1875 44.1447 25.2698 44.3434 25.4163 44.4899C25.5628 44.6364 25.7615 44.7188 25.9688 44.7188H43.1562C43.3635 44.7188 43.5622 44.6364 43.7087 44.4899C43.8552 44.3434 43.9375 44.1447 43.9375 43.9375C43.9375 43.7303 43.8552 43.5316 43.7087 43.3851C43.5622 43.2386 43.3635 43.1562 43.1562 43.1562Z" fill="#1855A5"/>
</g>
<defs>
<clipPath id="clip0_1311_4646">
<rect width="65" height="65" fill="white" transform="translate(0 0.5)"/>
</clipPath>
</defs>
</svg>
