<svg width="66" height="65" viewBox="0 0 66 65" fill="none" xmlns="http://www.w3.org/2000/svg">
<g clip-path="url(#clip0_1092_5128)">
<rect x="0.5" width="65" height="65" rx="8" fill="white"/>
<path d="M25.6411 42.1777H20.0967L15.7056 47.8229H21.6088L25.6411 42.1777Z" fill="#4A8ADE"/>
<path d="M13.1973 51.0483L8.80615 56.6935H43.4837L41.0643 51.0483H13.1973Z" fill="#4A8ADE"/>
<path d="M28.8669 42.1776L25.7419 47.8228H50.2944L45.9032 42.1776H34.3014C37.5766 38.0335 45.9032 26.9347 45.9032 21.2099C45.9032 17.7877 44.5438 14.5057 42.1239 12.0859C39.7041 9.66608 36.4221 8.30664 32.9999 8.30664C29.5778 8.30664 26.2958 9.66608 23.876 12.0859C21.4561 14.5057 20.0967 17.7877 20.0967 21.2099C20.0967 26.9347 28.4233 38.0335 31.6985 42.1776H28.8669ZM24.9354 20.4034C24.9354 18.8084 25.4084 17.2492 26.2945 15.923C27.1807 14.5968 28.4402 13.5632 29.9138 12.9528C31.3874 12.3424 33.0089 12.1827 34.5733 12.4939C36.1376 12.805 37.5746 13.5731 38.7024 14.7009C39.8303 15.8288 40.5984 17.2657 40.9095 18.8301C41.2207 20.3945 41.061 22.016 40.4506 23.4896C39.8402 24.9632 38.8066 26.2227 37.4804 27.1088C36.1542 27.995 34.595 28.4679 32.9999 28.4679C30.8611 28.4679 28.8098 27.6183 27.2975 26.1059C25.7851 24.5935 24.9354 22.5423 24.9354 20.4034Z" fill="#4A8ADE"/>
<path d="M52.8023 51.0488H45.0967L48.3225 56.694H57.1935L52.8023 51.0488Z" fill="#4A8ADE"/>
<path d="M41.8709 20.4032C41.8709 18.6487 41.3506 16.9336 40.3759 15.4748C39.4011 14.0159 38.0157 12.8789 36.3947 12.2075C34.7737 11.5361 32.9901 11.3604 31.2693 11.7027C29.5485 12.045 27.9678 12.8898 26.7272 14.1305C25.4865 15.3711 24.6417 16.9518 24.2994 18.6726C23.9571 20.3934 24.1327 22.177 24.8042 23.798C25.4756 25.4189 26.6126 26.8044 28.0714 27.7791C29.5303 28.7539 31.2454 29.2742 32.9999 29.2742C35.3518 29.2715 37.6066 28.336 39.2697 26.673C40.9328 25.0099 41.8682 22.7551 41.8709 20.4032ZM25.7418 20.4032C25.7418 18.9677 26.1675 17.5644 26.965 16.3708C27.7626 15.1773 28.8961 14.247 30.2224 13.6976C31.5486 13.1483 33.008 13.0045 34.4159 13.2846C35.8238 13.5646 37.1171 14.2559 38.1321 15.271C39.1472 16.286 39.8385 17.5793 40.1185 18.9872C40.3986 20.3951 40.2549 21.8545 39.7055 23.1807C39.1562 24.507 38.2259 25.6405 37.0323 26.4381C35.8387 27.2356 34.4354 27.6613 32.9999 27.6613C31.0756 27.6591 29.2307 26.8937 27.87 25.533C26.5094 24.1724 25.744 22.3275 25.7418 20.4032Z" fill="#1857AA"/>
<path d="M57.8297 56.1986L50.9184 47.3125C50.9174 47.3115 50.9174 47.3105 50.9164 47.3095L46.5394 41.6825C46.4641 41.5854 46.3677 41.5069 46.2574 41.4529C46.1472 41.3989 46.026 41.3709 45.9033 41.371H35.9577C39.7309 36.4738 46.7097 26.6774 46.7097 21.2097C46.7097 13.6502 40.5595 7.5 33 7.5C25.4405 7.5 19.2903 13.6502 19.2903 21.2097C19.2903 26.6774 26.2691 36.4738 30.0423 41.371H20.0967C19.974 41.3709 19.8528 41.3989 19.7426 41.4529C19.6323 41.5069 19.5359 41.5854 19.4606 41.6825L15.0836 47.3095C15.0826 47.3105 15.0826 47.3115 15.0816 47.3125L8.17029 56.1986C8.07747 56.3177 8.01997 56.4604 8.00433 56.6106C7.9887 56.7608 8.01556 56.9123 8.08186 57.048C8.14816 57.1836 8.25123 57.2979 8.37933 57.3778C8.50742 57.4577 8.65539 57.5001 8.80638 57.5H57.1936C57.3446 57.5001 57.4926 57.4577 57.6207 57.3778C57.7488 57.2979 57.8518 57.1836 57.9181 57.048C57.9844 56.9123 58.0113 56.7608 57.9957 56.6106C57.98 56.4604 57.9225 56.3177 57.8297 56.1986ZM27.2087 34.7087C23.0836 28.627 20.9032 23.9597 20.9032 21.2097C20.9032 18.0014 22.1777 14.9246 24.4463 12.656C26.7149 10.3874 29.7917 9.1129 33 9.1129C36.2083 9.1129 39.2851 10.3874 41.5537 12.656C43.8223 14.9246 45.0968 18.0014 45.0968 21.2097C45.0968 23.9597 42.9164 28.627 38.7914 34.7087C36.4526 38.1573 34.0887 41.1633 33 42.5141C31.9113 41.1633 29.5474 38.1573 27.2087 34.7087ZM29.3427 42.9839H31.3054C31.9032 43.7329 32.2954 44.2046 32.381 44.3075C32.4567 44.3981 32.5514 44.471 32.6583 44.521C32.7653 44.571 32.8819 44.5969 33 44.5969C33.1181 44.5969 33.2347 44.571 33.3417 44.521C33.4486 44.471 33.5433 44.3981 33.619 44.3075C33.7046 44.2046 34.0968 43.7329 34.6946 42.9839H45.5091L48.6452 47.0161H27.1099L29.3427 42.9839ZM20.4909 42.9839H24.0736L21.1935 47.0161H17.3548L20.4909 42.9839ZM10.4556 55.8871L13.5917 51.8548H40.5333L42.2611 55.8871H10.4556ZM44.0152 55.8871L41.8055 50.7308C41.7433 50.5858 41.64 50.4622 41.5083 50.3753C41.3766 50.2884 41.2223 50.242 41.0645 50.2419H14.8457L16.1008 48.629H21.6088C21.7372 48.629 21.8637 48.5983 21.9778 48.5396C22.0919 48.4808 22.1904 48.3957 22.2651 48.2913L26.0564 42.9839H27.499L25.0363 47.4325C24.9684 47.5552 24.9337 47.6936 24.9357 47.8338C24.9377 47.9741 24.9762 48.1114 25.0474 48.2322C25.1187 48.3531 25.2202 48.4532 25.342 48.5228C25.4638 48.5924 25.6016 48.629 25.7419 48.629H49.8993L51.1543 50.2419H45.0968C44.9555 50.2419 44.8167 50.2789 44.6942 50.3494C44.5717 50.4198 44.4699 50.5213 44.3989 50.6435C44.328 50.7657 44.2904 50.9044 44.2899 51.0457C44.2894 51.187 44.3261 51.3259 44.3962 51.4486L46.9325 55.8871H44.0152ZM48.7904 55.8871L46.4869 51.8548H52.4083L55.5444 55.8871H48.7904Z" fill="#1857AA"/>
</g>
<defs>
<clipPath id="clip0_1092_5128">
<rect width="65" height="65" fill="white" transform="translate(0.5)"/>
</clipPath>
</defs>
</svg>
