<svg width="80" height="80" viewBox="0 0 80 80" fill="none" xmlns="http://www.w3.org/2000/svg">
<g clip-path="url(#clip0_2405_2314)">
<rect width="80" height="80" rx="8" fill="white"/>
<g clip-path="url(#clip1_2405_2314)">
<path d="M28.8648 30.3191L24.3191 28.7359V27.9004C23.7295 28.4272 22.9665 28.7184 22.1758 28.7184C21.3851 28.7184 20.6221 28.4272 20.0324 27.9004V28.7359L15.6039 30.3191C15.1201 30.5248 14.7075 30.8682 14.4175 31.3066C14.1274 31.745 13.9727 32.2591 13.9727 32.7848V40.0316H30.4961V32.7848C30.496 32.2591 30.3413 31.745 30.0513 31.3066C29.7612 30.8682 29.3486 30.5248 28.8648 30.3191Z" fill="#3B83E3"/>
<path d="M18.9612 22.252C19.2401 22.2777 19.5425 22.2906 19.8718 22.2906H25.3901V20.9102C25.3901 17.1016 23.6815 15.393 19.8718 15.393H15.7339V16.7723C15.7339 20.2527 16.0093 21.9801 18.9612 22.252Z" fill="#3B83E3"/>
<path d="M64.388 58.191L64.2474 58.1406V50.1356C64.2474 48.4215 63.5665 46.7776 62.3544 45.5656C61.1424 44.3536 59.4985 43.6727 57.7845 43.6727C56.0704 43.6727 54.4265 44.3536 53.2145 45.5656C52.0025 46.7776 51.3216 48.4215 51.3216 50.1356V58.1406L51.181 58.191C50.6948 58.3976 50.2801 58.7426 49.9886 59.1831C49.6971 59.6236 49.5416 60.1401 49.5415 60.6684V68.1227H66.0274V60.6684C66.0273 60.1401 65.8718 59.6236 65.5803 59.1831C65.2888 58.7426 64.8742 58.3976 64.388 58.191ZM54.5536 51.0906C54.5536 51.0906 58.8614 51.325 61.0153 49.1711V53.3453C61.0155 53.9691 60.8351 54.5796 60.4958 55.103C60.1566 55.6265 59.673 56.0405 59.1035 56.295C58.534 56.5496 57.903 56.6338 57.2868 56.5375C56.6705 56.4412 56.0952 56.1685 55.6306 55.7524C55.586 55.7137 55.5415 55.6715 55.4993 55.6293C55.1992 55.3295 54.9612 54.9735 54.7989 54.5816C54.6366 54.1896 54.5532 53.7695 54.5536 53.3453V51.0906Z" fill="#3B83E3"/>
<path d="M65.3125 58.0094V50.3125C65.3125 48.3234 64.5223 46.4157 63.1158 45.0092C61.7093 43.6027 59.8016 42.8125 57.8125 42.8125C55.8234 42.8125 53.9157 43.6027 52.5092 45.0092C51.1027 46.4157 50.3125 48.3234 50.3125 50.3125V58.0094C49.7388 58.3629 49.2652 58.8576 48.937 59.4462C48.6088 60.0347 48.4368 60.6976 48.4375 61.3715V68.0664C48.4375 68.315 48.5363 68.5535 48.7121 68.7293C48.8879 68.9051 49.1264 69.0039 49.375 69.0039H66.25C66.4986 69.0039 66.7371 68.9051 66.9129 68.7293C67.0887 68.5535 67.1875 68.315 67.1875 68.0664V61.3715C67.1882 60.6976 67.0162 60.0347 66.688 59.4462C66.3598 58.8576 65.8862 58.3629 65.3125 58.0094ZM52.1875 50.3125C52.1875 48.8207 52.7801 47.3899 53.835 46.335C54.8899 45.2801 56.3207 44.6875 57.8125 44.6875C59.3043 44.6875 60.7351 45.2801 61.79 46.335C62.8449 47.3899 63.4375 48.8207 63.4375 50.3125V57.1633L61.3176 56.2633C62.0802 55.4593 62.5036 54.3925 62.5 53.2844V48.4375C62.5 48.2634 62.4515 48.0927 62.36 47.9446C62.2685 47.7965 62.1375 47.6768 61.9818 47.599C61.826 47.5211 61.6517 47.4882 61.4783 47.5038C61.3049 47.5194 61.1393 47.583 61 47.6875C57.6719 50.1836 54.4094 49.4887 54.277 49.4582C54.1393 49.4259 53.9962 49.4251 53.8582 49.4559C53.7202 49.4867 53.591 49.5483 53.4802 49.6361C53.3694 49.7239 53.2799 49.8356 53.2184 49.9629C53.1569 50.0902 53.125 50.2297 53.125 50.3711V53.2844C53.1214 54.3925 53.5448 55.4593 54.3074 56.2633L52.1875 57.1633V50.3125ZM60.625 50.1449V53.2844C60.625 54.7199 59.3969 55.8449 57.8301 55.8449H57.7949C56.2281 55.8449 55 54.7199 55 53.2844V51.4258C56.9566 51.518 58.9013 51.0752 60.625 50.1449ZM65.3125 67.1289H63.4375V62.4414C63.4375 62.1928 63.3387 61.9543 63.1629 61.7785C62.9871 61.6027 62.7486 61.5039 62.5 61.5039C62.2514 61.5039 62.0129 61.6027 61.8371 61.7785C61.6613 61.9543 61.5625 62.1928 61.5625 62.4414V67.1289H54.0625V62.4414C54.0625 62.1928 53.9637 61.9543 53.7879 61.7785C53.6121 61.6027 53.3736 61.5039 53.125 61.5039C52.8764 61.5039 52.6379 61.6027 52.4621 61.7785C52.2863 61.9543 52.1875 62.1928 52.1875 62.4414V67.1289H50.3125V61.3715C50.3119 60.964 50.4316 60.5654 50.6565 60.2256C50.8814 59.8858 51.2016 59.62 51.577 59.4613L56.2434 57.4773C56.7446 57.6391 57.2682 57.721 57.7949 57.7199H57.8301C58.3568 57.721 58.8804 57.6391 59.3816 57.4773L64.048 59.4613C64.4234 59.62 64.7436 59.8858 64.9685 60.2256C65.1934 60.5654 65.3131 60.964 65.3125 61.3715V67.1289Z" fill="#1855A5"/>
<path d="M68.125 10.9375H32.5C32.2514 10.9375 32.0129 11.0363 31.8371 11.2121C31.6613 11.3879 31.5625 11.6264 31.5625 11.875V29.6875C31.5625 29.9361 31.6613 30.1746 31.8371 30.3504C32.0129 30.5262 32.2514 30.625 32.5 30.625H34.375V35.3125C34.375 35.4979 34.43 35.6792 34.533 35.8334C34.636 35.9875 34.7824 36.1077 34.9537 36.1787C35.125 36.2496 35.3135 36.2682 35.4954 36.232C35.6773 36.1958 35.8443 36.1065 35.9754 35.9754L41.3257 30.625H68.125C68.3736 30.625 68.6121 30.5262 68.7879 30.3504C68.9637 30.1746 69.0625 29.9361 69.0625 29.6875V11.875C69.0625 11.6264 68.9637 11.3879 68.7879 11.2121C68.6121 11.0363 68.3736 10.9375 68.125 10.9375ZM67.1875 28.75H40.9375C40.8144 28.75 40.6925 28.7742 40.5787 28.8214C40.465 28.8685 40.3616 28.9375 40.2746 29.0246L36.25 33.0493V29.6875C36.25 29.4389 36.1512 29.2004 35.9754 29.0246C35.7996 28.8488 35.5611 28.75 35.3125 28.75H33.4375V12.8125H67.1875V28.75Z" fill="#1855A5"/>
<path d="M47.4683 39.0941H31.5624V33.3051C31.5632 32.5296 31.3354 31.7711 30.9075 31.1243C30.4796 30.4776 29.8706 29.9713 29.1565 29.6687L25.6925 28.1969C26.4551 27.3929 26.8785 26.3261 26.8749 25.218V20.6406C26.8749 15.6836 24.2569 14.6875 20.0323 14.6875H15.6026C15.354 14.6875 15.1155 14.7863 14.9397 14.9621C14.7639 15.1379 14.6651 15.3764 14.6651 15.625V17.1133C14.6651 19.1805 14.7296 20.7238 15.5593 21.7504C16.0327 22.3375 16.6796 22.6715 17.4999 22.8566V25.218C17.4963 26.3261 17.9197 27.3929 18.6823 28.1969L15.2183 29.6687C14.5042 29.9713 13.8952 30.4776 13.4673 31.1243C13.0394 31.7711 12.8116 32.5296 12.8124 33.3051V39.0941H11.8433C11.5946 39.0941 11.3562 39.1929 11.1803 39.3687C11.0045 39.5445 10.9058 39.783 10.9058 40.0316V57.8441C10.9058 58.0928 11.0045 58.3312 11.1803 58.5071C11.3562 58.6829 11.5946 58.7816 11.8433 58.7816H38.6429L43.9925 64.1324C44.1236 64.2637 44.2907 64.3531 44.4727 64.3893C44.6546 64.4256 44.8432 64.407 45.0146 64.336C45.186 64.265 45.3325 64.1447 45.4355 63.9904C45.5385 63.8361 45.5934 63.6547 45.5933 63.4691V58.7816H47.4683C47.7169 58.7816 47.9554 58.6829 48.1312 58.5071C48.307 58.3312 48.4058 58.0928 48.4058 57.8441V40.0316C48.4058 39.783 48.307 39.5445 48.1312 39.3687C47.9554 39.1929 47.7169 39.0941 47.4683 39.0941ZM17.0183 20.5727C16.6187 20.0781 16.5401 18.9297 16.5401 17.1133V16.5625H20.0323C23.978 16.5625 24.9999 17.4004 24.9999 20.6406V21.1914H20.0323C18.2452 21.1914 17.3722 21.0121 17.0183 20.5727ZM24.9999 23.0664V25.218C24.9999 26.6535 23.7718 27.7785 22.205 27.7785H22.1698C20.603 27.7785 19.3749 26.6535 19.3749 25.218V23.057C19.587 23.0629 24.9999 23.0664 24.9999 23.0664ZM14.6874 33.3051C14.6868 32.8976 14.8065 32.499 15.0314 32.1592C15.2563 31.8194 15.5765 31.5536 15.9519 31.3949L20.6183 29.4109C21.1195 29.5727 21.6431 29.6546 22.1698 29.6535H22.205C22.7317 29.6546 23.2553 29.5727 23.7565 29.4109L28.423 31.3949C28.7983 31.5536 29.1185 31.8194 29.3434 32.1592C29.5683 32.499 29.688 32.8976 29.6874 33.3051V39.0625H27.8124V34.375C27.8124 34.1264 27.7136 33.8879 27.5378 33.7121C27.362 33.5363 27.1235 33.4375 26.8749 33.4375C26.6263 33.4375 26.3878 33.5363 26.212 33.7121C26.0362 33.8879 25.9374 34.1264 25.9374 34.375V39.0625H18.4374V34.375C18.4374 34.1264 18.3386 33.8879 18.1628 33.7121C17.987 33.5363 17.7485 33.4375 17.4999 33.4375C17.2513 33.4375 17.0128 33.5363 16.837 33.7121C16.6612 33.8879 16.5624 34.1264 16.5624 34.375V39.0625H14.6874V33.3051ZM46.5308 56.9066H44.6558C44.4071 56.9066 44.1687 57.0054 43.9928 57.1812C43.817 57.357 43.7183 57.5955 43.7183 57.8441V61.2062L39.694 57.1809C39.5179 57.0054 39.2794 56.9068 39.0308 56.9066H12.7808V40.9691H46.5308V56.9066Z" fill="#1855A5"/>
<path d="M37.1875 17.5H63.4375C63.6861 17.5 63.9246 17.4012 64.1004 17.2254C64.2762 17.0496 64.375 16.8111 64.375 16.5625C64.375 16.3139 64.2762 16.0754 64.1004 15.8996C63.9246 15.7238 63.6861 15.625 63.4375 15.625H37.1875C36.9389 15.625 36.7004 15.7238 36.5246 15.8996C36.3488 16.0754 36.25 16.3139 36.25 16.5625C36.25 16.8111 36.3488 17.0496 36.5246 17.2254C36.7004 17.4012 36.9389 17.5 37.1875 17.5Z" fill="#1855A5"/>
<path d="M37.1875 20.3125H63.4375C63.6861 20.3125 63.9246 20.2137 64.1004 20.0379C64.2762 19.8621 64.375 19.6236 64.375 19.375C64.375 19.1264 64.2762 18.8879 64.1004 18.7121C63.9246 18.5363 63.6861 18.4375 63.4375 18.4375H37.1875C36.9389 18.4375 36.7004 18.5363 36.5246 18.7121C36.3488 18.8879 36.25 19.1264 36.25 19.375C36.25 19.6236 36.3488 19.8621 36.5246 20.0379C36.7004 20.2137 36.9389 20.3125 37.1875 20.3125Z" fill="#1855A5"/>
<path d="M37.1875 23.125H63.4375C63.6861 23.125 63.9246 23.0262 64.1004 22.8504C64.2762 22.6746 64.375 22.4361 64.375 22.1875C64.375 21.9389 64.2762 21.7004 64.1004 21.5246C63.9246 21.3488 63.6861 21.25 63.4375 21.25H37.1875C36.9389 21.25 36.7004 21.3488 36.5246 21.5246C36.3488 21.7004 36.25 21.9389 36.25 22.1875C36.25 22.4361 36.3488 22.6746 36.5246 22.8504C36.7004 23.0262 36.9389 23.125 37.1875 23.125Z" fill="#1855A5"/>
<path d="M37.1875 25.9375H52.1875C52.4361 25.9375 52.6746 25.8387 52.8504 25.6629C53.0262 25.4871 53.125 25.2486 53.125 25C53.125 24.7514 53.0262 24.5129 52.8504 24.3371C52.6746 24.1613 52.4361 24.0625 52.1875 24.0625H37.1875C36.9389 24.0625 36.7004 24.1613 36.5246 24.3371C36.3488 24.5129 36.25 24.7514 36.25 25C36.25 25.2486 36.3488 25.4871 36.5246 25.6629C36.7004 25.8387 36.9389 25.9375 37.1875 25.9375Z" fill="#1855A5"/>
<path d="M16.5625 45.625H42.8125C43.0611 45.625 43.2996 45.5262 43.4754 45.3504C43.6512 45.1746 43.75 44.9361 43.75 44.6875C43.75 44.4389 43.6512 44.2004 43.4754 44.0246C43.2996 43.8488 43.0611 43.75 42.8125 43.75H16.5625C16.3139 43.75 16.0754 43.8488 15.8996 44.0246C15.7238 44.2004 15.625 44.4389 15.625 44.6875C15.625 44.9361 15.7238 45.1746 15.8996 45.3504C16.0754 45.5262 16.3139 45.625 16.5625 45.625Z" fill="#1855A5"/>
<path d="M16.5625 48.4375H42.8125C43.0611 48.4375 43.2996 48.3387 43.4754 48.1629C43.6512 47.9871 43.75 47.7486 43.75 47.5C43.75 47.2514 43.6512 47.0129 43.4754 46.8371C43.2996 46.6613 43.0611 46.5625 42.8125 46.5625H16.5625C16.3139 46.5625 16.0754 46.6613 15.8996 46.8371C15.7238 47.0129 15.625 47.2514 15.625 47.5C15.625 47.7486 15.7238 47.9871 15.8996 48.1629C16.0754 48.3387 16.3139 48.4375 16.5625 48.4375Z" fill="#1855A5"/>
<path d="M16.5625 51.25H42.8125C43.0611 51.25 43.2996 51.1512 43.4754 50.9754C43.6512 50.7996 43.75 50.5611 43.75 50.3125C43.75 50.0639 43.6512 49.8254 43.4754 49.6496C43.2996 49.4738 43.0611 49.375 42.8125 49.375H16.5625C16.3139 49.375 16.0754 49.4738 15.8996 49.6496C15.7238 49.8254 15.625 50.0639 15.625 50.3125C15.625 50.5611 15.7238 50.7996 15.8996 50.9754C16.0754 51.1512 16.3139 51.25 16.5625 51.25Z" fill="#1855A5"/>
<path d="M16.5625 54.0625H31.5625C31.8111 54.0625 32.0496 53.9637 32.2254 53.7879C32.4012 53.6121 32.5 53.3736 32.5 53.125C32.5 52.8764 32.4012 52.6379 32.2254 52.4621C32.0496 52.2863 31.8111 52.1875 31.5625 52.1875H16.5625C16.3139 52.1875 16.0754 52.2863 15.8996 52.4621C15.7238 52.6379 15.625 52.8764 15.625 53.125C15.625 53.3736 15.7238 53.6121 15.8996 53.7879C16.0754 53.9637 16.3139 54.0625 16.5625 54.0625Z" fill="#1855A5"/>
</g>
</g>
<defs>
<clipPath id="clip0_2405_2314">
<rect width="80" height="80" fill="white"/>
</clipPath>
<clipPath id="clip1_2405_2314">
<rect width="60" height="60" fill="white" transform="translate(10 10)"/>
</clipPath>
</defs>
</svg>
