<svg width="280" height="29" viewBox="0 0 280 29" fill="none" xmlns="http://www.w3.org/2000/svg">
<g clip-path="url(#clip0_1068_12022)">
<path d="M78.9575 23.4718C78.9575 23.2476 78.9197 20.8355 78.9197 20.735C78.9197 20.5958 78.8591 20.4412 78.5563 20.4412H78.1324C78.0567 20.4412 78.0339 20.418 78.0339 20.3561V20.0314C78.0339 19.985 78.0567 19.9541 78.1324 19.9541C78.2762 19.9541 78.6396 19.9928 79.548 19.9928C80.358 19.9928 80.7592 19.9541 80.9182 19.9541C80.9939 19.9541 81.0166 19.9773 81.0166 20.0314V20.3561C81.0166 20.418 80.9939 20.4412 80.9333 20.4412H80.4261C80.1839 20.4412 80.0855 20.5262 80.0855 20.8277C80.0855 21.0133 80.0476 22.9461 80.0476 23.5491V24.1676H80.2672C80.464 24.1676 80.5927 24.1213 80.7668 23.9976C81.0318 23.7965 83.2725 20.8819 83.3861 20.7195C83.4921 20.5494 83.4315 20.4257 83.2801 20.4257H83.1136C83.0681 20.4257 83.053 20.4025 83.053 20.3407V20.0546C83.053 19.9928 83.0757 19.9696 83.1287 19.9696C83.2725 19.9696 83.7722 20.0082 84.3248 20.0082C84.673 20.0082 85.097 19.9696 85.2484 19.9696C85.3089 19.9696 85.3316 19.9928 85.3316 20.0314V20.3639C85.3316 20.4257 85.2938 20.4489 85.2332 20.4489H84.9758C84.8093 20.4489 84.5292 20.5262 84.3097 20.6808C83.863 21.0133 82.0083 23.209 81.486 23.8971L84.7336 28.0024C84.938 28.2652 85.2938 28.3116 85.5815 28.3116H86.0054C86.066 28.3116 86.0887 28.3503 86.0887 28.3967V28.7059C86.0887 28.7678 86.066 28.7909 85.9902 28.7909C85.8691 28.7909 85.4073 28.7523 84.4989 28.7523C83.4921 28.7523 83.0227 28.7909 82.8486 28.7909C82.8032 28.7909 82.7729 28.7678 82.7729 28.7136V28.3889C82.7729 28.3425 82.7956 28.3116 82.8486 28.3116H83.0303C83.2574 28.3116 83.2877 28.1029 83.2271 27.9792C83.1211 27.7318 80.9712 24.8325 80.8122 24.7088C80.6154 24.5465 80.464 24.5233 80.2823 24.5233H80.0552V25.4124C80.0552 26.0309 80.0779 27.8477 80.093 28.0255C80.1082 28.1879 80.2142 28.2961 80.3731 28.2961H80.9031C80.9636 28.2961 81.0015 28.3193 81.0015 28.3735V28.6982C81.0015 28.7446 80.9863 28.7832 80.9258 28.7832C80.7819 28.7832 80.4186 28.7446 79.5556 28.7446C78.6017 28.7446 78.2081 28.7832 78.1021 28.7832C78.0415 28.7832 78.0188 28.76 78.0188 28.6982V28.3735C78.0188 28.3116 78.0567 28.2961 78.1021 28.2961H78.6017C78.8212 28.2961 78.9045 28.1956 78.9272 28.0719C78.9424 27.9637 78.9651 25.7216 78.9651 24.1754V23.4564L78.9575 23.4718Z" fill="currentColor"/>
<path d="M92.3493 25.3118C92.2282 25.6211 91.562 27.4997 91.5014 27.7626C91.4863 27.8477 91.4636 27.9714 91.4636 28.0332C91.4636 28.2033 91.6074 28.3038 91.8724 28.3038H92.4401C92.5234 28.3038 92.5613 28.327 92.5613 28.3888V28.6749C92.5613 28.7599 92.5234 28.7831 92.4628 28.7831C92.2963 28.7831 91.7967 28.7445 91.0851 28.7445C90.1993 28.7445 89.9344 28.7831 89.7678 28.7831C89.7073 28.7831 89.6846 28.7599 89.6846 28.6826V28.3888C89.6846 28.327 89.73 28.3038 89.783 28.3038H90.2069C90.5703 28.3038 90.7368 28.1337 90.9109 27.7317C90.9942 27.5307 91.8799 25.2422 92.2282 24.2294C92.3114 23.982 93.2956 21.3225 93.4015 20.99C93.4394 20.8663 93.5 20.704 93.4167 20.5725C93.3788 20.5261 93.3334 20.4643 93.3334 20.4102C93.3334 20.3715 93.3561 20.3251 93.4394 20.3019C93.7801 20.2246 94.31 19.8535 94.4462 19.6834C94.5068 19.6216 94.5447 19.5752 94.6052 19.5752C94.6809 19.5752 94.7036 19.6525 94.7415 19.7839C94.9686 20.5648 95.9149 23.3326 96.1495 24.1289C96.4296 25.0953 97.2169 27.3992 97.3835 27.7549C97.5879 28.1646 97.9058 28.3115 98.2086 28.3115H98.6099C98.6856 28.3115 98.7083 28.3502 98.7083 28.3966V28.7058C98.7083 28.7677 98.6704 28.7909 98.5872 28.7909C98.3676 28.7909 98.1178 28.7522 97.1337 28.7522C96.1495 28.7522 95.7029 28.7909 95.4228 28.7909C95.3622 28.7909 95.3244 28.7522 95.3244 28.6826V28.3966C95.3244 28.3193 95.3622 28.3115 95.4304 28.3115H95.7332C96.0738 28.3115 96.1798 28.1878 96.0966 27.8399C95.9981 27.3915 95.5061 25.8143 95.332 25.3118H92.3493ZM95.1881 24.8634C95.0821 24.4923 94.098 21.3998 94.0375 21.2142C93.9996 21.1292 93.9769 21.0441 93.939 21.0441C93.8936 21.0441 93.8406 21.1292 93.8028 21.2297C93.7422 21.392 92.5915 24.5619 92.5083 24.8711H95.1881V24.8634Z" fill="currentColor"/>
<path d="M104.197 21.6008C104.197 20.874 103.833 20.4643 103.394 20.4488L102.895 20.4334C102.834 20.4334 102.819 20.387 102.819 20.3483V20.0236C102.819 19.9772 102.834 19.9463 102.895 19.9463C102.955 19.9463 103.054 19.9618 103.235 19.9618C103.417 19.9772 103.682 19.9849 104.098 19.9849C104.515 19.9849 104.764 19.9618 104.908 19.9618C105.067 19.9618 105.166 20.0081 105.256 20.1241L107.8 23.4872C107.936 23.6573 109.98 26.2241 110.276 26.6184H110.321V25.1494C110.321 24.0516 110.306 23.4408 110.283 22.8223C110.268 22.343 110.207 21.1292 110.139 20.9127C110.041 20.6034 109.814 20.4334 109.473 20.4334H109.087C109.042 20.4334 109.011 20.4102 109.011 20.3483V20.0236C109.011 19.9772 109.034 19.9463 109.087 19.9463C109.254 19.9463 109.647 19.9849 110.419 19.9849C111.146 19.9849 111.434 19.9463 111.593 19.9463C111.676 19.9463 111.691 19.9849 111.691 20.0313V20.3406C111.691 20.387 111.668 20.4256 111.615 20.4256H111.29C110.964 20.4256 110.843 20.6344 110.821 21.106C110.775 21.9332 110.775 23.1625 110.775 23.9666V28.5976C110.775 28.7677 110.76 28.8914 110.715 28.8914C110.571 28.8914 110.457 28.7445 110.427 28.6904L108.951 26.7885C108.103 25.7138 107.217 24.5696 107.141 24.5C107.005 24.3763 104.78 21.5157 104.704 21.4152H104.628V24.1598C104.628 25.3118 104.727 27.3297 104.749 27.5771C104.795 28.0564 104.87 28.2961 105.196 28.2961H105.559C105.643 28.2961 105.658 28.3347 105.658 28.4043V28.6749C105.658 28.7522 105.643 28.7754 105.559 28.7754C105.438 28.7754 104.711 28.7367 104.386 28.7367C104.128 28.7367 103.296 28.7754 103.175 28.7754C103.129 28.7754 103.114 28.7522 103.114 28.6904V28.3656C103.114 28.3656 103.129 28.2883 103.19 28.2883H103.599C103.947 28.2883 104.083 28.1414 104.144 27.5307C104.166 27.2987 104.189 25.8839 104.189 23.6805V21.5776L104.197 21.6008Z" fill="currentColor"/>
<path d="M117.937 27.8018C117.066 26.959 116.642 25.521 116.642 24.3381C116.642 23.1553 117.005 21.9956 117.876 21.0601C118.497 20.3952 119.587 19.8076 120.904 19.8076C122.009 19.8076 122.918 20.2251 123.349 20.488C123.508 20.5885 123.569 20.573 123.592 20.488L123.69 20.1323C123.713 20.055 123.735 20.055 123.849 20.055C123.963 20.055 123.985 20.0782 123.985 20.256C123.985 20.488 124.227 22.3125 124.288 22.6605C124.303 22.7223 124.288 22.7687 124.243 22.7842L124.061 22.8305C124 22.846 123.978 22.8305 123.94 22.73C123.773 22.3203 123.501 21.725 122.994 21.1992C122.486 20.6658 121.843 20.2483 120.881 20.2483C118.709 20.2483 117.838 22.2198 117.853 24.0212C117.853 24.7402 118.073 26.1395 119.019 27.1987C119.844 28.1419 120.533 28.2347 121.343 28.2347C122.713 28.2347 123.781 27.4693 124.333 26.6653C124.371 26.6034 124.394 26.5879 124.432 26.6266L124.591 26.7503C124.591 26.7503 124.651 26.7967 124.614 26.8585C123.887 27.9332 122.713 28.9382 121.003 28.9382C119.572 28.9382 118.663 28.4821 117.937 27.8018Z" fill="currentColor"/>
<path d="M131.836 24.0132C131.934 24.0132 133.228 23.9668 133.372 23.9359C133.721 23.874 133.819 23.7735 133.932 23.3947C133.97 23.271 134.016 23.0236 134.031 22.7916C134.031 22.7298 134.069 22.7066 134.114 22.7066L134.417 22.7221C134.478 22.7221 134.5 22.7684 134.493 22.8226C134.455 23.0313 134.455 24.0441 134.455 24.2297C134.455 24.6626 134.5 25.2579 134.531 25.513C134.531 25.5749 134.508 25.5981 134.455 25.6136L134.19 25.6522C134.129 25.6677 134.107 25.629 134.091 25.544C134.069 25.3816 133.993 25.0956 133.955 24.9641C133.879 24.7013 133.751 24.5157 133.433 24.4848C132.865 24.4229 132.025 24.4229 131.836 24.4229V25.1883C131.836 25.8532 131.858 27.0593 131.858 27.3067C131.873 27.9484 132.176 28.1958 132.547 28.2731C132.789 28.3195 133.138 28.3582 133.44 28.3582C133.645 28.3582 134.25 28.3427 134.508 28.3195C134.712 28.2963 135.25 28.1571 135.56 27.8865C135.704 27.7628 136.385 26.8738 136.552 26.5877C136.59 26.5258 136.627 26.4795 136.696 26.5104L136.892 26.6186C136.953 26.6573 136.953 26.6959 136.915 26.7887L136.272 28.6056C136.234 28.7138 136.151 28.7911 136.007 28.7911C135.946 28.7911 135.681 28.7756 134.954 28.7679C134.228 28.7679 133.054 28.7525 131.162 28.7525C130.715 28.7525 130.374 28.7679 130.132 28.7679C129.875 28.7834 129.723 28.7911 129.61 28.7911C129.534 28.7911 129.504 28.7679 129.504 28.7061V28.3736C129.504 28.3272 129.542 28.3118 129.625 28.3118H130.11C130.67 28.3118 130.715 28.2267 130.715 27.7706V23.6266C130.715 22.5984 130.692 21.0521 130.677 20.9284C130.632 20.5341 130.511 20.4491 130.057 20.4491H129.617C129.557 20.4491 129.519 20.4336 129.519 20.364V20.0316C129.519 20.0316 129.542 19.9697 129.602 19.9697C129.867 19.9697 130.291 20.0084 131.094 20.0084H131.624C132.82 20.0084 134.023 19.9929 135.219 19.9929C135.416 19.9929 135.643 19.9697 135.704 19.9697C135.764 19.9697 135.787 19.9929 135.802 20.0316L136.423 22.0262C136.438 22.0726 136.438 22.1113 136.385 22.1345L136.204 22.235C136.204 22.235 136.12 22.2195 136.105 22.1963C136.082 22.1499 135.182 20.9748 134.894 20.7892C134.637 20.6192 134.303 20.4645 133.97 20.4568L131.813 20.4104V24.0364L131.836 24.0132Z" fill="currentColor"/>
<path d="M142.57 23.209C142.57 22.4204 142.547 21.1061 142.532 20.8819C142.51 20.5571 142.449 20.4334 142.086 20.4334H141.518C141.442 20.4334 141.435 20.3716 141.435 20.3097V20.0391C141.435 19.9773 141.45 19.9541 141.518 19.9541C141.654 19.9541 142.086 19.9928 143.092 19.9928C144.266 19.9928 144.781 19.9541 144.887 19.9541C144.985 19.9541 144.993 19.9928 144.993 20.0546V20.3407C144.993 20.4025 144.97 20.4412 144.871 20.4412H144.145C143.766 20.4412 143.721 20.5649 143.721 20.9205C143.721 21.0829 143.683 22.9538 143.683 23.8197V24.8867C143.683 25.0954 143.683 27.7704 143.721 28.2807C143.986 28.3039 146.386 28.3271 146.764 28.2807C147.476 28.1724 148.202 26.688 148.376 26.201C148.399 26.1546 148.422 26.1237 148.475 26.1546L148.672 26.2319C148.672 26.2319 148.71 26.2706 148.694 26.3401C148.657 26.4252 148.172 28.4662 148.104 28.8064C147.945 28.7909 146.999 28.7832 145.924 28.7832C144.849 28.7678 143.66 28.7678 143.002 28.7678C142.532 28.7678 142.176 28.7832 141.927 28.7832C141.684 28.7987 141.541 28.8064 141.457 28.8064C141.374 28.8064 141.359 28.7832 141.359 28.7214V28.4121C141.359 28.3503 141.374 28.3271 141.442 28.3271H142.025C142.472 28.3271 142.547 28.157 142.547 27.9946C142.547 27.7627 142.585 24.6779 142.585 23.9202V23.2244L142.57 23.209Z" fill="currentColor"/>
<path d="M155.288 25.3118C155.167 25.6211 154.501 27.4997 154.44 27.7626C154.425 27.8477 154.402 27.9714 154.402 28.0332C154.402 28.2033 154.546 28.3038 154.811 28.3038H155.379C155.462 28.3038 155.5 28.327 155.5 28.3888V28.6749C155.5 28.7599 155.462 28.7831 155.402 28.7831C155.235 28.7831 154.736 28.7445 154.024 28.7445C153.138 28.7445 152.873 28.7831 152.707 28.7831C152.646 28.7831 152.623 28.7599 152.623 28.6826V28.3888C152.623 28.327 152.669 28.3038 152.722 28.3038H153.146C153.509 28.3038 153.676 28.1337 153.85 27.7317C153.933 27.5307 154.819 25.2422 155.167 24.2294C155.25 23.982 156.234 21.3225 156.34 20.99C156.378 20.8663 156.439 20.704 156.356 20.5725C156.318 20.5261 156.272 20.4643 156.272 20.4102C156.272 20.3715 156.295 20.3251 156.378 20.3019C156.719 20.2246 157.249 19.8535 157.385 19.6834C157.446 19.6216 157.483 19.5752 157.544 19.5752C157.62 19.5752 157.642 19.6525 157.68 19.7839C157.907 20.5648 158.854 23.3326 159.088 24.1289C159.368 25.0953 160.156 27.3992 160.322 27.7549C160.527 28.1646 160.845 28.3115 161.147 28.3115H161.549C161.624 28.3115 161.647 28.3502 161.647 28.3966V28.7058C161.647 28.7677 161.609 28.7909 161.526 28.7909C161.306 28.7909 161.057 28.7522 160.073 28.7522C159.088 28.7522 158.642 28.7909 158.362 28.7909C158.301 28.7909 158.263 28.7522 158.263 28.6826V28.3966C158.263 28.3193 158.301 28.3115 158.369 28.3115H158.672C159.013 28.3115 159.119 28.1878 159.035 27.8399C158.937 27.3915 158.445 25.8143 158.271 25.3118H155.288ZM158.127 24.8634C158.021 24.4923 157.037 21.3998 156.976 21.2142C156.938 21.1292 156.916 21.0441 156.878 21.0441C156.832 21.0441 156.779 21.1292 156.742 21.2297C156.681 21.392 155.53 24.5619 155.447 24.8711H158.127V24.8634Z" fill="currentColor"/>
<path d="M167.181 23.124C167.181 22.2117 167.181 21.4154 167.166 21.0598C167.151 20.65 167.007 20.4413 166.704 20.4413H166.22C166.159 20.4413 166.144 20.4026 166.144 20.3562V20.047C166.144 19.9851 166.159 19.9619 166.22 19.9619C166.326 19.9619 166.704 20.0006 167.718 20.0006C168.4 20.0006 169.52 19.9619 169.74 19.9619C170.747 19.9619 171.549 20.2712 172.003 20.7196C172.404 21.1139 172.631 21.6705 172.631 22.1267C172.631 23.6729 171.943 24.2528 170.391 24.6007V24.6239C170.678 24.7321 170.852 24.9563 170.951 25.0955C171.095 25.2578 171.958 26.518 172.056 26.6804C172.117 26.8041 172.889 27.9329 173.124 28.1029C173.381 28.2885 173.653 28.3117 173.994 28.3117C174.077 28.3117 174.093 28.3581 174.093 28.4122V28.6828C174.093 28.7601 174.077 28.791 173.994 28.791C173.896 28.791 173.585 28.7524 173.048 28.7524C172.7 28.7524 172.245 28.7756 172.064 28.791C171.927 28.6673 171.663 28.2498 171.557 28.0875C171.458 27.9406 170.807 26.7654 170.747 26.6649C170.701 26.5799 170.118 25.6908 169.974 25.513C169.656 25.1264 169.369 24.794 168.665 24.794C168.559 24.794 168.438 24.794 168.263 24.8326V25.5284C168.263 26.2552 168.279 27.6468 168.286 27.8323C168.309 28.0952 168.407 28.3117 168.589 28.3117H169.354C169.437 28.3117 169.452 28.3503 169.452 28.4122V28.6828C169.452 28.7678 169.437 28.791 169.316 28.791C169.179 28.791 168.877 28.7524 167.726 28.7524C166.575 28.7524 166.341 28.791 166.212 28.791C166.114 28.791 166.114 28.7524 166.114 28.6905V28.4045C166.114 28.3426 166.114 28.304 166.174 28.304H166.674C166.939 28.304 167.143 28.2189 167.143 27.8865C167.166 26.6649 167.166 25.4975 167.166 24.3224V23.124H167.181ZM168.271 24.3455C168.453 24.3842 168.589 24.3919 168.816 24.3919C171.019 24.3919 171.443 22.8457 171.443 22.3277C171.443 21.7556 171.186 21.2144 170.837 20.9129C170.368 20.5263 169.831 20.3407 168.824 20.3407C168.68 20.3407 168.521 20.3639 168.415 20.4413C168.332 20.5031 168.271 20.6423 168.271 20.8355V24.3378V24.3455Z" fill="currentColor"/>
<path d="M179.377 23.5723C179.377 23.2785 179.339 21.0442 179.331 20.8587C179.308 20.5649 179.187 20.4412 178.726 20.4412H178.022C177.961 20.4412 177.923 20.418 177.923 20.3639V20.0314C177.923 19.985 177.961 19.9541 178.006 19.9541C178.15 19.9541 178.771 19.9928 179.899 19.9928C181.027 19.9928 181.368 19.9541 181.534 19.9541C181.595 19.9541 181.617 19.9928 181.617 20.0391V20.3484C181.617 20.4102 181.58 20.4334 181.519 20.4334H180.951C180.709 20.4334 180.527 20.5339 180.527 20.7813C180.527 20.905 180.489 23.6419 180.489 23.7888V24.7398C180.489 24.8635 180.527 27.724 180.527 27.8555C180.527 28.242 180.709 28.3039 181.095 28.3039H181.595C181.655 28.3039 181.693 28.3271 181.693 28.3889V28.7136C181.693 28.76 181.655 28.7909 181.587 28.7909C181.443 28.7909 180.959 28.7523 179.899 28.7523C178.748 28.7523 178.226 28.7909 178.097 28.7909C178.037 28.7909 177.999 28.7678 177.999 28.7136V28.3812C177.999 28.3348 178.037 28.3039 178.097 28.3039H178.779C179.021 28.3039 179.278 28.2652 179.324 27.9482C179.346 27.7627 179.384 25.0877 179.384 24.4305V23.5646L179.377 23.5723Z" fill="currentColor"/>
<path d="M188.695 25.3118C188.574 25.6211 187.908 27.4997 187.848 27.7626C187.832 27.8477 187.81 27.9714 187.81 28.0332C187.81 28.2033 187.954 28.3038 188.219 28.3038H188.786C188.87 28.3038 188.907 28.327 188.907 28.3888V28.6749C188.907 28.7599 188.87 28.7831 188.809 28.7831C188.642 28.7831 188.143 28.7445 187.431 28.7445C186.546 28.7445 186.281 28.7831 186.114 28.7831C186.053 28.7831 186.031 28.7599 186.031 28.6826V28.3888C186.031 28.327 186.076 28.3038 186.129 28.3038H186.553C186.916 28.3038 187.083 28.1337 187.257 27.7317C187.34 27.5307 188.226 25.2422 188.574 24.2294C188.658 23.982 189.642 21.3225 189.748 20.99C189.786 20.8663 189.846 20.704 189.763 20.5725C189.725 20.5261 189.68 20.4643 189.68 20.4102C189.68 20.3715 189.702 20.3251 189.786 20.3019C190.126 20.2246 190.656 19.8535 190.792 19.6834C190.853 19.6216 190.891 19.5752 190.951 19.5752C191.027 19.5752 191.05 19.6525 191.088 19.7839C191.315 20.5648 192.261 23.3326 192.496 24.1289C192.776 25.0953 193.563 27.3992 193.73 27.7549C193.934 28.1646 194.252 28.3115 194.555 28.3115H194.956C195.032 28.3115 195.054 28.3502 195.054 28.3966V28.7058C195.054 28.7677 195.017 28.7909 194.933 28.7909C194.714 28.7909 194.464 28.7522 193.48 28.7522C192.496 28.7522 192.049 28.7909 191.769 28.7909C191.708 28.7909 191.671 28.7522 191.671 28.6826V28.3966C191.671 28.3193 191.708 28.3115 191.777 28.3115H192.079C192.42 28.3115 192.526 28.1878 192.443 27.8399C192.344 27.3915 191.852 25.8143 191.678 25.3118H188.695ZM191.534 24.8634C191.428 24.4923 190.444 21.3998 190.384 21.2142C190.346 21.1292 190.323 21.0441 190.285 21.0441C190.24 21.0441 190.187 21.1292 190.149 21.2297C190.088 21.392 188.938 24.5619 188.854 24.8711H191.534V24.8634Z" fill="currentColor"/>
<path d="M208.567 25.4743C208.567 26.0542 208.582 27.7396 208.59 27.9097C208.613 28.1803 208.734 28.304 208.991 28.304H209.763C209.847 28.304 209.862 28.3426 209.862 28.389V28.6828C209.862 28.7446 209.847 28.7833 209.756 28.7833C209.589 28.7833 209.211 28.7446 208.075 28.7446C207.008 28.7446 206.539 28.7833 206.402 28.7833C206.319 28.7833 206.304 28.7446 206.304 28.6983V28.389C206.304 28.3272 206.319 28.304 206.38 28.304H206.902C207.311 28.304 207.402 28.2421 207.432 27.9097C207.447 27.786 207.477 25.8531 207.477 24.4229V23.0003C207.477 22.1808 207.462 20.8355 207.455 20.7118C207.432 20.4644 207.311 20.4413 206.985 20.4413H206.296C206.236 20.4413 206.221 20.4181 206.221 20.3407V20.047C206.221 19.9851 206.236 19.9619 206.296 19.9619C206.433 19.9619 206.864 20.0006 208.015 20.0006C208.234 20.0006 208.946 19.9619 209.347 19.9619C210.717 19.9619 211.361 20.1011 212.05 20.5804C212.617 20.9747 212.973 21.6705 212.973 22.3741C212.973 23.9358 211.823 24.9022 209.892 24.9022C209.446 24.9022 208.961 24.8867 208.575 24.8403V25.482L208.567 25.4743ZM208.567 24.3842C208.81 24.4615 209.211 24.4924 209.68 24.4924C210.422 24.4924 211.073 24.0827 211.391 23.6497C211.656 23.2941 211.709 22.8302 211.709 22.3973C211.709 20.7737 210.233 20.3407 209.514 20.3407C209.309 20.3407 208.81 20.3407 208.567 20.4258V24.3765V24.3842Z" fill="currentColor"/>
<path d="M218.863 23.124C218.863 22.2117 218.863 21.4154 218.848 21.0598C218.833 20.65 218.689 20.4413 218.386 20.4413H217.902C217.841 20.4413 217.826 20.4026 217.826 20.3562V20.047C217.826 19.9851 217.841 19.9619 217.902 19.9619C218.007 19.9619 218.386 20.0006 219.4 20.0006C220.082 20.0006 221.202 19.9619 221.422 19.9619C222.428 19.9619 223.231 20.2712 223.685 20.7196C224.086 21.1139 224.313 21.6705 224.313 22.1267C224.313 23.6729 223.625 24.2528 222.073 24.6007V24.6239C222.36 24.7321 222.534 24.9563 222.633 25.0955C222.777 25.2578 223.64 26.518 223.738 26.6804C223.799 26.8041 224.571 27.9329 224.806 28.1029C225.063 28.2885 225.335 28.3117 225.676 28.3117C225.759 28.3117 225.775 28.3581 225.775 28.4122V28.6828C225.775 28.7601 225.759 28.791 225.676 28.791C225.578 28.791 225.267 28.7524 224.73 28.7524C224.382 28.7524 223.927 28.7756 223.746 28.791C223.609 28.6673 223.345 28.2498 223.239 28.0875C223.14 27.9406 222.489 26.7654 222.429 26.6649C222.383 26.5799 221.8 25.6908 221.656 25.513C221.338 25.1264 221.051 24.794 220.347 24.794C220.241 24.794 220.12 24.794 219.945 24.8326V25.5284C219.945 26.2552 219.961 27.6468 219.968 27.8323C219.991 28.0952 220.089 28.3117 220.271 28.3117H221.036C221.119 28.3117 221.134 28.3503 221.134 28.4122V28.6828C221.134 28.7678 221.119 28.791 220.998 28.791C220.861 28.791 220.559 28.7524 219.408 28.7524C218.257 28.7524 218.023 28.791 217.894 28.791C217.796 28.791 217.796 28.7524 217.796 28.6905V28.4045C217.796 28.3426 217.796 28.304 217.856 28.304H218.356C218.621 28.304 218.825 28.2189 218.825 27.8865C218.848 26.6649 218.848 25.4975 218.848 24.3224V23.124H218.863ZM219.953 24.3455C220.135 24.3842 220.271 24.3919 220.498 24.3919C222.701 24.3919 223.125 22.8457 223.125 22.3277C223.125 21.7556 222.868 21.2144 222.519 20.9129C222.05 20.5263 221.513 20.3407 220.506 20.3407C220.362 20.3407 220.203 20.3639 220.097 20.4413C220.014 20.5031 219.953 20.6423 219.953 20.8355V24.3378V24.3455Z" fill="currentColor"/>
<path d="M232.02 25.3118C231.899 25.6211 231.233 27.4997 231.172 27.7626C231.157 27.8477 231.134 27.9714 231.134 28.0332C231.134 28.2033 231.278 28.3038 231.543 28.3038H232.111C232.194 28.3038 232.232 28.327 232.232 28.3888V28.6749C232.232 28.7599 232.194 28.7831 232.134 28.7831C231.967 28.7831 231.467 28.7445 230.756 28.7445C229.87 28.7445 229.605 28.7831 229.438 28.7831C229.378 28.7831 229.355 28.7599 229.355 28.6826V28.3888C229.355 28.327 229.401 28.3038 229.454 28.3038H229.878C230.241 28.3038 230.407 28.1337 230.582 27.7317C230.665 27.5307 231.551 25.2422 231.899 24.2294C231.982 23.982 232.966 21.3225 233.072 20.99C233.11 20.8663 233.171 20.704 233.087 20.5725C233.049 20.5261 233.004 20.4643 233.004 20.4102C233.004 20.3715 233.027 20.3251 233.11 20.3019C233.451 20.2246 233.981 19.8535 234.117 19.6834C234.177 19.6216 234.215 19.5752 234.276 19.5752C234.352 19.5752 234.374 19.6525 234.412 19.7839C234.639 20.5648 235.586 23.3326 235.82 24.1289C236.1 25.0953 236.888 27.3992 237.054 27.7549C237.259 28.1646 237.576 28.3115 237.879 28.3115H238.281C238.356 28.3115 238.379 28.3502 238.379 28.3966V28.7058C238.379 28.7677 238.341 28.7909 238.258 28.7909C238.038 28.7909 237.788 28.7522 236.804 28.7522C235.82 28.7522 235.374 28.7909 235.093 28.7909C235.033 28.7909 234.995 28.7522 234.995 28.6826V28.3966C234.995 28.3193 235.033 28.3115 235.101 28.3115H235.404C235.744 28.3115 235.85 28.1878 235.767 27.8399C235.669 27.3915 235.177 25.8143 235.003 25.3118H232.02ZM234.859 24.8634C234.753 24.4923 233.769 21.3998 233.708 21.2142C233.67 21.1292 233.648 21.0441 233.61 21.0441C233.564 21.0441 233.511 21.1292 233.473 21.2297C233.413 21.392 232.262 24.5619 232.179 24.8711H234.859V24.8634Z" fill="currentColor"/>
<path d="M245.147 27.1443H245.169C245.215 26.9355 247.024 21.6473 247.07 21.1293C247.085 21.0288 246.994 20.8201 246.888 20.6732C246.782 20.5263 246.623 20.4413 246.403 20.4413H246.101C246.04 20.4413 246.025 20.4181 246.025 20.3407V20.047C246.025 20.0006 246.04 19.9619 246.108 19.9619C246.214 19.9619 246.638 20.0006 247.584 20.0006C248.599 20.0006 249.061 19.9619 249.182 19.9619C249.257 19.9619 249.265 20.0006 249.265 20.047V20.3562C249.265 20.4026 249.25 20.4413 249.182 20.4413H248.697C248.394 20.4413 248.288 20.7118 248.356 20.9361L250.249 27.152H250.272C250.408 26.7577 252.164 21.5314 252.164 20.8278C252.164 20.6268 252.066 20.4413 251.74 20.4413H251.415C251.339 20.4413 251.332 20.4026 251.332 20.333V20.047C251.332 20.0006 251.347 19.9619 251.43 19.9619C251.551 19.9619 251.975 20.0006 252.724 20.0006C253.406 20.0006 253.754 19.9619 253.852 19.9619C253.928 19.9619 253.936 19.9851 253.936 20.047V20.3562C253.936 20.4026 253.936 20.4413 253.852 20.4413H253.565C253.36 20.4413 253.186 20.5804 253.08 20.7737C252.982 20.9438 250.453 28.0875 250.211 28.6828C250.151 28.822 250.09 29.0075 249.954 29.0075C249.81 29.0075 249.749 28.907 249.689 28.7369L247.448 21.9411H247.425C247.319 22.2736 245.109 28.6364 245.041 28.7756C244.98 28.8993 244.904 29.0075 244.798 29.0075C244.7 29.0075 244.632 28.9611 244.579 28.8065L241.876 20.8897C241.755 20.5418 241.589 20.4413 241.354 20.4413H240.945C240.885 20.4413 240.87 20.3949 240.87 20.3407V20.047C240.87 19.9851 240.885 19.9619 240.968 19.9619C241.066 19.9619 241.437 20.0006 242.262 20.0006C243.133 20.0006 243.633 19.9619 243.754 19.9619C243.837 19.9619 243.852 20.0006 243.852 20.0392V20.3485C243.852 20.4103 243.837 20.449 243.754 20.449H243.549C243.231 20.449 243.125 20.6191 243.201 20.8974L245.154 27.1597L245.147 27.1443Z" fill="currentColor"/>
<path d="M259.235 21.6008C259.235 20.874 258.872 20.4643 258.433 20.4488L257.933 20.4334C257.872 20.4334 257.857 20.387 257.857 20.3483V20.0236C257.857 19.9772 257.872 19.9463 257.933 19.9463C257.993 19.9463 258.092 19.9618 258.274 19.9618C258.455 19.9772 258.72 19.9849 259.137 19.9849C259.553 19.9849 259.803 19.9618 259.947 19.9618C260.106 19.9618 260.204 20.0081 260.295 20.1241L262.838 23.4872C262.975 23.6573 265.019 26.2241 265.314 26.6184H265.359V25.1494C265.359 24.0516 265.344 23.4408 265.321 22.8223C265.306 22.343 265.246 21.1292 265.178 20.9127C265.079 20.6034 264.852 20.4334 264.511 20.4334H264.125C264.08 20.4334 264.05 20.4102 264.05 20.3483V20.0236C264.05 19.9772 264.072 19.9463 264.125 19.9463C264.292 19.9463 264.686 19.9849 265.458 19.9849C266.184 19.9849 266.472 19.9463 266.631 19.9463C266.714 19.9463 266.729 19.9849 266.729 20.0313V20.3406C266.729 20.387 266.707 20.4256 266.654 20.4256H266.328C266.003 20.4256 265.882 20.6344 265.859 21.106C265.813 21.9332 265.813 23.1625 265.813 23.9666V28.5976C265.813 28.7677 265.798 28.8914 265.753 28.8914C265.609 28.8914 265.496 28.7445 265.465 28.6904L263.989 26.7885C263.141 25.7138 262.255 24.5696 262.18 24.5C262.044 24.3763 259.818 21.5157 259.742 21.4152H259.666V24.1598C259.666 25.3118 259.765 27.3297 259.788 27.5771C259.833 28.0564 259.909 28.2961 260.234 28.2961H260.598C260.681 28.2961 260.696 28.3347 260.696 28.4043V28.6749C260.696 28.7522 260.681 28.7754 260.598 28.7754C260.476 28.7754 259.75 28.7367 259.424 28.7367C259.167 28.7367 258.334 28.7754 258.213 28.7754C258.168 28.7754 258.152 28.7522 258.152 28.6904V28.3656C258.152 28.3656 258.168 28.2883 258.228 28.2883H258.637C258.985 28.2883 259.121 28.1414 259.182 27.5307C259.205 27.2987 259.227 25.8839 259.227 23.6805V21.5776L259.235 21.6008Z" fill="currentColor"/>
<path d="M273.626 25.3118C273.505 25.6211 272.839 27.4997 272.778 27.7626C272.763 27.8477 272.74 27.9714 272.74 28.0332C272.74 28.2033 272.884 28.3038 273.149 28.3038H273.717C273.8 28.3038 273.838 28.327 273.838 28.3888V28.6749C273.838 28.7599 273.8 28.7831 273.739 28.7831C273.573 28.7831 273.073 28.7445 272.362 28.7445C271.476 28.7445 271.211 28.7831 271.044 28.7831C270.984 28.7831 270.961 28.7599 270.961 28.6826V28.3888C270.961 28.327 271.007 28.3038 271.06 28.3038H271.484C271.847 28.3038 272.013 28.1337 272.188 27.7317C272.271 27.5307 273.157 25.2422 273.505 24.2294C273.588 23.982 274.572 21.3225 274.678 20.99C274.716 20.8663 274.777 20.704 274.693 20.5725C274.655 20.5261 274.61 20.4643 274.61 20.4102C274.61 20.3715 274.633 20.3251 274.716 20.3019C275.057 20.2246 275.587 19.8535 275.723 19.6834C275.783 19.6216 275.821 19.5752 275.882 19.5752C275.958 19.5752 275.98 19.6525 276.018 19.7839C276.245 20.5648 277.191 23.3326 277.426 24.1289C277.706 25.0953 278.494 27.3992 278.66 27.7549C278.865 28.1646 279.182 28.3115 279.485 28.3115H279.886C279.962 28.3115 279.985 28.3502 279.985 28.3966V28.7058C279.985 28.7677 279.947 28.7909 279.864 28.7909C279.644 28.7909 279.394 28.7522 278.41 28.7522C277.426 28.7522 276.98 28.7909 276.699 28.7909C276.639 28.7909 276.601 28.7522 276.601 28.6826V28.3966C276.601 28.3193 276.639 28.3115 276.707 28.3115H277.01C277.35 28.3115 277.456 28.1878 277.373 27.8399C277.275 27.3915 276.783 25.8143 276.609 25.3118H273.626ZM276.465 24.8634C276.359 24.4923 275.375 21.3998 275.314 21.2142C275.276 21.1292 275.253 21.0441 275.216 21.0441C275.17 21.0441 275.117 21.1292 275.079 21.2297C275.019 21.392 273.868 24.5619 273.785 24.8711H276.465V24.8634Z" fill="currentColor"/>
<path d="M8.40295 13.4992H9.06156C9.37194 13.4992 9.80344 13.2982 10.1517 12.9812C10.8557 12.4246 17.1541 4.27579 17.6613 3.60317C18.3654 2.65222 17.6613 2.05692 16.8816 2.05692H16.223C16.064 2.05692 16.0262 1.9796 16.0262 1.77859V0.781255C16.0262 0.580242 16.1019 0.50293 16.2608 0.50293C16.7302 0.50293 18.32 0.618899 21.401 0.618899C23.3087 0.618899 24.6714 0.50293 25.1407 0.50293C25.3376 0.50293 25.4133 0.580242 25.4133 0.781255V1.8559C25.4133 2.05692 25.2997 2.13423 25.1029 2.13423H24.4821C23.9371 2.13423 23.0059 2.33524 22.2262 2.80685C20.0838 4.12117 15.0269 10.082 13.7021 11.9066C16.1927 15.1228 22.5366 24.2302 24.2474 26.2558C24.9893 27.1294 25.8826 27.2531 26.352 27.2531H26.8213C27.0181 27.2531 27.0938 27.3691 27.0938 27.5315V28.6061C27.0938 28.8071 27.0181 28.8844 26.7835 28.8844C26.3974 28.8844 25.1104 28.7685 21.2193 28.7685C17.9869 28.7685 16.4728 28.8844 15.9278 28.8844C15.7688 28.8844 15.6931 28.8071 15.6931 28.5674V27.5315C15.6931 27.3691 15.7688 27.2918 15.9278 27.2918H16.5107C17.1693 27.2918 17.2147 26.6192 17.0557 26.2558C16.7075 25.4595 10.674 16.3211 10.0154 15.5634C9.78073 15.2851 9.39465 15.0068 8.96315 15.0068H8.41809V17.9911C8.41809 19.978 8.4938 25.8228 8.53165 26.3795C8.5695 26.8975 8.91773 27.2531 9.42493 27.2531H10.6286C10.8254 27.2531 10.939 27.3304 10.939 27.4928V28.6061C10.939 28.7685 10.9011 28.8844 10.7043 28.8844C10.2349 28.8844 9.06913 28.7685 5.45056 28.7685C1.83199 28.7685 0.628329 28.8844 0.272528 28.8844C0.0757023 28.8844 0 28.8071 0 28.6061V27.4928C0 27.2918 0.113553 27.2531 0.272528 27.2531H1.47619C2.18023 27.2531 2.45275 26.9361 2.52846 26.5341C2.56631 26.1785 2.64201 18.9807 2.64201 14.0945V11.7906C2.64201 11.0716 2.52846 3.52586 2.52846 3.08517C2.52846 2.64449 2.33163 2.13423 1.36264 2.13423H0.386082C0.151405 2.13423 0.0757023 2.05692 0.0757023 1.8559V0.742599C0.0757023 0.580242 0.151405 0.50293 0.386082 0.50293C0.855436 0.50293 2.02125 0.618899 5.52627 0.618899C9.03128 0.618899 10.1971 0.50293 10.7043 0.50293C10.939 0.50293 11.0147 0.580242 11.0147 0.819912V1.8559C11.0147 2.05692 10.939 2.13423 10.7422 2.13423H9.81102C9.03128 2.13423 8.52408 2.41255 8.52408 3.28619C8.52408 3.8815 8.41052 10.082 8.41052 12.0303V13.4992H8.40295Z" fill="currentColor"/>
<path d="M39.8497 16.321C39.8497 16.9937 39.8497 25.5831 39.9632 27.168H42.1813C44.0133 27.168 45.762 27.168 47.8665 26.967C49.9711 26.766 52.6131 21.9958 53.196 20.5268C53.3095 20.2872 53.4306 20.1712 53.6653 20.2872L54.4451 20.6042C54.5586 20.6815 54.5586 20.7201 54.5208 20.9598C54.4072 21.2381 52.8477 27.7942 52.6131 28.8689C51.5987 28.7916 40.3947 28.7529 36.814 28.7529C32.9608 28.7529 31.5603 28.8689 31.0531 28.8689C30.7805 28.8689 30.7427 28.7916 30.7427 28.5132V27.5159C30.7427 27.3149 30.7805 27.2376 31.0152 27.2376H32.2189C33.6572 27.2376 33.8919 26.6809 33.8919 26.2403C33.8919 25.4826 34.0054 15.5866 34.0054 13.1667V10.9401C34.0054 8.39648 33.9297 4.18293 33.8919 3.54897C33.8162 2.51298 33.6194 2.11868 32.7261 2.11868H31.2877C31.0531 2.11868 31.0152 1.91767 31.0152 1.72439V0.773443C31.0152 0.57243 31.0531 0.495117 31.2877 0.495117C31.7192 0.495117 33.1197 0.611086 36.655 0.611086C41.2047 0.611086 42.8399 0.495117 43.1957 0.495117C43.5061 0.495117 43.5439 0.611086 43.5439 0.889412V1.8017C43.5439 2.00272 43.4682 2.11868 43.1578 2.11868H41.3259C40.1222 2.11868 39.9632 2.51298 39.9632 3.58763C39.9632 4.10562 39.8497 10.1051 39.8497 12.8883V16.3056V16.321Z" fill="currentColor"/>
<path d="M81.9326 6.64131H82.243C82.3868 6.64131 82.5912 6.54854 82.7502 6.40164C83.0757 6.13878 86.0205 2.335 86.2552 2.02574C86.5807 1.57733 86.2552 1.29901 85.8918 1.29901H85.5815C85.5058 1.29901 85.4906 1.26035 85.4906 1.16757V0.703697C85.4906 0.610922 85.5285 0.572266 85.5966 0.572266C85.8161 0.572266 86.558 0.626385 87.9964 0.626385C88.8896 0.626385 89.5255 0.572266 89.7375 0.572266C89.8284 0.572266 89.8662 0.610922 89.8662 0.703697V1.20623C89.8662 1.29901 89.8132 1.33766 89.7224 1.33766H89.4347C89.1773 1.33766 88.7458 1.43044 88.3824 1.65464C87.3832 2.26541 85.0213 5.04867 84.4005 5.90684C85.5663 7.40671 88.5263 11.6589 89.3211 12.6021C89.6694 13.0119 90.0857 13.066 90.3053 13.066H90.5248C90.6157 13.066 90.6535 13.1201 90.6535 13.1974V13.7C90.6535 13.7927 90.6157 13.8314 90.5097 13.8314C90.328 13.8314 89.7299 13.7773 87.9131 13.7773C86.4066 13.7773 85.695 13.8314 85.4452 13.8314C85.3695 13.8314 85.3392 13.7927 85.3392 13.6845V13.2052C85.3392 13.1279 85.3771 13.0969 85.4452 13.0969H85.7177C86.0281 13.0969 86.0432 12.7799 85.9751 12.6176C85.8086 12.2465 82.9924 7.97882 82.6896 7.62319C82.5836 7.49175 82.402 7.36032 82.1976 7.36032H81.9402V8.75195C81.9402 9.6797 81.978 12.4088 81.9932 12.664C82.0083 12.9036 82.1749 13.0737 82.4095 13.0737H82.9697C83.0606 13.0737 83.1136 13.1124 83.1136 13.182V13.7C83.1136 13.7773 83.0984 13.8314 83.0076 13.8314C82.788 13.8314 82.243 13.7773 80.5548 13.7773C78.8667 13.7773 78.2989 13.8314 78.1399 13.8314C78.0491 13.8314 78.0112 13.7927 78.0112 13.7V13.182C78.0112 13.0892 78.0642 13.0737 78.1399 13.0737H78.7001C79.0256 13.0737 79.1543 12.9268 79.1922 12.7413C79.2073 12.5712 79.2452 9.21583 79.2452 6.9351V5.86046C79.2452 5.52801 79.1922 2.00255 79.1922 1.79381C79.1922 1.58506 79.1013 1.34539 78.6471 1.34539H78.1929C78.0869 1.34539 78.0491 1.30674 78.0491 1.21396V0.695966C78.0491 0.618653 78.0869 0.587728 78.1929 0.587728C78.4125 0.587728 78.9575 0.641847 80.5927 0.641847C82.2278 0.641847 82.7729 0.587728 83.0076 0.587728C83.1136 0.587728 83.1514 0.626385 83.1514 0.734622V1.21396C83.1514 1.30674 83.1136 1.34539 83.0227 1.34539H82.5836C82.2203 1.34539 81.9856 1.47682 81.9856 1.88658C81.9856 2.16491 81.9326 5.0564 81.9326 5.96869V6.65678V6.64131Z" fill="currentColor"/>
<path d="M94.7792 8.68197C94.6354 9.06854 93.7421 11.6121 93.7421 12.2074C93.7421 12.6172 93.9087 13.0579 94.4537 13.0579H95.0896C95.2713 13.0579 95.2865 13.1352 95.2865 13.2048V13.6145C95.2865 13.7614 95.2713 13.8155 95.1199 13.8155C94.8852 13.8155 94.1358 13.7614 92.652 13.7614C91.3272 13.7614 90.926 13.8155 90.6686 13.8155C90.5626 13.8155 90.5399 13.7073 90.5399 13.5759V13.2202C90.5399 13.112 90.5551 13.0501 90.6686 13.0501H91.138C91.577 13.0501 92.0085 12.7873 92.3719 12.2306C92.6293 11.8441 93.9162 8.61239 94.5143 6.98109C94.6581 6.60999 96.1343 2.62066 96.2933 2.11812C96.3463 1.93257 96.4371 1.6929 96.3084 1.48416C96.2554 1.40685 96.1797 1.31407 96.1797 1.24449C96.1797 1.19037 96.2176 1.11306 96.3614 1.0744C96.9443 0.942971 98.1253 0.463633 98.3978 0.14665C98.4887 0.0538752 98.5416 -0.0234375 98.6325 -0.0234375C98.7385 -0.0234375 98.7763 0.0848003 98.8293 0.293545C99.1776 1.46097 100.593 5.62039 100.934 6.80328C101.35 8.24902 102.531 11.7049 102.789 12.1997C103.099 12.8105 103.568 13.0347 103.841 13.0347H104.462C104.568 13.0347 104.59 13.112 104.59 13.2048V13.5604C104.59 13.6686 104.575 13.8001 104.424 13.8001C104.075 13.8001 103.697 13.746 101.373 13.746C99.8664 13.746 99.2305 13.8001 98.8672 13.8001C98.6855 13.8001 98.6703 13.6918 98.6703 13.5604V13.2048C98.6703 13.112 98.6855 13.0347 98.7763 13.0347H99.2835C99.7756 13.0347 99.9346 12.8491 99.8286 12.3698C99.662 11.7049 98.958 9.32367 98.7385 8.65878H94.7565L94.7792 8.68197ZM98.5946 7.93977L97.232 3.02268C97.1563 2.74436 97.126 2.61293 97.0352 2.61293C96.9292 2.61293 96.8686 2.69024 96.8156 2.8526C96.7248 3.09227 95.1653 7.4759 95.0139 7.93977H98.5946Z" fill="currentColor"/>
<path d="M107.459 12.3389C106.112 11.1174 105.476 8.98357 105.476 7.38319C105.476 5.47357 106.074 3.7495 107.346 2.35787C108.383 1.2291 109.889 0.355469 112.145 0.355469C113.796 0.355469 115.158 0.780689 115.794 1.13633C116.052 1.26776 116.142 1.24457 116.173 1.12086L116.317 0.656988C116.354 0.548751 116.392 0.548751 116.665 0.548751C116.937 0.548751 116.975 0.587407 116.975 0.842539C116.975 1.19818 117.301 4.35254 117.391 4.90919C117.407 5.04062 117.391 5.13339 117.301 5.14886L116.899 5.2571C116.809 5.29575 116.733 5.21844 116.68 5.05608C116.483 4.31388 115.991 3.37066 115.226 2.56661C114.447 1.78575 113.485 1.17498 112.1 1.17498C109.45 1.17498 108.322 3.64126 108.337 6.38586C108.337 7.55328 108.663 9.83401 109.958 11.2256C111.138 12.4704 112.176 12.6173 112.789 12.6173C114.863 12.6173 116.407 11.6509 117.074 10.6303C117.164 10.4834 117.255 10.4061 117.346 10.4834L117.656 10.7618C117.709 10.8004 117.732 10.87 117.656 10.986C116.604 12.5477 114.84 14.0476 112.282 14.0476C109.867 14.0476 108.595 13.3827 107.452 12.3389H107.459Z" fill="currentColor"/>
<path d="M124.197 1.29901C123.94 1.29901 123.652 1.31447 123.183 1.65465C122.804 1.91751 121.237 3.71116 120.859 4.2137C120.806 4.30647 120.715 4.36059 120.639 4.32193L120.329 4.15185C120.276 4.13638 120.253 4.07453 120.276 3.98176L121.419 0.680505C121.472 0.510417 121.585 0.479492 121.676 0.479492C121.805 0.479492 121.949 0.494955 122.093 0.518149C122.948 0.626386 125.507 0.626386 127.013 0.626386C128.119 0.626386 129.065 0.58773 129.754 0.572267C130.375 0.533611 130.95 0.518149 131.079 0.518149C131.366 0.518149 131.495 0.757818 131.336 0.966562C131.192 1.13665 123.228 12.5248 122.865 13.0273H127.24C127.748 13.0273 128.134 13.0273 128.588 12.8263C129.118 12.5867 130.897 10.677 131.147 10.3601C131.222 10.2827 131.291 10.2673 131.381 10.3059L131.692 10.476C131.745 10.5147 131.783 10.5533 131.73 10.6461C131.472 11.0713 130.602 13.3521 130.352 13.8546C130.314 13.9474 130.208 14.0401 130.117 14.0401C130.041 14.0401 129.898 14.0247 129.663 13.986C128.664 13.8546 125.772 13.785 124.137 13.785H119.882C119.738 13.785 119.534 13.785 119.534 13.6381C119.534 13.5299 119.549 13.3753 119.625 13.267C120.367 12.0996 127.838 1.53868 127.967 1.31447H124.19L124.197 1.29901Z" fill="currentColor"/>
<path d="M135.893 11.3412C135.946 12.0293 136.241 13.0653 136.839 13.0653H137.551C137.657 13.0653 137.68 13.1194 137.68 13.1967V13.6992C137.68 13.7765 137.665 13.8307 137.513 13.8307C137.316 13.8307 136.824 13.7765 135.5 13.7765C133.955 13.7765 133.319 13.8307 133.153 13.8307C133.009 13.8307 132.986 13.8152 132.986 13.6606V13.1812C132.986 13.1271 133.001 13.073 133.092 13.073H133.834C134.417 13.073 134.637 12.2226 134.705 11.6273C134.871 10.3129 135.03 5.9293 135.03 5.59686L135.015 2.75948C135.015 1.90904 134.833 1.35239 134.016 1.35239H133.418C133.312 1.35239 133.289 1.29827 133.289 1.22096V0.702964C133.289 0.648846 133.304 0.594727 133.418 0.594727C133.599 0.594727 134.091 0.648845 136.234 0.648845C137.089 0.648845 137.649 0.594727 137.869 0.594727C138.051 0.594727 138.195 0.610189 138.308 0.911709C139.474 4.06607 140.776 7.14311 141.798 9.9341C141.995 9.57846 143.38 6.13032 143.486 5.86745C143.562 5.6819 145.379 1.24415 145.47 0.873052C145.523 0.672039 145.757 0.648845 146.302 0.648845C149.133 0.648845 149.754 0.594727 149.951 0.594727C150.042 0.594727 150.057 0.648845 150.057 0.764815V1.19003C150.057 1.29827 150.042 1.36012 149.913 1.36012H149.111C148.694 1.36012 148.641 1.69257 148.641 2.08686C148.641 2.36519 148.657 6.92664 148.679 7.32093C148.679 7.69203 148.732 11.7587 148.732 12.0911C148.732 12.7947 148.899 13.0962 149.149 13.0962H150.019C150.125 13.0962 150.148 13.1503 150.148 13.2276V13.6915C150.148 13.7997 150.133 13.8616 149.981 13.8616C149.762 13.8616 149.436 13.8075 147.294 13.8075C145.439 13.8075 144.735 13.8616 144.493 13.8616C144.364 13.8616 144.349 13.8075 144.349 13.6915V13.2276C144.349 13.1348 144.364 13.0962 144.493 13.0962H145.507C145.818 13.0962 145.977 12.988 146.015 12.4622C146.03 12.238 146.09 8.85946 146.09 7.5606V1.87039H145.984C145.803 2.18737 143.766 7.23589 143.441 7.99355C143.062 8.84399 141.442 12.9648 141.351 13.1348C141.26 13.2817 141.132 13.5601 140.912 13.5601C140.784 13.5601 140.678 13.4286 140.587 13.2276C140.534 13.0962 138.134 7.34413 138.005 7.01168C137.68 6.16124 136.007 2.00182 135.863 1.77761C135.787 2.04047 135.757 6.73336 135.757 6.95756C135.757 7.18177 135.772 9.70216 135.886 11.3335L135.893 11.3412Z" fill="currentColor"/>
<path d="M155.243 8.68197C155.099 9.06854 154.206 11.6121 154.206 12.2074C154.206 12.6172 154.372 13.0579 154.917 13.0579H155.553C155.735 13.0579 155.75 13.1352 155.75 13.2048V13.6145C155.75 13.7614 155.735 13.8155 155.583 13.8155C155.349 13.8155 154.599 13.7614 153.116 13.7614C151.791 13.7614 151.389 13.8155 151.132 13.8155C151.026 13.8155 151.003 13.7073 151.003 13.5759V13.2202C151.003 13.112 151.019 13.0501 151.132 13.0501H151.601C152.041 13.0501 152.472 12.7873 152.835 12.2306C153.093 11.8441 154.38 8.61239 154.978 6.98109C155.122 6.60999 156.598 2.62066 156.757 2.11812C156.81 1.93257 156.901 1.6929 156.772 1.48416C156.719 1.40685 156.643 1.31407 156.643 1.24449C156.643 1.19037 156.681 1.11306 156.825 1.0744C157.408 0.942971 158.589 0.463633 158.861 0.14665C158.952 0.0538752 159.005 -0.0234375 159.096 -0.0234375C159.202 -0.0234375 159.24 0.0848003 159.293 0.293545C159.641 1.46097 161.057 5.62039 161.397 6.80328C161.814 8.24902 162.995 11.7049 163.252 12.1997C163.562 12.8105 164.032 13.0347 164.304 13.0347H164.925C165.031 13.0347 165.054 13.112 165.054 13.2048V13.5604C165.054 13.6686 165.039 13.8001 164.887 13.8001C164.539 13.8001 164.16 13.746 161.836 13.746C160.33 13.746 159.694 13.8001 159.331 13.8001C159.149 13.8001 159.134 13.6918 159.134 13.5604V13.2048C159.134 13.112 159.149 13.0347 159.24 13.0347H159.747C160.239 13.0347 160.398 12.8491 160.292 12.3698C160.126 11.7049 159.422 9.32367 159.202 8.65878H155.22L155.243 8.68197ZM159.058 7.93977L157.695 3.02268C157.62 2.74436 157.59 2.61293 157.499 2.61293C157.393 2.61293 157.332 2.69024 157.279 2.8526C157.188 3.09227 155.629 7.4759 155.477 7.93977H159.058Z" fill="currentColor"/>
<path d="M168.036 5.327C168.036 3.95083 168.036 2.76795 168.021 2.26541C168.006 1.65464 167.764 1.33766 167.514 1.33766H166.787C166.696 1.33766 166.681 1.28354 166.681 1.20623V0.703697C166.681 0.610922 166.696 0.572266 166.787 0.572266C166.954 0.572266 167.514 0.626385 169.497 0.626385C170.512 0.626385 172.117 0.572266 172.859 0.572266C174.274 0.572266 175.326 1.09026 176.076 1.79381C176.727 2.40458 177.113 3.13132 177.113 3.8194C177.113 6.17744 175.387 7.23662 173.79 7.38352V7.51495C174.35 7.7005 174.645 8.05614 174.986 8.49682C175.22 8.79061 176.22 10.4451 176.364 10.6693C176.47 10.8394 177.454 12.2465 177.817 12.6717C178.037 12.9114 178.726 13.0583 179.142 13.0583C179.271 13.0583 179.286 13.1356 179.286 13.2052V13.6536C179.286 13.7618 179.271 13.8237 179.142 13.8237C178.998 13.8237 178.521 13.7695 177.128 13.7695C176.598 13.7695 175.932 13.8082 175.402 13.8237C174.857 13.3984 173.729 11.2414 173.419 10.6152C172.798 9.35499 172.056 7.97882 171.186 7.97882H170.565V8.92204C170.565 10.0199 170.618 12.0919 170.656 12.3393C170.693 12.7258 170.837 13.066 171.11 13.066H171.852C171.98 13.066 171.996 13.1201 171.996 13.2129V13.6613C171.996 13.7927 171.98 13.8314 171.708 13.8314C171.693 13.8314 171.239 13.7773 169.331 13.7773C167.423 13.7773 166.984 13.8314 166.787 13.8314C166.643 13.8314 166.643 13.7773 166.643 13.6458V13.2206C166.643 13.1279 166.643 13.0737 166.734 13.0737H167.279C167.681 13.0737 168.006 12.9423 168.006 12.4784C168.044 10.6384 168.044 8.89884 168.044 7.13612V5.33473L168.036 5.327ZM170.58 7.3294C170.928 7.34486 171.14 7.34486 171.307 7.34486C173.706 7.34486 174.267 5.01002 174.267 4.13638C174.267 3.26275 173.979 2.46643 173.578 2.05667C172.927 1.46136 172.109 1.23715 171.564 1.23715C171.254 1.23715 171.019 1.27581 170.875 1.40724C170.769 1.48456 170.709 1.68557 170.678 1.90978L170.588 7.3294H170.58Z" fill="currentColor"/>
<path d="M184.842 6.66451C185.675 6.66451 186.477 6.61039 186.697 6.55627C187.007 6.47896 187.257 6.3166 187.53 5.98416C187.727 5.70583 187.946 5.18784 187.946 4.8322C187.946 4.70077 187.999 4.66211 188.09 4.66211L188.582 4.71623C188.673 4.73169 188.748 4.75488 188.726 4.86312C188.673 5.1801 188.673 6.14651 188.673 6.79594C188.673 7.63092 188.748 8.52001 188.779 8.91431C188.794 9.02255 188.726 9.04574 188.635 9.0612L188.196 9.15398C188.12 9.16944 188.09 9.13851 188.052 9.00708C187.976 8.71329 187.795 8.28034 187.689 8.06387C187.492 7.70823 187.053 7.46856 186.689 7.41444C186.197 7.33713 185.637 7.3062 184.835 7.3062V8.41951C184.835 9.42457 184.926 11.2182 184.926 11.5584C184.926 12.5248 185.122 12.8573 185.365 12.9655C185.637 13.0737 185.985 13.1356 186.894 13.1356C187.204 13.1356 187.969 13.1201 188.347 13.0815C188.711 13.0428 189.256 12.8573 189.725 12.4707C190.194 12.0841 191.216 10.9322 191.58 10.4838C191.655 10.4064 191.708 10.391 191.761 10.4296L192.072 10.6152C192.148 10.6538 192.163 10.708 192.148 10.7621L191.33 13.5608C191.277 13.7309 191.148 13.8391 190.929 13.8391C190.838 13.8391 190.437 13.8237 189.278 13.8005C188.097 13.8005 186.175 13.785 183.025 13.785C182.352 13.785 181.844 13.8005 181.481 13.8005C181.103 13.8159 180.86 13.8391 180.701 13.8391C180.573 13.8391 180.535 13.785 180.535 13.6381V13.2516C180.535 13.1433 180.588 13.0815 180.716 13.0815H181.262C182.094 13.0815 182.17 12.95 182.17 12.3006V6.0692C182.17 4.53068 182.132 2.24995 182.117 2.0644C182.041 1.46909 181.86 1.33766 181.375 1.33766H180.663C180.588 1.33766 180.573 1.28354 180.573 1.15211V0.703697C180.573 0.649578 180.588 0.572266 180.701 0.572266C181.103 0.572266 181.738 0.626385 183.389 0.626385L189.763 0.610922C190.051 0.610922 190.399 0.572266 190.49 0.572266C190.58 0.572266 190.618 0.610922 190.633 0.665041C190.709 0.927904 191.307 3.46376 191.375 3.64931C191.413 3.74209 191.413 3.78074 191.322 3.83486L191.035 3.98176C190.959 4.02041 190.868 3.99722 190.815 3.90444C190.724 3.75755 189.089 2.08759 188.673 1.82473C188.294 1.58506 187.78 1.34539 187.295 1.3222L184.895 1.24489L184.842 6.64131V6.66451Z" fill="currentColor"/>
<path d="M197.992 6.64131H198.302C198.446 6.64131 198.65 6.54854 198.809 6.40164C199.135 6.13878 202.08 2.335 202.314 2.02574C202.64 1.57733 202.314 1.29901 201.951 1.29901H201.641C201.565 1.29901 201.55 1.26035 201.55 1.16757V0.703697C201.55 0.610922 201.588 0.572266 201.656 0.572266C201.875 0.572266 202.617 0.626385 204.055 0.626385C204.949 0.626385 205.585 0.572266 205.797 0.572266C205.887 0.572266 205.925 0.610922 205.925 0.703697V1.20623C205.925 1.29901 205.872 1.33766 205.781 1.33766H205.494C205.236 1.33766 204.805 1.43044 204.442 1.65464C203.442 2.26541 201.08 5.04867 200.46 5.90684C201.625 7.40671 204.585 11.6589 205.38 12.6021C205.728 13.0119 206.145 13.066 206.364 13.066H206.584C206.675 13.066 206.713 13.1201 206.713 13.1974V13.7C206.713 13.7927 206.675 13.8314 206.569 13.8314C206.387 13.8314 205.789 13.7773 203.972 13.7773C202.466 13.7773 201.754 13.8314 201.504 13.8314C201.429 13.8314 201.398 13.7927 201.398 13.6845V13.2052C201.398 13.1279 201.436 13.0969 201.504 13.0969H201.777C202.087 13.0969 202.102 12.7799 202.034 12.6176C201.868 12.2465 199.052 7.97882 198.749 7.62319C198.643 7.49175 198.461 7.36032 198.257 7.36032H197.999V8.75195C197.999 9.6797 198.037 12.4088 198.052 12.664C198.067 12.9036 198.234 13.0737 198.469 13.0737H199.029C199.12 13.0737 199.173 13.1124 199.173 13.182V13.7C199.173 13.7773 199.158 13.8314 199.067 13.8314C198.847 13.8314 198.302 13.7773 196.614 13.7773C194.926 13.7773 194.358 13.8314 194.199 13.8314C194.108 13.8314 194.07 13.7927 194.07 13.7V13.182C194.07 13.0892 194.123 13.0737 194.199 13.0737H194.759C195.085 13.0737 195.213 12.9268 195.251 12.7413C195.266 12.5712 195.304 9.21583 195.304 6.9351V5.86046C195.304 5.52801 195.251 2.00255 195.251 1.79381C195.251 1.58506 195.16 1.34539 194.706 1.34539H194.252C194.146 1.34539 194.108 1.30674 194.108 1.21396V0.695966C194.108 0.618653 194.146 0.587728 194.252 0.587728C194.472 0.587728 195.017 0.641847 196.652 0.641847C198.287 0.641847 198.832 0.587728 199.067 0.587728C199.173 0.587728 199.211 0.626385 199.211 0.734622V1.21396C199.211 1.30674 199.173 1.34539 199.082 1.34539H198.643C198.279 1.34539 198.045 1.47682 198.045 1.88658C198.045 2.16491 197.992 5.0564 197.992 5.96869V6.65678V6.64131Z" fill="currentColor"/>
<path d="M216.94 7.96344C216.94 8.28043 216.94 12.2852 216.993 13.0274H218.03C218.886 13.0274 219.703 13.0274 220.68 12.9347C221.664 12.8419 222.898 10.6153 223.17 9.92719C223.223 9.81895 223.276 9.7571 223.39 9.81895L223.753 9.96584C223.806 10.0045 223.806 10.02 223.791 10.1359C223.738 10.2674 223.011 13.3289 222.898 13.8315C222.428 13.7928 217.19 13.7774 215.517 13.7774C213.715 13.7774 213.064 13.8315 212.829 13.8315C212.701 13.8315 212.686 13.7928 212.686 13.6614V13.1975C212.686 13.1047 212.701 13.0661 212.814 13.0661H213.374C214.048 13.0661 214.154 12.8032 214.154 12.6022C214.154 12.2466 214.207 7.631 214.207 6.4945V5.45851C214.207 4.26789 214.169 2.30415 214.154 2.01036C214.116 1.53102 214.025 1.34547 213.609 1.34547H212.935C212.829 1.34547 212.807 1.2527 212.807 1.15992V0.71151C212.807 0.618735 212.822 0.580078 212.935 0.580078C213.132 0.580078 213.791 0.634197 215.441 0.634197C217.568 0.634197 218.333 0.580078 218.492 0.580078C218.636 0.580078 218.658 0.634197 218.658 0.765629V1.19085C218.658 1.28362 218.621 1.33774 218.477 1.33774H217.621C217.061 1.33774 216.985 1.52329 216.985 2.02583C216.985 2.2655 216.932 5.07195 216.932 6.3708V7.96344H216.94Z" fill="currentColor"/>
<path d="M229.408 6.66451C230.241 6.66451 231.043 6.61039 231.263 6.55627C231.573 6.47896 231.823 6.3166 232.096 5.98416C232.292 5.70583 232.512 5.18784 232.512 4.8322C232.512 4.70077 232.565 4.66211 232.656 4.66211L233.148 4.71623C233.239 4.73169 233.314 4.75488 233.292 4.86312C233.239 5.1801 233.239 6.14651 233.239 6.79594C233.239 7.63092 233.314 8.52001 233.345 8.91431C233.36 9.02255 233.292 9.04574 233.201 9.0612L232.762 9.15398C232.686 9.16944 232.656 9.13851 232.618 9.00708C232.542 8.71329 232.361 8.28034 232.255 8.06387C232.058 7.70823 231.619 7.46856 231.255 7.41444C230.763 7.33713 230.203 7.3062 229.401 7.3062V8.41951C229.401 9.42457 229.491 11.2182 229.491 11.5584C229.491 12.5248 229.688 12.8573 229.931 12.9655C230.203 13.0737 230.551 13.1356 231.46 13.1356C231.77 13.1356 232.535 13.1201 232.913 13.0815C233.277 13.0428 233.822 12.8573 234.291 12.4707C234.76 12.0841 235.782 10.9322 236.146 10.4838C236.221 10.4064 236.274 10.391 236.327 10.4296L236.638 10.6152C236.713 10.6538 236.729 10.708 236.713 10.7621L235.896 13.5608C235.843 13.7309 235.714 13.8391 235.495 13.8391C235.404 13.8391 235.003 13.8237 233.844 13.8005C232.663 13.8005 230.741 13.785 227.591 13.785C226.918 13.785 226.41 13.8005 226.047 13.8005C225.668 13.8159 225.426 13.8391 225.267 13.8391C225.139 13.8391 225.101 13.785 225.101 13.6381V13.2516C225.101 13.1433 225.154 13.0815 225.282 13.0815H225.827C226.66 13.0815 226.736 12.95 226.736 12.3006V6.0692C226.736 4.53068 226.698 2.24995 226.683 2.0644C226.607 1.46909 226.425 1.33766 225.941 1.33766H225.229C225.154 1.33766 225.139 1.28354 225.139 1.15211V0.703697C225.139 0.649578 225.154 0.572266 225.267 0.572266C225.668 0.572266 226.304 0.626385 227.955 0.626385L234.329 0.610922C234.616 0.610922 234.965 0.572266 235.056 0.572266C235.146 0.572266 235.184 0.610922 235.199 0.665041C235.275 0.927904 235.873 3.46376 235.941 3.64931C235.979 3.74209 235.979 3.78074 235.888 3.83486L235.601 3.98176C235.525 4.02041 235.434 3.99722 235.381 3.90444C235.29 3.75755 233.655 2.08759 233.239 1.82473C232.86 1.58506 232.345 1.34539 231.861 1.3222L229.461 1.24489L229.408 6.64131V6.66451Z" fill="currentColor"/>
<path d="M251.369 11.9678C251.369 12.2307 251.445 12.4163 251.445 12.5631C251.445 12.71 251.339 12.7874 251.157 12.8569C249.689 13.6146 248.144 14.0476 245.836 14.0476C243.943 14.0476 241.823 13.4368 240.567 11.9292C239.461 10.6458 238.894 9.06861 238.894 6.82654C238.894 5.14113 239.673 3.33974 240.998 2.17232C242.323 0.981702 243.958 0.355469 246.138 0.355469C247.97 0.355469 249.333 0.873464 249.939 1.26776C250.158 1.39919 250.287 1.36053 250.393 1.21364L250.575 0.919852C250.665 0.78842 250.703 0.734301 250.809 0.734301C251.006 0.734301 251.067 0.865733 251.067 1.06675L251.339 4.88599C251.354 5.1102 251.339 5.20298 251.263 5.21844L250.756 5.32668C250.65 5.34214 250.59 5.31121 250.537 5.14113C250.249 4.22884 249.666 3.04595 248.886 2.31921C248.175 1.63113 247.251 1.16725 246.017 1.16725C245.033 1.16725 244.125 1.48423 243.277 2.55888C242.444 3.57941 241.823 5.11793 241.823 6.78789C241.823 8.97584 242.421 10.8855 243.406 11.8905C244.261 12.7642 244.95 13.1507 246.184 13.1507C247.13 13.1507 247.637 13.0734 248.235 12.7796C248.614 12.5941 248.652 11.9988 248.652 11.0324V9.69485C248.652 9.02996 248.47 8.84441 248.016 8.84441H247.251C247.145 8.84441 247.123 8.76709 247.123 8.67432V8.21044C247.123 8.13313 247.138 8.07901 247.251 8.07901C247.418 8.07901 248.303 8.13313 249.939 8.13313C251.574 8.13313 252.285 8.07901 252.429 8.07901C252.573 8.07901 252.596 8.13313 252.596 8.2259V8.68978C252.596 8.79802 252.581 8.83667 252.467 8.83667H251.937C251.612 8.83667 251.377 8.96811 251.377 9.50156V11.9524L251.369 11.9678Z" fill="currentColor"/>
<path d="M257.675 8.68197C257.532 9.06854 256.638 11.6121 256.638 12.2074C256.638 12.6172 256.805 13.0579 257.35 13.0579H257.986C258.168 13.0579 258.183 13.1352 258.183 13.2048V13.6145C258.183 13.7614 258.168 13.8155 258.016 13.8155C257.781 13.8155 257.032 13.7614 255.548 13.7614C254.223 13.7614 253.822 13.8155 253.565 13.8155C253.459 13.8155 253.436 13.7073 253.436 13.5759V13.2202C253.436 13.112 253.451 13.0501 253.565 13.0501H254.034C254.473 13.0501 254.905 12.7873 255.268 12.2306C255.526 11.8441 256.812 8.61239 257.411 6.98109C257.554 6.60999 259.031 2.62066 259.19 2.11812C259.243 1.93257 259.333 1.6929 259.205 1.48416C259.152 1.40685 259.076 1.31407 259.076 1.24449C259.076 1.19037 259.114 1.11306 259.258 1.0744C259.841 0.942971 261.022 0.463633 261.294 0.14665C261.385 0.0538752 261.438 -0.0234375 261.529 -0.0234375C261.635 -0.0234375 261.673 0.0848003 261.726 0.293545C262.074 1.46097 263.489 5.62039 263.83 6.80328C264.246 8.24902 265.427 11.7049 265.685 12.1997C265.995 12.8105 266.465 13.0347 266.737 13.0347H267.358C267.464 13.0347 267.486 13.112 267.486 13.2048V13.5604C267.486 13.6686 267.471 13.8001 267.32 13.8001C266.972 13.8001 266.593 13.746 264.269 13.746C262.763 13.746 262.127 13.8001 261.763 13.8001C261.582 13.8001 261.567 13.6918 261.567 13.5604V13.2048C261.567 13.112 261.582 13.0347 261.673 13.0347H262.18C262.672 13.0347 262.831 12.8491 262.725 12.3698C262.558 11.7049 261.854 9.32367 261.635 8.65878H257.653L257.675 8.68197ZM261.491 7.93977L260.128 3.02268C260.053 2.74436 260.022 2.61293 259.931 2.61293C259.825 2.61293 259.765 2.69024 259.712 2.8526C259.621 3.09227 258.062 7.4759 257.91 7.93977H261.491Z" fill="currentColor"/>
<path d="M273.141 7.96344C273.141 8.28043 273.141 12.2852 273.194 13.0274H274.232C275.087 13.0274 275.905 13.0274 276.881 12.9347C277.865 12.8419 279.099 10.6153 279.372 9.92719C279.425 9.81895 279.478 9.7571 279.591 9.81895L279.955 9.96584C280.008 10.0045 280.008 10.02 279.992 10.1359C279.939 10.2674 279.213 13.3289 279.099 13.8315C278.63 13.7928 273.391 13.7774 271.718 13.7774C269.917 13.7774 269.265 13.8315 269.031 13.8315C268.902 13.8315 268.887 13.7928 268.887 13.6614V13.1975C268.887 13.1047 268.902 13.0661 269.016 13.0661H269.576C270.25 13.0661 270.356 12.8032 270.356 12.6022C270.356 12.2466 270.409 7.631 270.409 6.4945V5.45851C270.409 4.26789 270.371 2.30415 270.356 2.01036C270.318 1.53102 270.227 1.34547 269.811 1.34547H269.137C269.031 1.34547 269.008 1.2527 269.008 1.15992V0.71151C269.008 0.618735 269.023 0.580078 269.137 0.580078C269.334 0.580078 269.992 0.634197 271.643 0.634197C273.77 0.634197 274.534 0.580078 274.693 0.580078C274.837 0.580078 274.86 0.634197 274.86 0.765629V1.19085C274.86 1.28362 274.822 1.33774 274.678 1.33774H273.823C273.263 1.33774 273.187 1.52329 273.187 2.02583C273.187 2.2655 273.134 5.07195 273.134 6.3708V7.96344H273.141Z" fill="currentColor"/>
<path d="M66.4212 0.564453H65.1418V28.7604H66.4212V0.564453Z" fill="currentColor"/>
</g>
<defs>
<clipPath id="clip0_1068_12022">
<rect width="280" height="29" fill="currentColor"/>
</clipPath>
</defs>
</svg>
