<svg width="264" height="27" viewBox="0 0 264 27" fill="none" xmlns="http://www.w3.org/2000/svg">
<g clip-path="url(#clip0_1092_6283)">
<path d="M74.6635 21.8533C74.6635 21.6445 74.6279 19.3987 74.6279 19.3051C74.6279 19.1756 74.571 19.0316 74.2866 19.0316H73.8884C73.8173 19.0316 73.796 19.01 73.796 18.9524V18.6501C73.796 18.6069 73.8173 18.5781 73.8884 18.5781C74.0235 18.5781 74.3648 18.6141 75.2181 18.6141C75.9789 18.6141 76.3558 18.5781 76.5051 18.5781C76.5762 18.5781 76.5975 18.5997 76.5975 18.6501V18.9524C76.5975 19.01 76.5762 19.0316 76.5193 19.0316H76.0429C75.8154 19.0316 75.7229 19.1108 75.7229 19.3915C75.7229 19.5643 75.6874 21.3638 75.6874 21.9252V22.5011H75.8936C76.0785 22.5011 76.1993 22.4579 76.3629 22.3427C76.6118 22.1556 78.7165 19.4419 78.8232 19.2907C78.9227 19.1324 78.8658 19.0172 78.7236 19.0172H78.5672C78.5245 19.0172 78.5103 18.9956 78.5103 18.938V18.6717C78.5103 18.6141 78.5316 18.5925 78.5814 18.5925C78.7165 18.5925 79.1858 18.6285 79.7049 18.6285C80.032 18.6285 80.4302 18.5925 80.5724 18.5925C80.6293 18.5925 80.6506 18.6141 80.6506 18.6501V18.9596C80.6506 19.0172 80.615 19.0388 80.5581 19.0388H80.3164C80.16 19.0388 79.8969 19.1108 79.6907 19.2547C79.2711 19.5643 77.529 21.6085 77.0384 22.2491L80.0888 26.0713C80.2808 26.3161 80.615 26.3593 80.8852 26.3593H81.2834C81.3403 26.3593 81.3616 26.3952 81.3616 26.4384V26.7264C81.3616 26.7839 81.3403 26.8055 81.2692 26.8055C81.1554 26.8055 80.7217 26.7695 79.8684 26.7695C78.9227 26.7695 78.4819 26.8055 78.3183 26.8055C78.2756 26.8055 78.2472 26.7839 78.2472 26.7336V26.4312C78.2472 26.388 78.2685 26.3593 78.3183 26.3593H78.489C78.7023 26.3593 78.7307 26.1649 78.6738 26.0497C78.5743 25.8194 76.5549 23.1201 76.4056 23.0049C76.2207 22.8538 76.0785 22.8322 75.9078 22.8322H75.6945V23.66C75.6945 24.2358 75.7158 25.9274 75.73 26.0929C75.7443 26.2441 75.8438 26.3449 75.9931 26.3449H76.4909C76.5478 26.3449 76.5833 26.3664 76.5833 26.4168V26.7192C76.5833 26.7623 76.5691 26.7983 76.5122 26.7983C76.3771 26.7983 76.0358 26.7623 75.2252 26.7623C74.3293 26.7623 73.9595 26.7983 73.86 26.7983C73.8031 26.7983 73.7817 26.7767 73.7817 26.7192V26.4168C73.7817 26.3593 73.8173 26.3449 73.86 26.3449H74.3293C74.5355 26.3449 74.6137 26.2513 74.635 26.1361C74.6492 26.0353 74.6706 23.9479 74.6706 22.5083V21.8389L74.6635 21.8533Z" fill="#99A4B3"/>
<path d="M87.2422 23.5666C87.1284 23.8545 86.5027 25.6036 86.4458 25.8484C86.4316 25.9275 86.4102 26.0427 86.4102 26.1003C86.4102 26.2586 86.5454 26.3522 86.7942 26.3522H87.3275C87.4057 26.3522 87.4413 26.3738 87.4413 26.4314V26.6977C87.4413 26.7769 87.4057 26.7985 87.3488 26.7985C87.1924 26.7985 86.7231 26.7625 86.0547 26.7625C85.2228 26.7625 84.9739 26.7985 84.8175 26.7985C84.7606 26.7985 84.7393 26.7769 84.7393 26.7049V26.4314C84.7393 26.3738 84.7819 26.3522 84.8317 26.3522H85.2299C85.5712 26.3522 85.7276 26.1939 85.8912 25.8196C85.9694 25.6324 86.8013 23.5018 87.1284 22.5588C87.2066 22.3285 88.131 19.8524 88.2306 19.5428C88.2661 19.4277 88.323 19.2765 88.2448 19.1541C88.2092 19.111 88.1666 19.0534 88.1666 19.003C88.1666 18.967 88.1879 18.9238 88.2661 18.9022C88.5861 18.8302 89.0838 18.4847 89.2118 18.3264C89.2687 18.2688 89.3043 18.2256 89.3612 18.2256C89.4323 18.2256 89.4536 18.2976 89.4891 18.4199C89.7025 19.1469 90.5913 21.7239 90.8117 22.4653C91.0748 23.365 91.8143 25.51 91.9707 25.8412C92.1627 26.2227 92.4614 26.3594 92.7458 26.3594H93.1227C93.1938 26.3594 93.2151 26.3954 93.2151 26.4386V26.7265C93.2151 26.7841 93.1795 26.8057 93.1013 26.8057C92.8951 26.8057 92.6605 26.7697 91.7361 26.7697C90.8117 26.7697 90.3922 26.8057 90.1291 26.8057C90.0722 26.8057 90.0367 26.7697 90.0367 26.7049V26.4386C90.0367 26.3666 90.0722 26.3594 90.1362 26.3594H90.4206C90.7406 26.3594 90.8402 26.2442 90.7619 25.9203C90.6695 25.5028 90.2073 24.0344 90.0438 23.5666H87.2422ZM89.9087 23.1491C89.8091 22.8036 88.8847 19.9243 88.8279 19.7516C88.7923 19.6724 88.771 19.5932 88.7354 19.5932C88.6928 19.5932 88.643 19.6724 88.6074 19.766C88.5505 19.9171 87.4697 22.8683 87.3915 23.1563H89.9087V23.1491Z" fill="#99A4B3"/>
<path d="M98.3703 20.1117C98.3703 19.4351 98.029 19.0536 97.6166 19.0392L97.1473 19.0248C97.0904 19.0248 97.0762 18.9816 97.0762 18.9456V18.6433C97.0762 18.6001 97.0904 18.5713 97.1473 18.5713C97.2042 18.5713 97.2966 18.5857 97.4672 18.5857C97.6379 18.6001 97.8868 18.6073 98.2779 18.6073C98.6689 18.6073 98.9036 18.5857 99.0387 18.5857C99.188 18.5857 99.2804 18.6289 99.3658 18.7368L101.755 21.868C101.883 22.0264 103.803 24.4161 104.08 24.7832H104.123V23.4156C104.123 22.3935 104.109 21.8248 104.087 21.249C104.073 20.8027 104.016 19.6726 103.952 19.471C103.86 19.1831 103.646 19.0248 103.326 19.0248H102.964C102.921 19.0248 102.893 19.0032 102.893 18.9456V18.6433C102.893 18.6001 102.914 18.5713 102.964 18.5713C103.12 18.5713 103.49 18.6073 104.215 18.6073C104.898 18.6073 105.168 18.5713 105.317 18.5713C105.396 18.5713 105.41 18.6073 105.41 18.6505V18.9384C105.41 18.9816 105.388 19.0176 105.339 19.0176H105.033C104.727 19.0176 104.613 19.2119 104.592 19.651C104.549 20.4212 104.549 21.5657 104.549 22.3143V26.6259C104.549 26.7843 104.535 26.8995 104.493 26.8995C104.357 26.8995 104.251 26.7627 104.222 26.7123L102.836 24.9416C102.039 23.9411 101.207 22.8757 101.136 22.811C101.008 22.6958 98.9178 20.0325 98.8467 19.9389H98.7756V22.4942C98.7756 23.5668 98.868 25.4455 98.8894 25.6758C98.932 26.1221 99.0031 26.3452 99.3089 26.3452H99.6502C99.7284 26.3452 99.7426 26.3812 99.7426 26.446V26.6979C99.7426 26.7699 99.7284 26.7915 99.6502 26.7915C99.5364 26.7915 98.8538 26.7555 98.5481 26.7555C98.3063 26.7555 97.5241 26.7915 97.4104 26.7915C97.3677 26.7915 97.3535 26.7699 97.3535 26.7123V26.41C97.3535 26.41 97.3677 26.338 97.4246 26.338H97.8086C98.1357 26.338 98.2636 26.2013 98.3205 25.6326C98.3419 25.4167 98.3632 24.0994 98.3632 22.048V20.0901L98.3703 20.1117Z" fill="#99A4B3"/>
<path d="M111.276 25.8842C110.458 25.0996 110.06 23.7608 110.06 22.6595C110.06 21.5582 110.401 20.4785 111.219 19.6075C111.802 18.9885 112.826 18.4414 114.063 18.4414C115.101 18.4414 115.955 18.8301 116.36 19.0748C116.509 19.1684 116.566 19.154 116.588 19.0748L116.68 18.7437C116.701 18.6717 116.723 18.6717 116.829 18.6717C116.936 18.6717 116.957 18.6933 116.957 18.8589C116.957 19.0748 117.185 20.7736 117.242 21.0975C117.256 21.1551 117.242 21.1983 117.199 21.2127L117.028 21.2559C116.972 21.2703 116.95 21.2559 116.915 21.1623C116.758 20.7808 116.502 20.2265 116.026 19.7371C115.549 19.2404 114.945 18.8517 114.042 18.8517C112.001 18.8517 111.184 20.6872 111.198 22.3644C111.198 23.0338 111.404 24.3366 112.293 25.3228C113.068 26.2009 113.715 26.2873 114.476 26.2873C115.763 26.2873 116.765 25.5747 117.284 24.8261C117.32 24.7685 117.341 24.7541 117.377 24.7901L117.526 24.9053C117.526 24.9053 117.583 24.9485 117.548 25.0061C116.865 26.0066 115.763 26.9423 114.156 26.9423C112.812 26.9423 111.959 26.5177 111.276 25.8842Z" fill="#99A4B3"/>
<path d="M124.331 22.3574C124.424 22.3574 125.64 22.3142 125.775 22.2854C126.102 22.2278 126.194 22.1342 126.301 21.7815C126.336 21.6664 126.379 21.436 126.393 21.2201C126.393 21.1625 126.429 21.1409 126.471 21.1409L126.756 21.1553C126.813 21.1553 126.834 21.1985 126.827 21.2489C126.791 21.4432 126.791 22.3862 126.791 22.5589C126.791 22.962 126.834 23.5163 126.863 23.7538C126.863 23.8114 126.841 23.833 126.791 23.8474L126.543 23.8834C126.486 23.8978 126.464 23.8618 126.45 23.7826C126.429 23.6314 126.358 23.3651 126.322 23.2427C126.251 22.998 126.13 22.8252 125.832 22.7965C125.298 22.7389 124.509 22.7389 124.331 22.7389V23.4515C124.331 24.0705 124.353 25.1934 124.353 25.4238C124.367 26.0212 124.651 26.2515 125 26.3235C125.227 26.3667 125.554 26.4027 125.839 26.4027C126.031 26.4027 126.599 26.3883 126.841 26.3667C127.033 26.3451 127.538 26.2155 127.83 25.9636C127.965 25.8484 128.605 25.0207 128.761 24.7543C128.797 24.6967 128.832 24.6536 128.896 24.6824L129.081 24.7831C129.138 24.8191 129.138 24.8551 129.102 24.9415L128.498 26.633C128.462 26.7338 128.384 26.8058 128.249 26.8058C128.192 26.8058 127.943 26.7914 127.261 26.7842C126.578 26.7842 125.476 26.7698 123.698 26.7698C123.279 26.7698 122.959 26.7842 122.731 26.7842C122.49 26.7986 122.347 26.8058 122.241 26.8058C122.17 26.8058 122.141 26.7842 122.141 26.7266V26.4171C122.141 26.3739 122.177 26.3595 122.255 26.3595H122.71C123.236 26.3595 123.279 26.2803 123.279 25.8556V21.9975C123.279 21.0401 123.257 19.6005 123.243 19.4853C123.201 19.1182 123.087 19.0391 122.66 19.0391H122.248C122.191 19.0391 122.155 19.0247 122.155 18.9599V18.6504C122.155 18.6504 122.177 18.5928 122.234 18.5928C122.482 18.5928 122.881 18.6288 123.634 18.6288H124.132C125.256 18.6288 126.386 18.6144 127.51 18.6144C127.694 18.6144 127.908 18.5928 127.965 18.5928C128.022 18.5928 128.043 18.6144 128.057 18.6504L128.64 20.5075C128.654 20.5507 128.654 20.5866 128.605 20.6082L128.434 20.7018C128.434 20.7018 128.356 20.6874 128.342 20.6658C128.32 20.6226 127.474 19.5285 127.204 19.3558C126.962 19.1974 126.649 19.0535 126.336 19.0463L124.31 19.0031V22.379L124.331 22.3574Z" fill="#99A4B3"/>
<path d="M134.414 21.6085C134.414 20.8743 134.393 19.6506 134.379 19.4419C134.357 19.1396 134.3 19.0244 133.959 19.0244H133.426C133.355 19.0244 133.347 18.9668 133.347 18.9092V18.6573C133.347 18.5997 133.362 18.5781 133.426 18.5781C133.554 18.5781 133.959 18.6141 134.905 18.6141C136.007 18.6141 136.49 18.5781 136.59 18.5781C136.682 18.5781 136.689 18.6141 136.689 18.6717V18.938C136.689 18.9956 136.668 19.0316 136.576 19.0316H135.893C135.538 19.0316 135.495 19.1468 135.495 19.4779C135.495 19.629 135.459 21.371 135.459 22.1772V23.1705C135.459 23.3648 135.459 25.8554 135.495 26.3305C135.744 26.3521 137.998 26.3736 138.353 26.3305C139.022 26.2297 139.704 24.8477 139.868 24.3942C139.889 24.351 139.911 24.3222 139.96 24.351L140.145 24.423C140.145 24.423 140.181 24.459 140.167 24.5237C140.131 24.6029 139.676 26.5032 139.612 26.8199C139.463 26.8055 138.574 26.7983 137.564 26.7983C136.554 26.7839 135.438 26.7839 134.819 26.7839C134.379 26.7839 134.044 26.7983 133.81 26.7983C133.582 26.8127 133.447 26.8199 133.369 26.8199C133.291 26.8199 133.276 26.7983 133.276 26.7408V26.4528C133.276 26.3952 133.291 26.3736 133.355 26.3736H133.902C134.322 26.3736 134.393 26.2153 134.393 26.0641C134.393 25.8482 134.428 22.9762 134.428 22.2707V21.6229L134.414 21.6085Z" fill="#99A4B3"/>
<path d="M146.36 23.5666C146.246 23.8545 145.62 25.6036 145.563 25.8484C145.549 25.9275 145.528 26.0427 145.528 26.1003C145.528 26.2586 145.663 26.3522 145.912 26.3522H146.445C146.523 26.3522 146.559 26.3738 146.559 26.4314V26.6977C146.559 26.7769 146.523 26.7985 146.467 26.7985C146.31 26.7985 145.841 26.7625 145.172 26.7625C144.34 26.7625 144.092 26.7985 143.935 26.7985C143.878 26.7985 143.857 26.7769 143.857 26.7049V26.4314C143.857 26.3738 143.9 26.3522 143.949 26.3522H144.348C144.689 26.3522 144.845 26.1939 145.009 25.8196C145.087 25.6324 145.919 23.5018 146.246 22.5588C146.324 22.3285 147.249 19.8524 147.348 19.5428C147.384 19.4277 147.441 19.2765 147.362 19.1541C147.327 19.111 147.284 19.0534 147.284 19.003C147.284 18.967 147.306 18.9238 147.384 18.9022C147.704 18.8302 148.202 18.4847 148.33 18.3264C148.386 18.2688 148.422 18.2256 148.479 18.2256C148.55 18.2256 148.571 18.2976 148.607 18.4199C148.82 19.1469 149.709 21.7239 149.929 22.4653C150.192 23.365 150.932 25.51 151.088 25.8412C151.28 26.2227 151.579 26.3594 151.863 26.3594H152.24C152.311 26.3594 152.333 26.3954 152.333 26.4386V26.7265C152.333 26.7841 152.297 26.8057 152.219 26.8057C152.013 26.8057 151.778 26.7697 150.854 26.7697C149.929 26.7697 149.51 26.8057 149.247 26.8057C149.19 26.8057 149.154 26.7697 149.154 26.7049V26.4386C149.154 26.3666 149.19 26.3594 149.254 26.3594H149.538C149.858 26.3594 149.958 26.2442 149.88 25.9203C149.787 25.5028 149.325 24.0344 149.161 23.5666H146.36ZM149.026 23.1491C148.927 22.8036 148.002 19.9243 147.946 19.7516C147.91 19.6724 147.889 19.5932 147.853 19.5932C147.81 19.5932 147.761 19.6724 147.725 19.766C147.668 19.9171 146.587 22.8683 146.509 23.1563H149.026V23.1491Z" fill="#99A4B3"/>
<path d="M157.53 21.5295C157.53 20.6801 157.53 19.9387 157.516 19.6076C157.502 19.2261 157.367 19.0317 157.082 19.0317H156.627C156.571 19.0317 156.556 18.9957 156.556 18.9526V18.6646C156.556 18.607 156.571 18.5854 156.627 18.5854C156.727 18.5854 157.082 18.6214 158.035 18.6214C158.675 18.6214 159.728 18.5854 159.934 18.5854C160.88 18.5854 161.633 18.8734 162.06 19.2909C162.437 19.658 162.65 20.1762 162.65 20.6009C162.65 22.0405 162.003 22.5804 160.545 22.9043V22.9259C160.816 23.0267 160.979 23.2354 161.072 23.365C161.207 23.5161 162.017 24.6894 162.11 24.8406C162.167 24.9557 162.892 26.0067 163.112 26.165C163.354 26.3378 163.61 26.3594 163.93 26.3594C164.008 26.3594 164.022 26.4026 164.022 26.453V26.7049C164.022 26.7769 164.008 26.8057 163.93 26.8057C163.838 26.8057 163.546 26.7697 163.041 26.7697C162.714 26.7697 162.287 26.7913 162.117 26.8057C161.989 26.6905 161.74 26.3018 161.64 26.1506C161.548 26.0139 160.936 24.9198 160.88 24.8262C160.837 24.747 160.289 23.9192 160.154 23.7537C159.856 23.3938 159.585 23.0842 158.924 23.0842C158.825 23.0842 158.711 23.0842 158.547 23.1202V23.7681C158.547 24.4447 158.561 25.7403 158.569 25.9131C158.59 26.1578 158.682 26.3594 158.853 26.3594H159.571C159.649 26.3594 159.664 26.3954 159.664 26.453V26.7049C159.664 26.7841 159.649 26.8057 159.536 26.8057C159.408 26.8057 159.123 26.7697 158.042 26.7697C156.962 26.7697 156.741 26.8057 156.62 26.8057C156.528 26.8057 156.528 26.7697 156.528 26.7121V26.4458C156.528 26.3882 156.528 26.3522 156.585 26.3522H157.054C157.303 26.3522 157.495 26.273 157.495 25.9635C157.516 24.8262 157.516 23.7393 157.516 22.6452V21.5295H157.53ZM158.554 22.6668C158.725 22.7028 158.853 22.7099 159.066 22.7099C161.136 22.7099 161.534 21.2703 161.534 20.7881C161.534 20.2554 161.292 19.7515 160.965 19.4708C160.524 19.1109 160.019 18.9382 159.073 18.9382C158.938 18.9382 158.789 18.9598 158.689 19.0317C158.611 19.0893 158.554 19.2189 158.554 19.3988V22.6596V22.6668Z" fill="#99A4B3"/>
<path d="M168.986 21.9468C168.986 21.6733 168.95 19.5931 168.943 19.4203C168.922 19.1468 168.808 19.0316 168.374 19.0316H167.713C167.656 19.0316 167.621 19.01 167.621 18.9596V18.6501C167.621 18.6069 167.656 18.5781 167.699 18.5781C167.834 18.5781 168.417 18.6141 169.476 18.6141C170.536 18.6141 170.856 18.5781 171.012 18.5781C171.069 18.5781 171.091 18.6141 171.091 18.6573V18.9452C171.091 19.0028 171.055 19.0244 170.998 19.0244H170.465C170.237 19.0244 170.067 19.118 170.067 19.3483C170.067 19.4635 170.031 22.0116 170.031 22.1484V23.0337C170.031 23.1489 170.067 25.8122 170.067 25.9346C170.067 26.2945 170.237 26.3521 170.6 26.3521H171.069C171.126 26.3521 171.162 26.3736 171.162 26.4312V26.7336C171.162 26.7767 171.126 26.8055 171.062 26.8055C170.927 26.8055 170.472 26.7695 169.476 26.7695C168.396 26.7695 167.905 26.8055 167.784 26.8055C167.727 26.8055 167.692 26.7839 167.692 26.7336V26.424C167.692 26.3808 167.727 26.3521 167.784 26.3521H168.424C168.652 26.3521 168.893 26.3161 168.936 26.0209C168.957 25.8482 168.993 23.3577 168.993 22.7458V21.9396L168.986 21.9468Z" fill="#99A4B3"/>
<path d="M177.739 23.5666C177.625 23.8545 176.999 25.6036 176.942 25.8484C176.928 25.9275 176.907 26.0427 176.907 26.1003C176.907 26.2586 177.042 26.3522 177.291 26.3522H177.824C177.902 26.3522 177.938 26.3738 177.938 26.4314V26.6977C177.938 26.7769 177.902 26.7985 177.845 26.7985C177.689 26.7985 177.22 26.7625 176.551 26.7625C175.719 26.7625 175.47 26.7985 175.314 26.7985C175.257 26.7985 175.236 26.7769 175.236 26.7049V26.4314C175.236 26.3738 175.278 26.3522 175.328 26.3522H175.726C176.068 26.3522 176.224 26.1939 176.388 25.8196C176.466 25.6324 177.298 23.5018 177.625 22.5588C177.703 22.3285 178.628 19.8524 178.727 19.5428C178.763 19.4277 178.82 19.2765 178.741 19.1541C178.706 19.111 178.663 19.0534 178.663 19.003C178.663 18.967 178.684 18.9238 178.763 18.9022C179.083 18.8302 179.58 18.4847 179.708 18.3264C179.765 18.2688 179.801 18.2256 179.858 18.2256C179.929 18.2256 179.95 18.2976 179.986 18.4199C180.199 19.1469 181.088 21.7239 181.308 22.4653C181.571 23.365 182.311 25.51 182.467 25.8412C182.659 26.2227 182.958 26.3594 183.242 26.3594H183.619C183.69 26.3594 183.712 26.3954 183.712 26.4386V26.7265C183.712 26.7841 183.676 26.8057 183.598 26.8057C183.392 26.8057 183.157 26.7697 182.233 26.7697C181.308 26.7697 180.889 26.8057 180.626 26.8057C180.569 26.8057 180.533 26.7697 180.533 26.7049V26.4386C180.533 26.3666 180.569 26.3594 180.633 26.3594H180.917C181.237 26.3594 181.337 26.2442 181.259 25.9203C181.166 25.5028 180.704 24.0344 180.54 23.5666H177.739ZM180.405 23.1491C180.306 22.8036 179.381 19.9243 179.324 19.7516C179.289 19.6724 179.268 19.5932 179.232 19.5932C179.189 19.5932 179.14 19.6724 179.104 19.766C179.047 19.9171 177.966 22.8683 177.888 23.1563H180.405V23.1491Z" fill="#99A4B3"/>
<path d="M196.404 23.7177C196.404 24.2575 196.418 25.8267 196.425 25.9851C196.447 26.237 196.56 26.3522 196.802 26.3522H197.527C197.606 26.3522 197.62 26.3882 197.62 26.4314V26.7049C197.62 26.7625 197.606 26.7985 197.52 26.7985C197.364 26.7985 197.008 26.7625 195.942 26.7625C194.939 26.7625 194.498 26.7985 194.37 26.7985C194.292 26.7985 194.278 26.7625 194.278 26.7193V26.4314C194.278 26.3738 194.292 26.3522 194.349 26.3522H194.84C195.224 26.3522 195.309 26.2946 195.337 25.9851C195.352 25.8699 195.38 24.0704 195.38 22.7387V21.4143C195.38 20.6513 195.366 19.3988 195.359 19.2837C195.337 19.0533 195.224 19.0317 194.918 19.0317H194.271C194.214 19.0317 194.2 19.0101 194.2 18.9382V18.6646C194.2 18.607 194.214 18.5854 194.271 18.5854C194.399 18.5854 194.804 18.6214 195.885 18.6214C196.091 18.6214 196.76 18.5854 197.136 18.5854C198.423 18.5854 199.028 18.715 199.675 19.1613C200.208 19.5284 200.542 20.1762 200.542 20.8313C200.542 22.2853 199.462 23.185 197.648 23.185C197.229 23.185 196.774 23.1706 196.411 23.1274V23.7249L196.404 23.7177ZM196.404 22.7028C196.632 22.7747 197.008 22.8035 197.449 22.8035C198.146 22.8035 198.758 22.422 199.056 22.0189C199.305 21.6878 199.355 21.2559 199.355 20.8528C199.355 19.3412 197.968 18.9382 197.293 18.9382C197.101 18.9382 196.632 18.9382 196.404 19.0173V22.6956V22.7028Z" fill="#99A4B3"/>
<path d="M206.074 21.5295C206.074 20.6801 206.074 19.9387 206.06 19.6076C206.046 19.2261 205.911 19.0317 205.626 19.0317H205.171C205.114 19.0317 205.1 18.9957 205.1 18.9526V18.6646C205.1 18.607 205.114 18.5854 205.171 18.5854C205.271 18.5854 205.626 18.6214 206.579 18.6214C207.219 18.6214 208.272 18.5854 208.478 18.5854C209.423 18.5854 210.177 18.8734 210.604 19.2909C210.981 19.658 211.194 20.1762 211.194 20.6009C211.194 22.0405 210.547 22.5804 209.089 22.9043V22.9259C209.359 23.0267 209.523 23.2354 209.615 23.365C209.751 23.5161 210.561 24.6894 210.654 24.8406C210.71 24.9557 211.436 26.0067 211.656 26.165C211.898 26.3378 212.154 26.3594 212.474 26.3594C212.552 26.3594 212.566 26.4026 212.566 26.453V26.7049C212.566 26.7769 212.552 26.8057 212.474 26.8057C212.381 26.8057 212.09 26.7697 211.585 26.7697C211.258 26.7697 210.831 26.7913 210.661 26.8057C210.533 26.6905 210.284 26.3018 210.184 26.1506C210.092 26.0139 209.48 24.9198 209.423 24.8262C209.381 24.747 208.833 23.9192 208.698 23.7537C208.4 23.3938 208.129 23.0842 207.468 23.0842C207.368 23.0842 207.255 23.0842 207.091 23.1202V23.7681C207.091 24.4447 207.105 25.7403 207.113 25.9131C207.134 26.1578 207.226 26.3594 207.397 26.3594H208.115C208.193 26.3594 208.208 26.3954 208.208 26.453V26.7049C208.208 26.7841 208.193 26.8057 208.08 26.8057C207.952 26.8057 207.667 26.7697 206.586 26.7697C205.506 26.7697 205.285 26.8057 205.164 26.8057C205.072 26.8057 205.072 26.7697 205.072 26.7121V26.4458C205.072 26.3882 205.072 26.3522 205.129 26.3522H205.598C205.847 26.3522 206.039 26.273 206.039 25.9635C206.06 24.8262 206.06 23.7393 206.06 22.6452V21.5295H206.074ZM207.098 22.6668C207.269 22.7028 207.397 22.7099 207.61 22.7099C209.679 22.7099 210.078 21.2703 210.078 20.7881C210.078 20.2554 209.836 19.7515 209.509 19.4708C209.068 19.1109 208.563 18.9382 207.617 18.9382C207.482 18.9382 207.333 18.9598 207.233 19.0317C207.155 19.0893 207.098 19.2189 207.098 19.3988V22.6596V22.6668Z" fill="#99A4B3"/>
<path d="M218.433 23.5666C218.319 23.8545 217.693 25.6036 217.636 25.8484C217.622 25.9275 217.601 26.0427 217.601 26.1003C217.601 26.2586 217.736 26.3522 217.985 26.3522H218.518C218.596 26.3522 218.632 26.3738 218.632 26.4314V26.6977C218.632 26.7769 218.596 26.7985 218.539 26.7985C218.383 26.7985 217.914 26.7625 217.245 26.7625C216.413 26.7625 216.164 26.7985 216.008 26.7985C215.951 26.7985 215.93 26.7769 215.93 26.7049V26.4314C215.93 26.3738 215.972 26.3522 216.022 26.3522H216.42C216.762 26.3522 216.918 26.1939 217.082 25.8196C217.16 25.6324 217.992 23.5018 218.319 22.5588C218.397 22.3285 219.321 19.8524 219.421 19.5428C219.457 19.4277 219.513 19.2765 219.435 19.1541C219.4 19.111 219.357 19.0534 219.357 19.003C219.357 18.967 219.378 18.9238 219.457 18.9022C219.777 18.8302 220.274 18.4847 220.402 18.3264C220.459 18.2688 220.495 18.2256 220.552 18.2256C220.623 18.2256 220.644 18.2976 220.68 18.4199C220.893 19.1469 221.782 21.7239 222.002 22.4653C222.265 23.365 223.005 25.51 223.161 25.8412C223.353 26.2227 223.652 26.3594 223.936 26.3594H224.313C224.384 26.3594 224.406 26.3954 224.406 26.4386V26.7265C224.406 26.7841 224.37 26.8057 224.292 26.8057C224.086 26.8057 223.851 26.7697 222.927 26.7697C222.002 26.7697 221.583 26.8057 221.32 26.8057C221.263 26.8057 221.227 26.7697 221.227 26.7049V26.4386C221.227 26.3666 221.263 26.3594 221.327 26.3594H221.611C221.931 26.3594 222.031 26.2442 221.952 25.9203C221.86 25.5028 221.398 24.0344 221.234 23.5666H218.433ZM221.099 23.1491C221 22.8036 220.075 19.9243 220.018 19.7516C219.983 19.6724 219.961 19.5932 219.926 19.5932C219.883 19.5932 219.833 19.6724 219.798 19.766C219.741 19.9171 218.66 22.8683 218.582 23.1563H221.099V23.1491Z" fill="#99A4B3"/>
<path d="M230.763 25.2725H230.784C230.827 25.0781 232.526 20.1546 232.569 19.6724C232.583 19.5788 232.498 19.3844 232.398 19.2477C232.299 19.1109 232.149 19.0317 231.943 19.0317H231.659C231.602 19.0317 231.587 19.0101 231.587 18.9382V18.6646C231.587 18.6214 231.602 18.5854 231.666 18.5854C231.765 18.5854 232.163 18.6214 233.052 18.6214C234.005 18.6214 234.439 18.5854 234.553 18.5854C234.624 18.5854 234.631 18.6214 234.631 18.6646V18.9526C234.631 18.9957 234.617 19.0317 234.553 19.0317H234.097C233.813 19.0317 233.714 19.2837 233.778 19.4924L235.555 25.2797H235.576C235.704 24.9126 237.354 20.0467 237.354 19.3916C237.354 19.2045 237.262 19.0317 236.956 19.0317H236.65C236.579 19.0317 236.572 18.9957 236.572 18.931V18.6646C236.572 18.6214 236.586 18.5854 236.664 18.5854C236.778 18.5854 237.176 18.6214 237.88 18.6214C238.52 18.6214 238.847 18.5854 238.94 18.5854C239.011 18.5854 239.018 18.607 239.018 18.6646V18.9526C239.018 18.9957 239.018 19.0317 238.94 19.0317H238.67C238.478 19.0317 238.314 19.1613 238.215 19.3412C238.122 19.4996 235.747 26.1506 235.52 26.7049C235.463 26.8344 235.406 27.0072 235.278 27.0072C235.143 27.0072 235.086 26.9136 235.029 26.7553L232.924 20.4282H232.903C232.803 20.7377 230.727 26.6617 230.663 26.7913C230.606 26.9064 230.535 27.0072 230.436 27.0072C230.343 27.0072 230.279 26.964 230.229 26.8201L227.691 19.4492C227.577 19.1253 227.421 19.0317 227.2 19.0317H226.816C226.759 19.0317 226.745 18.9885 226.745 18.9382V18.6646C226.745 18.607 226.759 18.5854 226.838 18.5854C226.93 18.5854 227.278 18.6214 228.053 18.6214C228.871 18.6214 229.34 18.5854 229.454 18.5854C229.532 18.5854 229.547 18.6214 229.547 18.6574V18.9454C229.547 19.0029 229.532 19.0389 229.454 19.0389H229.262C228.964 19.0389 228.864 19.1973 228.935 19.4564L230.77 25.2869L230.763 25.2725Z" fill="#99A4B3"/>
<path d="M243.995 20.1117C243.995 19.4351 243.654 19.0536 243.242 19.0392L242.772 19.0248C242.715 19.0248 242.701 18.9816 242.701 18.9456V18.6433C242.701 18.6001 242.715 18.5713 242.772 18.5713C242.829 18.5713 242.922 18.5857 243.092 18.5857C243.263 18.6001 243.512 18.6073 243.903 18.6073C244.294 18.6073 244.529 18.5857 244.664 18.5857C244.813 18.5857 244.905 18.6289 244.991 18.7368L247.38 21.868C247.508 22.0264 249.428 24.4161 249.705 24.7832H249.748V23.4156C249.748 22.3935 249.734 21.8248 249.712 21.249C249.698 20.8027 249.641 19.6726 249.577 19.471C249.485 19.1831 249.271 19.0248 248.951 19.0248H248.589C248.546 19.0248 248.518 19.0032 248.518 18.9456V18.6433C248.518 18.6001 248.539 18.5713 248.589 18.5713C248.745 18.5713 249.115 18.6073 249.84 18.6073C250.523 18.6073 250.793 18.5713 250.942 18.5713C251.021 18.5713 251.035 18.6073 251.035 18.6505V18.9384C251.035 18.9816 251.013 19.0176 250.964 19.0176H250.658C250.352 19.0176 250.238 19.2119 250.217 19.651C250.174 20.4212 250.174 21.5657 250.174 22.3143V26.6259C250.174 26.7843 250.16 26.8995 250.118 26.8995C249.982 26.8995 249.876 26.7627 249.847 26.7123L248.461 24.9416C247.664 23.9411 246.832 22.8757 246.761 22.811C246.633 22.6958 244.543 20.0325 244.472 19.9389H244.401V22.4942C244.401 23.5668 244.493 25.4455 244.514 25.6758C244.557 26.1221 244.628 26.3452 244.934 26.3452H245.275C245.353 26.3452 245.368 26.3812 245.368 26.446V26.6979C245.368 26.7699 245.353 26.7915 245.275 26.7915C245.161 26.7915 244.479 26.7555 244.173 26.7555C243.931 26.7555 243.149 26.7915 243.035 26.7915C242.993 26.7915 242.978 26.7699 242.978 26.7123V26.41C242.978 26.41 242.993 26.338 243.05 26.338H243.434C243.761 26.338 243.889 26.2013 243.946 25.6326C243.967 25.4167 243.988 24.0994 243.988 22.048V20.0901L243.995 20.1117Z" fill="#99A4B3"/>
<path d="M257.513 23.5666C257.399 23.8545 256.773 25.6036 256.716 25.8484C256.702 25.9275 256.681 26.0427 256.681 26.1003C256.681 26.2586 256.816 26.3522 257.065 26.3522H257.598C257.676 26.3522 257.712 26.3738 257.712 26.4314V26.6977C257.712 26.7769 257.676 26.7985 257.619 26.7985C257.463 26.7985 256.994 26.7625 256.325 26.7625C255.493 26.7625 255.244 26.7985 255.088 26.7985C255.031 26.7985 255.01 26.7769 255.01 26.7049V26.4314C255.01 26.3738 255.052 26.3522 255.102 26.3522H255.5C255.842 26.3522 255.998 26.1939 256.162 25.8196C256.24 25.6324 257.072 23.5018 257.399 22.5588C257.477 22.3285 258.402 19.8524 258.501 19.5428C258.537 19.4277 258.594 19.2765 258.515 19.1541C258.48 19.111 258.437 19.0534 258.437 19.003C258.437 18.967 258.458 18.9238 258.537 18.9022C258.857 18.8302 259.354 18.4847 259.482 18.3264C259.539 18.2688 259.575 18.2256 259.632 18.2256C259.703 18.2256 259.724 18.2976 259.76 18.4199C259.973 19.1469 260.862 21.7239 261.082 22.4653C261.345 23.365 262.085 25.51 262.241 25.8412C262.433 26.2227 262.732 26.3594 263.016 26.3594H263.393C263.464 26.3594 263.486 26.3954 263.486 26.4386V26.7265C263.486 26.7841 263.45 26.8057 263.372 26.8057C263.166 26.8057 262.931 26.7697 262.007 26.7697C261.082 26.7697 260.663 26.8057 260.4 26.8057C260.343 26.8057 260.307 26.7697 260.307 26.7049V26.4386C260.307 26.3666 260.343 26.3594 260.407 26.3594H260.691C261.011 26.3594 261.111 26.2442 261.032 25.9203C260.94 25.5028 260.478 24.0344 260.314 23.5666H257.513ZM260.179 23.1491C260.08 22.8036 259.155 19.9243 259.098 19.7516C259.063 19.6724 259.041 19.5932 259.006 19.5932C258.963 19.5932 258.913 19.6724 258.878 19.766C258.821 19.9171 257.74 22.8683 257.662 23.1563H260.179V23.1491Z" fill="#99A4B3"/>
<path d="M8.39277 12.5677H9.0114C9.30293 12.5677 9.70823 12.3806 10.0353 12.0855C10.6966 11.5672 16.6126 3.98044 17.089 3.3542C17.7503 2.46884 17.089 1.91459 16.3567 1.91459H15.738C15.5887 1.91459 15.5532 1.84261 15.5532 1.65546V0.726904C15.5532 0.539754 15.6243 0.467773 15.7736 0.467773C16.2144 0.467773 17.7077 0.575745 20.6017 0.575745C22.3936 0.575745 23.6735 0.467773 24.1143 0.467773C24.2992 0.467773 24.3703 0.539754 24.3703 0.726904V1.72744C24.3703 1.91459 24.2636 1.98657 24.0788 1.98657H23.4957C22.9837 1.98657 22.1091 2.17372 21.3767 2.6128C19.3644 3.83648 14.6146 9.3862 13.3702 11.0849C15.7096 14.0793 21.6683 22.5587 23.2753 24.4446C23.9721 25.258 24.8112 25.3731 25.252 25.3731H25.6929C25.8778 25.3731 25.9489 25.4811 25.9489 25.6323V26.6328C25.9489 26.8199 25.8778 26.8919 25.6573 26.8919C25.2947 26.8919 24.0859 26.784 20.431 26.784C17.3948 26.784 15.9727 26.8919 15.4607 26.8919C15.3114 26.8919 15.2403 26.8199 15.2403 26.5968V25.6323C15.2403 25.4811 15.3114 25.4091 15.4607 25.4091H16.0082C16.6269 25.4091 16.6695 24.7829 16.5202 24.4446C16.1931 23.7032 10.526 15.195 9.90733 14.4896C9.6869 14.2305 9.32426 13.9714 8.91896 13.9714H8.40699V16.7498C8.40699 18.5997 8.4781 24.0415 8.51365 24.5597C8.54921 25.042 8.87629 25.3731 9.35271 25.3731H10.4833C10.6682 25.3731 10.7748 25.4451 10.7748 25.5963V26.6328C10.7748 26.784 10.7393 26.8919 10.5544 26.8919C10.1135 26.8919 9.01851 26.784 5.61964 26.784C2.22077 26.784 1.09018 26.8919 0.755982 26.8919C0.571106 26.8919 0.5 26.8199 0.5 26.6328V25.5963C0.5 25.4091 0.606659 25.3731 0.755982 25.3731H1.88657C2.54785 25.3731 2.80384 25.078 2.87494 24.7037C2.9105 24.3726 2.9816 17.6712 2.9816 13.122V10.977C2.9816 10.3076 2.87494 3.28222 2.87494 2.87193C2.87494 2.46164 2.69007 1.98657 1.77991 1.98657H0.862641C0.642212 1.98657 0.571106 1.91459 0.571106 1.72744V0.690914C0.571106 0.539754 0.642212 0.467773 0.862641 0.467773C1.3035 0.467773 2.39853 0.575745 5.69074 0.575745C8.98295 0.575745 10.078 0.467773 10.5544 0.467773C10.7748 0.467773 10.8459 0.539754 10.8459 0.762895V1.72744C10.8459 1.91459 10.7748 1.98657 10.59 1.98657H9.71535C8.98295 1.98657 8.50654 2.2457 8.50654 3.05908C8.50654 3.61333 8.39988 9.3862 8.39988 11.2001V12.5677H8.39277Z" fill="#99A4B3"/>
<path d="M37.93 15.1949C37.93 15.8212 37.93 23.8182 38.0367 25.2938H40.1201C41.8409 25.2938 43.4834 25.2938 45.4602 25.1067C47.4369 24.9195 49.9185 20.4783 50.466 19.1107C50.5727 18.8875 50.6865 18.7796 50.9069 18.8875L51.6393 19.1827C51.7459 19.2546 51.7459 19.2906 51.7104 19.5138C51.6037 19.7729 50.1389 25.8769 49.9185 26.8774C48.9657 26.8054 38.442 26.7694 35.0787 26.7694C31.4594 26.7694 30.1439 26.8774 29.6675 26.8774C29.4115 26.8774 29.376 26.8054 29.376 26.5463V25.6177C29.376 25.4306 29.4115 25.3586 29.632 25.3586H30.7625C32.1136 25.3586 32.334 24.8403 32.334 24.4301C32.334 23.7246 32.4406 14.5111 32.4406 12.2581V10.1851C32.4406 7.81689 32.3695 3.89393 32.334 3.30369C32.2629 2.33915 32.078 1.97205 31.239 1.97205H29.8879C29.6675 1.97205 29.632 1.7849 29.632 1.60494V0.71958C29.632 0.53243 29.6675 0.460449 29.8879 0.460449C30.2932 0.460449 31.6087 0.56842 34.9294 0.56842C39.2028 0.56842 40.7387 0.460449 41.0729 0.460449C41.3645 0.460449 41.4 0.56842 41.4 0.827551V1.67692C41.4 1.86407 41.3289 1.97205 41.0374 1.97205H39.3166C38.186 1.97205 38.0367 2.33915 38.0367 3.33968C38.0367 3.82195 37.93 9.40766 37.93 11.999V15.1805V15.1949Z" fill="#99A4B3"/>
<path d="M77.4582 6.18321H77.7497C77.8848 6.18321 78.0768 6.09683 78.2261 5.96007C78.5319 5.71533 81.2979 2.17388 81.5184 1.88595C81.8241 1.46847 81.5184 1.20933 81.177 1.20933H80.8855C80.8144 1.20933 80.8002 1.17334 80.8002 1.08697V0.655082C80.8002 0.568705 80.8357 0.532715 80.8997 0.532715C81.1059 0.532715 81.8028 0.583101 83.1538 0.583101C83.9928 0.583101 84.5901 0.532715 84.7892 0.532715C84.8746 0.532715 84.9101 0.568705 84.9101 0.655082V1.12296C84.9101 1.20933 84.8603 1.24532 84.775 1.24532H84.5048C84.263 1.24532 83.8577 1.3317 83.5164 1.54045C82.5778 2.10909 80.3593 4.7004 79.7763 5.49939C80.8713 6.89582 83.6515 10.8548 84.3981 11.7329C84.7252 12.1144 85.1163 12.1648 85.3225 12.1648H85.5287C85.6141 12.1648 85.6496 12.2152 85.6496 12.2872V12.7551C85.6496 12.8414 85.6141 12.8774 85.5145 12.8774C85.3439 12.8774 84.7821 12.827 83.0756 12.827C81.6606 12.827 80.9922 12.8774 80.7575 12.8774C80.6864 12.8774 80.658 12.8414 80.658 12.7407V12.2944C80.658 12.2224 80.6935 12.1936 80.7575 12.1936H81.0135C81.305 12.1936 81.3193 11.8985 81.2553 11.7473C81.0988 11.4018 78.4537 7.42848 78.1693 7.09736C78.0697 6.975 77.8991 6.85263 77.7071 6.85263H77.4653V8.14828C77.4653 9.01205 77.5009 11.553 77.5151 11.7905C77.5293 12.0137 77.6857 12.172 77.9062 12.172H78.4323C78.5177 12.172 78.5674 12.208 78.5674 12.2728V12.7551C78.5674 12.827 78.5532 12.8774 78.4679 12.8774C78.2617 12.8774 77.7497 12.827 76.1641 12.827C74.5784 12.827 74.0451 12.8774 73.8958 12.8774C73.8105 12.8774 73.7749 12.8414 73.7749 12.7551V12.2728C73.7749 12.1864 73.8247 12.172 73.8958 12.172H74.422C74.7277 12.172 74.8486 12.0352 74.8842 11.8625C74.8984 11.7041 74.9339 8.58017 74.9339 6.45674V5.4562C74.9339 5.14668 74.8842 1.86436 74.8842 1.67001C74.8842 1.47566 74.7988 1.25252 74.3722 1.25252H73.9456C73.846 1.25252 73.8105 1.21653 73.8105 1.13016V0.647884C73.8105 0.575903 73.846 0.547111 73.9456 0.547111C74.1518 0.547111 74.6637 0.597498 76.1996 0.597498C77.7355 0.597498 78.2475 0.547111 78.4679 0.547111C78.5675 0.547111 78.603 0.583101 78.603 0.683875V1.13016C78.603 1.21653 78.5674 1.25252 78.4821 1.25252H78.0697C77.7284 1.25252 77.508 1.37489 77.508 1.75639C77.508 2.01552 77.4582 4.7076 77.4582 5.55697V6.1976V6.18321Z" fill="#99A4B3"/>
<path d="M89.5249 8.08355C89.3898 8.44346 88.5508 10.8116 88.5508 11.3659C88.5508 11.7474 88.7072 12.1577 89.2192 12.1577H89.8164C89.9871 12.1577 90.0013 12.2296 90.0013 12.2944V12.6759C90.0013 12.8127 89.9871 12.8631 89.8449 12.8631C89.6245 12.8631 88.9205 12.8127 87.5268 12.8127C86.2825 12.8127 85.9056 12.8631 85.6638 12.8631C85.5643 12.8631 85.543 12.7623 85.543 12.6399V12.3088C85.543 12.2081 85.5572 12.1505 85.6638 12.1505H86.1047C86.5171 12.1505 86.9224 11.9057 87.2637 11.3875C87.5055 11.0276 88.7143 8.01877 89.276 6.49998C89.4111 6.15447 90.7977 2.44026 90.947 1.97238C90.9968 1.79963 91.0821 1.57649 90.9613 1.38214C90.9115 1.31016 90.8404 1.22378 90.8404 1.159C90.8404 1.10861 90.8759 1.03663 91.011 1.00064C91.5585 0.878276 92.6678 0.431995 92.9238 0.136873C93.0091 0.0504964 93.0589 -0.0214844 93.1442 -0.0214844C93.2438 -0.0214844 93.2793 0.0792887 93.3291 0.273637C93.6562 1.36055 94.9859 5.23311 95.3058 6.33442C95.6969 7.68046 96.8062 10.898 97.0479 11.3587C97.3395 11.9273 97.7803 12.1361 98.0363 12.1361H98.6194C98.7189 12.1361 98.7403 12.2081 98.7403 12.2944V12.6255C98.7403 12.7263 98.726 12.8487 98.5838 12.8487C98.2567 12.8487 97.9012 12.7983 95.7183 12.7983C94.3032 12.7983 93.706 12.8487 93.3646 12.8487C93.194 12.8487 93.1798 12.7479 93.1798 12.6255V12.2944C93.1798 12.2081 93.194 12.1361 93.2793 12.1361H93.7557C94.2179 12.1361 94.3672 11.9633 94.2677 11.517C94.1112 10.898 93.45 8.68099 93.2438 8.06196H89.5036L89.5249 8.08355ZM93.1087 7.39254L91.8287 2.81456C91.7576 2.55543 91.7292 2.43306 91.6439 2.43306C91.5443 2.43306 91.4874 2.50504 91.4377 2.6562C91.3523 2.87934 89.8876 6.96065 89.7453 7.39254H93.1087Z" fill="#99A4B3"/>
<path d="M101.435 11.4881C100.17 10.3508 99.5723 8.36411 99.5723 6.87411C99.5723 5.09618 100.134 3.49101 101.329 2.19536C102.303 1.14444 103.718 0.331055 105.837 0.331055C107.387 0.331055 108.667 0.726949 109.264 1.05806C109.506 1.18043 109.591 1.15883 109.62 1.04366L109.755 0.61178C109.79 0.511007 109.826 0.511007 110.082 0.511007C110.338 0.511007 110.373 0.546997 110.373 0.784534C110.373 1.11565 110.679 4.05246 110.764 4.57072C110.779 4.69309 110.764 4.77947 110.679 4.79386L110.302 4.89464C110.217 4.93063 110.146 4.85865 110.096 4.70749C109.911 4.01647 109.449 3.13831 108.731 2.38971C107.998 1.6627 107.095 1.09405 105.794 1.09405C103.305 1.09405 102.246 3.39024 102.26 5.94556C102.26 7.03247 102.566 9.1559 103.782 10.4516C104.891 11.6104 105.865 11.7472 106.441 11.7472C108.389 11.7472 109.84 10.8475 110.466 9.8973C110.551 9.76054 110.636 9.68856 110.722 9.76054L111.013 10.0197C111.063 10.0557 111.084 10.1204 111.013 10.2284C110.025 11.6824 108.368 13.0789 105.965 13.0789C103.696 13.0789 102.502 12.4598 101.428 11.4881H101.435Z" fill="#99A4B3"/>
<path d="M117.157 1.20929C116.915 1.20929 116.645 1.22368 116.204 1.5404C115.848 1.78513 114.376 3.45509 114.021 3.92296C113.971 4.00934 113.886 4.05973 113.815 4.02374L113.523 3.86538C113.473 3.85098 113.452 3.7934 113.473 3.70702L114.547 0.633439C114.597 0.475081 114.703 0.446289 114.789 0.446289C114.91 0.446289 115.045 0.460685 115.18 0.482279C115.983 0.583053 118.387 0.583053 119.802 0.583053C120.84 0.583053 121.729 0.547062 122.376 0.532666C122.959 0.496676 123.499 0.482279 123.62 0.482279C123.89 0.482279 124.011 0.70542 123.862 0.899768C123.727 1.05813 116.246 11.6609 115.905 12.1288H120.015C120.491 12.1288 120.854 12.1288 121.281 11.9416C121.778 11.7185 123.449 9.94056 123.684 9.64544C123.755 9.57346 123.819 9.55906 123.904 9.59505L124.196 9.75341C124.246 9.7894 124.281 9.82539 124.232 9.91177C123.99 10.3077 123.172 12.4311 122.937 12.899C122.902 12.9853 122.802 13.0717 122.717 13.0717C122.646 13.0717 122.511 13.0573 122.29 13.0213C121.352 12.899 118.636 12.8342 117.1 12.8342H113.103C112.968 12.8342 112.776 12.8342 112.776 12.6974C112.776 12.5966 112.791 12.4527 112.862 12.3519C113.559 11.265 120.577 1.43243 120.698 1.22368H117.149L117.157 1.20929Z" fill="#99A4B3"/>
<path d="M128.143 10.5595C128.192 11.2002 128.47 12.1647 129.031 12.1647H129.7C129.799 12.1647 129.821 12.2151 129.821 12.2871V12.7549C129.821 12.8269 129.806 12.8773 129.664 12.8773C129.479 12.8773 129.017 12.8269 127.773 12.8269C126.322 12.8269 125.725 12.8773 125.569 12.8773C125.433 12.8773 125.412 12.8629 125.412 12.719V12.2727C125.412 12.2223 125.426 12.1719 125.512 12.1719H126.208C126.756 12.1719 126.962 11.3801 127.026 10.8259C127.183 9.60219 127.332 5.52087 127.332 5.21136L127.318 2.56966C127.318 1.77787 127.147 1.25961 126.379 1.25961H125.817C125.718 1.25961 125.697 1.20922 125.697 1.13724V0.654972C125.697 0.604586 125.711 0.554199 125.817 0.554199C125.988 0.554199 126.45 0.604586 128.463 0.604586C129.266 0.604586 129.792 0.554199 129.998 0.554199C130.169 0.554199 130.304 0.568595 130.411 0.849321C131.506 3.78614 132.729 6.65097 133.689 9.24948C133.874 8.91837 135.175 5.70803 135.275 5.46329C135.346 5.29054 137.052 1.15884 137.138 0.81333C137.187 0.62618 137.408 0.604586 137.92 0.604586C140.579 0.604586 141.162 0.554199 141.347 0.554199C141.432 0.554199 141.447 0.604586 141.447 0.712557V1.10845C141.447 1.20922 141.432 1.26681 141.311 1.26681H140.558C140.167 1.26681 140.117 1.57633 140.117 1.94343C140.117 2.20256 140.131 6.44943 140.152 6.81653C140.152 7.16204 140.202 10.9482 140.202 11.2577C140.202 11.9128 140.359 12.1935 140.593 12.1935H141.411C141.511 12.1935 141.532 12.2439 141.532 12.3159V12.7477C141.532 12.8485 141.518 12.9061 141.375 12.9061C141.169 12.9061 140.863 12.8557 138.851 12.8557C137.109 12.8557 136.448 12.9061 136.22 12.9061C136.099 12.9061 136.085 12.8557 136.085 12.7477V12.3159C136.085 12.2295 136.099 12.1935 136.22 12.1935H137.173C137.465 12.1935 137.614 12.0927 137.649 11.6033C137.664 11.3945 137.721 8.24895 137.721 7.03967V1.74188H137.621C137.45 2.037 135.538 6.73735 135.232 7.44276C134.876 8.23455 133.355 12.0711 133.269 12.2295C133.184 12.3663 133.063 12.6254 132.857 12.6254C132.736 12.6254 132.636 12.503 132.551 12.3159C132.501 12.1935 130.247 6.83812 130.126 6.52861C129.821 5.73682 128.249 1.86425 128.114 1.65551C128.043 1.90024 128.015 6.26948 128.015 6.47822C128.015 6.68696 128.029 9.03354 128.135 10.5523L128.143 10.5595Z" fill="#99A4B3"/>
<path d="M146.317 8.08355C146.182 8.44346 145.343 10.8116 145.343 11.3659C145.343 11.7474 145.5 12.1577 146.012 12.1577H146.609C146.78 12.1577 146.794 12.2296 146.794 12.2944V12.6759C146.794 12.8127 146.78 12.8631 146.637 12.8631C146.417 12.8631 145.713 12.8127 144.319 12.8127C143.075 12.8127 142.698 12.8631 142.456 12.8631C142.357 12.8631 142.335 12.7623 142.335 12.6399V12.3088C142.335 12.2081 142.35 12.1505 142.456 12.1505H142.897C143.31 12.1505 143.715 11.9057 144.056 11.3875C144.298 11.0276 145.507 8.01877 146.069 6.49998C146.204 6.15447 147.59 2.44026 147.74 1.97238C147.789 1.79963 147.875 1.57649 147.754 1.38214C147.704 1.31016 147.633 1.22378 147.633 1.159C147.633 1.10861 147.668 1.03663 147.804 1.00064C148.351 0.878276 149.46 0.431995 149.716 0.136873C149.802 0.0504964 149.851 -0.0214844 149.937 -0.0214844C150.036 -0.0214844 150.072 0.0792887 150.122 0.273637C150.449 1.36055 151.778 5.23311 152.098 6.33442C152.489 7.68046 153.599 10.898 153.84 11.3587C154.132 11.9273 154.573 12.1361 154.829 12.1361H155.412C155.511 12.1361 155.533 12.2081 155.533 12.2944V12.6255C155.533 12.7263 155.519 12.8487 155.376 12.8487C155.049 12.8487 154.694 12.7983 152.511 12.7983C151.096 12.7983 150.498 12.8487 150.157 12.8487C149.986 12.8487 149.972 12.7479 149.972 12.6255V12.2944C149.972 12.2081 149.986 12.1361 150.072 12.1361H150.548C151.01 12.1361 151.16 11.9633 151.06 11.517C150.904 10.898 150.242 8.68099 150.036 8.06196H146.296L146.317 8.08355ZM149.901 7.39254L148.621 2.81456C148.55 2.55543 148.522 2.43306 148.436 2.43306C148.337 2.43306 148.28 2.50504 148.23 2.6562C148.145 2.87934 146.68 6.96065 146.538 7.39254H149.901Z" fill="#99A4B3"/>
<path d="M158.334 4.95953C158.334 3.67828 158.334 2.57697 158.32 2.10909C158.306 1.54045 158.078 1.24532 157.844 1.24532H157.161C157.076 1.24532 157.061 1.19494 157.061 1.12296V0.655082C157.061 0.568705 157.076 0.532715 157.161 0.532715C157.317 0.532715 157.844 0.583101 159.707 0.583101C160.659 0.583101 162.167 0.532715 162.864 0.532715C164.193 0.532715 165.182 1.01499 165.886 1.67001C166.497 2.23866 166.86 2.91528 166.86 3.55591C166.86 5.75132 165.239 6.73746 163.738 6.87422V6.99659C164.264 7.16935 164.542 7.50046 164.862 7.91075C165.082 8.18428 166.021 9.72466 166.156 9.93341C166.255 10.0918 167.18 11.4018 167.521 11.7977C167.727 12.0209 168.374 12.1576 168.765 12.1576C168.886 12.1576 168.901 12.2296 168.901 12.2944V12.7119C168.901 12.8126 168.886 12.8702 168.765 12.8702C168.63 12.8702 168.182 12.8198 166.874 12.8198C166.376 12.8198 165.751 12.8558 165.253 12.8702C164.741 12.4743 163.681 10.4661 163.39 9.88302C162.807 8.70973 162.11 7.42848 161.292 7.42848H160.709V8.30664C160.709 9.32877 160.759 11.2579 160.794 11.4882C160.83 11.8481 160.965 12.1648 161.221 12.1648H161.918C162.039 12.1648 162.053 12.2152 162.053 12.3016V12.7191C162.053 12.8414 162.039 12.8774 161.783 12.8774C161.769 12.8774 161.342 12.827 159.55 12.827C157.758 12.827 157.346 12.8774 157.161 12.8774C157.026 12.8774 157.026 12.827 157.026 12.7047V12.3088C157.026 12.2224 157.026 12.172 157.111 12.172H157.623C158 12.172 158.306 12.0496 158.306 11.6178C158.341 9.90462 158.341 8.28505 158.341 6.64389V4.96673L158.334 4.95953ZM160.723 6.82384C161.05 6.83823 161.25 6.83823 161.406 6.83823C163.66 6.83823 164.186 4.66441 164.186 3.85103C164.186 3.03765 163.916 2.29624 163.539 1.91475C162.928 1.36049 162.16 1.15175 161.648 1.15175C161.356 1.15175 161.136 1.18774 161.001 1.31011C160.901 1.38209 160.844 1.56924 160.816 1.77798L160.73 6.82384H160.723Z" fill="#99A4B3"/>
<path d="M174.12 6.2048C174.902 6.2048 175.656 6.15442 175.862 6.10403C176.153 6.03205 176.388 5.88089 176.644 5.57137C176.829 5.31224 177.035 4.82997 177.035 4.49886C177.035 4.37649 177.085 4.3405 177.17 4.3405L177.632 4.39089C177.718 4.40528 177.789 4.42688 177.767 4.52765C177.718 4.82277 177.718 5.72253 177.718 6.32717C177.718 7.10456 177.789 7.93234 177.817 8.29944C177.831 8.40022 177.767 8.42181 177.682 8.43621L177.27 8.52258C177.199 8.53698 177.17 8.50819 177.135 8.38582C177.063 8.11229 176.893 7.7092 176.793 7.50766C176.608 7.17654 176.196 6.9534 175.855 6.90302C175.392 6.83104 174.866 6.80224 174.113 6.80224V7.83877C174.113 8.77452 174.198 10.4445 174.198 10.7612C174.198 11.6609 174.383 11.9705 174.61 12.0712C174.866 12.172 175.193 12.2296 176.047 12.2296C176.338 12.2296 177.056 12.2152 177.412 12.1792C177.753 12.1432 178.265 11.9705 178.706 11.6106C179.147 11.2507 180.107 10.1781 180.448 9.76066C180.519 9.68867 180.569 9.67428 180.619 9.71027L180.91 9.88302C180.981 9.91901 180.996 9.9694 180.981 10.0198L180.213 12.6255C180.164 12.7838 180.043 12.8846 179.837 12.8846C179.751 12.8846 179.374 12.8702 178.286 12.8486C177.177 12.8486 175.371 12.8342 172.413 12.8342C171.78 12.8342 171.304 12.8486 170.963 12.8486C170.607 12.863 170.379 12.8846 170.23 12.8846C170.109 12.8846 170.074 12.8342 170.074 12.6975V12.3376C170.074 12.2368 170.124 12.1792 170.244 12.1792H170.756C171.539 12.1792 171.61 12.0568 171.61 11.4522V5.65055C171.61 4.21813 171.574 2.0947 171.56 1.92194C171.489 1.36769 171.318 1.24532 170.863 1.24532H170.195C170.124 1.24532 170.109 1.19494 170.109 1.07257V0.655082C170.109 0.604696 170.124 0.532715 170.23 0.532715C170.607 0.532715 171.204 0.583101 172.754 0.583101L178.742 0.568705C179.012 0.568705 179.339 0.532715 179.424 0.532715C179.51 0.532715 179.545 0.568705 179.559 0.619092C179.63 0.863827 180.192 3.2248 180.256 3.39755C180.292 3.48393 180.292 3.51992 180.206 3.57031L179.936 3.70707C179.865 3.74306 179.78 3.72147 179.73 3.63509C179.645 3.49832 178.109 1.94354 177.718 1.6988C177.362 1.47566 176.879 1.25252 176.424 1.23093L174.169 1.15895L174.12 6.18321V6.2048Z" fill="#99A4B3"/>
<path d="M186.471 6.18321H186.762C186.898 6.18321 187.09 6.09683 187.239 5.96007C187.545 5.71533 190.311 2.17388 190.531 1.88595C190.837 1.46847 190.531 1.20933 190.19 1.20933H189.898C189.827 1.20933 189.813 1.17334 189.813 1.08697V0.655082C189.813 0.568705 189.848 0.532715 189.912 0.532715C190.119 0.532715 190.815 0.583101 192.166 0.583101C193.006 0.583101 193.603 0.532715 193.802 0.532715C193.887 0.532715 193.923 0.568705 193.923 0.655082V1.12296C193.923 1.20933 193.873 1.24532 193.788 1.24532H193.518C193.276 1.24532 192.87 1.3317 192.529 1.54045C191.591 2.10909 189.372 4.7004 188.789 5.49939C189.884 6.89582 192.664 10.8548 193.411 11.7329C193.738 12.1144 194.129 12.1648 194.335 12.1648H194.541C194.627 12.1648 194.662 12.2152 194.662 12.2872V12.7551C194.662 12.8414 194.627 12.8774 194.527 12.8774C194.357 12.8774 193.795 12.827 192.088 12.827C190.673 12.827 190.005 12.8774 189.77 12.8774C189.699 12.8774 189.671 12.8414 189.671 12.7407V12.2944C189.671 12.2224 189.706 12.1936 189.77 12.1936H190.026C190.318 12.1936 190.332 11.8985 190.268 11.7473C190.112 11.4018 187.466 7.42848 187.182 7.09736C187.082 6.975 186.912 6.85263 186.72 6.85263H186.478V8.14828C186.478 9.01205 186.514 11.553 186.528 11.7905C186.542 12.0137 186.698 12.172 186.919 12.172H187.445C187.53 12.172 187.58 12.208 187.58 12.2728V12.7551C187.58 12.827 187.566 12.8774 187.481 12.8774C187.274 12.8774 186.762 12.827 185.177 12.827C183.591 12.827 183.058 12.8774 182.908 12.8774C182.823 12.8774 182.788 12.8414 182.788 12.7551V12.2728C182.788 12.1864 182.837 12.172 182.908 12.172H183.435C183.74 12.172 183.861 12.0352 183.897 11.8625C183.911 11.7041 183.947 8.58017 183.947 6.45674V5.4562C183.947 5.14668 183.897 1.86436 183.897 1.67001C183.897 1.47566 183.812 1.25252 183.385 1.25252H182.958C182.859 1.25252 182.823 1.21653 182.823 1.13016V0.647884C182.823 0.575903 182.859 0.547111 182.958 0.547111C183.164 0.547111 183.676 0.597498 185.212 0.597498C186.748 0.597498 187.26 0.547111 187.481 0.547111C187.58 0.547111 187.616 0.583101 187.616 0.683875V1.13016C187.616 1.21653 187.58 1.25252 187.495 1.25252H187.082C186.741 1.25252 186.521 1.37489 186.521 1.75639C186.521 2.01552 186.471 4.7076 186.471 5.55697V6.1976V6.18321Z" fill="#99A4B3"/>
<path d="M204.269 7.41421C204.269 7.70933 204.269 11.4379 204.318 12.129H205.293C206.096 12.129 206.864 12.1289 207.781 12.0426C208.706 11.9562 209.865 9.88315 210.121 9.24252C210.17 9.14175 210.22 9.08416 210.327 9.14175L210.668 9.27851C210.718 9.3145 210.718 9.3289 210.704 9.43687C210.654 9.55923 209.971 12.4097 209.865 12.8775C209.424 12.8416 204.503 12.8272 202.932 12.8272C201.239 12.8272 200.628 12.8775 200.408 12.8775C200.287 12.8775 200.272 12.8416 200.272 12.7192V12.2873C200.272 12.2009 200.287 12.1649 200.393 12.1649H200.92C201.552 12.1649 201.652 11.9202 201.652 11.7331C201.652 11.4019 201.702 7.10469 201.702 6.04657V5.08203C201.702 3.97352 201.666 2.14521 201.652 1.87168C201.616 1.4254 201.531 1.25265 201.14 1.25265H200.507C200.408 1.25265 200.386 1.16627 200.386 1.0799V0.662406C200.386 0.576029 200.4 0.540039 200.507 0.540039C200.692 0.540039 201.311 0.590426 202.861 0.590426C204.859 0.590426 205.577 0.540039 205.726 0.540039C205.861 0.540039 205.883 0.590426 205.883 0.712793V1.10869C205.883 1.19506 205.847 1.24545 205.712 1.24545H204.909C204.382 1.24545 204.311 1.4182 204.311 1.88608C204.311 2.10922 204.262 4.72212 204.262 5.9314V7.41421H204.269Z" fill="#99A4B3"/>
<path d="M215.98 6.2048C216.762 6.2048 217.516 6.15442 217.722 6.10403C218.014 6.03205 218.248 5.88089 218.504 5.57137C218.689 5.31224 218.895 4.82997 218.895 4.49886C218.895 4.37649 218.945 4.3405 219.03 4.3405L219.493 4.39089C219.578 4.40528 219.649 4.42688 219.628 4.52765C219.578 4.82277 219.578 5.72253 219.578 6.32717C219.578 7.10456 219.649 7.93234 219.678 8.29944C219.692 8.40022 219.628 8.42181 219.542 8.43621L219.13 8.52258C219.059 8.53698 219.03 8.50819 218.995 8.38582C218.924 8.11229 218.753 7.7092 218.654 7.50766C218.469 7.17654 218.056 6.9534 217.715 6.90302C217.253 6.83104 216.727 6.80224 215.973 6.80224V7.83877C215.973 8.77452 216.058 10.4445 216.058 10.7612C216.058 11.6609 216.243 11.9705 216.471 12.0712C216.727 12.172 217.054 12.2296 217.907 12.2296C218.199 12.2296 218.917 12.2152 219.272 12.1792C219.614 12.1432 220.125 11.9705 220.566 11.6106C221.007 11.2507 221.967 10.1781 222.308 9.76066C222.38 9.68867 222.429 9.67428 222.479 9.71027L222.771 9.88302C222.842 9.91901 222.856 9.9694 222.842 10.0198L222.074 12.6255C222.024 12.7838 221.903 12.8846 221.697 12.8846C221.612 12.8846 221.235 12.8702 220.147 12.8486C219.038 12.8486 217.231 12.8342 214.273 12.8342C213.641 12.8342 213.164 12.8486 212.823 12.8486C212.467 12.863 212.24 12.8846 212.091 12.8846C211.97 12.8846 211.934 12.8342 211.934 12.6975V12.3376C211.934 12.2368 211.984 12.1792 212.105 12.1792H212.617C213.399 12.1792 213.47 12.0568 213.47 11.4522V5.65055C213.47 4.21813 213.434 2.0947 213.42 1.92194C213.349 1.36769 213.178 1.24532 212.723 1.24532H212.055C211.984 1.24532 211.97 1.19494 211.97 1.07257V0.655082C211.97 0.604696 211.984 0.532715 212.091 0.532715C212.467 0.532715 213.065 0.583101 214.615 0.583101L220.602 0.568705C220.872 0.568705 221.199 0.532715 221.285 0.532715C221.37 0.532715 221.405 0.568705 221.42 0.619092C221.491 0.863827 222.052 3.2248 222.116 3.39755C222.152 3.48393 222.152 3.51992 222.067 3.57031L221.796 3.70707C221.725 3.74306 221.64 3.72147 221.59 3.63509C221.505 3.49832 219.969 1.94354 219.578 1.6988C219.222 1.47566 218.739 1.25252 218.284 1.23093L216.03 1.15895L215.98 6.18321V6.2048Z" fill="#99A4B3"/>
<path d="M236.608 11.1426C236.608 11.3873 236.679 11.5601 236.679 11.6968C236.679 11.8336 236.579 11.9056 236.409 11.9704C235.029 12.6758 233.579 13.0789 231.41 13.0789C229.632 13.0789 227.641 12.5102 226.461 11.1066C225.423 9.9117 224.89 8.44329 224.89 6.35585C224.89 4.78667 225.622 3.10951 226.866 2.0226C228.111 0.914099 229.647 0.331055 231.695 0.331055C233.415 0.331055 234.695 0.813326 235.264 1.18043C235.47 1.3028 235.591 1.26681 235.691 1.13004L235.861 0.856515C235.947 0.734147 235.982 0.683761 236.082 0.683761C236.267 0.683761 236.323 0.806128 236.323 0.993278L236.579 4.54913C236.594 4.75787 236.579 4.84425 236.508 4.85865L236.032 4.95942C235.932 4.97382 235.876 4.94502 235.826 4.78667C235.556 3.93729 235.008 2.83599 234.276 2.15937C233.607 1.51874 232.74 1.08685 231.581 1.08685C230.656 1.08685 229.803 1.38197 229.007 2.38251C228.225 3.33265 227.641 4.76507 227.641 6.31986C227.641 8.35691 228.203 10.1348 229.128 11.0706C229.931 11.884 230.578 12.2439 231.737 12.2439C232.626 12.2439 233.102 12.1719 233.664 11.8984C234.02 11.7256 234.055 11.1714 234.055 10.2716V9.02634C234.055 8.4073 233.885 8.23455 233.458 8.23455H232.74C232.64 8.23455 232.619 8.16257 232.619 8.07619V7.6443C232.619 7.57232 232.633 7.52194 232.74 7.52194C232.896 7.52194 233.728 7.57232 235.264 7.57232C236.8 7.57232 237.468 7.52194 237.603 7.52194C237.739 7.52194 237.76 7.57232 237.76 7.6587V8.09059C237.76 8.19136 237.746 8.22735 237.639 8.22735H237.141C236.835 8.22735 236.615 8.34972 236.615 8.84638V11.1282L236.608 11.1426Z" fill="#99A4B3"/>
<path d="M242.531 8.08355C242.396 8.44346 241.557 10.8116 241.557 11.3659C241.557 11.7474 241.713 12.1577 242.225 12.1577H242.822C242.993 12.1577 243.007 12.2296 243.007 12.2944V12.6759C243.007 12.8127 242.993 12.8631 242.851 12.8631C242.63 12.8631 241.926 12.8127 240.533 12.8127C239.288 12.8127 238.911 12.8631 238.67 12.8631C238.57 12.8631 238.549 12.7623 238.549 12.6399V12.3088C238.549 12.2081 238.563 12.1505 238.67 12.1505H239.111C239.523 12.1505 239.928 11.9057 240.27 11.3875C240.511 11.0276 241.72 8.01877 242.282 6.49998C242.417 6.15447 243.804 2.44026 243.953 1.97238C244.003 1.79963 244.088 1.57649 243.967 1.38214C243.917 1.31016 243.846 1.22378 243.846 1.159C243.846 1.10861 243.882 1.03663 244.017 1.00064C244.564 0.878276 245.674 0.431995 245.93 0.136873C246.015 0.0504964 246.065 -0.0214844 246.15 -0.0214844C246.25 -0.0214844 246.285 0.0792887 246.335 0.273637C246.662 1.36055 247.992 5.23311 248.312 6.33442C248.703 7.68046 249.812 10.898 250.054 11.3587C250.345 11.9273 250.786 12.1361 251.042 12.1361H251.625C251.725 12.1361 251.746 12.2081 251.746 12.2944V12.6255C251.746 12.7263 251.732 12.8487 251.59 12.8487C251.263 12.8487 250.907 12.7983 248.724 12.7983C247.309 12.7983 246.712 12.8487 246.37 12.8487C246.2 12.8487 246.186 12.7479 246.186 12.6255V12.2944C246.186 12.2081 246.2 12.1361 246.285 12.1361H246.762C247.224 12.1361 247.373 11.9633 247.274 11.517C247.117 10.898 246.456 8.68099 246.25 8.06196H242.509L242.531 8.08355ZM246.115 7.39254L244.835 2.81456C244.763 2.55543 244.735 2.43306 244.65 2.43306C244.55 2.43306 244.493 2.50504 244.444 2.6562C244.358 2.87934 242.893 6.96065 242.751 7.39254H246.115Z" fill="#99A4B3"/>
<path d="M257.058 7.41421C257.058 7.70933 257.058 11.4379 257.107 12.129H258.082C258.885 12.129 259.653 12.1289 260.57 12.0426C261.495 11.9562 262.654 9.88315 262.91 9.24252C262.959 9.14175 263.009 9.08416 263.116 9.14175L263.457 9.27851C263.507 9.3145 263.507 9.3289 263.493 9.43687C263.443 9.55923 262.76 12.4097 262.654 12.8775C262.213 12.8416 257.292 12.8272 255.721 12.8272C254.029 12.8272 253.417 12.8775 253.197 12.8775C253.076 12.8775 253.062 12.8416 253.062 12.7192V12.2873C253.062 12.2009 253.076 12.1649 253.182 12.1649H253.709C254.341 12.1649 254.441 11.9202 254.441 11.7331C254.441 11.4019 254.491 7.10469 254.491 6.04657V5.08203C254.491 3.97352 254.455 2.14521 254.441 1.87168C254.405 1.4254 254.32 1.25265 253.929 1.25265H253.296C253.197 1.25265 253.175 1.16627 253.175 1.0799V0.662406C253.175 0.576029 253.19 0.540039 253.296 0.540039C253.481 0.540039 254.1 0.590426 255.65 0.590426C257.648 0.590426 258.366 0.540039 258.515 0.540039C258.65 0.540039 258.672 0.590426 258.672 0.712793V1.10869C258.672 1.19506 258.636 1.24545 258.501 1.24545H257.698C257.171 1.24545 257.1 1.4182 257.1 1.88608C257.1 2.10922 257.051 4.72212 257.051 5.9314V7.41421H257.058Z" fill="#99A4B3"/>
<path d="M62.8882 0.525391H61.6865V26.7768H62.8882V0.525391Z" fill="#99A4B3"/>
</g>
<defs>
<clipPath id="clip0_1092_6283">
<rect width="263" height="27" fill="white" transform="translate(0.5)"/>
</clipPath>
</defs>
</svg>
