<svg width="273" height="431" viewBox="0 0 273 431" fill="none" xmlns="http://www.w3.org/2000/svg">
<path d="M216.684 431L216.684 380.84C216.684 377.052 213.952 373.981 210.581 373.981L167.473 373.981C164.102 373.981 161.369 370.91 161.369 367.122L161.369 318.677C161.369 314.889 158.636 311.818 155.265 311.818L112.157 311.818C108.786 311.818 106.053 308.746 106.053 304.958L106.053 256.513C106.053 252.725 103.321 249.654 99.9495 249.654L56.8415 249.654C53.4705 249.654 50.7377 246.583 50.7377 242.795L50.7377 194.35C50.7377 190.562 48.005 187.491 44.6339 187.491L-5.71263e-06 187.491M272 431L272 380.84C272 377.052 269.267 373.981 265.896 373.981L222.788 373.981C219.417 373.981 216.684 370.91 216.684 367.122L216.684 318.677C216.684 314.889 213.952 311.818 210.581 311.818L167.473 311.818C164.102 311.818 161.369 308.746 161.369 304.958L161.369 256.513C161.369 252.725 164.102 249.654 167.473 249.654L210.581 249.654C213.952 249.654 216.684 252.725 216.684 256.513L216.684 305.816L216.738 306.221C217.147 309.328 219.494 311.647 222.288 311.708L227.366 311.818L265.896 311.818C269.267 311.818 272 308.746 272 304.958L272 256.513C272 252.725 269.267 249.654 265.896 249.654L222.407 249.654L220.958 249.545C218.553 249.365 216.684 247.121 216.684 244.412L216.684 239.151M216.684 244.509L216.684 194.35C216.684 190.562 213.952 187.491 210.581 187.491L167.473 187.491C164.102 187.491 161.369 184.419 161.369 180.631L161.369 132.186C161.369 128.398 158.636 125.327 155.265 125.327L112.157 125.327C108.786 125.327 106.053 122.256 106.053 118.468L106.053 70.0229C106.053 66.2346 103.321 63.1635 99.9495 63.1635L56.8415 63.1635C53.4705 63.1635 50.7377 60.0924 50.7377 56.3041L50.7377 7.85943C50.7377 4.07108 48.005 1.00001 44.634 1.00001L1.05909e-05 1.00001" stroke="url(#paint0_linear_1119_8477)" stroke-opacity="0.8" stroke-width="0.431035"/>
<defs>
<linearGradient id="paint0_linear_1119_8477" x1="272" y1="431" x2="-32.2081" y2="96.0275" gradientUnits="userSpaceOnUse">
<stop offset="0.0819437" stop-color="#F5F9FF"/>
<stop offset="0.208333" stop-color="#12C2E9"/>
<stop offset="0.526042" stop-color="#1857A9"/>
<stop offset="0.9375" stop-color="#F5F9FF"/>
</linearGradient>
</defs>
</svg>
