<svg width="273" height="431" viewBox="0 0 273 431" fill="none" xmlns="http://www.w3.org/2000/svg">
<path d="M56.3156 0L56.3156 50.1595C56.3156 53.9479 59.0483 57.0189 62.4194 57.0189L105.527 57.0189C108.898 57.0189 111.631 60.09 111.631 63.8784V112.323C111.631 116.111 114.364 119.182 117.735 119.182H160.843C164.214 119.182 166.947 122.254 166.947 126.042V174.487C166.947 178.275 169.679 181.346 173.05 181.346H216.158C219.53 181.346 222.262 184.417 222.262 188.205V236.65C222.262 240.438 224.995 243.509 228.366 243.509H273M1 0L1 50.1595C1 53.9479 3.73276 57.0189 7.10379 57.0189L50.2118 57.0189C53.5828 57.0189 56.3156 60.09 56.3156 63.8784L56.3156 112.323C56.3156 116.111 59.0483 119.182 62.4194 119.182H105.527C108.898 119.182 111.631 122.254 111.631 126.042L111.631 174.487C111.631 178.275 108.898 181.346 105.527 181.346H62.4194C59.0483 181.346 56.3156 178.275 56.3156 174.487L56.3156 125.184L56.2622 124.779C55.8526 121.672 53.5059 119.353 50.7117 119.292L45.6339 119.182H7.10379C3.73276 119.182 1 122.254 1 126.042L1 174.487C1 178.275 3.73276 181.346 7.10379 181.346H50.5933L52.0422 181.455C54.447 181.635 56.3156 183.879 56.3156 186.588V191.849M56.3156 186.491L56.3156 236.65C56.3156 240.438 59.0483 243.509 62.4194 243.509H105.527C108.898 243.509 111.631 246.581 111.631 250.369L111.631 298.814C111.631 302.602 114.364 305.673 117.735 305.673H160.843C164.214 305.673 166.947 308.744 166.947 312.532L166.947 360.977C166.947 364.765 169.679 367.836 173.05 367.836H216.158C219.53 367.836 222.262 370.908 222.262 374.696V423.141C222.262 426.929 224.995 430 228.366 430L273 430" stroke="url(#paint0_linear_1119_8478)" stroke-opacity="0.8" stroke-width="0.431035"/>
<defs>
<linearGradient id="paint0_linear_1119_8478" x1="1" y1="0" x2="305.208" y2="334.972" gradientUnits="userSpaceOnUse">
<stop offset="0.0819437" stop-color="#F5F9FF"/>
<stop offset="0.208333" stop-color="#12C2E9"/>
<stop offset="0.526042" stop-color="#1857A9"/>
<stop offset="0.9375" stop-color="#F5F9FF"/>
</linearGradient>
</defs>
</svg>
